<svg width="116" height="117" viewBox="0 0 116 117" fill="none" xmlns="http://www.w3.org/2000/svg">
<path fill-rule="evenodd" clip-rule="evenodd" d="M89.913 55.9609C89.8123 56.3033 89.5341 56.6274 89.235 56.7769C89.1236 56.8325 88.9822 56.8757 88.7904 56.914C88.7656 56.919 88.7403 56.9213 88.715 56.9208C84.3105 56.8504 79.9048 56.4669 75.5668 55.7355C74.2914 56.7906 73.046 57.8744 71.8301 59.0129C73.0427 60.1203 74.2596 61.1745 75.5327 62.2273C79.902 61.5299 84.3092 61.1115 88.7534 61.0763L88.7562 61.0763C88.9214 61.0763 89.1075 61.1267 89.224 61.1655C90.126 61.4661 90.0965 62.8143 89.5184 63.4093C89.2981 63.6731 88.9487 63.81 88.6178 63.811C85.1494 63.8765 81.7122 64.1233 78.278 64.5792C81.0128 66.6512 83.8679 68.5998 86.8434 70.3972C86.8479 70.3999 86.8524 70.4027 86.8568 70.4056L86.8714 70.4153C86.9631 70.4762 87.1092 70.5731 87.2189 70.7231C87.3671 70.8816 87.421 71.0438 87.4559 71.1485L87.4587 71.1571C87.4708 71.1933 87.477 71.2312 87.477 71.2694C87.477 71.2897 87.4783 71.3025 87.4807 71.3243C87.4828 71.3445 87.4859 71.3726 87.4894 71.4217C87.4941 71.488 87.4996 71.6028 87.4637 71.7212C87.4253 71.8729 87.3777 72.0229 87.2751 72.1767C87.2621 72.1962 87.2473 72.2143 87.2307 72.2309C87.2099 72.2516 87.1882 72.2751 87.1599 72.3057L87.1594 72.3062C87.1329 72.3349 87.1007 72.3697 87.0664 72.404C86.9985 72.4719 86.9045 72.5563 86.783 72.617C86.5912 72.7129 86.3946 72.7611 86.1621 72.7611C85.9482 72.7611 85.6912 72.7201 85.4681 72.5602C81.7032 70.3087 78.1114 67.8139 74.7269 65.0757C73.2021 65.3336 71.6757 65.648 70.147 65.9935C70.6018 67.6983 71.0869 69.3987 71.629 71.0691C75.6042 72.5898 79.4398 74.3874 83.17 76.4273C83.1791 76.4323 83.188 76.4376 83.1966 76.4434C83.2013 76.4465 83.2061 76.4497 83.2112 76.4531C83.3037 76.5145 83.4516 76.6126 83.5616 76.7649C83.6352 76.8494 83.6764 76.9457 83.6998 77.0065C83.7189 77.0561 83.7388 77.119 83.7521 77.1608C83.7566 77.175 83.7603 77.1868 83.763 77.1948C83.7751 77.231 83.7812 77.269 83.7812 77.3071C83.7812 77.3275 83.7826 77.3403 83.7849 77.362C83.7871 77.3823 83.7901 77.4103 83.7937 77.4594C83.7984 77.5258 83.8038 77.6405 83.768 77.7589C83.7311 77.9047 83.6858 78.0488 83.5913 78.1962C83.424 78.5135 83.1169 78.6983 82.8128 78.7851C82.7972 78.7896 82.7814 78.793 82.7654 78.7952C82.452 78.84 82.1294 78.7966 81.8455 78.6548C81.8414 78.6527 81.8373 78.6506 81.8333 78.6484C78.8484 77.0092 75.8022 75.552 72.6944 74.2487C73.908 77.6027 75.3033 80.9195 76.8517 84.1134C76.8542 84.1184 76.8565 84.1235 76.8587 84.1286C76.8598 84.1312 76.8608 84.1338 76.8619 84.1364C76.9443 84.3423 76.9939 84.5301 76.9939 84.7655C76.9939 84.9981 76.8867 85.2412 76.8142 85.3861C76.8047 85.4051 76.7935 85.4233 76.7807 85.4403C76.7757 85.447 76.7705 85.4539 76.7651 85.4611C76.6708 85.5874 76.5192 85.7905 76.3 85.9C76.1082 85.9959 75.9116 86.0441 75.6791 86.0441C75.4873 86.0441 75.2263 85.9977 75.0039 85.831C74.8099 85.6856 74.6705 85.497 74.5794 85.315L74.5789 85.3139C72.6064 81.336 70.9123 77.1846 69.5307 72.9624C67.8181 72.3208 66.0747 71.7368 64.2998 71.1833C63.9365 72.4617 63.6252 73.7652 63.3417 75.0472C66.3281 78.6424 69.0363 82.446 71.4663 86.4579C71.6646 86.7595 71.7121 87.1136 71.6143 87.4558C71.6129 87.4607 71.6114 87.4656 71.6098 87.4705C71.5175 87.747 71.3317 88.0298 71.0433 88.222C70.9084 88.3119 70.7316 88.3659 70.6418 88.3934C70.626 88.3982 70.6129 88.4022 70.6032 88.4054C70.4237 88.4653 70.2027 88.4653 70.0231 88.4054C69.8703 88.3545 69.7289 88.2601 69.6329 88.196L69.6185 88.1864C69.4515 88.0751 69.3458 87.916 69.2809 87.8184L69.2712 87.8038C69.2697 87.8015 69.2682 87.7992 69.2667 87.7969C69.2652 87.7945 69.2637 87.792 69.2622 87.7895C67.2708 84.4723 65.0931 81.3115 62.7002 78.3067C62.0002 82.0557 61.5217 85.8338 61.3226 89.6413C61.3197 89.9977 61.1624 90.2936 60.9342 90.5216C60.7039 90.7518 60.4045 90.9098 60.0433 90.9098C59.8781 90.9098 59.692 90.8593 59.5756 90.8205C59.4055 90.7639 59.2292 90.6492 59.108 90.4675L59.0984 90.4532C59.0343 90.3573 58.9398 90.216 58.8889 90.0632C58.8345 89.9001 58.8349 89.7074 58.8351 89.611L58.8351 89.5957C58.8351 89.5934 58.8351 89.591 58.8352 89.5887C58.8352 89.5856 58.8353 89.5826 58.8355 89.5796C59.047 84.9283 59.6763 80.2792 60.6195 75.7353C59.7444 74.7048 58.8739 73.6842 57.955 72.715C56.8046 73.9975 55.6841 75.2808 54.5933 76.5914C55.3254 80.8896 55.7446 85.2553 55.8854 89.6198C55.8856 89.6236 55.8856 89.6274 55.8856 89.6312C55.8856 89.7906 55.8386 89.9695 55.8004 90.0864C55.7505 90.2752 55.6573 90.4243 55.5567 90.5323C55.4367 90.6971 55.2703 90.8025 55.1096 90.8561C54.9931 90.8949 54.807 90.9453 54.6419 90.9453C54.4417 90.9453 54.289 90.8944 54.1826 90.8589L54.1741 90.8561C54.1442 90.8461 54.1157 90.8321 54.0894 90.8146L54.0753 90.8053C53.9876 90.7469 53.8693 90.6682 53.7758 90.5811C53.6109 90.4611 53.5055 90.2948 53.4519 90.1342C53.4135 90.0192 53.3638 89.8361 53.3626 89.6725C53.2641 86.201 52.9532 82.7285 52.4578 79.2833C50.3522 82.0212 48.401 84.8798 46.6321 87.8591C46.6256 87.8701 46.6184 87.8807 46.6108 87.8909C46.6058 87.8976 46.6006 87.9046 46.5952 87.9118C46.5053 88.0322 46.3632 88.2225 46.16 88.3349C45.9506 88.4836 45.7361 88.5302 45.5092 88.5302C45.32 88.5302 45.0634 88.4851 44.8429 88.3238C44.8405 88.3221 44.838 88.3205 44.8355 88.3188C44.7429 88.2574 44.595 88.1593 44.485 88.007C44.4114 87.9225 44.3702 87.8262 44.3468 87.7654C44.3277 87.7158 44.3078 87.6529 44.2946 87.6111C44.2901 87.5969 44.2863 87.5851 44.2836 87.577C44.2716 87.5408 44.2654 87.5029 44.2654 87.4647V87.1096C44.2654 86.8988 44.321 86.7264 44.4262 86.5658C46.6453 82.8349 49.1426 79.2429 51.884 75.8583C51.6261 74.3358 51.3113 72.8132 50.9394 71.2904C49.4473 71.7393 47.9572 72.2181 46.4683 72.7522C45.0531 77.078 43.3588 81.3348 41.3506 85.4194C41.348 85.4247 41.3452 85.43 41.3423 85.4352C41.3404 85.4387 41.3384 85.4421 41.3364 85.4455C41.2026 85.6682 41.0626 85.8078 40.8895 85.9375C40.8797 85.9449 40.8696 85.9517 40.8591 85.958C40.6265 86.0975 40.4212 86.1506 40.1788 86.1506C39.9753 86.1506 39.779 86.0993 39.5934 86.0066C39.5803 86 39.5675 85.9926 39.5552 85.9844C39.5505 85.9813 39.5457 85.9781 39.5406 85.9747C39.4485 85.9136 39.3013 85.8159 39.1914 85.6646C39.0765 85.5366 38.993 85.3522 38.9533 85.233C38.9504 85.2244 38.9479 85.2156 38.9456 85.2068C38.8994 85.0221 38.8995 84.8783 38.8995 84.7397V84.73C38.8995 84.5688 38.9471 84.3678 39.0509 84.2009C40.6702 80.8633 42.1039 77.4337 43.3235 73.941C40.1067 75.2184 36.9561 76.6791 33.9287 78.3229C33.7601 78.4301 33.5553 78.4792 33.3914 78.4792C33.3866 78.4792 33.3815 78.4792 33.3761 78.4792C33.2796 78.4794 33.0869 78.4798 32.9237 78.4254C32.7958 78.3828 32.593 78.29 32.465 78.162C32.3684 78.0655 32.2805 77.9335 32.2168 77.8379L32.2074 77.8238C32.0932 77.6526 32.0411 77.4403 32.0411 77.2716C32.0411 77.2668 32.0411 77.2617 32.0411 77.2563C32.0409 77.1599 32.0405 76.9672 32.0949 76.8041C32.1458 76.6514 32.2403 76.5101 32.3044 76.4142C32.3077 76.4093 32.3109 76.4045 32.314 76.3998C32.4254 76.2328 32.5846 76.1271 32.6823 76.0624C32.6873 76.059 32.6921 76.0558 32.6968 76.0527C32.7051 76.0472 32.7136 76.042 32.7224 76.0372C36.4907 73.9605 40.3971 72.1968 44.4071 70.7118C44.9132 69.1485 45.3633 67.5558 45.7833 65.9583C44.2541 65.6126 42.7273 65.2982 41.202 65.0402C37.8176 67.7784 34.2257 70.2732 30.4609 72.5247C30.2378 72.6846 29.9808 72.7256 29.7668 72.7256C29.5761 72.7256 29.343 72.68 29.1459 72.5815C28.9779 72.4975 28.7641 72.3522 28.6416 72.1223C28.5589 71.9902 28.5085 71.8255 28.4823 71.7399C28.4774 71.7241 28.4734 71.7111 28.4702 71.7014C28.4104 71.5219 28.4104 71.301 28.4702 71.1216C28.5212 70.9688 28.6156 70.8275 28.6797 70.7316L28.6893 70.7172C28.8007 70.5503 28.96 70.4446 29.0576 70.3798C29.0626 70.3765 29.0675 70.3732 29.0722 70.3701C29.0765 70.3672 29.081 70.3644 29.0855 70.3617C32.0658 68.5614 34.9542 66.6103 37.6949 64.5088C34.251 64.0476 30.7812 63.7728 27.313 63.74C27.154 63.7396 26.9759 63.6928 26.8594 63.6548C26.6623 63.6027 26.489 63.4971 26.3656 63.3286C26.2431 63.2014 26.1439 63.0569 26.0893 62.8934L26.0865 62.8849C26.051 62.7785 26 62.626 26 62.4259C26 62.0506 26.1419 61.7107 26.3884 61.4644C26.6299 61.223 26.968 61.0763 27.3148 61.0763H27.3176C31.7598 61.1115 36.202 61.4949 40.5758 62.2264C41.822 61.2024 43.0624 60.1521 44.2476 59.0482C43.06 57.9102 41.8153 56.8262 40.5383 55.7698C36.169 56.4673 31.7619 56.8856 27.3176 56.9209L27.3148 56.9209C27.1497 56.9209 26.9635 56.8704 26.8471 56.8316C26.6869 56.7783 26.5211 56.6734 26.4011 56.5095C26.2787 56.3823 26.1794 56.2378 26.1248 56.0743C26.122 56.0656 26.1194 56.0569 26.1172 56.0481C26.1128 56.0306 26.1079 56.0118 26.1026 55.992C26.0736 55.8825 26.0355 55.7391 26.0355 55.5713C26.0355 55.2255 26.1812 54.9079 26.344 54.664C26.3569 54.6445 26.3718 54.6264 26.3884 54.6098C26.6183 54.38 26.9172 54.2222 27.2776 54.2217C30.7824 54.1889 34.2569 53.944 37.7293 53.4869C34.9878 51.3802 32.0996 49.3992 29.121 47.6C29.1077 47.592 29.095 47.5831 29.0828 47.5734C28.8477 47.3854 28.6679 47.1131 28.5768 46.8401C28.4679 46.5135 28.5277 46.1515 28.7249 45.856C28.9079 45.5816 29.152 45.3822 29.4915 45.2853C29.8343 45.1874 30.1744 45.238 30.4588 45.3801C30.4675 45.3845 30.476 45.3892 30.4843 45.3943C34.2535 47.6827 37.8489 50.2146 41.2702 52.9899C42.8013 52.7029 44.3243 52.4154 45.8193 52.0754C45.3638 50.3391 44.8776 48.6317 44.3338 46.9261C40.3617 45.3727 36.4943 43.577 32.8002 41.573C32.4741 41.4075 32.2851 41.096 32.1969 40.7876C32.1925 40.7721 32.1891 40.7563 32.1868 40.7403C32.1481 40.4697 32.132 40.1089 32.3495 39.7827C32.3527 39.778 32.3559 39.7731 32.3592 39.7681C32.4203 39.6762 32.5177 39.5295 32.6685 39.4198C32.8258 39.2767 33.0209 39.2169 33.1088 39.1899C33.12 39.1865 33.1295 39.1835 33.1369 39.1811C33.1456 39.1782 33.1543 39.1757 33.1631 39.1735C33.3479 39.1273 33.4918 39.1273 33.6305 39.1273H33.6402C33.849 39.1273 34.0202 39.1818 34.1796 39.2849C37.1317 40.9236 40.1742 42.4099 43.3072 43.7161C42.097 40.3593 40.732 37.0416 39.1838 33.8482C39.1814 33.8433 39.1791 33.8383 39.177 33.8333C39.0473 33.5309 38.9917 33.1968 39.0909 32.85C39.1863 32.5162 39.4201 32.2265 39.7167 32.0713C39.8844 31.9658 40.0873 31.9176 40.2499 31.9176C40.2547 31.9176 40.2598 31.9176 40.2652 31.9175C40.3617 31.9173 40.5544 31.917 40.7176 31.9713C40.8704 32.0222 41.0119 32.1167 41.1078 32.1807C41.1127 32.184 41.1175 32.1872 41.1222 32.1903C41.1416 32.2033 41.1598 32.2181 41.1763 32.2347C41.2729 32.3312 41.3609 32.4633 41.4246 32.5589C41.4277 32.5637 41.4309 32.5684 41.4339 32.5729C41.4428 32.5863 41.4508 32.6001 41.4578 32.6145C43.3945 36.5914 45.0881 40.7425 46.4697 44.9651C48.1447 45.6046 49.8504 46.1869 51.5874 46.7388C51.9307 45.4534 52.2681 44.1478 52.5525 42.8428C49.6011 39.2485 46.8929 35.4446 44.4971 31.4312C44.4105 31.2975 44.3581 31.1263 44.3313 31.0385C44.3264 31.0227 44.3224 31.0096 44.3192 30.9999C44.2649 30.8371 44.2598 30.6401 44.3041 30.471C44.3147 30.3669 44.3503 30.2788 44.3829 30.2138C44.4196 30.1404 44.4658 30.0711 44.4985 30.0222L44.5028 30.0158C44.6141 29.8488 44.7734 29.7432 44.871 29.6784C44.876 29.675 44.8809 29.6718 44.8856 29.6687C45.0206 29.5787 45.1974 29.5247 45.2871 29.4973C45.3029 29.4924 45.316 29.4884 45.3257 29.4852C45.5007 29.4269 45.7151 29.4254 45.8921 29.4808C45.9907 29.5066 46.0728 29.5427 46.1334 29.5707C46.1505 29.5786 46.1651 29.5854 46.1777 29.5913C46.2188 29.6104 46.2391 29.6199 46.2612 29.6272C46.2911 29.6372 46.3196 29.6512 46.3459 29.6687C46.513 29.78 46.6187 29.9391 46.6835 30.0367C46.6869 30.0417 46.6901 30.0466 46.6932 30.0513C46.6968 30.0567 46.7003 30.0622 46.7036 30.0678C48.6594 33.3809 50.8328 36.5392 53.195 39.5428C53.89 35.8261 54.3369 32.0492 54.5357 28.2409C54.5363 28.2303 54.5373 28.2197 54.5388 28.2092C54.5852 27.8845 54.7271 27.6009 54.9592 27.369C55.2235 27.1048 55.5753 27.0163 55.8856 27.0163C56.2227 27.0163 56.5447 27.1552 56.7385 27.3005C56.7624 27.3184 56.784 27.3394 56.8028 27.3627C56.9856 27.5911 57.1294 27.9158 57.1294 28.2594C57.1294 28.2656 57.1292 28.2719 57.1289 28.2781C56.8823 32.9607 56.2877 37.575 55.3105 42.1207C56.1831 43.1435 57.0826 44.1407 57.9875 45.1392C59.1618 43.889 60.2809 42.6091 61.3712 41.2992C60.639 37.001 60.2202 32.6344 60.1145 28.268L60.1144 28.2594C60.1144 27.9492 60.2029 27.5976 60.4672 27.3335C60.6975 27.1033 60.997 26.9453 61.3581 26.9453C61.5233 26.9453 61.7094 26.9958 61.8259 27.0346C61.8558 27.0446 61.8843 27.0585 61.9106 27.076L61.9247 27.0854C62.0124 27.1437 62.1307 27.2224 62.2242 27.3095C62.3891 27.4295 62.4945 27.5958 62.5481 27.7564C62.5865 27.8714 62.6362 28.0545 62.6374 28.2181C62.7359 31.6893 63.0467 35.1312 63.5421 38.5719C65.6478 35.8341 67.5994 32.9774 69.3688 30.0301C69.3717 30.0252 69.3747 30.0205 69.3778 30.0158C69.381 30.0111 69.3842 30.0062 69.3875 30.0012C69.4484 29.9095 69.5454 29.7635 69.6955 29.6539C69.8541 29.5058 70.0164 29.4518 70.1211 29.417L70.1297 29.4141C70.1659 29.4021 70.2039 29.3959 70.2421 29.3959C70.2624 29.3959 70.2753 29.3945 70.297 29.3922C70.3173 29.39 70.3453 29.387 70.3944 29.3835C70.4608 29.3788 70.5756 29.3733 70.6941 29.4092C70.8399 29.446 70.9842 29.4914 71.1317 29.5857C71.4492 29.753 71.634 30.0599 71.7209 30.3638C71.7246 30.3767 71.7276 30.3898 71.7298 30.403C71.777 30.6865 71.7323 31.0471 71.5905 31.3306C71.5863 31.339 71.5817 31.3472 71.5768 31.3553C69.3227 35.0866 66.8248 38.6447 64.0829 41.9953C64.3712 43.5534 64.688 45.1101 65.0332 46.6399C66.5166 46.2167 68.002 45.7144 69.4964 45.2061C70.9129 40.8098 72.6426 36.5179 74.6855 32.3991L74.686 32.398C74.8593 32.0517 75.1927 31.9065 75.4246 31.8292C75.7515 31.7203 76.064 31.7839 76.3355 31.9195C76.3579 31.9307 76.379 31.9443 76.3986 31.9599C76.5869 32.1105 76.8349 32.3421 76.9401 32.6576C76.9417 32.6625 76.9433 32.6674 76.9447 32.6724C77.0324 32.9791 77.0371 33.3017 76.9401 33.5926C76.9352 33.6072 76.9294 33.6215 76.9227 33.6354C75.2636 37.0511 73.7917 40.5277 72.5356 44.0944C75.7891 42.8184 78.9511 41.385 82.0508 39.7372C82.0621 39.7312 82.0738 39.7258 82.0857 39.721C82.3546 39.6135 82.6913 39.6211 82.9697 39.7138C83.2612 39.8109 83.5139 40.0089 83.6666 40.3062C83.8173 40.5651 83.8577 40.8943 83.8126 41.1706C83.7588 41.5381 83.5457 41.7878 83.328 41.9618C83.3112 41.9753 83.2932 41.9872 83.2742 41.9974C79.4725 44.0379 75.5321 45.8006 71.4874 47.2855C71.0153 48.777 70.5979 50.2708 70.1832 51.7959C71.7457 52.1698 73.3114 52.4884 74.9069 52.7778C78.2596 50.0722 81.8188 47.6108 85.5152 45.359C85.5237 45.3539 85.5324 45.3491 85.5412 45.3446C85.8256 45.2025 86.1657 45.1519 86.5085 45.2498C86.848 45.3467 87.0921 45.5461 87.2751 45.8204C87.2833 45.8327 87.2907 45.8455 87.2973 45.8586C87.4142 46.0923 87.5309 46.3986 87.4342 46.7664C87.3746 47.1298 87.1572 47.3795 86.8923 47.556C86.8876 47.5592 86.8828 47.5622 86.878 47.5651C83.9362 49.3292 81.114 51.2751 78.4115 53.3473C81.8199 53.808 85.2544 54.0824 88.6871 54.1151C88.8461 54.1155 89.0241 54.1623 89.1406 54.2003C89.3377 54.2524 89.511 54.358 89.6344 54.5265C89.7569 54.6537 89.8561 54.7982 89.9107 54.9617C89.9136 54.9704 89.9161 54.9791 89.9183 54.9879C89.9227 55.0055 89.9277 55.0242 89.9329 55.044C89.962 55.1535 90 55.297 90 55.4647C90 55.657 89.9539 55.8368 89.913 55.9609ZM68.3174 63.6872C68.3279 63.6837 68.3385 63.6807 68.3493 63.6782C68.6377 63.6111 68.9252 63.544 69.2118 63.4771C70.2027 63.2458 71.1837 63.0168 72.1626 62.8005C71.0691 61.8655 70.0029 60.8827 68.9641 59.875L68.9603 59.8713C68.73 59.6411 68.5719 59.3418 68.5719 58.9808C68.5719 58.6199 68.73 58.3206 68.9603 58.0904C68.9627 58.0879 68.9652 58.0855 68.9678 58.0831C70.0396 57.0731 71.1124 56.0885 72.2311 55.1071C70.9327 54.8477 69.636 54.5415 68.3417 54.2106C68.3335 54.2085 68.3254 54.2061 68.3174 54.2034C68.1645 54.1525 68.0231 54.0581 67.9272 53.994L67.9128 53.9844C67.7458 53.8731 67.64 53.714 67.5752 53.6164C67.5719 53.6114 67.5686 53.6065 67.5655 53.6018C67.548 53.5755 67.534 53.5471 67.5241 53.5171C67.5203 53.5057 67.5143 53.4909 67.5029 53.4642C67.4931 53.4413 67.4771 53.405 67.4629 53.368C67.4364 53.2993 67.4073 53.2073 67.4006 53.0963C67.3633 52.924 67.3595 52.7337 67.412 52.5636C67.7498 51.1525 68.1147 49.7387 68.5297 48.346C67.1519 48.7985 65.7897 49.222 64.3992 49.5926C64.3693 49.6005 64.3385 49.6046 64.3076 49.6046H64.0944C63.8615 49.6046 63.5221 49.5704 63.2745 49.323C63.2689 49.3173 63.263 49.3115 63.257 49.3055C63.1272 49.1763 62.9169 48.9672 62.8582 48.6486C62.5261 47.3201 62.2197 45.9669 61.9391 44.6323C60.9364 45.7881 59.8893 46.8962 58.8481 47.998L58.8447 48.0016C58.8424 48.0041 58.84 48.0065 58.8376 48.0089C58.6073 48.239 58.3078 48.397 57.9467 48.397C57.6283 48.397 57.292 48.245 57.0558 48.0089C57.0529 48.006 57.0501 48.0031 57.0473 48.0001C56.2058 47.099 55.3897 46.1979 54.5777 45.2757C54.2995 46.4083 53.9964 47.5409 53.6684 48.6734C53.6651 48.6846 53.6613 48.6957 53.657 48.7065C53.5737 48.9147 53.429 49.1763 53.1545 49.3409C52.9453 49.4663 52.7037 49.5691 52.4031 49.5691H52.1544C52.1198 49.5691 52.0854 49.564 52.0522 49.5541C50.492 49.0863 48.9298 48.5906 47.3666 48.0431C47.8179 49.5676 48.2181 51.0946 48.591 52.6471C48.5975 52.6743 48.6008 52.7021 48.6008 52.73C48.6008 52.7631 48.6028 52.7836 48.6058 52.8147C48.6079 52.8359 48.6105 52.8619 48.6132 52.9C48.6183 52.971 48.6202 53.0596 48.6 53.1626C48.593 53.3581 48.5361 53.5206 48.4345 53.6728C48.4314 53.6775 48.4281 53.6824 48.4248 53.6874C48.36 53.785 48.2542 53.9442 48.0872 54.0555C47.9406 54.1532 47.7954 54.2015 47.6926 54.2356L47.6826 54.239C47.6727 54.2423 47.6627 54.2451 47.6525 54.2475C46.3932 54.5472 45.1033 54.8482 43.8076 55.1066C44.9042 56.0603 45.9957 57.042 47.0359 58.0512L47.0397 58.0549C47.27 58.285 47.4281 58.5844 47.4281 58.9453C47.4281 59.3063 47.27 59.6056 47.0397 59.8357L47.0359 59.8395C45.9926 60.8516 44.924 61.81 43.8319 62.7586C45.1071 63.0285 46.3659 63.3071 47.6257 63.636C47.7324 63.6458 47.8228 63.6822 47.8891 63.7153C47.9625 63.752 48.0318 63.7982 48.0808 63.8309L48.0872 63.8352C48.2542 63.9465 48.36 64.1056 48.4248 64.2032C48.4281 64.2082 48.4314 64.2131 48.4345 64.2178C48.452 64.2441 48.4659 64.2725 48.4759 64.3025L48.4767 64.3049C48.5122 64.4113 48.5513 64.5285 48.5902 64.6838C48.6357 64.8659 48.6445 65.0721 48.5883 65.2551C48.2473 66.7095 47.8532 68.1624 47.4294 69.6133C48.7825 69.1615 50.1421 68.7389 51.5298 68.3691C51.5407 68.3662 51.5517 68.3638 51.5629 68.3619C51.8519 68.3138 52.1766 68.3618 52.4554 68.5011C52.4686 68.5077 52.4814 68.5151 52.4936 68.5233C52.7681 68.7062 52.9676 68.9501 53.0646 69.2895C53.0655 69.2926 53.0664 69.2958 53.0672 69.299C53.4006 70.6017 53.708 71.9547 53.9895 73.2921C54.9841 72.1374 56.0043 71.0298 57.0487 69.9245C57.0496 69.9236 57.0505 69.9226 57.0515 69.9216C57.0529 69.9202 57.0543 69.9187 57.0558 69.9173C57.2861 69.6871 57.5855 69.5291 57.9467 69.5291C58.3078 69.5291 58.6073 69.6871 58.8376 69.9173L58.842 69.9217C59.686 70.7953 60.5037 71.6935 61.3162 72.6156C61.5945 71.4907 61.8975 70.3835 62.225 69.2528C62.2263 69.2482 62.2277 69.2437 62.2292 69.2392C62.2802 69.0865 62.3747 68.9451 62.4388 68.8492L62.4484 68.8349C62.5597 68.6679 62.719 68.5622 62.8166 68.4975C62.8216 68.4941 62.8265 68.4909 62.8312 68.4878C63.0025 68.3736 63.2149 68.3216 63.3837 68.3216C63.3885 68.3216 63.3936 68.3216 63.399 68.3215C63.4941 68.3214 63.6828 68.321 63.8444 68.373C65.4466 68.8441 67.0475 69.37 68.6464 69.9262C68.2121 68.396 67.7834 66.8382 67.409 65.279C67.4025 65.2519 67.3992 65.2241 67.3992 65.1961C67.3992 65.163 67.3972 65.1425 67.3941 65.1114C67.3921 65.0903 67.3895 65.0643 67.3868 65.0261C67.3817 64.9552 67.3798 64.8666 67.4 64.7636C67.407 64.5681 67.4639 64.4056 67.5655 64.2533C67.5686 64.2486 67.5719 64.2437 67.5752 64.2387C67.64 64.1411 67.7458 63.982 67.9128 63.8707C68.0594 63.773 68.2046 63.7247 68.3074 63.6905L68.3174 63.6872Z" fill="black"/>
</svg>
