<svg width="400" height="400" viewBox="0 0 400 400" fill="none" xmlns="http://www.w3.org/2000/svg">
<g clip-path="url(#clip0_804_835)">
<rect width="400" height="400" fill="black"/>
<path d="M309.478 209.659C309.231 209.287 308.859 209.04 308.487 208.916C308.115 208.792 307.62 208.668 307.248 208.668C291.635 208.792 276.146 210.278 260.781 212.755C255.824 208.668 251.115 204.581 246.407 200.247C251.115 195.788 255.948 191.578 260.904 187.491C276.146 190.092 291.635 191.454 307.124 191.702C307.744 191.578 308.115 191.454 308.363 191.33C309.107 190.959 309.85 190.092 310.098 189.225C310.222 188.853 310.346 188.358 310.346 187.862C310.346 187.367 310.222 186.996 310.098 186.5C309.974 186.129 309.726 185.757 309.355 185.386C309.107 185.014 308.735 184.766 308.239 184.642C307.868 184.519 307.372 184.395 307 184.395C293.989 184.271 280.978 183.156 268.091 181.299C278.252 173.373 288.909 165.942 300.061 159.255C300.805 158.759 301.3 158.14 301.424 157.273C301.672 156.406 301.424 155.663 301.052 154.92C300.557 154.177 299.937 153.682 299.07 153.434C298.202 153.186 297.335 153.31 296.592 153.682C283.581 161.608 271.065 170.277 259.294 179.813C253.098 178.698 247.026 177.46 240.954 175.973C242.565 170.029 244.176 164.208 246.035 158.388C260.285 153.186 274.163 146.994 287.546 139.811C288.165 139.316 288.661 138.696 288.785 137.83C288.909 137.086 288.785 136.22 288.413 135.6C288.041 134.857 287.422 134.362 286.678 134.114C285.935 133.867 285.068 133.867 284.448 134.114C272.8 140.306 260.904 145.632 248.637 150.338C253.222 136.963 258.674 123.959 264.87 111.203C265.118 110.46 265.118 109.593 264.87 108.726C264.622 107.983 264.002 107.364 263.383 106.869C262.639 106.497 261.896 106.373 261.152 106.621C260.409 106.869 259.665 107.24 259.294 107.983C252.107 122.473 246.035 137.582 241.078 153.062C235.254 155.044 229.43 157.025 223.607 158.635C222.244 152.691 221.004 146.622 219.889 140.554C229.554 128.789 238.352 116.281 246.283 103.153C246.654 102.41 246.778 101.419 246.654 100.676C246.407 99.8095 245.911 99.0664 245.167 98.6949C244.796 98.4472 244.424 98.3234 243.928 98.1995C243.557 98.0757 243.061 98.1995 242.689 98.1995C242.317 98.3234 241.946 98.4472 241.574 98.8187C241.202 99.0664 240.954 99.438 240.707 99.8095C234.015 110.955 226.58 121.73 218.526 132.009C216.543 119.005 215.304 106.002 214.933 92.8742C214.933 92.5027 214.809 92.0073 214.685 91.6358C214.561 91.2643 214.313 90.8927 213.941 90.645C213.693 90.3974 213.322 90.1497 212.95 89.902C212.578 89.7781 212.083 89.6543 211.711 89.6543C210.843 89.6543 210.1 90.0258 209.48 90.645C208.861 91.2643 208.613 92.1312 208.613 92.9981C208.985 108.355 210.472 123.711 213.074 138.82C208.861 143.898 204.524 148.852 199.939 153.682C196.346 149.719 192.752 145.756 189.283 141.669C192.752 125.693 194.859 109.469 195.726 92.9981C195.726 92.1312 195.354 91.2643 194.859 90.645C194.363 90.2735 193.496 89.902 192.628 89.902C191.761 89.902 190.893 90.1497 190.274 90.7689C189.654 91.3881 189.283 92.1312 189.159 92.9981C188.415 107.24 186.68 121.358 183.954 135.229C175.033 124.083 166.854 112.318 159.543 99.9333C159.296 99.5618 159.048 99.1903 158.676 98.9426C158.304 98.8187 157.932 98.571 157.437 98.4472C157.065 98.3234 156.569 98.3234 156.198 98.4472C155.826 98.571 155.33 98.6949 154.959 98.9426C154.587 99.1903 154.215 99.438 153.967 99.8095C153.719 100.181 153.472 100.553 153.472 100.924C153.348 101.296 153.348 101.791 153.472 102.163C153.596 102.534 153.719 103.029 153.967 103.401C162.393 117.519 171.935 130.894 182.343 143.526C181.228 148.728 179.865 153.929 178.502 159.007C171.811 156.901 165.243 154.672 158.8 152.195C153.967 137.334 148.019 122.721 141.204 108.726C140.956 108.355 140.709 107.983 140.461 107.735C140.089 107.488 139.717 107.24 139.345 107.116C138.974 106.992 138.478 106.992 138.106 106.992C137.735 106.992 137.239 107.116 136.867 107.364C136.124 107.735 135.504 108.479 135.256 109.345C135.009 110.212 135.132 111.079 135.504 111.946C141.328 123.959 146.409 136.467 150.869 149.099C138.974 144.269 127.45 138.696 116.298 132.504C115.926 132.257 115.554 132.133 115.058 132.133C114.563 132.133 114.191 132.133 113.695 132.257C113.324 132.38 112.828 132.504 112.456 132.876C112.085 133.123 111.837 133.495 111.589 133.867C111.093 134.61 111.093 135.476 111.217 136.343C111.465 137.21 111.961 137.953 112.704 138.325C125.715 145.384 139.345 151.7 153.348 157.149C155.454 163.713 157.313 170.277 159.048 176.964C153.224 178.326 147.276 179.441 141.328 180.556C129.309 170.772 116.669 161.855 103.411 153.805C102.667 153.434 101.8 153.31 100.932 153.558C100.065 153.805 99.4454 154.301 98.9497 155.044C98.4541 155.787 98.3302 156.654 98.578 157.397C98.8258 158.14 99.3215 158.883 99.9411 159.378C111.217 166.19 122.122 173.744 132.406 181.794C119.272 183.652 106.137 184.642 92.878 184.766C92.0106 184.766 91.2671 185.138 90.6476 185.757C90.1519 186.5 89.7802 187.367 89.7802 188.234C89.7802 188.729 89.9041 189.101 90.028 189.596C90.1519 189.968 90.3997 190.339 90.7715 190.711C91.0193 191.082 91.391 191.33 91.7628 191.454C92.1345 191.578 92.6302 191.702 93.0019 191.702C108.615 191.578 124.104 190.092 139.469 187.615C144.426 191.702 149.259 195.912 153.843 200.371C149.259 204.705 144.426 208.792 139.593 212.755C124.228 210.154 108.615 208.792 93.0019 208.668C92.1345 208.668 91.2671 209.04 90.6476 209.659C90.028 210.278 89.6562 211.145 89.6562 212.136C89.6562 212.631 89.7802 213.003 89.9041 213.374C90.028 213.746 90.2758 214.117 90.6476 214.489C90.8954 214.86 91.2671 215.108 91.7628 215.232C92.1345 215.356 92.6302 215.48 93.0019 215.48C106.137 215.603 119.272 216.718 132.282 218.576C121.998 226.626 111.093 234.056 99.8171 240.868C99.4454 241.115 99.0737 241.363 98.8258 241.734C98.578 242.106 98.3302 242.478 98.2063 242.849C98.0824 243.221 98.0824 243.716 98.2063 244.087C98.3302 244.459 98.4541 244.954 98.7019 245.326C98.9497 245.821 99.4454 246.193 99.9411 246.441C100.437 246.688 101.056 246.812 101.552 246.812C102.171 246.812 102.791 246.688 103.287 246.317C116.545 238.391 129.185 229.598 141.08 219.938C147.028 220.929 152.976 222.167 158.924 223.529C157.313 229.722 155.578 235.914 153.596 241.982C139.469 247.184 125.715 253.376 112.456 260.683C112.085 260.93 111.713 261.178 111.465 261.549C111.217 261.921 110.969 262.293 110.845 262.664C110.722 263.036 110.722 263.531 110.722 263.903C110.722 264.274 110.845 264.769 111.093 265.141C111.341 265.512 111.589 265.884 111.837 266.132C112.085 266.379 112.58 266.627 112.952 266.751C113.324 266.875 113.819 266.875 114.191 266.875C114.563 266.875 115.058 266.751 115.43 266.503C126.83 260.311 138.726 254.862 150.869 250.156C146.409 263.283 141.08 276.163 135.009 288.671C134.761 289.043 134.637 289.538 134.637 289.91C134.637 290.405 134.637 290.777 134.761 291.272C134.885 291.644 135.132 292.139 135.38 292.387C135.628 292.758 136 293.006 136.372 293.253C136.867 293.501 137.363 293.625 137.859 293.625C138.478 293.625 138.974 293.501 139.593 293.13C140.089 292.758 140.461 292.387 140.832 291.767C147.896 277.401 153.843 262.416 158.8 247.184C164.624 245.078 170.448 243.221 176.272 241.487C177.759 247.431 178.998 253.376 179.989 259.32C170.324 271.209 161.526 283.841 153.719 296.969C153.472 297.34 153.348 297.712 153.348 298.207C153.348 298.703 153.348 299.074 153.348 299.446C153.472 299.817 153.596 300.313 153.843 300.56C154.091 300.932 154.463 301.179 154.835 301.427C155.33 301.799 155.95 301.923 156.446 301.923C157.065 301.923 157.561 301.799 158.056 301.427C158.552 301.179 158.924 300.684 159.296 300.189C165.987 288.919 173.422 278.145 181.476 267.866C183.459 280.869 184.698 293.997 185.07 307.124C185.07 307.496 185.193 307.991 185.317 308.362C185.441 308.734 185.689 309.105 186.061 309.353C186.309 309.601 186.68 309.849 187.052 310.096C187.424 310.22 187.796 310.344 188.291 310.344C188.663 310.344 189.159 310.22 189.53 310.096C189.902 309.972 190.274 309.725 190.522 309.353C190.77 309.105 191.017 308.734 191.141 308.239C191.265 307.867 191.389 307.372 191.389 307C190.893 291.644 189.406 276.287 186.804 261.178C191.017 256.1 195.354 251.147 199.815 246.193C203.533 250.032 207.002 254.119 210.472 258.206C207.126 274.182 204.896 290.529 204.152 306.876C204.152 307.248 204.152 307.743 204.276 308.115C204.4 308.486 204.648 308.858 204.896 309.229C205.143 309.601 205.515 309.849 205.887 309.972C206.259 310.096 206.754 310.22 207.126 310.22C207.993 310.22 208.737 309.849 209.357 309.229C209.976 308.61 210.348 307.867 210.348 307C211.091 292.758 212.95 278.64 215.676 264.646C224.722 275.792 232.9 287.557 240.335 299.941C240.583 300.313 240.83 300.684 241.202 300.932C241.574 301.179 241.946 301.427 242.317 301.551C242.689 301.675 243.185 301.675 243.557 301.551C243.928 301.427 244.424 301.303 244.796 301.056C245.539 300.56 246.035 299.817 246.283 299.074C246.531 298.207 246.407 297.34 245.911 296.597C237.361 282.479 227.82 269.104 217.287 256.472C218.402 251.394 219.641 246.193 221.128 241.115C227.944 243.221 234.635 245.45 241.202 247.927C246.035 262.788 251.983 277.401 258.922 291.396C259.17 291.891 259.541 292.387 260.037 292.758C260.533 293.13 261.152 293.253 261.648 293.253C262.268 293.253 262.763 293.13 263.259 292.882C263.754 292.634 264.126 292.139 264.498 291.644C264.746 291.148 264.994 290.529 264.994 290.034C264.994 289.414 264.87 288.919 264.622 288.3C258.798 276.287 253.594 263.779 249.133 251.147C260.904 255.976 272.428 261.426 283.705 267.618C284.448 267.989 285.315 268.113 286.183 267.989C287.05 267.742 287.794 267.246 288.165 266.503C288.413 266.132 288.537 265.76 288.661 265.265C288.785 264.893 288.661 264.398 288.661 264.026C288.537 263.655 288.413 263.159 288.165 262.912C287.918 262.54 287.546 262.293 287.174 262.045C274.039 254.862 260.533 248.546 246.531 243.221C244.424 236.781 242.565 230.217 240.831 223.653C246.778 222.291 252.726 221.053 258.674 220.062C270.57 229.722 283.209 238.515 296.468 246.441C296.963 246.812 297.583 246.936 298.202 246.936C298.822 246.936 299.318 246.812 299.813 246.564C300.309 246.317 300.681 245.821 301.052 245.45C301.3 245.078 301.424 244.707 301.548 244.211C301.672 243.84 301.548 243.344 301.548 242.973C301.424 242.601 301.3 242.23 300.928 241.858C300.681 241.487 300.309 241.239 299.937 240.991C288.661 234.18 277.881 226.749 267.596 218.823C280.607 216.966 293.618 215.975 306.752 215.727C307.62 215.727 308.487 215.356 308.983 214.737C309.602 214.117 309.974 213.25 309.974 212.383C309.974 211.888 309.85 211.517 309.726 211.021C309.974 210.278 309.726 209.907 309.478 209.659ZM236.37 217.709C235.998 217.833 235.626 217.956 235.254 218.204C234.883 218.452 234.635 218.823 234.387 219.195C234.139 219.566 234.015 219.938 234.015 220.433C233.891 220.929 234.015 221.3 234.015 221.796C235.502 227.988 237.237 234.18 238.972 240.248C232.652 238.019 226.333 235.914 220.013 234.056C219.641 233.932 219.146 233.932 218.774 233.932C218.402 233.932 217.907 234.056 217.535 234.304C217.163 234.552 216.791 234.799 216.543 235.171C216.296 235.542 216.048 235.914 215.924 236.285C214.561 240.991 213.322 245.574 212.207 250.28C208.861 246.441 205.515 242.725 202.046 239.134C201.426 238.515 200.683 238.143 199.815 238.143C198.948 238.143 198.204 238.515 197.585 239.134C193.372 243.592 189.283 248.05 185.317 252.757C184.202 247.307 182.963 241.734 181.6 236.409C181.352 235.542 180.856 234.923 180.113 234.428C179.369 234.056 178.502 233.932 177.759 234.056C172.183 235.542 166.73 237.276 161.278 239.134C163.013 233.313 164.624 227.492 165.987 221.672C166.111 221.3 166.111 220.805 165.987 220.309C165.863 219.814 165.739 219.443 165.615 219.071C165.367 218.7 165.119 218.328 164.748 218.08C164.376 217.833 164.004 217.585 163.633 217.585C158.428 216.223 153.224 215.108 147.896 213.993C152.356 210.154 156.693 206.315 160.906 202.228C161.526 201.609 161.898 200.866 161.898 199.999C161.898 199.132 161.526 198.389 160.906 197.77C156.693 193.683 152.232 189.72 147.772 185.881C153.1 184.89 158.428 183.652 163.633 182.413C164.004 182.289 164.376 182.166 164.748 181.918C165.119 181.67 165.367 181.299 165.615 180.927C165.863 180.556 165.987 180.184 165.987 179.689C166.111 179.193 165.987 178.822 165.987 178.326C164.5 172.134 162.889 166.066 161.03 159.998C167.226 162.227 173.422 164.208 179.617 166.066H180.485C181.228 166.066 181.848 165.818 182.467 165.447C183.087 165.075 183.459 164.456 183.706 163.837C185.07 159.131 186.309 154.425 187.424 149.719C190.77 153.558 194.115 157.273 197.585 160.988C198.204 161.608 199.072 161.979 199.815 161.979C200.683 161.979 201.426 161.608 202.046 160.988C206.259 156.53 210.472 152.072 214.437 147.366C215.552 152.815 216.791 158.388 218.154 163.837C218.278 164.58 218.774 165.075 219.27 165.571C219.765 166.066 220.509 166.19 221.252 166.19H221.996C227.572 164.704 233.024 162.97 238.6 161.112C236.865 166.685 235.378 172.382 234.015 178.079C233.891 178.45 233.891 178.946 234.015 179.441C234.015 179.936 234.263 180.308 234.387 180.679C234.635 181.051 234.883 181.423 235.254 181.67C235.626 181.918 235.998 182.166 236.37 182.289C241.698 183.652 247.026 184.89 252.354 185.881C247.77 189.844 243.433 193.807 239.096 197.894C238.476 198.513 238.104 199.256 238.104 200.123C238.104 200.99 238.476 201.733 239.096 202.352C243.309 206.439 247.646 210.402 252.107 214.117C246.902 215.232 241.698 216.47 236.37 217.709Z" fill="white"/>
</g>
<defs>
<clipPath id="clip0_804_835">
<rect width="400" height="400" fill="white"/>
</clipPath>
</defs>
</svg>
