<svg width="41" height="43" viewBox="0 0 41 43" fill="none" xmlns="http://www.w3.org/2000/svg">
<path fill-rule="evenodd" clip-rule="evenodd" d="M29.5255 15.6487C29.4986 15.7402 29.4242 15.8268 29.3443 15.8668C29.3146 15.8816 29.2768 15.8932 29.2255 15.9034C29.2189 15.9047 29.2121 15.9053 29.2054 15.9052C28.0283 15.8864 26.8509 15.7839 25.6916 15.5885C25.3508 15.8704 25.0179 16.1601 24.693 16.4643C25.0171 16.7603 25.3423 17.042 25.6825 17.3233C26.8502 17.137 28.0279 17.0252 29.2156 17.0157L29.2164 17.0157C29.2605 17.0157 29.3103 17.0292 29.3414 17.0396C29.5824 17.1199 29.5746 17.4802 29.4201 17.6392C29.3612 17.7097 29.2678 17.7463 29.1794 17.7466C28.2525 17.7641 27.3339 17.83 26.4162 17.9519C27.147 18.5056 27.91 19.0263 28.7052 19.5067C28.7064 19.5074 28.7076 19.5081 28.7088 19.5089L28.7127 19.5115C28.7372 19.5278 28.7762 19.5537 28.8055 19.5938C28.8451 19.6361 28.8595 19.6795 28.8689 19.7074L28.8696 19.7097C28.8729 19.7194 28.8745 19.7296 28.8745 19.7398C28.8745 19.7452 28.8749 19.7486 28.8755 19.7544C28.8761 19.7598 28.8769 19.7673 28.8778 19.7805C28.8791 19.7982 28.8805 19.8289 28.871 19.8605C28.8607 19.901 28.848 19.9411 28.8206 19.9822C28.8171 19.9874 28.8131 19.9923 28.8087 19.9967C28.8031 20.0023 28.7973 20.0085 28.7898 20.0167L28.7896 20.0168C28.7825 20.0245 28.774 20.0338 28.7648 20.043C28.7466 20.0611 28.7215 20.0837 28.689 20.0999C28.6378 20.1255 28.5853 20.1384 28.5231 20.1384C28.4659 20.1384 28.3973 20.1275 28.3376 20.0847C27.3315 19.483 26.3716 18.8163 25.4672 18.0846C25.0597 18.1535 24.6518 18.2375 24.2432 18.3298C24.3648 18.7854 24.4944 19.2398 24.6393 19.6862C25.7016 20.0926 26.7266 20.573 27.7235 21.1182C27.7259 21.1195 27.7283 21.1209 27.7306 21.1225C27.7319 21.1233 27.7332 21.1242 27.7345 21.1251C27.7592 21.1415 27.7988 21.1677 27.8282 21.2084C27.8478 21.231 27.8588 21.2567 27.8651 21.273C27.8702 21.2862 27.8755 21.303 27.8791 21.3142C27.8803 21.318 27.8813 21.3211 27.882 21.3233C27.8852 21.333 27.8868 21.3431 27.8868 21.3533C27.8868 21.3587 27.8872 21.3622 27.8878 21.368C27.8884 21.3734 27.8892 21.3809 27.8902 21.394C27.8914 21.4117 27.8929 21.4424 27.8833 21.474C27.8735 21.513 27.8613 21.5515 27.8361 21.5909C27.7914 21.6757 27.7093 21.7251 27.628 21.7483C27.6239 21.7495 27.6197 21.7504 27.6154 21.751C27.5316 21.7629 27.4454 21.7513 27.3695 21.7134C27.3684 21.7129 27.3674 21.7123 27.3663 21.7117C26.5686 21.2737 25.7545 20.8843 24.924 20.536C25.2483 21.4323 25.6212 22.3187 26.035 23.1722C26.0356 23.1736 26.0363 23.1749 26.0368 23.1763C26.0371 23.177 26.0374 23.1777 26.0377 23.1784C26.0597 23.2334 26.073 23.2836 26.073 23.3465C26.073 23.4086 26.0443 23.4736 26.025 23.5123C26.0224 23.5174 26.0194 23.5223 26.016 23.5268C26.0147 23.5286 26.0133 23.5305 26.0118 23.5324C25.9867 23.5661 25.9461 23.6204 25.8875 23.6497C25.8363 23.6753 25.7837 23.6882 25.7216 23.6882C25.6704 23.6882 25.6006 23.6758 25.5412 23.6312C25.4893 23.5924 25.4521 23.542 25.4277 23.4933L25.4276 23.493C24.9005 22.43 24.4477 21.3205 24.0785 20.1922C23.6208 20.0207 23.1549 19.8647 22.6806 19.7168C22.5835 20.0584 22.5003 20.4067 22.4246 20.7494C23.2226 21.7101 23.9464 22.7266 24.5958 23.7988C24.6488 23.8794 24.6615 23.974 24.6353 24.0654C24.635 24.0667 24.6346 24.0681 24.6341 24.0694C24.6095 24.1433 24.5598 24.2188 24.4827 24.2702C24.4467 24.2942 24.3994 24.3087 24.3755 24.316C24.3712 24.3173 24.3677 24.3184 24.3651 24.3192C24.3172 24.3352 24.2581 24.3352 24.2101 24.3192C24.1693 24.3056 24.1315 24.2804 24.1058 24.2633L24.102 24.2607C24.0573 24.2309 24.0291 24.1884 24.0118 24.1623L24.0092 24.1584C24.0088 24.1578 24.0084 24.1572 24.008 24.1566C24.0076 24.1559 24.0072 24.1553 24.0068 24.1546C23.4746 23.2681 22.8926 22.4234 22.2531 21.6204C22.066 22.6223 21.9382 23.632 21.885 24.6495C21.8842 24.7447 21.8422 24.8238 21.7812 24.8848C21.7196 24.9463 21.6396 24.9885 21.5431 24.9885C21.499 24.9885 21.4492 24.975 21.4181 24.9646C21.3727 24.9495 21.3255 24.9189 21.2931 24.8703L21.2906 24.8665C21.2734 24.8408 21.2482 24.8031 21.2346 24.7622C21.22 24.7187 21.2201 24.6672 21.2202 24.6414L21.2202 24.6373C21.2202 24.6367 21.2202 24.6361 21.2202 24.6354C21.2202 24.6346 21.2203 24.6338 21.2203 24.633C21.2768 23.39 21.445 22.1475 21.6971 20.9332C21.4632 20.6578 21.2306 20.3851 20.985 20.1261C20.6776 20.4688 20.3781 20.8118 20.0866 21.162C20.2823 22.3107 20.3943 23.4774 20.4319 24.6437C20.432 24.6448 20.432 24.6458 20.432 24.6468C20.432 24.6894 20.4194 24.7372 20.4092 24.7684C20.3959 24.8189 20.371 24.8588 20.3441 24.8876C20.312 24.9317 20.2675 24.9598 20.2246 24.9741C20.1935 24.9845 20.1437 24.998 20.0996 24.998C20.0461 24.998 20.0053 24.9844 19.9769 24.9749L19.9746 24.9741C19.9666 24.9715 19.959 24.9677 19.952 24.9631L19.9482 24.9606C19.9248 24.945 19.8932 24.9239 19.8682 24.9007C19.8241 24.8686 19.7959 24.8241 19.7816 24.7812C19.7713 24.7505 19.758 24.7016 19.7577 24.6578C19.7314 23.7301 19.6483 22.8021 19.5159 21.8814C18.9532 22.6131 18.4318 23.377 17.9591 24.1732C17.9573 24.1761 17.9554 24.179 17.9534 24.1817C17.952 24.1835 17.9506 24.1854 17.9492 24.1873C17.9252 24.2195 17.8872 24.2703 17.8329 24.3004C17.7769 24.3401 17.7196 24.3526 17.659 24.3526C17.6084 24.3526 17.5398 24.3405 17.4809 24.2974C17.4803 24.297 17.4796 24.2965 17.4789 24.2961C17.4542 24.2797 17.4147 24.2534 17.3853 24.2127C17.3656 24.1902 17.3546 24.1644 17.3483 24.1482C17.3432 24.1349 17.3379 24.1181 17.3344 24.1069C17.3332 24.1031 17.3322 24.1 17.3315 24.0978C17.3282 24.0882 17.3266 24.078 17.3266 24.0678V23.9729C17.3266 23.9166 17.3414 23.8705 17.3695 23.8276C17.9626 22.8305 18.63 21.8706 19.3626 20.9661C19.2937 20.5592 19.2095 20.1523 19.1101 19.7454C18.7114 19.8653 18.3132 19.9933 17.9153 20.136C17.5371 21.292 17.0843 22.4296 16.5476 23.5212C16.5469 23.5226 16.5462 23.5241 16.5454 23.5254C16.5449 23.5264 16.5444 23.5273 16.5438 23.5282C16.5081 23.5877 16.4707 23.625 16.4244 23.6597C16.4218 23.6617 16.4191 23.6635 16.4163 23.6652C16.3541 23.7024 16.2993 23.7166 16.2345 23.7166C16.1801 23.7166 16.1276 23.7029 16.078 23.6781C16.0745 23.6764 16.0711 23.6744 16.0678 23.6722C16.0666 23.6714 16.0653 23.6705 16.0639 23.6696C16.0393 23.6533 16 23.6272 15.9706 23.5868C15.9399 23.5525 15.9176 23.5033 15.907 23.4714C15.9062 23.4691 15.9055 23.4668 15.9049 23.4644C15.8926 23.4151 15.8926 23.3766 15.8926 23.3396V23.337C15.8926 23.2939 15.9053 23.2402 15.9331 23.1956C16.3658 22.3037 16.749 21.3871 17.0749 20.4537C16.2152 20.7951 15.3732 21.1855 14.5642 21.6247C14.5191 21.6534 14.4644 21.6665 14.4206 21.6665C14.4193 21.6665 14.418 21.6665 14.4165 21.6665C14.3907 21.6666 14.3392 21.6667 14.2956 21.6521C14.2614 21.6408 14.2072 21.6159 14.173 21.5818C14.1472 21.556 14.1237 21.5207 14.1067 21.4951L14.1042 21.4914C14.0737 21.4456 14.0597 21.3889 14.0597 21.3438C14.0597 21.3425 14.0597 21.3412 14.0597 21.3397C14.0597 21.3139 14.0596 21.2624 14.0741 21.2189C14.0877 21.1781 14.113 21.1403 14.1301 21.1147C14.131 21.1133 14.1318 21.1121 14.1327 21.1108C14.1624 21.0662 14.205 21.038 14.2311 21.0206C14.2324 21.0197 14.2337 21.0189 14.235 21.0181C14.2372 21.0166 14.2395 21.0152 14.2418 21.0139C15.2489 20.4589 16.2928 19.9876 17.3645 19.5907C17.4997 19.173 17.62 18.7473 17.7322 18.3204C17.3236 18.228 16.9155 18.144 16.5079 18.0751C15.6035 18.8068 14.6436 19.4735 13.6374 20.0752C13.5778 20.118 13.5091 20.1289 13.452 20.1289C13.401 20.1289 13.3387 20.1167 13.286 20.0904C13.2411 20.068 13.184 20.0291 13.1513 19.9677C13.1292 19.9324 13.1157 19.8884 13.1087 19.8655C13.1074 19.8613 13.1063 19.8578 13.1055 19.8552C13.0895 19.8072 13.0895 19.7482 13.1055 19.7003C13.1191 19.6594 13.1443 19.6217 13.1614 19.596L13.164 19.5922C13.1938 19.5476 13.2363 19.5193 13.2624 19.502C13.2638 19.5011 13.2651 19.5003 13.2663 19.4994C13.2675 19.4987 13.2687 19.4979 13.2699 19.4972C14.0664 19.0161 14.8383 18.4947 15.5707 17.9331C14.6503 17.8098 13.723 17.7363 12.7962 17.7276C12.7537 17.7275 12.7061 17.715 12.675 17.7048C12.6223 17.6909 12.576 17.6627 12.543 17.6177C12.5103 17.5836 12.4838 17.545 12.4692 17.5013L12.4684 17.4991C12.4589 17.4707 12.4453 17.4299 12.4453 17.3764C12.4453 17.2761 12.4832 17.1853 12.5491 17.1195C12.6137 17.0549 12.704 17.0157 12.7967 17.0157H12.7974C13.9846 17.0252 15.1717 17.1276 16.3406 17.3231C16.6736 17.0494 17.0051 16.7688 17.3218 16.4738C17.0045 16.1696 16.6718 15.8799 16.3306 15.5976C15.1629 15.784 13.9851 15.8958 12.7974 15.9052L12.7967 15.9052C12.7525 15.9052 12.7028 15.8918 12.6717 15.8814C12.6289 15.8671 12.5846 15.8391 12.5525 15.7953C12.5198 15.7613 12.4933 15.7227 12.4787 15.679C12.4779 15.6767 12.4772 15.6744 12.4766 15.672C12.4755 15.6673 12.4741 15.6623 12.4727 15.657C12.465 15.6277 12.4548 15.5894 12.4548 15.5446C12.4548 15.4522 12.4937 15.3673 12.5372 15.3021C12.5407 15.2969 12.5447 15.2921 12.5491 15.2876C12.6105 15.2262 12.6904 15.184 12.7867 15.1839C13.7234 15.1751 14.6519 15.1097 15.5799 14.9876C14.8472 14.4246 14.0754 13.8951 13.2794 13.4143C13.2758 13.4122 13.2724 13.4098 13.2692 13.4072C13.2063 13.357 13.1583 13.2842 13.1339 13.2112C13.1048 13.1239 13.1208 13.0272 13.1735 12.9482C13.2224 12.8749 13.2877 12.8216 13.3784 12.7957C13.47 12.7696 13.5609 12.7831 13.6369 12.8211C13.6392 12.8222 13.6415 12.8235 13.6437 12.8249C14.651 13.4364 15.6118 14.113 16.5261 14.8547C16.9353 14.778 17.3423 14.7012 17.7419 14.6103C17.6201 14.1463 17.4902 13.69 17.3449 13.2342C16.2833 12.8191 15.2498 12.3392 14.2626 11.8037C14.1755 11.7594 14.1249 11.6762 14.1014 11.5938C14.1002 11.5896 14.0993 11.5854 14.0987 11.5811C14.0883 11.5088 14.084 11.4124 14.1422 11.3252C14.143 11.324 14.1439 11.3227 14.1448 11.3213C14.1611 11.2967 14.1871 11.2576 14.2274 11.2282C14.2694 11.19 14.3216 11.174 14.3451 11.1668C14.3481 11.1659 14.3506 11.1651 14.3526 11.1644C14.3549 11.1637 14.3572 11.163 14.3596 11.1624C14.409 11.1501 14.4474 11.1501 14.4845 11.1501H14.4871C14.5429 11.1501 14.5886 11.1646 14.6312 11.1922C15.4202 11.6301 16.2333 12.0273 17.0705 12.3764C16.7471 11.4793 16.3823 10.5927 15.9686 9.73928C15.9679 9.73796 15.9673 9.73663 15.9667 9.73528C15.9321 9.65447 15.9172 9.56519 15.9437 9.4725C15.9692 9.3833 16.0317 9.30589 16.111 9.2644C16.1558 9.23622 16.21 9.22332 16.2535 9.22332C16.2547 9.22332 16.2561 9.22332 16.2576 9.22332C16.2833 9.22326 16.3349 9.22316 16.3785 9.23768C16.4193 9.25129 16.4571 9.27653 16.4827 9.29365C16.4841 9.29453 16.4853 9.29538 16.4866 9.29621C16.4918 9.29968 16.4966 9.30365 16.5011 9.30807C16.5269 9.33387 16.5504 9.36916 16.5674 9.39471C16.5682 9.39599 16.5691 9.39724 16.5699 9.39847C16.5723 9.40202 16.5744 9.40574 16.5763 9.40958C17.0938 10.4724 17.5464 11.5817 17.9157 12.7102C18.3633 12.8811 18.8191 13.0367 19.2833 13.1842C19.3751 12.8406 19.4652 12.4917 19.5412 12.143C18.7525 11.1825 18.0288 10.1659 17.3885 9.09334C17.3654 9.0576 17.3514 9.01186 17.3442 8.9884C17.3429 8.98418 17.3418 8.98068 17.341 8.97809C17.3264 8.93457 17.3251 8.88194 17.3369 8.83674C17.3398 8.80893 17.3493 8.78538 17.358 8.768C17.3678 8.74838 17.3801 8.72987 17.3889 8.7168L17.39 8.71509C17.4198 8.67047 17.4623 8.64223 17.4884 8.62492C17.4898 8.62402 17.4911 8.62316 17.4923 8.62232C17.5284 8.59829 17.5756 8.58385 17.5996 8.57651C17.6038 8.57522 17.6074 8.57415 17.6099 8.57329C17.6567 8.55771 17.714 8.55731 17.7613 8.57211C17.7877 8.57902 17.8096 8.58867 17.8258 8.59614C17.8304 8.59825 17.8343 8.60007 17.8376 8.60164C17.8486 8.60675 17.854 8.60929 17.8599 8.61125C17.8679 8.61392 17.8756 8.61765 17.8826 8.62232C17.9272 8.65207 17.9555 8.6946 17.9728 8.72068C17.9737 8.72202 17.9746 8.72333 17.9754 8.72458C17.9764 8.72603 17.9773 8.7275 17.9782 8.729C18.5008 9.61438 19.0817 10.4584 19.7129 11.2611C19.8987 10.2679 20.0181 9.2585 20.0712 8.24077C20.0714 8.23793 20.0717 8.2351 20.0721 8.23229C20.0845 8.14552 20.1224 8.06973 20.1844 8.00775C20.255 7.93715 20.3491 7.91351 20.432 7.91351C20.5221 7.91351 20.6081 7.95062 20.6599 7.98944C20.6663 7.99425 20.6721 7.99984 20.6771 8.00608C20.7259 8.06712 20.7644 8.15389 20.7644 8.24571C20.7644 8.24738 20.7643 8.24904 20.7642 8.2507C20.6983 9.50209 20.5394 10.7352 20.2783 11.95C20.5115 12.2234 20.7519 12.4899 20.9937 12.7567C21.3075 12.4226 21.6066 12.0805 21.898 11.7305C21.7023 10.5818 21.5904 9.41489 21.5621 8.24801L21.5621 8.24571C21.5621 8.16282 21.5857 8.06886 21.6564 7.99826C21.7179 7.93675 21.798 7.89453 21.8945 7.89453C21.9386 7.89453 21.9883 7.90802 22.0195 7.91838C22.0275 7.92105 22.0351 7.92478 22.0421 7.92945L22.0459 7.93196C22.0693 7.94755 22.1009 7.96859 22.1259 7.99185C22.17 8.02393 22.1982 8.06836 22.2125 8.11129C22.2227 8.14203 22.236 8.19095 22.2363 8.23467C22.2627 9.16233 22.3457 10.0821 22.4781 11.0016C23.0409 10.27 23.5624 9.50655 24.0352 8.7189C24.036 8.71761 24.0368 8.71634 24.0377 8.71509C24.0385 8.71384 24.0394 8.71253 24.0403 8.71119C24.0565 8.68669 24.0825 8.64767 24.1225 8.61837C24.1649 8.57879 24.2083 8.56438 24.2363 8.55507L24.2386 8.55431C24.2483 8.55108 24.2584 8.54944 24.2686 8.54944C24.2741 8.54944 24.2775 8.54907 24.2833 8.54844C24.2887 8.54786 24.2962 8.54706 24.3093 8.54612C24.3271 8.54485 24.3578 8.5434 24.3894 8.55297C24.4284 8.56282 24.4669 8.57494 24.5064 8.60016C24.5912 8.64486 24.6406 8.72688 24.6638 8.8081C24.6648 8.81155 24.6656 8.81504 24.6662 8.81857C24.6788 8.89433 24.6669 8.9907 24.629 9.06645C24.6278 9.0687 24.6266 9.07091 24.6253 9.07306C24.0229 10.0702 23.3554 11.0211 22.6226 11.9165C22.6997 12.3329 22.7843 12.7489 22.8766 13.1578C23.273 13.0447 23.67 12.9104 24.0694 12.7746C24.4479 11.5997 24.9101 10.4527 25.4561 9.35201L25.4562 9.35172C25.5025 9.25917 25.5916 9.22036 25.6536 9.19972C25.741 9.17061 25.8245 9.1876 25.897 9.22385C25.903 9.22684 25.9087 9.23045 25.9139 9.23463C25.9642 9.27488 26.0305 9.33678 26.0586 9.4211C26.0591 9.42241 26.0595 9.42372 26.0598 9.42504C26.0833 9.50701 26.0845 9.59323 26.0586 9.67096C26.0573 9.67487 26.0558 9.67869 26.054 9.68239C25.6106 10.5952 25.2172 11.5243 24.8815 12.4775C25.751 12.1365 26.596 11.7534 27.4244 11.313C27.4274 11.3114 27.4305 11.31 27.4337 11.3087C27.5056 11.28 27.5956 11.282 27.67 11.3068C27.7479 11.3328 27.8154 11.3857 27.8562 11.4651C27.8965 11.5343 27.9073 11.6223 27.8952 11.6961C27.8808 11.7943 27.8239 11.8611 27.7657 11.9076C27.7612 11.9112 27.7564 11.9143 27.7513 11.9171C26.7354 12.4624 25.6823 12.9334 24.6014 13.3303C24.4753 13.7289 24.3637 14.1281 24.2529 14.5356C24.6705 14.6356 25.0889 14.7207 25.5153 14.798C26.4112 14.075 27.3624 13.4172 28.3502 12.8154C28.3525 12.8141 28.3548 12.8128 28.3572 12.8116C28.4332 12.7736 28.5241 12.7601 28.6157 12.7862C28.7064 12.8121 28.7717 12.8654 28.8206 12.9387C28.8227 12.942 28.8247 12.9454 28.8265 12.9489C28.8577 13.0114 28.8889 13.0932 28.8631 13.1915C28.8471 13.2887 28.7891 13.3554 28.7183 13.4026C28.717 13.4034 28.7157 13.4042 28.7144 13.405C27.9283 13.8764 27.1741 14.3964 26.4518 14.9502C27.3627 15.0733 28.2805 15.1467 29.1979 15.1554C29.2404 15.1555 29.288 15.168 29.3191 15.1782C29.3718 15.1921 29.4181 15.2203 29.4511 15.2654C29.4838 15.2994 29.5103 15.338 29.5249 15.3817C29.5257 15.384 29.5263 15.3863 29.5269 15.3887C29.5281 15.3934 29.5294 15.3984 29.5308 15.4037C29.5386 15.4329 29.5488 15.4713 29.5488 15.5161C29.5488 15.5675 29.5364 15.6155 29.5255 15.6487ZM23.7543 17.7135C23.7571 17.7125 23.7599 17.7117 23.7628 17.7111C23.8399 17.6932 23.9167 17.6752 23.9933 17.6573C24.2581 17.5955 24.5203 17.5343 24.7819 17.4765C24.4897 17.2266 24.2047 16.964 23.9271 16.6947L23.9261 16.6937C23.8645 16.6322 23.8223 16.5522 23.8223 16.4557C23.8223 16.3593 23.8645 16.2793 23.9261 16.2178C23.9267 16.2171 23.9274 16.2165 23.9281 16.2158C24.2145 15.9459 24.5012 15.6828 24.8002 15.4205C24.4532 15.3512 24.1067 15.2694 23.7608 15.1809C23.7586 15.1804 23.7564 15.1797 23.7543 15.179C23.7134 15.1654 23.6756 15.1402 23.65 15.1231L23.6462 15.1205C23.6015 15.0908 23.5732 15.0482 23.5559 15.0221C23.555 15.0208 23.5542 15.0195 23.5533 15.0183C23.5487 15.0112 23.5449 15.0036 23.5423 14.9956C23.5412 14.9926 23.5397 14.9886 23.5366 14.9815C23.534 14.9754 23.5297 14.9656 23.5259 14.9558C23.5188 14.9374 23.511 14.9128 23.5093 14.8832C23.4993 14.8371 23.4983 14.7863 23.5123 14.7408C23.6026 14.3637 23.7001 13.9859 23.811 13.6137C23.4428 13.7346 23.0788 13.8478 22.7072 13.9468C22.6992 13.9489 22.6909 13.95 22.6827 13.95H22.6257C22.5635 13.95 22.4728 13.9409 22.4066 13.8748C22.4051 13.8733 22.4035 13.8717 22.4019 13.8701C22.3672 13.8356 22.311 13.7797 22.2954 13.6946C22.2066 13.3395 22.1247 12.9779 22.0497 12.6212C21.7818 12.9301 21.5019 13.2262 21.2237 13.5207L21.2228 13.5216C21.2222 13.5223 21.2215 13.5229 21.2209 13.5236C21.1593 13.5851 21.0793 13.6273 20.9828 13.6273C20.8977 13.6273 20.8078 13.5867 20.7447 13.5236C20.7439 13.5228 20.7432 13.522 20.7424 13.5212C20.5175 13.2804 20.2995 13.0396 20.0825 12.7932C20.0081 13.0959 19.9271 13.3985 19.8394 13.7012C19.8386 13.7042 19.8376 13.7071 19.8364 13.71C19.8141 13.7657 19.7755 13.8356 19.7021 13.8796C19.6462 13.9131 19.5816 13.9405 19.5013 13.9405H19.4348C19.4256 13.9405 19.4164 13.9392 19.4076 13.9365C18.9906 13.8115 18.5731 13.679 18.1553 13.5327C18.276 13.9401 18.3829 14.3482 18.4826 14.7631C18.4843 14.7704 18.4852 14.7778 18.4852 14.7853C18.4852 14.7941 18.4857 14.7996 18.4865 14.8079C18.4871 14.8136 18.4878 14.8205 18.4885 14.8307C18.4898 14.8497 18.4904 14.8733 18.485 14.9009C18.4831 14.9531 18.4679 14.9965 18.4407 15.0372C18.4399 15.0385 18.439 15.0398 18.4381 15.0411C18.4208 15.0672 18.3926 15.1097 18.3479 15.1395C18.3087 15.1656 18.2699 15.1785 18.2425 15.1876L18.2398 15.1885C18.2372 15.1894 18.2345 15.1902 18.2318 15.1908C17.8952 15.2709 17.5505 15.3513 17.2042 15.4204C17.4973 15.6753 17.789 15.9376 18.067 16.2073L18.068 16.2083C18.1295 16.2698 18.1718 16.3498 18.1718 16.4463C18.1718 16.5427 18.1295 16.6227 18.068 16.6842L18.067 16.6852C17.7882 16.9557 17.5026 17.2118 17.2107 17.4653C17.5515 17.5375 17.8879 17.6119 18.2246 17.6998C18.2531 17.7024 18.2773 17.7121 18.295 17.721C18.3146 17.7308 18.3331 17.7432 18.3462 17.7519L18.3479 17.753C18.3926 17.7828 18.4208 17.8253 18.4381 17.8514C18.439 17.8527 18.4399 17.854 18.4407 17.8553C18.4454 17.8623 18.4491 17.8699 18.4518 17.8779L18.452 17.8786C18.4615 17.907 18.472 17.9383 18.4823 17.9798C18.4945 18.0285 18.4969 18.0836 18.4818 18.1325C18.3907 18.5212 18.2854 18.9095 18.1721 19.2972C18.5338 19.1764 18.8971 19.0635 19.2679 18.9647C19.2708 18.9639 19.2738 18.9633 19.2768 18.9628C19.354 18.9499 19.4408 18.9627 19.5153 19C19.5188 19.0017 19.5222 19.0037 19.5255 19.0059C19.5989 19.0548 19.6522 19.12 19.6781 19.2106C19.6783 19.2115 19.6786 19.2123 19.6788 19.2132C19.7679 19.5613 19.85 19.9229 19.9253 20.2803C20.1911 19.9717 20.4637 19.6757 20.7428 19.3804C20.7431 19.3801 20.7433 19.3798 20.7435 19.3796C20.7439 19.3792 20.7443 19.3788 20.7447 19.3784C20.8062 19.3169 20.8863 19.2747 20.9828 19.2747C21.0793 19.2747 21.1593 19.3169 21.2209 19.3784L21.222 19.3796C21.4476 19.6131 21.6661 19.8531 21.8833 20.0995C21.9576 19.7989 22.0386 19.503 22.1261 19.2008C22.1265 19.1996 22.1269 19.1984 22.1273 19.1972C22.1409 19.1564 22.1661 19.1186 22.1833 19.093L22.1858 19.0892C22.2156 19.0445 22.2581 19.0163 22.2842 18.999C22.2856 18.9981 22.2869 18.9972 22.2881 18.9964C22.3339 18.9659 22.3907 18.952 22.4358 18.952C22.4371 18.952 22.4384 18.952 22.4399 18.952C22.4653 18.9519 22.5157 18.9518 22.5589 18.9657C22.9871 19.0916 23.4149 19.2322 23.8422 19.3808C23.7261 18.9719 23.6116 18.5556 23.5115 18.1389C23.5098 18.1316 23.5089 18.1242 23.5089 18.1167C23.5089 18.1079 23.5084 18.1024 23.5075 18.0941C23.507 18.0884 23.5063 18.0815 23.5056 18.0713C23.5042 18.0523 23.5037 18.0287 23.5091 18.0011C23.511 17.9489 23.5262 17.9055 23.5533 17.8648C23.5542 17.8635 23.555 17.8622 23.5559 17.8609C23.5733 17.8348 23.6015 17.7923 23.6462 17.7625C23.6853 17.7364 23.7241 17.7235 23.7516 17.7144L23.7543 17.7135Z" fill="black"/>
<path d="M15.2524 32.6785H15.1973L13.8851 27.668H12.6737L11.3615 32.6693H11.3064L10.0767 27.668H8.74609L10.6732 34.4771H11.8845L13.2519 29.696H13.3069L14.6651 34.4771H15.8856L17.8035 27.668H16.4821L15.2524 32.6785Z" fill="black"/>
<path d="M21.5844 29.6775C21.3825 29.5491 21.1623 29.4481 20.9145 29.3931C20.6668 29.338 20.4282 29.3105 20.1804 29.3105C19.8225 29.3105 19.5013 29.3655 19.2077 29.4665C18.914 29.5674 18.6662 29.7234 18.4643 29.9345C18.2625 30.1455 18.1156 30.4025 18.0239 30.7145L19.1434 30.8705C19.2077 30.6962 19.3178 30.5401 19.4921 30.4117C19.6665 30.2832 19.8959 30.219 20.1896 30.219C20.4649 30.219 20.6851 30.2832 20.8319 30.4208C20.9788 30.5585 21.0522 30.7512 21.0522 30.999V31.0173C21.0522 31.1366 21.0063 31.2192 20.9237 31.2743C20.8411 31.3293 20.7035 31.3661 20.5199 31.3936C20.3364 31.4211 20.0886 31.4486 19.795 31.4762C19.5472 31.5037 19.3086 31.5496 19.07 31.6047C18.8406 31.6597 18.6295 31.7515 18.446 31.8616C18.2625 31.9717 18.1156 32.1277 18.0147 32.3113C17.9046 32.504 17.8587 32.7334 17.8587 33.027C17.8587 33.3574 17.9321 33.6419 18.0789 33.8713C18.2257 34.1007 18.4368 34.2751 18.6938 34.3944C18.9507 34.5137 19.2444 34.5687 19.5656 34.5687C19.8317 34.5687 20.0611 34.532 20.263 34.4586C20.4649 34.3852 20.6301 34.2843 20.7585 34.165C20.887 34.0365 20.9971 33.908 21.0705 33.7704H21.1072V34.477H22.2635V31.0632C22.2635 30.7237 22.1993 30.4392 22.08 30.219C21.9423 29.9895 21.7863 29.806 21.5844 29.6775ZM21.0522 32.6416C21.0522 32.8343 21.0063 32.9995 20.9054 33.1647C20.8136 33.3207 20.6759 33.4492 20.4924 33.5501C20.318 33.6419 20.107 33.6969 19.8684 33.6969C19.6206 33.6969 19.4095 33.6419 19.2535 33.5318C19.0884 33.4216 19.0149 33.2473 19.0149 33.027C19.0149 32.871 19.0517 32.7426 19.1342 32.6508C19.2168 32.5499 19.327 32.4764 19.4738 32.4214C19.6114 32.3663 19.7766 32.3296 19.9602 32.3021C20.0427 32.2929 20.1345 32.2746 20.2446 32.2654C20.3548 32.247 20.4649 32.2287 20.575 32.2103C20.6851 32.192 20.7861 32.1644 20.8778 32.1369C20.9696 32.1094 21.0338 32.0818 21.0705 32.0543V32.6416H21.0522Z" fill="black"/>
<path d="M27.9898 29.3748H26.5857L24.7504 31.4213H24.6678V27.668H23.4656V34.4771H24.6678V32.7611L25.1083 32.293L26.6683 34.4771H28.1091L26.0076 31.5773L27.9898 29.3748Z" fill="black"/>
<path d="M32.0459 29.3748V32.3297C32.0459 32.5867 31.9908 32.8069 31.8807 32.9813C31.7706 33.1556 31.6421 33.2841 31.4678 33.3667C31.3026 33.4493 31.1282 33.4952 30.9539 33.4952C30.6694 33.4952 30.4308 33.4034 30.2564 33.2107C30.0821 33.018 29.9903 32.761 29.9903 32.4398V29.3748H28.7881V32.6234C28.7881 33.0272 28.8616 33.3759 29.0084 33.6695C29.1552 33.954 29.3479 34.1742 29.6049 34.3211C29.8618 34.4679 30.1555 34.5413 30.495 34.5413C30.8804 34.5413 31.2016 34.4495 31.4586 34.266C31.7247 34.0825 31.9082 33.8531 32.0275 33.5686H32.0826V34.4771H33.248V29.3748H32.0459Z" fill="black"/>
</svg>
