<svg width="117" height="139" viewBox="0 0 117 139" fill="none" xmlns="http://www.w3.org/2000/svg">
<path d="M90.7445 61.7467C90.6727 61.6389 90.5649 61.5671 90.4571 61.5312C90.3493 61.4953 90.2055 61.4593 90.0977 61.4593C85.5699 61.4953 81.0781 61.9262 76.6221 62.6445C75.1847 61.4593 73.8192 60.2742 72.4537 59.0171C73.8192 57.7242 75.2207 56.5031 76.6581 55.3179C81.0781 56.0721 85.5699 56.4672 90.0618 56.539C90.2415 56.5031 90.3493 56.4672 90.4211 56.4313C90.6367 56.3235 90.8524 56.0721 90.9242 55.8207C90.9602 55.713 90.9961 55.5693 90.9961 55.4257C90.9961 55.282 90.9602 55.1743 90.9242 55.0306C90.8883 54.9229 90.8164 54.8151 90.7086 54.7074C90.6367 54.5996 90.5289 54.5278 90.3852 54.4919C90.2774 54.456 90.1337 54.4201 90.0259 54.4201C86.2527 54.3841 82.4795 54.0609 78.7423 53.5222C81.689 51.2237 84.7794 49.0688 88.0135 47.1294C88.2291 46.9857 88.3728 46.8061 88.4088 46.5547C88.4807 46.3033 88.4088 46.0879 88.301 45.8724C88.1572 45.6569 87.9776 45.5132 87.726 45.4414C87.4745 45.3696 87.2229 45.4055 87.0073 45.5132C83.2342 47.8118 79.6047 50.3258 76.1909 53.0912C74.3942 52.768 72.6334 52.4088 70.8726 51.9779C71.3397 50.254 71.8069 48.566 72.3459 46.878C76.4784 45.3696 80.5031 43.5738 84.3841 41.4908C84.5638 41.3471 84.7075 41.1675 84.7434 40.9161C84.7794 40.7006 84.7434 40.4492 84.6356 40.2697C84.5278 40.0542 84.3481 39.9105 84.1325 39.8387C83.9169 39.7669 83.6654 39.7669 83.4857 39.8387C80.1078 41.6344 76.6581 43.1788 73.1005 44.5435C74.4301 40.6647 76.0113 36.8937 77.808 33.1945C77.8799 32.979 77.8799 32.7276 77.808 32.4762C77.7361 32.2607 77.5565 32.0811 77.3768 31.9375C77.1612 31.8297 76.9456 31.7938 76.7299 31.8656C76.5143 31.9375 76.2987 32.0452 76.1909 32.2607C74.1067 36.4627 72.3459 40.8443 70.9085 45.3336C69.2196 45.9083 67.5306 46.4829 65.8417 46.9498C65.4464 45.2259 65.0871 43.4661 64.7636 41.7063C67.5666 38.2944 70.1179 34.667 72.4178 30.86C72.5256 30.6445 72.5615 30.3572 72.5256 30.1417C72.4537 29.8903 72.31 29.6748 72.0943 29.5671C71.9865 29.4953 71.8787 29.4593 71.735 29.4234C71.6272 29.3875 71.4835 29.4234 71.3757 29.4234C71.2678 29.4593 71.16 29.4953 71.0522 29.603C70.9444 29.6748 70.8726 29.7826 70.8007 29.8903C68.8602 33.1226 66.7041 36.2472 64.3684 39.2281C63.7934 35.4571 63.434 31.6861 63.3262 27.8791C63.3262 27.7714 63.2903 27.6277 63.2544 27.5199C63.2184 27.4122 63.1466 27.3045 63.0388 27.2326C62.9669 27.1608 62.8591 27.089 62.7513 27.0171C62.6435 26.9812 62.4997 26.9453 62.3919 26.9453C62.1404 26.9453 61.9248 27.0531 61.7451 27.2326C61.5654 27.4122 61.4936 27.6636 61.4936 27.915C61.6014 32.3684 62.0326 36.8219 62.7872 41.2035C61.5654 42.676 60.3077 44.1125 58.9781 45.5132C57.936 44.3639 56.8939 43.2147 55.8877 42.0295C56.8939 37.3965 57.5048 32.6917 57.7563 27.915C57.7563 27.6636 57.6485 27.4122 57.5048 27.2326C57.3611 27.1249 57.1095 27.0171 56.858 27.0171C56.6064 27.0171 56.3549 27.089 56.1752 27.2685C55.9955 27.4481 55.8877 27.6636 55.8518 27.915C55.6362 32.0452 55.1331 36.1395 54.3425 40.1619C51.7552 36.9296 49.3835 33.5177 47.2634 29.9262C47.1915 29.8185 47.1196 29.7107 47.0118 29.6389C46.904 29.603 46.7962 29.5312 46.6525 29.4953C46.5447 29.4593 46.4009 29.4593 46.2931 29.4953C46.1853 29.5312 46.0416 29.5671 45.9338 29.6389C45.826 29.7107 45.7182 29.7826 45.6463 29.8903C45.5744 29.9981 45.5026 30.1058 45.5026 30.2136C45.4666 30.3213 45.4666 30.465 45.5026 30.5727C45.5385 30.6804 45.5744 30.8241 45.6463 30.9318C48.0899 35.0261 50.8568 38.9049 53.8754 42.5682C53.552 44.0766 53.1567 45.585 52.7614 47.0575C50.8209 46.447 48.9164 45.8005 47.0477 45.0822C45.6463 40.7725 43.9214 36.5345 41.945 32.4762C41.8731 32.3684 41.8013 32.2607 41.7294 32.1889C41.6216 32.117 41.5138 32.0452 41.406 32.0093C41.2982 31.9734 41.1544 31.9734 41.0466 31.9734C40.9388 31.9734 40.7951 32.0093 40.6873 32.0811C40.4717 32.1889 40.292 32.4043 40.2201 32.6558C40.1483 32.9072 40.1842 33.1586 40.292 33.41C41.9809 36.8937 43.4543 40.5211 44.7479 44.1844C41.2982 42.7837 37.9562 41.1675 34.7221 39.3718C34.6143 39.3 34.5065 39.2641 34.3627 39.2641C34.219 39.2641 34.1112 39.2641 33.9675 39.3C33.8597 39.3359 33.7159 39.3718 33.6081 39.4795C33.5003 39.5514 33.4284 39.6591 33.3566 39.7669C33.2128 39.9824 33.2128 40.2338 33.2488 40.4852C33.3206 40.7366 33.4644 40.952 33.68 41.0598C37.4531 43.1069 41.406 44.9386 45.4666 46.5188C46.0775 48.4223 46.6165 50.3258 47.1196 52.2652C45.4307 52.6602 43.7058 52.9835 41.9809 53.3067C38.4952 50.4694 34.8299 47.8836 30.9849 45.5491C30.7693 45.4414 30.5177 45.4055 30.2662 45.4773C30.0146 45.5491 29.8349 45.6928 29.6912 45.9083C29.5475 46.1238 29.5115 46.3752 29.5834 46.5907C29.6553 46.8061 29.799 47.0216 29.9787 47.1653C33.2488 49.1406 36.411 51.3314 39.3936 53.6658C35.5845 54.2046 31.7754 54.4919 27.9304 54.5278C27.6789 54.5278 27.4632 54.6355 27.2836 54.8151C27.1398 55.0306 27.032 55.282 27.032 55.5334C27.032 55.6771 27.068 55.7848 27.1039 55.9285C27.1398 56.0362 27.2117 56.144 27.3195 56.2517C27.3914 56.3595 27.4992 56.4313 27.607 56.4672C27.7148 56.5031 27.8585 56.539 27.9663 56.539C32.4941 56.5031 36.986 56.0721 41.4419 55.3538C42.8793 56.539 44.2808 57.7601 45.6104 59.0531C44.2808 60.3101 42.8793 61.4953 41.4778 62.6445C37.0219 61.8903 32.4941 61.4953 27.9663 61.4593C27.7148 61.4593 27.4632 61.5671 27.2836 61.7467C27.1039 61.9262 26.9961 62.1776 26.9961 62.465C26.9961 62.6086 27.032 62.7164 27.068 62.8241C27.1039 62.9318 27.1758 63.0396 27.2836 63.1473C27.3554 63.2551 27.4632 63.3269 27.607 63.3628C27.7148 63.3987 27.8585 63.4347 27.9663 63.4347C31.7754 63.4706 35.5845 63.7938 39.3577 64.3325C36.3751 66.667 33.2128 68.8219 29.9428 70.7972C29.8349 70.869 29.7271 70.9408 29.6553 71.0486C29.5834 71.1563 29.5115 71.2641 29.4756 71.3718C29.4397 71.4795 29.4397 71.6232 29.4756 71.7309C29.5115 71.8387 29.5475 71.9823 29.6193 72.0901C29.6912 72.2338 29.8349 72.3415 29.9787 72.4133C30.1224 72.4852 30.3021 72.5211 30.4458 72.5211C30.6255 72.5211 30.8052 72.4852 30.9489 72.3774C34.794 70.0789 38.4593 67.5289 41.9091 64.7276C43.6339 65.0149 45.3588 65.374 47.0837 65.7691C46.6165 67.5648 46.1134 69.3606 45.5385 71.1204C41.4419 72.6288 37.4531 74.4245 33.6081 76.5435C33.5003 76.6153 33.3925 76.6872 33.3206 76.7949C33.2488 76.9027 33.1769 77.0104 33.141 77.1182C33.105 77.2259 33.105 77.3696 33.105 77.4773C33.105 77.585 33.141 77.7287 33.2128 77.8364C33.2847 77.9442 33.3566 78.0519 33.4284 78.1238C33.5003 78.1956 33.644 78.2674 33.7518 78.3033C33.8597 78.3393 34.0034 78.3393 34.1112 78.3393C34.219 78.3393 34.3627 78.3033 34.4705 78.2315C37.7766 76.4358 41.2263 74.8555 44.7479 73.4908C43.4543 77.2977 41.9091 81.0329 40.1483 84.6602C40.0764 84.768 40.0405 84.9116 40.0405 85.0194C40.0405 85.163 40.0404 85.2708 40.0764 85.4145C40.1123 85.5222 40.1842 85.6659 40.2561 85.7377C40.3279 85.8454 40.4357 85.9173 40.5435 85.9891C40.6873 86.0609 40.831 86.0968 40.9748 86.0968C41.1544 86.0968 41.2982 86.0609 41.4778 85.9532C41.6216 85.8454 41.7294 85.7377 41.8372 85.5581C43.8855 81.392 45.6104 77.0463 47.0477 72.6288C48.7367 72.0183 50.4256 71.4795 52.1146 70.9767C52.5458 72.7006 52.9051 74.4246 53.1926 76.1485C50.3897 79.5963 47.8383 83.2596 45.5744 87.0665C45.5025 87.1743 45.4666 87.282 45.4666 87.4257C45.4666 87.5693 45.4666 87.6771 45.4666 87.7848C45.5025 87.8926 45.5385 88.0362 45.6104 88.1081C45.6822 88.2158 45.79 88.2876 45.8978 88.3595C46.0416 88.4672 46.2212 88.5031 46.365 88.5031C46.5447 88.5031 46.6884 88.4672 46.8321 88.3595C46.9759 88.2876 47.0837 88.144 47.1915 88.0003C49.132 84.7321 51.2881 81.6075 53.6238 78.6266C54.1988 82.3976 54.5581 86.2046 54.6659 90.0115C54.6659 90.1193 54.7019 90.2629 54.7378 90.3707C54.7737 90.4784 54.8456 90.5862 54.9534 90.658C55.0253 90.7298 55.1331 90.8017 55.2409 90.8735C55.3487 90.9094 55.4565 90.9453 55.6002 90.9453C55.708 90.9453 55.8518 90.9094 55.9596 90.8735C56.0674 90.8376 56.1752 90.7657 56.2471 90.658C56.3189 90.5862 56.3908 90.4784 56.4267 90.3348C56.4627 90.227 56.4986 90.0834 56.4986 89.9756C56.3549 85.5222 55.9237 81.0688 55.169 76.6872C56.3908 75.2147 57.6485 73.7781 58.9422 72.3415C60.0202 73.4549 61.0264 74.64 62.0326 75.8252C61.0623 80.4582 60.4155 85.199 60.1999 89.9397C60.1999 90.0474 60.1999 90.1911 60.2358 90.2988C60.2718 90.4066 60.3436 90.5143 60.4155 90.6221C60.4874 90.7298 60.5952 90.8017 60.703 90.8376C60.8108 90.8735 60.9545 90.9094 61.0623 90.9094C61.3139 90.9094 61.5295 90.8017 61.7092 90.6221C61.8888 90.4425 61.9967 90.227 61.9967 89.9756C62.2123 85.8454 62.7513 81.7512 63.5419 77.6928C66.1651 80.9251 68.5368 84.337 70.6929 87.9285C70.7648 88.0362 70.8366 88.144 70.9444 88.2158C71.0522 88.2876 71.16 88.3595 71.2678 88.3954C71.3757 88.4313 71.5194 88.4313 71.6272 88.3954C71.735 88.3595 71.8787 88.3235 71.9865 88.2517C72.2022 88.1081 72.3459 87.8926 72.4178 87.6771C72.4896 87.4257 72.4537 87.1743 72.31 86.9588C69.8305 82.8645 67.0635 78.9857 64.009 75.3224C64.3324 73.8499 64.6918 72.3415 65.123 70.869C67.0994 71.4795 69.0399 72.126 70.9444 72.8443C72.3459 77.1541 74.0708 81.392 76.0831 85.4504C76.155 85.594 76.2628 85.7377 76.4065 85.8454C76.5503 85.9532 76.7299 85.9891 76.8737 85.9891C77.0534 85.9891 77.1971 85.9532 77.3408 85.8813C77.4846 85.8095 77.5924 85.6659 77.7002 85.5222C77.7721 85.3785 77.8439 85.199 77.8439 85.0553C77.8439 84.8757 77.808 84.7321 77.7361 84.5525C76.0472 81.0688 74.5379 77.4414 73.2443 73.7781C76.6581 75.1788 80 76.759 83.2701 78.5547C83.4857 78.6625 83.7372 78.6984 83.9888 78.6625C84.2403 78.5907 84.4559 78.447 84.5638 78.2315C84.6356 78.1238 84.6716 78.016 84.7075 77.8724C84.7434 77.7646 84.7075 77.621 84.7075 77.5132C84.6716 77.4055 84.6356 77.2618 84.5638 77.19C84.4919 77.0822 84.3841 77.0104 84.2763 76.9386C80.4672 74.8555 76.5503 73.0239 72.4896 71.4795C71.8787 69.612 71.3397 67.7085 70.8366 65.805C72.5615 65.41 74.2864 65.0508 76.0113 64.7635C79.461 67.5648 83.1264 70.1148 86.9714 72.4133C87.1151 72.5211 87.2948 72.557 87.4745 72.557C87.6541 72.557 87.7979 72.5211 87.9416 72.4492C88.0854 72.3774 88.1932 72.2338 88.301 72.126C88.3728 72.0183 88.4088 71.9105 88.4447 71.7669C88.4806 71.6591 88.4447 71.5155 88.4447 71.4077C88.4088 71.3 88.3728 71.1922 88.265 71.0845C88.1932 70.9767 88.0854 70.9049 87.9776 70.8331C84.7075 68.8578 81.5812 66.7029 78.5986 64.4043C82.3717 63.8656 86.1449 63.5783 89.954 63.5065C90.2055 63.5065 90.4571 63.3987 90.6008 63.2192C90.7805 63.0396 90.8883 62.7882 90.8883 62.5368C90.8883 62.3931 90.8524 62.2854 90.8164 62.1417C90.8883 61.9262 90.8164 61.8185 90.7445 61.7467ZM69.543 64.0811C69.4352 64.117 69.3274 64.1529 69.2196 64.2248C69.1118 64.2966 69.0399 64.4044 68.968 64.5121C68.8961 64.6198 68.8602 64.7276 68.8602 64.8712C68.8243 65.0149 68.8602 65.1226 68.8602 65.2663C69.2914 67.062 69.7945 68.8578 70.2976 70.6176C68.4649 69.9711 66.6322 69.3606 64.7996 68.8219C64.6918 68.7859 64.548 68.7859 64.4402 68.7859C64.3324 68.7859 64.1887 68.8219 64.0809 68.8937C63.9731 68.9655 63.8653 69.0373 63.7934 69.1451C63.7215 69.2528 63.6497 69.3606 63.6137 69.4683C63.2184 70.8331 62.8591 72.1619 62.5357 73.5267C61.5654 72.4133 60.5952 71.3359 59.589 70.2944C59.4093 70.1148 59.1937 70.007 58.9422 70.007C58.6906 70.007 58.475 70.1148 58.2954 70.2944C57.0736 71.5873 55.8877 72.8802 54.7378 74.245C54.4144 72.6647 54.055 71.0486 53.6598 69.5042C53.5879 69.2528 53.4442 69.0733 53.2285 68.9296C53.0129 68.8219 52.7614 68.7859 52.5458 68.8219C50.9287 69.2528 49.3476 69.7556 47.7664 70.2944C48.2695 68.6064 48.7367 66.9184 49.132 65.2304C49.1679 65.1226 49.1679 64.979 49.132 64.8353C49.096 64.6917 49.0601 64.5839 49.0242 64.4762C48.9523 64.3684 48.8804 64.2607 48.7726 64.1889C48.6648 64.117 48.557 64.0452 48.4492 64.0452C46.9399 63.6501 45.4307 63.3269 43.8855 63.0037C45.1791 61.8903 46.4369 60.777 47.6586 59.5918C47.8383 59.4122 47.9461 59.1967 47.9461 58.9453C47.9461 58.6939 47.8383 58.4784 47.6586 58.2988C46.4369 57.1137 45.1432 55.9644 43.8495 54.851C45.3947 54.5637 46.9399 54.2046 48.4492 53.8454C48.557 53.8095 48.6648 53.7736 48.7726 53.7018C48.8804 53.6299 48.9523 53.5222 49.0242 53.4144C49.096 53.3067 49.132 53.199 49.132 53.0553C49.1679 52.9116 49.132 52.8039 49.132 52.6602C48.7008 50.8645 48.2336 49.1047 47.6946 47.3449C49.4913 47.9913 51.2881 48.566 53.0848 49.1047H53.3363C53.552 49.1047 53.7316 49.0329 53.9113 48.9251C54.091 48.8174 54.1988 48.6378 54.2707 48.4582C54.6659 47.0935 55.0253 45.7287 55.3487 44.3639C56.3189 45.4773 57.2892 46.5547 58.2954 47.6322C58.475 47.8118 58.7266 47.9195 58.9422 47.9195C59.1937 47.9195 59.4093 47.8118 59.589 47.6322C60.8108 46.3393 62.0326 45.0463 63.1825 43.6816C63.5059 45.2618 63.8653 46.878 64.2605 48.4582C64.2965 48.6737 64.4402 48.8174 64.584 48.961C64.7277 49.1047 64.9433 49.1406 65.1589 49.1406H65.3745C66.9916 48.7096 68.5727 48.2068 70.1898 47.6681C69.6867 49.2843 69.2555 50.9363 68.8602 52.5884C68.8243 52.6962 68.8243 52.8398 68.8602 52.9835C68.8602 53.1271 68.9321 53.2349 68.968 53.3426C69.0399 53.4504 69.1118 53.5581 69.2196 53.6299C69.3274 53.7018 69.4352 53.7736 69.543 53.8095C71.0882 54.2046 72.6334 54.5637 74.1786 54.851C72.849 56.0003 71.5913 57.1496 70.3335 58.3348C70.1539 58.5143 70.0461 58.7298 70.0461 58.9812C70.0461 59.2326 70.1539 59.4481 70.3335 59.6277C71.5553 60.8129 72.813 61.9622 74.1067 63.0396C72.5974 63.3628 71.0882 63.722 69.543 64.0811Z" fill="black"/>
<path d="M47.2247 108.462H47.1119L44.4229 98.1953H41.9408L39.2518 108.444H39.1389L36.6192 98.1953H33.8926L37.8414 112.148H40.3236L43.1254 102.351H43.2382L46.0212 112.148H48.5222L52.4523 98.1953H49.7445L47.2247 108.462Z" fill="black"/>
<path d="M60.1997 102.313C59.786 102.05 59.3347 101.843 58.827 101.73C58.3193 101.617 57.8304 101.561 57.3227 101.561C56.5893 101.561 55.9312 101.674 55.3294 101.881C54.7277 102.087 54.22 102.407 53.8063 102.84C53.3926 103.272 53.0918 103.799 52.9037 104.438L55.1978 104.758C55.3294 104.4 55.5551 104.081 55.9124 103.817C56.2697 103.554 56.7398 103.423 57.3415 103.423C57.9056 103.423 58.3569 103.554 58.6578 103.836C58.9586 104.118 59.1091 104.513 59.1091 105.021V105.059C59.1091 105.303 59.0151 105.472 58.8458 105.585C58.6766 105.698 58.3945 105.773 58.0184 105.83C57.6424 105.886 57.1346 105.942 56.5329 105.999C56.0252 106.055 55.5363 106.149 55.0474 106.262C54.5773 106.375 54.1448 106.563 53.7687 106.789C53.3926 107.014 53.0918 107.334 52.8849 107.71C52.6593 108.105 52.5652 108.575 52.5652 109.177C52.5652 109.854 52.7157 110.437 53.0165 110.907C53.3174 111.377 53.7499 111.734 54.2764 111.978C54.8029 112.223 55.4047 112.336 56.0628 112.336C56.6081 112.336 57.0782 112.261 57.4919 112.11C57.9056 111.96 58.2441 111.753 58.5073 111.508C58.7706 111.245 58.9963 110.982 59.1467 110.7H59.2219V112.148H61.5912V105.153C61.5912 104.457 61.4596 103.874 61.2151 103.423C60.9331 102.952 60.6134 102.576 60.1997 102.313ZM59.1091 108.387C59.1091 108.782 59.0151 109.12 58.8082 109.459C58.6202 109.778 58.3381 110.042 57.962 110.248C57.6047 110.437 57.1723 110.549 56.6833 110.549C56.1756 110.549 55.7431 110.437 55.4235 110.211C55.085 109.985 54.9346 109.628 54.9346 109.177C54.9346 108.857 55.0098 108.594 55.179 108.406C55.3482 108.199 55.5739 108.048 55.8748 107.936C56.1568 107.823 56.4953 107.748 56.8714 107.691C57.0406 107.672 57.2287 107.635 57.4543 107.616C57.68 107.578 57.9056 107.541 58.1313 107.503C58.3569 107.465 58.5638 107.409 58.7518 107.353C58.9398 107.296 59.0715 107.24 59.1467 107.183V108.387H59.1091Z" fill="black"/>
<path d="M73.3249 101.693H70.4479L66.6871 105.886H66.5178V98.1953H64.0545V112.148H66.5178V108.632L67.4204 107.673L70.6171 112.148H73.5694L69.2632 106.206L73.3249 101.693Z" fill="black"/>
<path d="M81.6364 101.693V107.748C81.6364 108.274 81.5235 108.726 81.2979 109.083C81.0722 109.44 80.809 109.703 80.4517 109.873C80.1132 110.042 79.756 110.136 79.3987 110.136C78.8157 110.136 78.3268 109.948 77.9696 109.553C77.6123 109.158 77.4242 108.632 77.4242 107.973V101.693H74.9609V108.349C74.9609 109.177 75.1113 109.891 75.4122 110.493C75.7131 111.076 76.1079 111.527 76.6345 111.828C77.161 112.129 77.7627 112.28 78.4585 112.28C79.2482 112.28 79.9064 112.092 80.4329 111.715C80.9782 111.339 81.3543 110.869 81.5988 110.286H81.7116V112.148H84.0997V101.693H81.6364Z" fill="black"/>
</svg>
