<svg width="171" height="117" viewBox="0 0 171 117" fill="none" xmlns="http://www.w3.org/2000/svg">
<path d="M87.168 64.0369V49.9863H89.6785V61.9032H95.7822V64.0369H87.168Z" fill="white"/>
<path d="M102.006 64.2427C100.991 64.2427 100.111 64.0163 99.3665 63.5635C98.6222 63.1107 98.0447 62.4772 97.6342 61.6631C97.2282 60.849 97.0252 59.8976 97.0252 58.8091C97.0252 57.7205 97.2282 56.7669 97.6342 55.9482C98.0447 55.1295 98.6222 54.4938 99.3665 54.041C100.111 53.5882 100.991 53.3618 102.006 53.3618C103.021 53.3618 103.9 53.5882 104.645 54.041C105.389 54.4938 105.964 55.1295 106.37 55.9482C106.781 56.7669 106.986 57.7205 106.986 58.8091C106.986 59.8976 106.781 60.849 106.37 61.6631C105.964 62.4772 105.389 63.1107 104.645 63.5635C103.9 64.0163 103.021 64.2427 102.006 64.2427ZM102.019 62.2531C102.57 62.2531 103.03 62.0999 103.4 61.7935C103.77 61.4825 104.045 61.0662 104.225 60.5448C104.41 60.0234 104.503 59.4426 104.503 58.8022C104.503 58.1573 104.41 57.5742 104.225 57.0528C104.045 56.5268 103.77 56.1083 103.4 55.7973C103.03 55.4863 102.57 55.3308 102.019 55.3308C101.455 55.3308 100.986 55.4863 100.612 55.7973C100.242 56.1083 99.9643 56.5268 99.7793 57.0528C99.5988 57.5742 99.5086 58.1573 99.5086 58.8022C99.5086 59.4426 99.5988 60.0234 99.7793 60.5448C99.9643 61.0662 100.242 61.4825 100.612 61.7935C100.986 62.0999 101.455 62.2531 102.019 62.2531Z" fill="white"/>
<path d="M113.204 68.2082C112.325 68.2082 111.569 68.087 110.937 67.8445C110.306 67.6067 109.798 67.2865 109.415 66.8841C109.031 66.4816 108.765 66.0356 108.616 65.5462L110.822 65.0042C110.922 65.2101 111.066 65.4136 111.255 65.6148C111.445 65.8207 111.7 65.9899 112.02 66.1225C112.345 66.2597 112.753 66.3283 113.245 66.3283C113.94 66.3283 114.515 66.1568 114.971 65.8138C115.426 65.4753 115.654 64.9173 115.654 64.1398V62.1434H115.532C115.406 62.3995 115.221 62.6625 114.977 62.9323C114.738 63.2022 114.42 63.4286 114.023 63.6115C113.631 63.7945 113.137 63.886 112.541 63.886C111.743 63.886 111.019 63.6961 110.369 63.3165C109.724 62.9323 109.21 62.3606 108.826 61.6014C108.447 60.8376 108.258 59.8816 108.258 58.7336C108.258 57.5765 108.447 56.6 108.826 55.8041C109.21 55.0037 109.726 54.3977 110.376 53.9861C111.025 53.5699 111.749 53.3618 112.548 53.3618C113.157 53.3618 113.658 53.467 114.05 53.6773C114.447 53.8832 114.763 54.1324 114.998 54.4252C115.232 54.7133 115.41 54.9854 115.532 55.2416H115.667V53.499H118.083V64.2084C118.083 65.1094 117.871 65.855 117.447 66.445C117.023 67.035 116.443 67.4764 115.708 67.7691C114.973 68.0618 114.138 68.2082 113.204 68.2082ZM113.225 61.9375C113.743 61.9375 114.186 61.8095 114.551 61.5533C114.916 61.2972 115.194 60.929 115.383 60.4488C115.573 59.9685 115.667 59.3922 115.667 58.7199C115.667 58.0567 115.573 57.4758 115.383 56.9773C115.198 56.4788 114.923 56.0923 114.558 55.8179C114.197 55.5389 113.752 55.3994 113.225 55.3994C112.679 55.3994 112.223 55.5434 111.858 55.8316C111.492 56.1197 111.217 56.5154 111.032 57.0185C110.847 57.517 110.755 58.0842 110.755 58.7199C110.755 59.3648 110.847 59.9297 111.032 60.4145C111.222 60.8947 111.499 61.2698 111.865 61.5396C112.234 61.8049 112.688 61.9375 113.225 61.9375Z" fill="white"/>
<path d="M124.747 64.2427C123.731 64.2427 122.852 64.0163 122.107 63.5635C121.363 63.1107 120.786 62.4772 120.375 61.6631C119.969 60.849 119.766 59.8976 119.766 58.8091C119.766 57.7205 119.969 56.7669 120.375 55.9482C120.786 55.1295 121.363 54.4938 122.107 54.041C122.852 53.5882 123.731 53.3618 124.747 53.3618C125.762 53.3618 126.641 53.5882 127.386 54.041C128.13 54.4938 128.705 55.1295 129.111 55.9482C129.522 56.7669 129.727 57.7205 129.727 58.8091C129.727 59.8976 129.522 60.849 129.111 61.6631C128.705 62.4772 128.13 63.1107 127.386 63.5635C126.641 64.0163 125.762 64.2427 124.747 64.2427ZM124.76 62.2531C125.31 62.2531 125.771 62.0999 126.14 61.7935C126.51 61.4825 126.786 61.0662 126.966 60.5448C127.151 60.0234 127.243 59.4426 127.243 58.8022C127.243 58.1573 127.151 57.5742 126.966 57.0528C126.786 56.5268 126.51 56.1083 126.14 55.7973C125.771 55.4863 125.31 55.3308 124.76 55.3308C124.196 55.3308 123.727 55.4863 123.353 55.7973C122.983 56.1083 122.705 56.5268 122.52 57.0528C122.34 57.5742 122.25 58.1573 122.25 58.8022C122.25 59.4426 122.34 60.0234 122.52 60.5448C122.705 61.0662 122.983 61.4825 123.353 61.7935C123.727 62.0999 124.196 62.2531 124.76 62.2531Z" fill="white"/>
<path d="M139.64 56.2844L137.407 56.5314C137.344 56.3027 137.233 56.0877 137.075 55.8865C136.922 55.6852 136.714 55.5229 136.453 55.3994C136.191 55.2759 135.871 55.2141 135.492 55.2141C134.982 55.2141 134.554 55.3262 134.206 55.5503C133.863 55.7744 133.694 56.0648 133.699 56.4216C133.694 56.728 133.805 56.9773 134.03 57.1694C134.26 57.3615 134.639 57.5193 135.167 57.6428L136.94 58.027C137.923 58.242 138.654 58.5827 139.132 59.0492C139.615 59.5157 139.859 60.1263 139.863 60.881C139.859 61.5442 139.667 62.1296 139.288 62.6373C138.914 63.1404 138.393 63.5338 137.725 63.8174C137.057 64.1009 136.29 64.2427 135.424 64.2427C134.152 64.2427 133.128 63.9729 132.352 63.4332C131.576 62.8889 131.114 62.1319 130.965 61.1623L133.354 60.929C133.462 61.4047 133.692 61.7637 134.044 62.0061C134.396 62.2486 134.854 62.3698 135.417 62.3698C135.999 62.3698 136.466 62.2486 136.818 62.0061C137.175 61.7637 137.353 61.4642 137.353 61.1074C137.353 60.8055 137.238 60.5563 137.008 60.3596C136.782 60.1629 136.43 60.012 135.952 59.9068L134.179 59.5295C133.182 59.3191 132.445 58.9646 131.966 58.4661C131.488 57.963 131.251 57.3272 131.256 56.5588C131.251 55.9093 131.425 55.3468 131.777 54.8711C132.133 54.3909 132.627 54.0204 133.259 53.7597C133.895 53.4944 134.628 53.3618 135.458 53.3618C136.676 53.3618 137.635 53.6247 138.334 54.1507C139.038 54.6767 139.473 55.3879 139.64 56.2844Z" fill="white"/>
<path d="M79.866 90.9453H26.7305V57.7546H79.8157L79.866 90.9453ZM53.2396 60.4173C48.7043 60.4221 44.2404 61.5609 40.244 63.7325C36.2476 65.9041 32.8425 69.0415 30.3309 72.866C29.9986 73.2545 29.8157 73.7512 29.8157 74.2652C29.8157 74.7791 29.9986 75.2759 30.3309 75.6644C32.8587 79.4713 36.2703 82.5917 40.2664 84.752C44.2625 86.9123 48.7211 88.0464 53.2508 88.0547C57.7806 88.0631 62.2432 86.9456 66.2471 84.8001C70.251 82.6546 73.6738 79.5467 76.2153 75.7492C76.5778 75.3387 76.7782 74.8074 76.7782 74.2567C76.7782 73.706 76.5778 73.1746 76.2153 72.7642C73.6808 68.9553 70.2585 65.8377 66.2511 63.6871C62.2437 61.5366 57.7748 60.4193 53.2396 60.4343V60.4173Z" fill="white"/>
<path d="M53.3904 54.6509C48.8841 54.6418 44.4472 53.526 40.4602 51.3992C36.4731 49.2724 33.0548 46.198 30.4984 42.4397C30.0721 41.9805 29.8348 41.3739 29.8348 40.7437C29.8348 40.1134 30.0721 39.5069 30.4984 39.0477C33.0534 35.2961 36.4739 32.2329 40.4631 30.1239C44.4522 28.0149 48.8893 26.9239 53.3892 26.9456C57.8891 26.9674 62.3158 28.1011 66.2849 30.2486C70.254 32.396 73.6455 35.4921 76.1651 39.2681C76.5264 39.6758 76.7262 40.2043 76.7262 40.7521C76.7262 41.2999 76.5264 41.8284 76.1651 42.2361C73.6486 46.0218 70.2601 49.1303 66.2922 51.2933C62.3243 53.4562 57.8963 54.6086 53.3904 54.6509ZM63.3041 40.9132C63.3507 38.8912 62.8012 36.9009 61.7259 35.1965C60.6505 33.4922 59.0981 32.1511 57.2667 31.3443C55.4353 30.5376 53.4081 30.3019 51.4438 30.6673C49.4796 31.0327 47.6674 31.9827 46.2387 33.3959C44.8099 34.8091 43.8294 36.6215 43.4224 38.6016C43.0153 40.5818 43.2001 42.6399 43.9532 44.5132C44.7064 46.3865 45.9936 47.99 47.6506 49.119C49.3076 50.248 51.2593 50.8513 53.2564 50.8518C55.8811 50.8526 58.4018 49.8131 60.2796 47.9558C62.1573 46.0985 63.2428 43.5707 63.3041 40.9132Z" fill="white"/>
<path d="M53.2894 84.2797C51.3421 84.2463 49.4479 83.6307 47.8449 82.5103C46.242 81.39 45.0017 79.8147 44.2801 77.9826C43.5584 76.1505 43.3874 74.1433 43.7887 72.2131C44.19 70.2829 45.1456 68.5159 46.5355 67.134C47.9254 65.7522 49.6875 64.8173 51.6005 64.4466C53.5134 64.076 55.4918 64.2862 57.2872 65.0509C59.0825 65.8156 60.6147 67.1006 61.6911 68.7445C62.7675 70.3884 63.3401 72.3178 63.3371 74.2903C63.3328 75.6167 63.0687 76.929 62.56 78.1512C62.0512 79.3734 61.308 80.4812 60.3734 81.4104C59.4388 82.3396 58.3314 83.0716 57.1154 83.5642C55.8994 84.0567 54.5989 84.2999 53.2894 84.2797Z" fill="white"/>
</svg>
