<svg width="170" height="117" viewBox="0 0 170 117" fill="none" xmlns="http://www.w3.org/2000/svg">
<path d="M87.8672 64.0369V49.9863H90.3777V61.9032H96.4814V64.0369H87.8672Z" fill="black"/>
<path d="M102.705 64.2427C101.69 64.2427 100.81 64.0163 100.066 63.5635C99.3214 63.1107 98.7439 62.4772 98.3334 61.6631C97.9274 60.849 97.7244 59.8976 97.7244 58.8091C97.7244 57.7205 97.9274 56.7669 98.3334 55.9482C98.7439 55.1295 99.3214 54.4938 100.066 54.041C100.81 53.5882 101.69 53.3618 102.705 53.3618C103.72 53.3618 104.6 53.5882 105.344 54.041C106.088 54.4938 106.663 55.1295 107.069 55.9482C107.48 56.7669 107.685 57.7205 107.685 58.8091C107.685 59.8976 107.48 60.849 107.069 61.6631C106.663 62.4772 106.088 63.1107 105.344 63.5635C104.6 64.0163 103.72 64.2427 102.705 64.2427ZM102.718 62.2531C103.269 62.2531 103.729 62.0999 104.099 61.7935C104.469 61.4825 104.744 61.0662 104.924 60.5448C105.109 60.0234 105.202 59.4426 105.202 58.8022C105.202 58.1573 105.109 57.5742 104.924 57.0528C104.744 56.5268 104.469 56.1083 104.099 55.7973C103.729 55.4863 103.269 55.3308 102.718 55.3308C102.154 55.3308 101.685 55.4863 101.311 55.7973C100.941 56.1083 100.663 56.5268 100.479 57.0528C100.298 57.5742 100.208 58.1573 100.208 58.8022C100.208 59.4426 100.298 60.0234 100.479 60.5448C100.663 61.0662 100.941 61.4825 101.311 61.7935C101.685 62.0999 102.154 62.2531 102.718 62.2531Z" fill="black"/>
<path d="M113.904 68.2082C113.024 68.2082 112.268 68.087 111.637 67.8445C111.005 67.6067 110.498 67.2865 110.114 66.8841C109.731 66.4816 109.464 66.0356 109.316 65.5462L111.522 65.0042C111.621 65.2101 111.765 65.4136 111.955 65.6148C112.144 65.8207 112.399 65.9899 112.719 66.1225C113.044 66.2597 113.452 66.3283 113.944 66.3283C114.639 66.3283 115.214 66.1568 115.67 65.8138C116.125 65.4753 116.353 64.9173 116.353 64.1398V62.1434H116.231C116.105 62.3995 115.92 62.6625 115.676 62.9323C115.437 63.2022 115.119 63.4286 114.722 63.6115C114.33 63.7945 113.836 63.886 113.24 63.886C112.442 63.886 111.718 63.6961 111.068 63.3165C110.423 62.9323 109.909 62.3606 109.525 61.6014C109.146 60.8376 108.957 59.8816 108.957 58.7336C108.957 57.5765 109.146 56.6 109.525 55.8041C109.909 55.0037 110.425 54.3977 111.075 53.9861C111.725 53.5699 112.449 53.3618 113.247 53.3618C113.856 53.3618 114.357 53.467 114.749 53.6773C115.146 53.8832 115.462 54.1324 115.697 54.4252C115.931 54.7133 116.11 54.9854 116.231 55.2416H116.367V53.499H118.782V64.2084C118.782 65.1094 118.57 65.855 118.146 66.445C117.722 67.035 117.143 67.4764 116.407 67.7691C115.672 68.0618 114.837 68.2082 113.904 68.2082ZM113.924 61.9375C114.443 61.9375 114.885 61.8095 115.25 61.5533C115.616 61.2972 115.893 60.929 116.083 60.4488C116.272 59.9685 116.367 59.3922 116.367 58.7199C116.367 58.0567 116.272 57.4758 116.083 56.9773C115.898 56.4788 115.622 56.0923 115.257 55.8179C114.896 55.5389 114.452 55.3994 113.924 55.3994C113.378 55.3994 112.922 55.5434 112.557 55.8316C112.192 56.1197 111.916 56.5154 111.731 57.0185C111.546 57.517 111.454 58.0842 111.454 58.7199C111.454 59.3648 111.546 59.9297 111.731 60.4145C111.921 60.8947 112.198 61.2698 112.564 61.5396C112.934 61.8049 113.387 61.9375 113.924 61.9375Z" fill="black"/>
<path d="M125.446 64.2427C124.431 64.2427 123.551 64.0163 122.807 63.5635C122.062 63.1107 121.485 62.4772 121.074 61.6631C120.668 60.849 120.465 59.8976 120.465 58.8091C120.465 57.7205 120.668 56.7669 121.074 55.9482C121.485 55.1295 122.062 54.4938 122.807 54.041C123.551 53.5882 124.431 53.3618 125.446 53.3618C126.461 53.3618 127.34 53.5882 128.085 54.041C128.829 54.4938 129.404 55.1295 129.81 55.9482C130.221 56.7669 130.426 57.7205 130.426 58.8091C130.426 59.8976 130.221 60.849 129.81 61.6631C129.404 62.4772 128.829 63.1107 128.085 63.5635C127.34 64.0163 126.461 64.2427 125.446 64.2427ZM125.459 62.2531C126.01 62.2531 126.47 62.0999 126.84 61.7935C127.21 61.4825 127.485 61.0662 127.665 60.5448C127.85 60.0234 127.943 59.4426 127.943 58.8022C127.943 58.1573 127.85 57.5742 127.665 57.0528C127.485 56.5268 127.21 56.1083 126.84 55.7973C126.47 55.4863 126.01 55.3308 125.459 55.3308C124.895 55.3308 124.426 55.4863 124.052 55.7973C123.682 56.1083 123.404 56.5268 123.219 57.0528C123.039 57.5742 122.949 58.1573 122.949 58.8022C122.949 59.4426 123.039 60.0234 123.219 60.5448C123.404 61.0662 123.682 61.4825 124.052 61.7935C124.426 62.0999 124.895 62.2531 125.459 62.2531Z" fill="black"/>
<path d="M140.339 56.2844L138.106 56.5314C138.043 56.3027 137.932 56.0877 137.775 55.8865C137.621 55.6852 137.414 55.5229 137.152 55.3994C136.89 55.2759 136.57 55.2141 136.191 55.2141C135.681 55.2141 135.253 55.3262 134.905 55.5503C134.563 55.7744 134.393 56.0648 134.398 56.4216C134.393 56.728 134.504 56.9773 134.729 57.1694C134.96 57.3615 135.338 57.5193 135.866 57.6428L137.639 58.027C138.623 58.242 139.353 58.5827 139.832 59.0492C140.314 59.5157 140.558 60.1263 140.562 60.881C140.558 61.5442 140.366 62.1296 139.987 62.6373C139.613 63.1404 139.092 63.5338 138.424 63.8174C137.756 64.1009 136.99 64.2427 136.123 64.2427C134.851 64.2427 133.827 63.9729 133.051 63.4332C132.275 62.8889 131.813 62.1319 131.664 61.1623L134.053 60.929C134.161 61.4047 134.391 61.7637 134.743 62.0061C135.095 62.2486 135.553 62.3698 136.117 62.3698C136.699 62.3698 137.166 62.2486 137.517 62.0061C137.874 61.7637 138.052 61.4642 138.052 61.1074C138.052 60.8055 137.937 60.5563 137.707 60.3596C137.481 60.1629 137.129 60.012 136.651 59.9068L134.878 59.5295C133.881 59.3191 133.144 58.9646 132.666 58.4661C132.187 57.963 131.95 57.3272 131.955 56.5588C131.95 55.9093 132.124 55.3468 132.476 54.8711C132.832 54.3909 133.326 54.0204 133.958 53.7597C134.594 53.4944 135.327 53.3618 136.157 53.3618C137.375 53.3618 138.334 53.6247 139.033 54.1507C139.737 54.6767 140.172 55.3879 140.339 56.2844Z" fill="black"/>
<path d="M79.5652 90.9453H26.4297V57.7546H79.515L79.5652 90.9453ZM52.9388 60.4173C48.4035 60.4221 43.9396 61.5609 39.9432 63.7325C35.9469 65.9041 32.5417 69.0415 30.0301 72.866C29.6978 73.2545 29.5149 73.7512 29.5149 74.2652C29.5149 74.7791 29.6978 75.2759 30.0301 75.6644C32.5579 79.4713 35.9695 82.5917 39.9656 84.752C43.9617 86.9123 48.4203 88.0464 52.95 88.0547C57.4798 88.0631 61.9425 86.9456 65.9463 84.8001C69.9502 82.6546 73.373 79.5467 75.9145 75.7492C76.277 75.3387 76.4774 74.8074 76.4774 74.2567C76.4774 73.706 76.277 73.1746 75.9145 72.7642C73.38 68.9553 69.9577 65.8377 65.9503 63.6871C61.9429 61.5366 57.474 60.4193 52.9388 60.4343V60.4173Z" fill="black"/>
<path d="M53.0896 54.6509C48.5833 54.6418 44.1464 53.526 40.1594 51.3992C36.1723 49.2724 32.754 46.198 30.1976 42.4397C29.7714 41.9805 29.5341 41.3739 29.5341 40.7437C29.5341 40.1134 29.7714 39.5069 30.1976 39.0477C32.7526 35.2961 36.1732 32.2329 40.1623 30.1239C44.1514 28.0149 48.5885 26.9239 53.0884 26.9456C57.5883 26.9674 62.015 28.1011 65.9841 30.2486C69.9532 32.396 73.3447 35.4921 75.8643 39.2681C76.2256 39.6758 76.4254 40.2043 76.4254 40.7521C76.4254 41.2999 76.2256 41.8284 75.8643 42.2361C73.3478 46.0218 69.9593 49.1303 65.9914 51.2933C62.0236 53.4562 57.5955 54.6086 53.0896 54.6509ZM63.0033 40.9132C63.0499 38.8912 62.5004 36.9009 61.4251 35.1965C60.3498 33.4922 58.7973 32.1511 56.9659 31.3443C55.1345 30.5376 53.1073 30.3019 51.143 30.6673C49.1788 31.0327 47.3666 31.9827 45.9379 33.3959C44.5091 34.8091 43.5287 36.6215 43.1216 38.6016C42.7145 40.5818 42.8994 42.6399 43.6525 44.5132C44.4056 46.3865 45.6928 47.99 47.3498 49.119C49.0069 50.248 50.9585 50.8513 52.9556 50.8518C55.5803 50.8526 58.1011 49.8131 59.9788 47.9558C61.8565 46.0985 62.942 43.5707 63.0033 40.9132Z" fill="black"/>
<path d="M52.9886 84.2797C51.0413 84.2463 49.1471 83.6307 47.5442 82.5103C45.9412 81.39 44.701 79.8147 43.9793 77.9826C43.2576 76.1505 43.0866 74.1433 43.4879 72.2131C43.8892 70.2829 44.8448 68.5159 46.2347 67.134C47.6246 65.7522 49.3867 64.8173 51.2997 64.4466C53.2126 64.076 55.1911 64.2862 56.9864 65.0509C58.7817 65.8156 60.3139 67.1006 61.3903 68.7445C62.4667 70.3884 63.0394 72.3178 63.0363 74.2903C63.0321 75.6167 62.7679 76.929 62.2592 78.1512C61.7504 79.3734 61.0072 80.4812 60.0726 81.4104C59.138 82.3396 58.0306 83.0716 56.8146 83.5642C55.5986 84.0567 54.2982 84.2999 52.9886 84.2797Z" fill="black"/>
</svg>
