<svg width="106" height="117" viewBox="0 0 106 117" fill="none" xmlns="http://www.w3.org/2000/svg">
<path d="M79.5652 90.9453H26.4297V57.7546H79.515L79.5652 90.9453ZM52.9388 60.4173C48.4035 60.4221 43.9396 61.5609 39.9432 63.7325C35.9469 65.9041 32.5417 69.0415 30.0301 72.866C29.6978 73.2545 29.5149 73.7512 29.5149 74.2652C29.5149 74.7791 29.6978 75.2759 30.0301 75.6644C32.5579 79.4713 35.9695 82.5917 39.9656 84.752C43.9617 86.9123 48.4203 88.0464 52.95 88.0547C57.4798 88.0631 61.9425 86.9455 65.9463 84.8001C69.9502 82.6546 73.373 79.5467 75.9145 75.7492C76.277 75.3387 76.4774 74.8074 76.4774 74.2567C76.4774 73.706 76.277 73.1746 75.9145 72.7642C73.38 68.9553 69.9577 65.8377 65.9503 63.6871C61.943 61.5366 57.474 60.4193 52.9388 60.4343V60.4173Z" fill="white"/>
<path d="M53.0896 54.6509C48.5833 54.6418 44.1464 53.526 40.1594 51.3992C36.1723 49.2724 32.754 46.198 30.1976 42.4397C29.7714 41.9805 29.5341 41.3739 29.5341 40.7437C29.5341 40.1134 29.7714 39.5069 30.1976 39.0477C32.7526 35.2961 36.1732 32.2329 40.1623 30.1239C44.1514 28.0149 48.5885 26.9239 53.0884 26.9456C57.5883 26.9674 62.015 28.1011 65.9841 30.2486C69.9532 32.396 73.3447 35.4921 75.8643 39.2681C76.2256 39.6758 76.4254 40.2043 76.4254 40.7521C76.4254 41.2999 76.2256 41.8284 75.8643 42.2361C73.3478 46.0218 69.9593 49.1303 65.9914 51.2933C62.0236 53.4562 57.5955 54.6086 53.0896 54.6509ZM63.0033 40.9132C63.0499 38.8912 62.5004 36.9009 61.4251 35.1965C60.3498 33.4922 58.7973 32.1511 56.9659 31.3443C55.1345 30.5376 53.1073 30.3019 51.143 30.6673C49.1788 31.0327 47.3666 31.9827 45.9379 33.3959C44.5091 34.8091 43.5287 36.6215 43.1216 38.6016C42.7145 40.5818 42.8994 42.6399 43.6525 44.5132C44.4056 46.3865 45.6928 47.99 47.3498 49.119C49.0069 50.248 50.9585 50.8513 52.9556 50.8518C55.5803 50.8526 58.1011 49.8131 59.9788 47.9558C61.8565 46.0985 62.942 43.5707 63.0033 40.9132Z" fill="white"/>
<path d="M52.9886 84.2797C51.0413 84.2463 49.1471 83.6307 47.5442 82.5103C45.9412 81.39 44.701 79.8147 43.9793 77.9826C43.2576 76.1505 43.0866 74.1433 43.4879 72.2131C43.8892 70.2829 44.8448 68.5159 46.2347 67.134C47.6246 65.7522 49.3867 64.8173 51.2997 64.4466C53.2126 64.076 55.1911 64.2862 56.9864 65.0509C58.7817 65.8156 60.3139 67.1006 61.3903 68.7445C62.4667 70.3884 63.0394 72.3178 63.0363 74.2903C63.0321 75.6167 62.7679 76.929 62.2592 78.1512C61.7504 79.3734 61.0072 80.4812 60.0726 81.4104C59.138 82.3396 58.0306 83.0716 56.8146 83.5642C55.5986 84.0567 54.2982 84.2999 52.9886 84.2797Z" fill="white"/>
</svg>
