<svg width="400" height="400" viewBox="0 0 400 400" fill="none" xmlns="http://www.w3.org/2000/svg">
<g clip-path="url(#clip0_1045_16230)">
<rect width="400" height="400" fill="black"/>
<path d="M291.497 310.345H108.486V195.894H291.324L291.497 310.345ZM199.79 205.076C184.169 205.092 168.794 209.019 155.03 216.508C141.266 223.996 129.538 234.814 120.887 248.002C119.742 249.342 119.112 251.055 119.112 252.827C119.112 254.599 119.742 256.312 120.887 257.652C129.593 270.779 141.343 281.539 155.107 288.989C168.871 296.438 184.227 300.348 199.828 300.377C215.43 300.406 230.8 296.553 244.59 289.154C258.381 281.756 270.17 271.039 278.923 257.944C280.171 256.529 280.862 254.697 280.862 252.798C280.862 250.899 280.171 249.067 278.923 247.651C270.193 234.517 258.406 223.767 244.604 216.351C230.802 208.935 215.41 205.083 199.79 205.134V205.076Z" fill="white"/>
<path d="M200.309 185.191C184.788 185.16 169.507 181.313 155.774 173.979C142.042 166.645 130.269 156.044 121.464 143.084C119.996 141.501 119.178 139.409 119.178 137.236C119.178 135.062 119.996 132.971 121.464 131.387C130.264 118.451 142.045 107.888 155.784 100.616C169.524 93.3433 184.806 89.5813 200.305 89.6562C215.803 89.7312 231.05 93.6408 244.72 101.046C258.391 108.451 270.072 119.127 278.75 132.148C279.994 133.553 280.683 135.376 280.683 137.265C280.683 139.154 279.994 140.976 278.75 142.382C270.083 155.436 258.412 166.155 244.746 173.614C231.079 181.072 215.828 185.046 200.309 185.191ZM234.454 137.82C234.614 130.848 232.722 123.985 229.018 118.108C225.314 112.231 219.967 107.606 213.66 104.824C207.352 102.042 200.37 101.229 193.605 102.49C186.839 103.75 180.598 107.025 175.677 111.899C170.756 116.772 167.379 123.021 165.977 129.849C164.575 136.678 165.211 143.774 167.805 150.234C170.399 156.694 174.833 162.223 180.54 166.116C186.247 170.009 192.969 172.09 199.847 172.091C208.887 172.094 217.57 168.51 224.037 162.105C230.504 155.7 234.243 146.984 234.454 137.82Z" fill="white"/>
<path d="M199.961 287.36C193.254 287.245 186.73 285.122 181.209 281.259C175.688 277.395 171.417 271.963 168.931 265.646C166.445 259.328 165.856 252.407 167.239 245.751C168.621 239.095 171.912 233.002 176.699 228.237C181.486 223.472 187.555 220.248 194.144 218.97C200.733 217.692 207.547 218.417 213.73 221.054C219.914 223.691 225.191 228.122 228.898 233.79C232.606 239.459 234.578 246.112 234.568 252.914C234.553 257.488 233.643 262.013 231.891 266.227C230.139 270.442 227.579 274.262 224.36 277.466C221.141 280.67 217.327 283.194 213.139 284.893C208.951 286.591 204.471 287.43 199.961 287.36Z" fill="white"/>
</g>
<defs>
<clipPath id="clip0_1045_16230">
<rect width="400" height="400" fill="white"/>
</clipPath>
</defs>
</svg>
