<svg width="108" height="139" viewBox="0 0 108 139" fill="none" xmlns="http://www.w3.org/2000/svg">
<path d="M27.5566 111.96V97.8906H30.1053V109.823H36.3017V111.96H27.5566Z" fill="white"/>
<path d="M42.6196 112.166C41.5892 112.166 40.6961 111.939 39.9405 111.486C39.1848 111.032 38.5986 110.398 38.1818 109.583C37.7696 108.768 37.5636 107.815 37.5636 106.725C37.5636 105.635 37.7696 104.68 38.1818 103.86C38.5986 103.041 39.1848 102.404 39.9405 101.951C40.6961 101.497 41.5892 101.271 42.6196 101.271C43.6501 101.271 44.5431 101.497 45.2988 101.951C46.0545 102.404 46.6384 103.041 47.0506 103.86C47.4673 104.68 47.6757 105.635 47.6757 106.725C47.6757 107.815 47.4673 108.768 47.0506 109.583C46.6384 110.398 46.0545 111.032 45.2988 111.486C44.5431 111.939 43.6501 112.166 42.6196 112.166ZM42.6334 110.174C43.1921 110.174 43.6592 110.02 44.0348 109.713C44.4103 109.402 44.6897 108.985 44.8729 108.463C45.0607 107.941 45.1545 107.359 45.1545 106.718C45.1545 106.072 45.0607 105.488 44.8729 104.966C44.6897 104.44 44.4103 104.021 44.0348 103.709C43.6592 103.398 43.1921 103.242 42.6334 103.242C42.0609 103.242 41.5846 103.398 41.2045 103.709C40.8289 104.021 40.5473 104.44 40.3595 104.966C40.1763 105.488 40.0847 106.072 40.0847 106.718C40.0847 107.359 40.1763 107.941 40.3595 108.463C40.5473 108.985 40.8289 109.402 41.2045 109.713C41.5846 110.02 42.0609 110.174 42.6334 110.174Z" fill="white"/>
<path d="M53.9885 116.136C53.0954 116.136 52.3283 116.015 51.6871 115.772C51.046 115.534 50.5307 115.214 50.1414 114.811C49.7522 114.408 49.482 113.961 49.3308 113.471L51.5703 112.928C51.6711 113.134 51.8176 113.338 52.01 113.54C52.2023 113.746 52.4611 113.915 52.7863 114.048C53.116 114.185 53.5305 114.254 54.0297 114.254C54.735 114.254 55.3189 114.082 55.7814 113.739C56.244 113.4 56.4753 112.841 56.4753 112.063V110.064H56.3516C56.2234 110.32 56.0356 110.583 55.7883 110.854C55.5456 111.124 55.2227 111.351 54.8197 111.534C54.4213 111.717 53.9198 111.809 53.3152 111.809C52.5046 111.809 51.7696 111.619 51.1101 111.238C50.4552 110.854 49.9331 110.281 49.5438 109.521C49.1591 108.756 48.9667 107.799 48.9667 106.649C48.9667 105.491 49.1591 104.513 49.5438 103.716C49.9331 102.915 50.4574 102.308 51.1169 101.896C51.7764 101.479 52.5115 101.271 53.3221 101.271C53.9404 101.271 54.4487 101.376 54.8472 101.587C55.2502 101.793 55.5708 102.042 55.8089 102.335C56.0471 102.624 56.228 102.896 56.3516 103.153H56.489V101.408H58.9415V112.131C58.9415 113.034 58.7262 113.78 58.2957 114.371C57.8652 114.962 57.2767 115.404 56.5302 115.697C55.7837 115.99 54.9365 116.136 53.9885 116.136ZM54.0091 109.858C54.5357 109.858 54.9846 109.729 55.3555 109.473C55.7265 109.216 56.0082 108.848 56.2005 108.367C56.3929 107.886 56.489 107.309 56.489 106.636C56.489 105.972 56.3929 105.39 56.2005 104.891C56.0127 104.392 55.7334 104.005 55.3624 103.73C54.996 103.45 54.5449 103.311 54.0091 103.311C53.4549 103.311 52.9924 103.455 52.6214 103.744C52.2504 104.032 51.9711 104.428 51.7833 104.932C51.5955 105.431 51.5016 105.999 51.5016 106.636C51.5016 107.281 51.5955 107.847 51.7833 108.333C51.9756 108.813 52.2573 109.189 52.6283 109.459C53.0038 109.725 53.4641 109.858 54.0091 109.858Z" fill="white"/>
<path d="M65.7059 112.166C64.6755 112.166 63.7824 111.939 63.0268 111.486C62.2711 111.032 61.6849 110.398 61.2681 109.583C60.8559 108.768 60.6499 107.815 60.6499 106.725C60.6499 105.635 60.8559 104.68 61.2681 103.86C61.6849 103.041 62.2711 102.404 63.0268 101.951C63.7824 101.497 64.6755 101.271 65.7059 101.271C66.7364 101.271 67.6294 101.497 68.3851 101.951C69.1408 102.404 69.7247 103.041 70.1369 103.86C70.5536 104.68 70.762 105.635 70.762 106.725C70.762 107.815 70.5536 108.768 70.1369 109.583C69.7247 110.398 69.1408 111.032 68.3851 111.486C67.6294 111.939 66.7364 112.166 65.7059 112.166ZM65.7197 110.174C66.2784 110.174 66.7455 110.02 67.1211 109.713C67.4966 109.402 67.776 108.985 67.9592 108.463C68.1469 107.941 68.2408 107.359 68.2408 106.718C68.2408 106.072 68.1469 105.488 67.9592 104.966C67.776 104.44 67.4966 104.021 67.1211 103.709C66.7455 103.398 66.2784 103.242 65.7197 103.242C65.1472 103.242 64.6709 103.398 64.2908 103.709C63.9152 104.021 63.6336 104.44 63.4458 104.966C63.2626 105.488 63.171 106.072 63.171 106.718C63.171 107.359 63.2626 107.941 63.4458 108.463C63.6336 108.985 63.9152 109.402 64.2908 109.713C64.6709 110.02 65.1472 110.174 65.7197 110.174Z" fill="white"/>
<path d="M80.8256 104.197L78.5586 104.444C78.4945 104.215 78.3823 104 78.222 103.799C78.0663 103.597 77.8556 103.434 77.59 103.311C77.3244 103.187 76.9992 103.125 76.6145 103.125C76.097 103.125 75.6619 103.238 75.3093 103.462C74.9612 103.686 74.7895 103.977 74.794 104.334C74.7895 104.641 74.9016 104.891 75.1306 105.083C75.3642 105.276 75.7489 105.434 76.2847 105.557L78.0846 105.942C79.083 106.157 79.8249 106.498 80.3104 106.965C80.8004 107.433 81.0477 108.044 81.0523 108.8C81.0477 109.464 80.8531 110.05 80.4684 110.558C80.0883 111.062 79.5593 111.456 78.8815 111.74C78.2037 112.024 77.4251 112.166 76.5458 112.166C75.2543 112.166 74.2147 111.896 73.427 111.355C72.6392 110.81 72.1698 110.052 72.0187 109.081L74.4437 108.848C74.5536 109.324 74.7872 109.684 75.1444 109.926C75.5016 110.169 75.9664 110.29 76.5389 110.29C77.1297 110.29 77.6037 110.169 77.9609 109.926C78.3228 109.684 78.5037 109.384 78.5037 109.026C78.5037 108.724 78.3869 108.474 78.1533 108.278C77.9243 108.081 77.5671 107.93 77.0816 107.824L75.2818 107.446C74.2696 107.236 73.5208 106.881 73.0354 106.382C72.5499 105.878 72.3095 105.241 72.3141 104.472C72.3095 103.821 72.4858 103.258 72.843 102.782C73.2048 102.301 73.7063 101.93 74.3475 101.669C74.9932 101.403 75.7375 101.271 76.5801 101.271C77.8167 101.271 78.7899 101.534 79.4998 102.061C80.2142 102.587 80.6561 103.299 80.8256 104.197Z" fill="white"/>
<path d="M80.5672 90.9453H27.4316V57.7546H80.5169L80.5672 90.9453ZM53.9408 60.4173C49.4055 60.4221 44.9415 61.5609 40.9452 63.7325C36.9488 65.9041 33.5437 69.0415 31.0321 72.866C30.6998 73.2545 30.5169 73.7512 30.5169 74.2652C30.5169 74.7791 30.6998 75.2759 31.0321 75.6644C33.5598 79.4713 36.9714 82.5917 40.9676 84.752C44.9637 86.9123 49.4222 88.0464 53.952 88.0547C58.4818 88.0631 62.9444 86.9456 66.9483 84.8001C70.9522 82.6546 74.375 79.5467 76.9165 75.7492C77.2789 75.3387 77.4794 74.8074 77.4794 74.2567C77.4794 73.706 77.2789 73.1746 76.9165 72.7642C74.3819 68.9553 70.9597 65.8377 66.9523 63.6871C62.9449 61.5366 58.4759 60.4193 53.9408 60.4343V60.4173Z" fill="white"/>
<path d="M54.0915 54.6509C49.5853 54.6418 45.1484 53.526 41.1613 51.3992C37.1743 49.2724 33.756 46.198 31.1996 42.4397C30.7733 41.9805 30.536 41.3739 30.536 40.7437C30.536 40.1134 30.7733 39.5069 31.1996 39.0477C33.7546 35.2961 37.1751 32.2329 41.1642 30.1239C45.1534 28.0149 49.5905 26.9239 54.0904 26.9456C58.5903 26.9674 63.0169 28.1011 66.986 30.2486C70.9551 32.396 74.3467 35.4921 76.8662 39.2681C77.2275 39.6758 77.4274 40.2043 77.4274 40.7521C77.4274 41.2999 77.2275 41.8284 76.8662 42.2361C74.3498 46.0218 70.9613 49.1303 66.9934 51.2933C63.0255 53.4562 58.5975 54.6086 54.0915 54.6509ZM64.0052 40.9132C64.0518 38.8912 63.5024 36.9009 62.4271 35.1965C61.3517 33.4922 59.7993 32.1511 57.9679 31.3443C56.1365 30.5376 54.1093 30.3019 52.145 30.6673C50.1808 31.0327 48.3686 31.9827 46.9398 33.3959C45.5111 34.8091 44.5306 36.6215 44.1235 38.6016C43.7165 40.5818 43.9013 42.6399 44.6544 44.5132C45.4075 46.3865 46.6947 47.99 48.3518 49.119C50.0088 50.248 51.9604 50.8513 53.9575 50.8518C56.5822 50.8526 59.103 49.8131 60.9807 47.9558C62.8584 46.0985 63.944 43.5707 64.0052 40.9132Z" fill="white"/>
<path d="M53.9906 84.2797C52.0432 84.2463 50.1491 83.6307 48.5461 82.5103C46.9431 81.39 45.7029 79.8147 44.9812 77.9826C44.2595 76.1505 44.0886 74.1433 44.4898 72.2131C44.8911 70.2829 45.8468 68.5159 47.2366 67.134C48.6265 65.7522 50.3887 64.8173 52.3016 64.4466C54.2146 64.076 56.193 64.2862 57.9884 65.0509C59.7837 65.8156 61.3158 67.1006 62.3922 68.7445C63.4687 70.3884 64.0413 72.3178 64.0383 74.2903C64.034 75.6167 63.7699 76.929 63.2611 78.1512C62.7524 79.3734 62.0091 80.4812 61.0745 81.4104C60.14 82.3396 59.0326 83.0716 57.8166 83.5642C56.6006 84.0567 55.3001 84.2999 53.9906 84.2797Z" fill="white"/>
</svg>
