<svg width="197" height="87" viewBox="0 0 197 87" fill="none" xmlns="http://www.w3.org/2000/svg">
<path d="M89.9873 43.9454C89.9873 50.1938 89.9873 59.9453 89.9873 59.9453C52.5203 59.9453 57.9204 43.9454 25.9868 43.9452C25.9868 50.1936 25.9868 59.9453 25.9868 59.9453H9.98675V43.9452C9.98675 43.9452 -5.94668 43.945 25.9868 43.9452C25.9868 37.6969 25.9868 27.9453 25.9868 27.9453C63.187 27.9453 57.9204 43.9454 89.9873 43.9454C89.9873 37.697 89.9873 27.9453 89.9873 27.9453H105.987V43.9454C105.987 43.9454 96.2357 43.9454 89.9873 43.9454Z" fill="black"/>
<path d="M124.675 35.136V49.3427H122.386L115.692 39.6657H115.574V49.3427H113V35.136H115.303L121.99 44.8198H122.115V35.136H124.675Z" fill="black"/>
<path d="M127.368 49.3427V38.6876H129.879V49.3427H127.368ZM128.63 37.1754C128.233 37.1754 127.891 37.0436 127.604 36.78C127.317 36.5118 127.174 36.1904 127.174 35.8158C127.174 35.4366 127.317 35.1152 127.604 34.8516C127.891 34.5833 128.233 34.4492 128.63 34.4492C129.033 34.4492 129.375 34.5833 129.657 34.8516C129.944 35.1152 130.087 35.4366 130.087 35.8158C130.087 36.1904 129.944 36.5118 129.657 36.78C129.375 37.0436 129.033 37.1754 128.63 37.1754Z" fill="black"/>
<path d="M132.461 49.3427V38.6876H134.862V40.4982H134.986C135.208 39.8877 135.576 39.4114 136.089 39.0692C136.603 38.7223 137.215 38.5489 137.928 38.5489C138.649 38.5489 139.257 38.7246 139.752 39.0761C140.251 39.423 140.603 39.897 140.806 40.4982H140.917C141.153 39.9062 141.551 39.4345 142.111 39.083C142.675 38.727 143.343 38.5489 144.115 38.5489C145.096 38.5489 145.896 38.8588 146.515 39.4784C147.135 40.0981 147.445 41.0022 147.445 42.1908V49.3427H144.927V42.5792C144.927 41.9179 144.751 41.4346 144.4 41.1294C144.048 40.8196 143.618 40.6647 143.109 40.6647C142.504 40.6647 142.03 40.8543 141.687 41.2335C141.35 41.6081 141.181 42.096 141.181 42.6972V49.3427H138.718V42.4752C138.718 41.9249 138.552 41.4855 138.219 41.1572C137.891 40.8288 137.461 40.6647 136.929 40.6647C136.568 40.6647 136.24 40.7571 135.944 40.9421C135.648 41.1225 135.412 41.3792 135.236 41.7121C135.06 42.0405 134.973 42.4243 134.973 42.8636V49.3427H132.461Z" fill="black"/>
<path d="M150.104 49.3427V35.136H152.615V40.4496H152.719C152.848 40.1906 153.031 39.9155 153.267 39.6241C153.503 39.3281 153.822 39.0761 154.224 38.868C154.626 38.6553 155.14 38.5489 155.764 38.5489C156.587 38.5489 157.329 38.7593 157.991 39.1802C158.657 39.5964 159.184 40.2138 159.572 41.0323C159.965 41.8462 160.162 42.8451 160.162 44.029C160.162 45.1991 159.97 46.1933 159.586 47.0119C159.202 47.8304 158.68 48.4548 158.019 48.8848C157.357 49.3149 156.608 49.53 155.771 49.53C155.161 49.53 154.654 49.4282 154.252 49.2247C153.849 49.0213 153.526 48.7762 153.281 48.4894C153.04 48.1981 152.853 47.9229 152.719 47.664H152.573V49.3427H150.104ZM152.566 44.0152C152.566 44.7042 152.663 45.3077 152.858 45.8257C153.056 46.3436 153.341 46.7483 153.711 47.0396C154.085 47.3264 154.539 47.4697 155.07 47.4697C155.625 47.4697 156.09 47.3217 156.465 47.0258C156.839 46.7252 157.121 46.3159 157.311 45.7979C157.505 45.2754 157.602 44.6811 157.602 44.0152C157.602 43.3538 157.508 42.7665 157.318 42.2532C157.128 41.7399 156.846 41.3375 156.472 41.0462C156.097 40.7548 155.63 40.6092 155.07 40.6092C154.534 40.6092 154.078 40.7502 153.704 41.0323C153.329 41.3144 153.045 41.7098 152.851 42.2185C152.661 42.7272 152.566 43.3261 152.566 44.0152Z" fill="black"/>
<path d="M169.088 44.8615V38.6876H171.599V49.3427H169.164V47.4489H169.053C168.813 48.0455 168.417 48.5334 167.867 48.9126C167.321 49.2918 166.649 49.4814 165.849 49.4814C165.15 49.4814 164.533 49.3265 163.996 49.0166C163.465 48.7022 163.048 48.2466 162.748 47.6501C162.447 47.0489 162.297 46.3228 162.297 45.4719V38.6876H164.808V45.0834C164.808 45.7586 164.993 46.2951 165.363 46.6928C165.733 47.0905 166.219 47.2894 166.82 47.2894C167.19 47.2894 167.548 47.1992 167.895 47.0188C168.242 46.8385 168.526 46.5702 168.748 46.2141C168.975 45.8534 169.088 45.4025 169.088 44.8615Z" fill="black"/>
<path d="M182.603 41.504L180.314 41.7537C180.249 41.5225 180.136 41.3052 179.974 41.1017C179.816 40.8982 179.604 40.734 179.336 40.6092C179.067 40.4843 178.739 40.4219 178.351 40.4219C177.828 40.4219 177.389 40.5352 177.033 40.7618C176.681 40.9884 176.508 41.282 176.512 41.6428C176.508 41.9526 176.621 42.2046 176.852 42.3989C177.088 42.5931 177.476 42.7527 178.018 42.8775L179.835 43.266C180.843 43.4833 181.592 43.8279 182.083 44.2996C182.577 44.7713 182.827 45.3887 182.832 46.1517C182.827 46.8223 182.631 47.4142 182.242 47.9276C181.858 48.4363 181.324 48.834 180.64 49.1207C179.955 49.4074 179.169 49.5508 178.281 49.5508C176.977 49.5508 175.927 49.2779 175.132 48.7322C174.336 48.1819 173.862 47.4165 173.71 46.4361L176.158 46.2003C176.269 46.6812 176.505 47.0443 176.866 47.2894C177.227 47.5345 177.696 47.657 178.274 47.657C178.871 47.657 179.349 47.5345 179.71 47.2894C180.075 47.0443 180.258 46.7414 180.258 46.3806C180.258 46.0754 180.14 45.8234 179.904 45.6245C179.673 45.4257 179.312 45.273 178.822 45.1667L177.005 44.7852C175.983 44.5724 175.227 44.214 174.736 43.7099C174.246 43.2012 174.003 42.5584 174.008 41.7815C174.003 41.1248 174.181 40.556 174.542 40.075C174.908 39.5894 175.414 39.2148 176.061 38.9512C176.713 38.683 177.465 38.5489 178.316 38.5489C179.564 38.5489 180.547 38.8148 181.264 39.3466C181.985 39.8785 182.432 40.5976 182.603 41.504Z" fill="black"/>
</svg>
