<svg width="197" height="87" viewBox="0 0 197 87" fill="none" xmlns="http://www.w3.org/2000/svg">
<path d="M74 43.9454V59.9453C65.2023 59.9453 60.6667 59.1455 55.3333 51.9455C50 44.7454 46.5544 43.9452 42 43.9452V59.9453H26V43.9452H42V27.9453C50.2089 27.9453 55.3333 29.012 60.6667 35.9454C66 42.8787 68.8122 43.9454 74 43.9454V27.9453H90V43.9454H74Z" fill="black"/>
<path d="M109.977 35.136V49.3427H107.688L100.994 39.6657H100.876V49.3427H98.3027V35.136H100.606L107.293 44.8198H107.418V35.136H109.977Z" fill="black"/>
<path d="M112.671 49.3427V38.6876H115.182V49.3427H112.671ZM113.933 37.1754C113.536 37.1754 113.193 37.0436 112.907 36.78C112.62 36.5118 112.476 36.1904 112.476 35.8158C112.476 35.4366 112.62 35.1152 112.907 34.8516C113.193 34.5833 113.536 34.4492 113.933 34.4492C114.336 34.4492 114.678 34.5833 114.96 34.8516C115.247 35.1152 115.39 35.4366 115.39 35.8158C115.39 36.1904 115.247 36.5118 114.96 36.78C114.678 37.0436 114.336 37.1754 113.933 37.1754Z" fill="black"/>
<path d="M117.764 49.3427V38.6876H120.164V40.4982H120.289C120.511 39.8877 120.879 39.4114 121.392 39.0692C121.905 38.7223 122.518 38.5489 123.23 38.5489C123.952 38.5489 124.56 38.7246 125.055 39.0761C125.554 39.423 125.906 39.897 126.109 40.4982H126.22C126.456 39.9062 126.854 39.4345 127.413 39.083C127.978 38.727 128.646 38.5489 129.418 38.5489C130.398 38.5489 131.199 38.8588 131.818 39.4784C132.438 40.0981 132.748 41.0022 132.748 42.1908V49.3427H130.23V42.5792C130.23 41.9179 130.054 41.4346 129.702 41.1294C129.351 40.8196 128.921 40.6647 128.412 40.6647C127.806 40.6647 127.332 40.8543 126.99 41.2335C126.653 41.6081 126.484 42.096 126.484 42.6972V49.3427H124.021V42.4752C124.021 41.9249 123.855 41.4855 123.522 41.1572C123.193 40.8288 122.763 40.6647 122.231 40.6647C121.871 40.6647 121.542 40.7571 121.246 40.9421C120.95 41.1225 120.715 41.3792 120.539 41.7121C120.363 42.0405 120.275 42.4243 120.275 42.8636V49.3427H117.764Z" fill="black"/>
<path d="M135.406 49.3427V35.136H137.917V40.4496H138.022C138.151 40.1906 138.334 39.9155 138.57 39.6241C138.805 39.3281 139.124 39.0761 139.527 38.868C139.929 38.6553 140.442 38.5489 141.067 38.5489C141.89 38.5489 142.632 38.7593 143.294 39.1802C143.959 39.5964 144.487 40.2138 144.875 41.0323C145.268 41.8462 145.465 42.8451 145.465 44.029C145.465 45.1991 145.273 46.1933 144.889 47.0119C144.505 47.8304 143.983 48.4548 143.321 48.8848C142.66 49.3149 141.911 49.53 141.074 49.53C140.463 49.53 139.957 49.4282 139.555 49.2247C139.152 49.0213 138.828 48.7762 138.583 48.4894C138.343 48.1981 138.156 47.9229 138.022 47.664H137.876V49.3427H135.406ZM137.869 44.0152C137.869 44.7042 137.966 45.3077 138.16 45.8257C138.359 46.3436 138.644 46.7483 139.013 47.0396C139.388 47.3264 139.841 47.4697 140.373 47.4697C140.928 47.4697 141.393 47.3217 141.767 47.0258C142.142 46.7252 142.424 46.3159 142.614 45.7979C142.808 45.2754 142.905 44.6811 142.905 44.0152C142.905 43.3538 142.81 42.7665 142.621 42.2532C142.431 41.7399 142.149 41.3375 141.774 41.0462C141.4 40.7548 140.933 40.6092 140.373 40.6092C139.837 40.6092 139.381 40.7502 139.007 41.0323C138.632 41.3144 138.348 41.7098 138.153 42.2185C137.964 42.7272 137.869 43.3261 137.869 44.0152Z" fill="black"/>
<path d="M154.391 44.8615V38.6876H156.902V49.3427H154.467V47.4489H154.356C154.116 48.0455 153.72 48.5334 153.17 48.9126C152.624 49.2918 151.951 49.4814 151.151 49.4814C150.453 49.4814 149.836 49.3265 149.299 49.0166C148.767 48.7022 148.351 48.2466 148.05 47.6501C147.75 47.0489 147.6 46.3228 147.6 45.4719V38.6876H150.111V45.0834C150.111 45.7586 150.296 46.2951 150.666 46.6928C151.036 47.0905 151.521 47.2894 152.122 47.2894C152.492 47.2894 152.851 47.1992 153.198 47.0188C153.544 46.8385 153.829 46.5702 154.051 46.2141C154.277 45.8534 154.391 45.4025 154.391 44.8615Z" fill="black"/>
<path d="M167.906 41.504L165.616 41.7537C165.552 41.5225 165.438 41.3052 165.276 41.1017C165.119 40.8982 164.907 40.734 164.638 40.6092C164.37 40.4843 164.042 40.4219 163.653 40.4219C163.131 40.4219 162.691 40.5352 162.335 40.7618C161.984 40.9884 161.81 41.282 161.815 41.6428C161.81 41.9526 161.924 42.2046 162.155 42.3989C162.391 42.5931 162.779 42.7527 163.32 42.8775L165.138 43.266C166.146 43.4833 166.895 43.8279 167.385 44.2996C167.88 44.7713 168.13 45.3887 168.134 46.1517C168.13 46.8223 167.933 47.4142 167.545 47.9276C167.161 48.4363 166.627 48.834 165.942 49.1207C165.258 49.4074 164.472 49.5508 163.584 49.5508C162.28 49.5508 161.23 49.2779 160.435 48.7322C159.639 48.1819 159.165 47.4165 159.012 46.4361L161.461 46.2003C161.572 46.6812 161.808 47.0443 162.169 47.2894C162.529 47.5345 162.999 47.657 163.577 47.657C164.174 47.657 164.652 47.5345 165.013 47.2894C165.378 47.0443 165.561 46.7414 165.561 46.3806C165.561 46.0754 165.443 45.8234 165.207 45.6245C164.976 45.4257 164.615 45.273 164.125 45.1667L162.307 44.7852C161.285 44.5724 160.529 44.214 160.039 43.7099C159.549 43.2012 159.306 42.5584 159.311 41.7815C159.306 41.1248 159.484 40.556 159.845 40.075C160.21 39.5894 160.717 39.2148 161.364 38.9512C162.016 38.683 162.768 38.5489 163.619 38.5489C164.867 38.5489 165.85 38.8148 166.567 39.3466C167.288 39.8785 167.734 40.5976 167.906 41.504Z" fill="black"/>
</svg>
