<svg width="221" height="116" viewBox="0 0 221 116" fill="none" xmlns="http://www.w3.org/2000/svg">
<rect width="211" height="116" transform="translate(10)" fill="white"/>
<path d="M98.9536 58.0009V79.3962C87.1892 79.3962 81.1242 78.3267 73.9924 68.6987C66.8606 59.0707 62.2531 58.0007 56.1629 58.0007V79.3962H34.7676V58.0007H56.1629V36.6055C67.14 36.6055 73.9924 38.0318 81.1242 47.3032C88.2559 56.5746 92.0165 58.0009 98.9536 58.0009V36.6055H120.349V58.0009H98.9536Z" fill="black"/>
<path d="M139.609 49.6456V63.4041H137.392L130.909 54.0324H130.795V63.4041H128.303V49.6456H130.533L137.009 59.024H137.13V49.6456H139.609Z" fill="black"/>
<path d="M142.217 63.4041V53.0852H144.649V63.4041H142.217ZM143.44 51.6207C143.055 51.6207 142.724 51.493 142.446 51.2377C142.168 50.978 142.029 50.6667 142.029 50.3039C142.029 49.9367 142.168 49.6254 142.446 49.3701C142.724 49.1104 143.055 48.9805 143.44 48.9805C143.83 48.9805 144.161 49.1104 144.434 49.3701C144.712 49.6254 144.851 49.9367 144.851 50.3039C144.851 50.6667 144.712 50.978 144.434 51.2377C144.161 51.493 143.83 51.6207 143.44 51.6207Z" fill="black"/>
<path d="M147.15 63.4041V53.0852H149.475V54.8386H149.596C149.811 54.2474 150.167 53.7861 150.664 53.4547C151.161 53.1188 151.754 52.9508 152.444 52.9508C153.143 52.9508 153.732 53.121 154.211 53.4614C154.695 53.7973 155.035 54.2564 155.232 54.8386H155.34C155.568 54.2653 155.953 53.8085 156.495 53.4681C157.041 53.1233 157.689 52.9508 158.437 52.9508C159.386 52.9508 160.161 53.2509 160.761 53.8511C161.361 54.4512 161.661 55.3268 161.661 56.4778V63.4041H159.223V56.854C159.223 56.2136 159.052 55.7455 158.712 55.4499C158.372 55.1499 157.955 54.9998 157.462 54.9998C156.876 54.9998 156.417 55.1835 156.085 55.5507C155.758 55.9135 155.595 56.386 155.595 56.9682V63.4041H153.21V56.7533C153.21 56.2203 153.049 55.7948 152.726 55.4768C152.408 55.1588 151.992 54.9998 151.477 54.9998C151.127 54.9998 150.809 55.0894 150.523 55.2686C150.236 55.4432 150.008 55.6918 149.837 56.0143C149.667 56.3323 149.582 56.704 149.582 57.1295V63.4041H147.15Z" fill="black"/>
<path d="M164.236 63.4041V49.6456H166.668V54.7916H166.769C166.894 54.5408 167.071 54.2743 167.299 53.9921C167.528 53.7055 167.837 53.4614 168.226 53.2599C168.616 53.0538 169.113 52.9508 169.718 52.9508C170.515 52.9508 171.234 53.1546 171.874 53.5622C172.519 53.9653 173.03 54.5632 173.406 55.3559C173.787 56.1441 173.977 57.1115 173.977 58.2581C173.977 59.3912 173.791 60.3541 173.419 61.1469C173.048 61.9396 172.542 62.5442 171.901 62.9607C171.261 63.3772 170.535 63.5855 169.725 63.5855C169.133 63.5855 168.643 63.487 168.253 63.2899C167.864 63.0928 167.55 62.8555 167.313 62.5778C167.08 62.2956 166.898 62.0292 166.769 61.7784H166.628V63.4041H164.236ZM166.621 58.2447C166.621 58.912 166.715 59.4965 166.903 59.9981C167.096 60.4997 167.371 60.8916 167.729 61.1737C168.092 61.4514 168.531 61.5902 169.046 61.5902C169.583 61.5902 170.034 61.4469 170.396 61.1603C170.759 60.8692 171.032 60.4728 171.216 59.9712C171.404 59.4651 171.498 58.8896 171.498 58.2447C171.498 57.6042 171.406 57.0354 171.223 56.5383C171.039 56.0411 170.766 55.6515 170.403 55.3693C170.04 55.0872 169.588 54.9461 169.046 54.9461C168.526 54.9461 168.085 55.0827 167.723 55.3559C167.36 55.6291 167.084 56.012 166.896 56.5047C166.713 56.9973 166.621 57.5773 166.621 58.2447Z" fill="black"/>
<path d="M182.622 59.0643V53.0852H185.053V63.4041H182.695V61.5701H182.588C182.355 62.1478 181.972 62.6203 181.439 62.9876C180.911 63.3549 180.259 63.5385 179.484 63.5385C178.808 63.5385 178.21 63.3884 177.69 63.0884C177.175 62.7838 176.772 62.3427 176.481 61.7649C176.19 61.1827 176.045 60.4795 176.045 59.6554V53.0852H178.476V59.2792C178.476 59.9331 178.656 60.4527 179.014 60.8378C179.372 61.223 179.842 61.4156 180.425 61.4156C180.783 61.4156 181.13 61.3282 181.466 61.1536C181.802 60.9789 182.077 60.7191 182.292 60.3743C182.512 60.0249 182.622 59.5883 182.622 59.0643Z" fill="black"/>
<path d="M195.71 55.8127L193.493 56.0546C193.43 55.8306 193.321 55.6201 193.164 55.4231C193.012 55.226 192.806 55.067 192.546 54.9461C192.286 54.8252 191.968 54.7647 191.592 54.7647C191.086 54.7647 190.66 54.8744 190.315 55.0939C189.975 55.3133 189.807 55.5977 189.812 55.9471C189.807 56.2472 189.917 56.4912 190.141 56.6794C190.369 56.8675 190.745 57.022 191.269 57.1429L193.029 57.5191C194.006 57.7296 194.731 58.0633 195.206 58.5201C195.685 58.9769 195.927 59.5748 195.932 60.3138C195.927 60.9632 195.737 61.5365 195.361 62.0336C194.989 62.5263 194.472 62.9115 193.809 63.1891C193.146 63.4668 192.385 63.6057 191.525 63.6057C190.262 63.6057 189.245 63.3414 188.475 62.8129C187.704 62.28 187.245 61.5387 187.097 60.5893L189.469 60.3608C189.576 60.8266 189.805 61.1782 190.154 61.4156C190.503 61.6529 190.958 61.7716 191.518 61.7716C192.096 61.7716 192.559 61.6529 192.909 61.4156C193.262 61.1782 193.439 60.8849 193.439 60.5355C193.439 60.2399 193.325 59.9958 193.097 59.8032C192.873 59.6107 192.523 59.4629 192.049 59.3599L190.288 58.9904C189.299 58.7843 188.566 58.4372 188.092 57.9491C187.617 57.4564 187.382 56.8339 187.386 56.0814C187.382 55.4455 187.554 54.8946 187.904 54.4288C188.257 53.9585 188.748 53.5958 189.375 53.3405C190.006 53.0807 190.734 52.9508 191.558 52.9508C192.767 52.9508 193.719 53.2084 194.413 53.7234C195.112 54.2385 195.544 54.9349 195.71 55.8127Z" fill="black"/>
</svg>
