<svg width="254" height="116" viewBox="0 0 254 116" fill="none" xmlns="http://www.w3.org/2000/svg">
<rect width="254" height="116" fill="black"/>
<path d="M131.332 58.0009C131.332 66.3563 131.332 79.3962 131.332 79.3962C81.2308 79.3962 88.4518 58.0009 45.75 58.0007C45.75 66.3561 45.75 79.3962 45.75 79.3962H24.3545V58.0007C24.3545 58.0007 3.04819 58.0004 45.75 58.0007C45.75 49.6453 45.75 36.6055 45.75 36.6055C95.4944 36.6055 88.4519 58.0009 131.332 58.0009C131.332 49.6455 131.332 36.6055 131.332 36.6055H152.727V58.0009C152.727 58.0009 139.687 58.0009 131.332 58.0009Z" fill="white"/>
<path d="M172.609 49.6456V63.4041H170.392L163.909 54.0324H163.795V63.4041H161.303V49.6456H163.533L170.009 59.024H170.13V49.6456H172.609Z" fill="white"/>
<path d="M175.217 63.4041V53.0852H177.649V63.4041H175.217ZM176.44 51.6207C176.055 51.6207 175.724 51.493 175.446 51.2377C175.168 50.978 175.029 50.6667 175.029 50.3039C175.029 49.9367 175.168 49.6254 175.446 49.3701C175.724 49.1104 176.055 48.9805 176.44 48.9805C176.83 48.9805 177.161 49.1104 177.434 49.3701C177.712 49.6254 177.851 49.9367 177.851 50.3039C177.851 50.6667 177.712 50.978 177.434 51.2377C177.161 51.493 176.83 51.6207 176.44 51.6207Z" fill="white"/>
<path d="M180.15 63.4041V53.0852H182.475V54.8386H182.596C182.811 54.2474 183.167 53.7861 183.664 53.4547C184.161 53.1188 184.754 52.9508 185.444 52.9508C186.143 52.9508 186.732 53.121 187.211 53.4614C187.695 53.7973 188.035 54.2564 188.232 54.8386H188.34C188.568 54.2653 188.953 53.8085 189.495 53.4681C190.041 53.1233 190.689 52.9508 191.437 52.9508C192.386 52.9508 193.161 53.2509 193.761 53.8511C194.361 54.4512 194.661 55.3268 194.661 56.4778V63.4041H192.223V56.854C192.223 56.2136 192.052 55.7455 191.712 55.4499C191.372 55.1499 190.955 54.9998 190.462 54.9998C189.876 54.9998 189.417 55.1835 189.085 55.5507C188.758 55.9135 188.595 56.386 188.595 56.9682V63.4041H186.21V56.7533C186.21 56.2203 186.049 55.7948 185.726 55.4768C185.408 55.1588 184.992 54.9998 184.477 54.9998C184.127 54.9998 183.809 55.0894 183.523 55.2686C183.236 55.4432 183.008 55.6918 182.837 56.0143C182.667 56.3323 182.582 56.704 182.582 57.1295V63.4041H180.15Z" fill="white"/>
<path d="M197.236 63.4041V49.6456H199.668V54.7916H199.769C199.894 54.5408 200.071 54.2743 200.299 53.9921C200.528 53.7055 200.837 53.4614 201.226 53.2599C201.616 53.0538 202.113 52.9508 202.718 52.9508C203.515 52.9508 204.234 53.1546 204.874 53.5622C205.519 53.9653 206.03 54.5632 206.406 55.3559C206.787 56.1441 206.977 57.1115 206.977 58.2581C206.977 59.3912 206.791 60.3541 206.419 61.1469C206.048 61.9396 205.542 62.5442 204.901 62.9607C204.261 63.3772 203.535 63.5855 202.725 63.5855C202.133 63.5855 201.643 63.487 201.253 63.2899C200.864 63.0928 200.55 62.8555 200.313 62.5778C200.08 62.2956 199.898 62.0292 199.769 61.7784H199.628V63.4041H197.236ZM199.621 58.2447C199.621 58.912 199.715 59.4965 199.903 59.9981C200.096 60.4997 200.371 60.8916 200.729 61.1737C201.092 61.4514 201.531 61.5902 202.046 61.5902C202.583 61.5902 203.034 61.4469 203.396 61.1603C203.759 60.8692 204.032 60.4728 204.216 59.9712C204.404 59.4651 204.498 58.8896 204.498 58.2447C204.498 57.6042 204.406 57.0354 204.223 56.5383C204.039 56.0411 203.766 55.6515 203.403 55.3693C203.04 55.0872 202.588 54.9461 202.046 54.9461C201.526 54.9461 201.085 55.0827 200.723 55.3559C200.36 55.6291 200.084 56.012 199.896 56.5047C199.713 56.9973 199.621 57.5773 199.621 58.2447Z" fill="white"/>
<path d="M215.622 59.0643V53.0852H218.053V63.4041H215.695V61.5701H215.588C215.355 62.1478 214.972 62.6203 214.439 62.9876C213.911 63.3549 213.259 63.5385 212.484 63.5385C211.808 63.5385 211.21 63.3884 210.69 63.0884C210.175 62.7838 209.772 62.3427 209.481 61.7649C209.19 61.1827 209.045 60.4795 209.045 59.6554V53.0852H211.476V59.2792C211.476 59.9331 211.656 60.4527 212.014 60.8378C212.372 61.223 212.842 61.4156 213.425 61.4156C213.783 61.4156 214.13 61.3282 214.466 61.1536C214.802 60.9789 215.077 60.7191 215.292 60.3743C215.512 60.0249 215.622 59.5883 215.622 59.0643Z" fill="white"/>
<path d="M228.71 55.8127L226.493 56.0546C226.43 55.8306 226.321 55.6201 226.164 55.4231C226.012 55.226 225.806 55.067 225.546 54.9461C225.286 54.8252 224.968 54.7647 224.592 54.7647C224.086 54.7647 223.66 54.8744 223.315 55.0939C222.975 55.3133 222.807 55.5977 222.812 55.9471C222.807 56.2472 222.917 56.4912 223.141 56.6794C223.369 56.8675 223.745 57.022 224.269 57.1429L226.029 57.5191C227.006 57.7296 227.731 58.0633 228.206 58.5201C228.685 58.9769 228.927 59.5748 228.932 60.3138C228.927 60.9632 228.737 61.5365 228.361 62.0336C227.989 62.5263 227.472 62.9115 226.809 63.1891C226.146 63.4668 225.385 63.6057 224.525 63.6057C223.262 63.6057 222.245 63.3414 221.475 62.8129C220.704 62.28 220.245 61.5387 220.097 60.5893L222.469 60.3608C222.576 60.8266 222.805 61.1782 223.154 61.4156C223.503 61.6529 223.958 61.7716 224.518 61.7716C225.096 61.7716 225.559 61.6529 225.909 61.4156C226.262 61.1782 226.439 60.8849 226.439 60.5355C226.439 60.2399 226.325 59.9958 226.097 59.8032C225.873 59.6107 225.523 59.4629 225.049 59.3599L223.288 58.9904C222.299 58.7843 221.566 58.4372 221.092 57.9491C220.617 57.4564 220.382 56.8339 220.386 56.0814C220.382 55.4455 220.554 54.8946 220.904 54.4288C221.257 53.9585 221.748 53.5958 222.375 53.3405C223.006 53.0807 223.734 52.9508 224.558 52.9508C225.767 52.9508 226.719 53.2084 227.413 53.7234C228.112 54.2385 228.544 54.9349 228.71 55.8127Z" fill="white"/>
</svg>
