<svg width="255" height="116" viewBox="0 0 255 116" fill="none" xmlns="http://www.w3.org/2000/svg">
<rect width="255" height="116" fill="white"/>
<path d="M132.332 58.0009C132.332 66.3563 132.332 79.3962 132.332 79.3962C82.2308 79.3962 89.4518 58.0009 46.75 58.0007C46.75 66.3561 46.75 79.3962 46.75 79.3962H25.3545V58.0007C25.3545 58.0007 4.04819 58.0004 46.75 58.0007C46.75 49.6453 46.75 36.6055 46.75 36.6055C96.4944 36.6055 89.4519 58.0009 132.332 58.0009C132.332 49.6455 132.332 36.6055 132.332 36.6055H153.727V58.0009C153.727 58.0009 140.687 58.0009 132.332 58.0009Z" fill="black"/>
<path d="M173.609 49.6456V63.4041H171.392L164.909 54.0324H164.795V63.4041H162.303V49.6456H164.533L171.009 59.024H171.13V49.6456H173.609Z" fill="black"/>
<path d="M176.217 63.4041V53.0852H178.649V63.4041H176.217ZM177.44 51.6207C177.055 51.6207 176.724 51.493 176.446 51.2377C176.168 50.978 176.029 50.6667 176.029 50.3039C176.029 49.9367 176.168 49.6254 176.446 49.3701C176.724 49.1104 177.055 48.9805 177.44 48.9805C177.83 48.9805 178.161 49.1104 178.434 49.3701C178.712 49.6254 178.851 49.9367 178.851 50.3039C178.851 50.6667 178.712 50.978 178.434 51.2377C178.161 51.493 177.83 51.6207 177.44 51.6207Z" fill="black"/>
<path d="M181.15 63.4041V53.0852H183.475V54.8386H183.596C183.811 54.2474 184.167 53.7861 184.664 53.4547C185.161 53.1188 185.754 52.9508 186.444 52.9508C187.143 52.9508 187.732 53.121 188.211 53.4614C188.695 53.7973 189.035 54.2564 189.232 54.8386H189.34C189.568 54.2653 189.953 53.8085 190.495 53.4681C191.041 53.1233 191.689 52.9508 192.437 52.9508C193.386 52.9508 194.161 53.2509 194.761 53.8511C195.361 54.4512 195.661 55.3268 195.661 56.4778V63.4041H193.223V56.854C193.223 56.2136 193.052 55.7455 192.712 55.4499C192.372 55.1499 191.955 54.9998 191.462 54.9998C190.876 54.9998 190.417 55.1835 190.085 55.5507C189.758 55.9135 189.595 56.386 189.595 56.9682V63.4041H187.21V56.7533C187.21 56.2203 187.049 55.7948 186.726 55.4768C186.408 55.1588 185.992 54.9998 185.477 54.9998C185.127 54.9998 184.809 55.0894 184.523 55.2686C184.236 55.4432 184.008 55.6918 183.837 56.0143C183.667 56.3323 183.582 56.704 183.582 57.1295V63.4041H181.15Z" fill="black"/>
<path d="M198.236 63.4041V49.6456H200.668V54.7916H200.769C200.894 54.5408 201.071 54.2743 201.299 53.9921C201.528 53.7055 201.837 53.4614 202.226 53.2599C202.616 53.0538 203.113 52.9508 203.718 52.9508C204.515 52.9508 205.234 53.1546 205.874 53.5622C206.519 53.9653 207.03 54.5632 207.406 55.3559C207.787 56.1441 207.977 57.1115 207.977 58.2581C207.977 59.3912 207.791 60.3541 207.419 61.1469C207.048 61.9396 206.542 62.5442 205.901 62.9607C205.261 63.3772 204.535 63.5855 203.725 63.5855C203.133 63.5855 202.643 63.487 202.253 63.2899C201.864 63.0928 201.55 62.8555 201.313 62.5778C201.08 62.2956 200.898 62.0292 200.769 61.7784H200.628V63.4041H198.236ZM200.621 58.2447C200.621 58.912 200.715 59.4965 200.903 59.9981C201.096 60.4997 201.371 60.8916 201.729 61.1737C202.092 61.4514 202.531 61.5902 203.046 61.5902C203.583 61.5902 204.034 61.4469 204.396 61.1603C204.759 60.8692 205.032 60.4728 205.216 59.9712C205.404 59.4651 205.498 58.8896 205.498 58.2447C205.498 57.6042 205.406 57.0354 205.223 56.5383C205.039 56.0411 204.766 55.6515 204.403 55.3693C204.04 55.0872 203.588 54.9461 203.046 54.9461C202.526 54.9461 202.085 55.0827 201.723 55.3559C201.36 55.6291 201.084 56.012 200.896 56.5047C200.713 56.9973 200.621 57.5773 200.621 58.2447Z" fill="black"/>
<path d="M216.622 59.0643V53.0852H219.053V63.4041H216.695V61.5701H216.588C216.355 62.1478 215.972 62.6203 215.439 62.9876C214.911 63.3549 214.259 63.5385 213.484 63.5385C212.808 63.5385 212.21 63.3884 211.69 63.0884C211.175 62.7838 210.772 62.3427 210.481 61.7649C210.19 61.1827 210.045 60.4795 210.045 59.6554V53.0852H212.476V59.2792C212.476 59.9331 212.656 60.4527 213.014 60.8378C213.372 61.223 213.842 61.4156 214.425 61.4156C214.783 61.4156 215.13 61.3282 215.466 61.1536C215.802 60.9789 216.077 60.7191 216.292 60.3743C216.512 60.0249 216.622 59.5883 216.622 59.0643Z" fill="black"/>
<path d="M229.71 55.8127L227.493 56.0546C227.43 55.8306 227.321 55.6201 227.164 55.4231C227.012 55.226 226.806 55.067 226.546 54.9461C226.286 54.8252 225.968 54.7647 225.592 54.7647C225.086 54.7647 224.66 54.8744 224.315 55.0939C223.975 55.3133 223.807 55.5977 223.812 55.9471C223.807 56.2472 223.917 56.4912 224.141 56.6794C224.369 56.8675 224.745 57.022 225.269 57.1429L227.029 57.5191C228.006 57.7296 228.731 58.0633 229.206 58.5201C229.685 58.9769 229.927 59.5748 229.932 60.3138C229.927 60.9632 229.737 61.5365 229.361 62.0336C228.989 62.5263 228.472 62.9115 227.809 63.1891C227.146 63.4668 226.385 63.6057 225.525 63.6057C224.262 63.6057 223.245 63.3414 222.475 62.8129C221.704 62.28 221.245 61.5387 221.097 60.5893L223.469 60.3608C223.576 60.8266 223.805 61.1782 224.154 61.4156C224.503 61.6529 224.958 61.7716 225.518 61.7716C226.096 61.7716 226.559 61.6529 226.909 61.4156C227.262 61.1782 227.439 60.8849 227.439 60.5355C227.439 60.2399 227.325 59.9958 227.097 59.8032C226.873 59.6107 226.523 59.4629 226.049 59.3599L224.288 58.9904C223.299 58.7843 222.566 58.4372 222.092 57.9491C221.617 57.4564 221.382 56.8339 221.386 56.0814C221.382 55.4455 221.554 54.8946 221.904 54.4288C222.257 53.9585 222.748 53.5958 223.375 53.3405C224.006 53.0807 224.734 52.9508 225.558 52.9508C226.767 52.9508 227.719 53.2084 228.413 53.7234C229.112 54.2385 229.544 54.9349 229.71 55.8127Z" fill="black"/>
</svg>
