<svg width="48" height="40" viewBox="0 0 48 40" fill="none" xmlns="http://www.w3.org/2000/svg">
<path d="M12.9585 25.7032V32.4524H11.8709L8.69077 27.8552H8.63474V32.4524H7.41211V25.7032H8.50622L11.6831 30.3037H11.7424V25.7032H12.9585Z" fill="white"/>
<path d="M14.2379 32.4524V27.3905H15.4309V32.4524H14.2379ZM14.8377 26.6721C14.6488 26.6721 14.4862 26.6095 14.35 26.4842C14.2138 26.3568 14.1457 26.2041 14.1457 26.0262C14.1457 25.846 14.2138 25.6933 14.35 25.5681C14.4862 25.4407 14.6488 25.377 14.8377 25.377C15.0289 25.377 15.1914 25.4407 15.3255 25.5681C15.4617 25.6933 15.5298 25.846 15.5298 26.0262C15.5298 26.2041 15.4617 26.3568 15.3255 26.4842C15.1914 26.6095 15.0289 26.6721 14.8377 26.6721Z" fill="white"/>
<path d="M16.6577 32.4524V27.3905H17.7979V28.2506H17.8572C17.9627 27.9606 18.1373 27.7343 18.3812 27.5718C18.6251 27.407 18.9162 27.3246 19.2545 27.3246C19.5973 27.3246 19.8862 27.4081 20.1212 27.5751C20.3585 27.7398 20.5255 27.965 20.6222 28.2506H20.6749C20.7869 27.9694 20.9759 27.7453 21.2417 27.5784C21.5098 27.4092 21.8272 27.3246 22.1941 27.3246C22.6599 27.3246 23.04 27.4718 23.3344 27.7662C23.6288 28.0606 23.776 28.4901 23.776 29.0547V32.4524H22.5797V29.2393C22.5797 28.9251 22.4962 28.6955 22.3292 28.5505C22.1623 28.4033 21.9579 28.3297 21.7163 28.3297C21.4285 28.3297 21.2033 28.4198 21.0407 28.6C20.8803 28.7779 20.8001 29.0097 20.8001 29.2953V32.4524H19.6302V29.1899C19.6302 28.9284 19.5511 28.7197 19.3929 28.5637C19.237 28.4077 19.0326 28.3297 18.78 28.3297C18.6086 28.3297 18.4526 28.3737 18.312 28.4616C18.1714 28.5472 18.0594 28.6692 17.9759 28.8274C17.8924 28.9833 17.8506 29.1657 17.8506 29.3744V32.4524H16.6577Z" fill="white"/>
<path d="M25.039 32.4524V25.7032H26.2319V28.2276H26.2814C26.3429 28.1045 26.4297 27.9738 26.5417 27.8354C26.6538 27.6948 26.8054 27.5751 26.9965 27.4762C27.1876 27.3751 27.4315 27.3246 27.7281 27.3246C28.1192 27.3246 28.4718 27.4246 28.786 27.6245C29.1023 27.8222 29.3528 28.1155 29.5373 28.5044C29.7241 28.8911 29.8175 29.3656 29.8175 29.9281C29.8175 30.4839 29.7263 30.9563 29.5439 31.3451C29.3616 31.734 29.1133 32.0306 28.7991 32.2349C28.485 32.4392 28.1291 32.5414 27.7314 32.5414C27.4414 32.5414 27.2008 32.4931 27.0097 32.3964C26.8185 32.2997 26.6648 32.1833 26.5483 32.0471C26.4341 31.9087 26.3451 31.7779 26.2814 31.6549H26.2122V32.4524H25.039ZM26.2089 29.9215C26.2089 30.2488 26.255 30.5355 26.3473 30.7816C26.4418 31.0277 26.5769 31.2199 26.7526 31.3583C26.9306 31.4945 27.1459 31.5626 27.3986 31.5626C27.6622 31.5626 27.883 31.4923 28.061 31.3517C28.2389 31.2089 28.3729 31.0145 28.463 30.7684C28.5553 30.5201 28.6014 30.2378 28.6014 29.9215C28.6014 29.6073 28.5564 29.3283 28.4663 29.0844C28.3762 28.8405 28.2422 28.6494 28.0642 28.511C27.8863 28.3726 27.6644 28.3034 27.3986 28.3034C27.1437 28.3034 26.9273 28.3704 26.7493 28.5044C26.5714 28.6384 26.4363 28.8263 26.344 29.0679C26.2539 29.3096 26.2089 29.5941 26.2089 29.9215Z" fill="white"/>
<path d="M34.058 30.3235V27.3905H35.2509V32.4524H34.0942V31.5527H34.0415C33.9272 31.8362 33.7394 32.0679 33.478 32.2481C33.2187 32.4282 32.899 32.5183 32.519 32.5183C32.1872 32.5183 31.8939 32.4447 31.6391 32.2975C31.3864 32.1481 31.1887 31.9317 31.0459 31.6483C30.9031 31.3627 30.8317 31.0178 30.8317 30.6135V27.3905H32.0246V30.429C32.0246 30.7497 32.1125 31.0046 32.2883 31.1935C32.464 31.3825 32.6947 31.4769 32.9803 31.4769C33.1561 31.4769 33.3264 31.4341 33.4911 31.3484C33.6559 31.2627 33.791 31.1353 33.8965 30.9661C34.0041 30.7948 34.058 30.5806 34.058 30.3235Z" fill="white"/>
<path d="M40.4784 28.7285L39.3909 28.8471C39.3602 28.7373 39.3063 28.634 39.2294 28.5373C39.1547 28.4407 39.0537 28.3627 38.9263 28.3034C38.7988 28.244 38.6428 28.2144 38.4583 28.2144C38.21 28.2144 38.0013 28.2682 37.8321 28.3759C37.6652 28.4835 37.5828 28.623 37.585 28.7944C37.5828 28.9416 37.6366 29.0613 37.7465 29.1536C37.8585 29.2459 38.0431 29.3217 38.3001 29.381L39.1635 29.5655C39.6425 29.6688 39.9984 29.8325 40.2313 30.0566C40.4664 30.2807 40.585 30.574 40.5872 30.9365C40.585 31.255 40.4916 31.5363 40.3071 31.7801C40.1247 32.0218 39.871 32.2107 39.5458 32.347C39.2206 32.4832 38.8472 32.5513 38.4253 32.5513C37.8058 32.5513 37.3071 32.4217 36.9292 32.1624C36.5513 31.901 36.3261 31.5374 36.2536 31.0716L37.4169 30.9595C37.4696 31.188 37.5817 31.3605 37.7531 31.4769C37.9244 31.5934 38.1474 31.6516 38.422 31.6516C38.7055 31.6516 38.9328 31.5934 39.1042 31.4769C39.2778 31.3605 39.3646 31.2166 39.3646 31.0452C39.3646 30.9002 39.3085 30.7805 39.1965 30.686C39.0866 30.5915 38.9153 30.519 38.6824 30.4685L37.819 30.2873C37.3334 30.1862 36.9742 30.0159 36.7413 29.7765C36.5084 29.5348 36.3931 29.2294 36.3953 28.8603C36.3931 28.5483 36.4777 28.2781 36.6491 28.0496C36.8226 27.8189 37.0632 27.641 37.3708 27.5157C37.6805 27.3883 38.0376 27.3246 38.4418 27.3246C39.035 27.3246 39.5019 27.4509 39.8424 27.7036C40.1851 27.9562 40.3971 28.2979 40.4784 28.7285Z" fill="white"/>
<path d="M35.2364 15.9447C35.2364 18.1244 35.2364 21.5261 35.2364 21.5261C22.3167 21.5261 24.1788 15.9447 13.1673 15.9446C13.1673 18.1243 13.1673 21.5261 13.1673 21.5261H7.65V15.9446C7.65 15.9446 2.15571 15.9446 13.1673 15.9446C13.1673 13.765 13.1673 10.3633 13.1673 10.3633C25.9949 10.3633 24.1789 15.9447 35.2364 15.9447C35.2364 13.765 35.2364 10.3633 35.2364 10.3633H40.7537V15.9447C40.7537 15.9447 37.391 15.9447 35.2364 15.9447Z" fill="white"/>
</svg>
