<svg width="400" height="529" viewBox="0 0 400 529" fill="none" xmlns="http://www.w3.org/2000/svg">
<path d="M276.386 112.458H286.961C286.961 112.776 286.961 113.093 286.961 113.411C286.961 116.217 286.961 119.024 286.961 121.83C287 122.061 286.947 122.298 286.814 122.491C286.681 122.684 286.477 122.817 286.248 122.862C284.438 123.57 282.884 124.807 281.789 126.413C280.693 128.019 280.107 129.919 280.107 131.863C280.107 133.808 280.693 135.708 281.789 137.314C282.884 138.92 284.438 140.157 286.248 140.864C286.469 140.921 286.662 141.058 286.789 141.248C286.916 141.439 286.968 141.67 286.935 141.897C286.935 146.318 286.935 150.739 286.935 155.134C286.967 155.364 286.912 155.598 286.779 155.79C286.647 155.981 286.448 156.115 286.221 156.166C284.41 156.868 282.852 158.102 281.754 159.706C280.656 161.31 280.068 163.209 280.068 165.154C280.068 167.099 280.656 168.998 281.754 170.603C282.852 172.207 284.41 173.441 286.221 174.142C286.445 174.204 286.639 174.346 286.765 174.541C286.892 174.736 286.943 174.971 286.909 175.201C286.909 179.622 286.909 184.043 286.909 188.438C286.943 188.668 286.892 188.903 286.765 189.098C286.639 189.293 286.445 189.435 286.221 189.497C284.41 190.198 282.852 191.432 281.754 193.036C280.656 194.641 280.068 196.54 280.068 198.485C280.068 200.43 280.656 202.329 281.754 203.933C282.852 205.537 284.41 206.771 286.221 207.473C286.453 207.524 286.657 207.662 286.79 207.859C286.922 208.056 286.974 208.297 286.935 208.532C286.935 212.953 286.935 217.347 286.935 221.768C286.975 221.999 286.927 222.237 286.799 222.433C286.672 222.63 286.475 222.771 286.248 222.827C284.436 223.529 282.879 224.763 281.781 226.367C280.682 227.971 280.095 229.87 280.095 231.815C280.095 233.76 280.682 235.659 281.781 237.264C282.879 238.868 284.436 240.102 286.248 240.803C286.48 240.854 286.683 240.993 286.816 241.19C286.949 241.387 287.001 241.628 286.961 241.862C286.961 246.257 286.961 250.678 286.961 255.099C287.002 255.33 286.953 255.567 286.826 255.764C286.698 255.96 286.501 256.101 286.274 256.158C284.465 256.865 282.911 258.103 281.815 259.709C280.72 261.315 280.134 263.214 280.134 265.159C280.134 267.104 280.72 269.003 281.815 270.609C282.911 272.215 284.465 273.453 286.274 274.16C286.502 274.199 286.705 274.327 286.839 274.515C286.973 274.704 287.026 274.938 286.988 275.166C286.988 278.846 286.988 282.499 286.988 286.179C286.988 286.418 286.988 286.682 286.988 286.947H276.386C274.693 281.652 271.732 278.767 267.502 278.528C265.399 278.37 263.302 278.899 261.526 280.037C260.342 280.802 259.335 281.812 258.573 283C257.812 284.187 257.313 285.524 257.111 286.921H242.992C242.674 284.688 241.601 282.632 239.951 281.096C238.36 279.618 236.318 278.72 234.154 278.547C231.991 278.374 229.832 278.936 228.027 280.143C226.885 280.914 225.917 281.915 225.184 283.082C224.451 284.249 223.969 285.556 223.77 286.921H209.704C209.403 284.578 208.26 282.425 206.489 280.865C204.717 279.305 202.439 278.444 200.08 278.444C197.721 278.444 195.443 279.305 193.671 280.865C191.9 282.425 190.757 284.578 190.456 286.921H176.469C174.962 281.626 171.921 278.82 167.691 278.555C165.588 278.367 163.482 278.869 161.689 279.984C160.479 280.748 159.451 281.767 158.674 282.969C157.898 284.172 157.393 285.529 157.194 286.947H143.181C141.542 281.467 138.422 278.714 134.139 278.555C131.683 278.406 129.262 279.195 127.363 280.762C125.465 282.329 124.23 284.558 123.906 287H112.458V274.716L113.225 274.451C114.812 273.995 116.256 273.138 117.419 271.963C118.581 270.788 119.423 269.334 119.863 267.74C120.303 266.146 120.328 264.466 119.934 262.86C119.54 261.254 118.741 259.776 117.614 258.567C116.207 257.125 114.418 256.114 112.458 255.655V241.253H112.775C114.053 240.949 115.256 240.385 116.308 239.598C117.36 238.811 118.241 237.816 118.895 236.675C119.549 235.534 119.962 234.271 120.11 232.964C120.258 231.657 120.138 230.334 119.755 229.075C119.266 227.395 118.327 225.881 117.041 224.696C115.755 223.511 114.171 222.7 112.458 222.351V207.976C114.635 207.531 116.591 206.348 117.998 204.626C119.404 202.904 120.175 200.749 120.178 198.524C120.18 196.299 119.411 194.141 118.004 192.418C116.597 190.695 114.637 189.514 112.458 189.073V174.672L113.066 174.513C115.516 173.842 117.605 172.233 118.881 170.034C120.157 167.835 120.519 165.222 119.888 162.758C119.436 161.009 118.498 159.424 117.183 158.187C115.868 156.95 114.23 156.112 112.458 155.769V141.394L113.225 141.129C114.813 140.685 116.261 139.84 117.431 138.676C118.601 137.512 119.453 136.067 119.906 134.479C120.36 132.892 120.399 131.214 120.021 129.607C119.643 127.999 118.86 126.516 117.746 125.298C116.3 123.821 114.467 122.784 112.458 122.306V112.458H123.906C123.906 112.749 123.906 113.04 124.092 113.332C124.638 115.785 126.116 117.931 128.213 119.314C130.309 120.697 132.861 121.21 135.329 120.744C137.332 120.357 139.164 119.348 140.563 117.861C141.963 116.374 142.86 114.484 143.128 112.458H157.168C157.168 112.696 157.3 112.935 157.327 113.146C157.802 115.462 159.102 117.526 160.984 118.953C162.867 120.381 165.204 121.074 167.559 120.903C169.769 120.715 171.849 119.775 173.451 118.238C175.053 116.701 176.081 114.661 176.363 112.458H190.588C190.562 112.669 190.562 112.882 190.588 113.093C190.871 114.541 191.482 115.905 192.373 117.081C193.264 118.256 194.412 119.211 195.73 119.873C197.047 120.535 198.498 120.886 199.971 120.899C201.445 120.913 202.902 120.588 204.231 119.95C205.697 119.284 206.96 118.239 207.889 116.922C208.819 115.605 209.381 114.064 209.519 112.458H223.717C223.906 114.29 224.636 116.023 225.813 117.438C226.99 118.853 228.562 119.884 230.327 120.4C232.077 121.026 233.975 121.108 235.773 120.635C237.57 120.163 239.183 119.158 240.401 117.753C241.785 116.288 242.704 114.445 243.045 112.458H257.084L257.243 113.332C257.796 115.777 259.271 117.913 261.36 119.295C263.449 120.676 265.991 121.195 268.454 120.744C270.483 120.386 272.346 119.389 273.772 117.899C275.198 116.409 276.114 114.504 276.386 112.458V112.458ZM241.564 205.884C241.556 216.392 237.59 226.51 230.46 234.219C223.329 241.928 213.557 246.662 203.094 247.475C193.626 248.387 184.143 245.9 176.337 240.459C170.635 236.661 165.96 231.509 162.731 225.462C159.502 219.415 157.817 212.662 157.829 205.805H149.897C150.717 224.336 158.596 239.003 174.618 248.586C182.146 253.01 190.706 255.367 199.434 255.42C208.162 255.474 216.75 253.221 224.331 248.89C231.912 244.559 238.218 238.302 242.613 230.752C247.008 223.201 249.337 214.624 249.364 205.884H241.564ZM179.272 172.024C179.322 167.379 178.617 162.756 177.183 158.337C176.374 155.555 174.863 153.03 172.794 151.004C172.272 150.472 171.647 150.053 170.957 149.774C170.266 149.495 169.526 149.361 168.782 149.381C168.038 149.401 167.306 149.574 166.631 149.89C165.957 150.205 165.354 150.657 164.862 151.216C163.154 152.905 161.868 154.972 161.107 157.252C157.904 166.135 157.699 175.826 160.526 184.837C161.276 187.738 162.782 190.387 164.888 192.515C165.385 193.067 165.989 193.512 166.663 193.824C167.337 194.135 168.067 194.305 168.809 194.325C169.551 194.345 170.289 194.214 170.979 193.939C171.668 193.664 172.295 193.252 172.82 192.727C174.297 191.339 175.461 189.651 176.231 187.776C178.326 182.794 179.361 177.429 179.272 172.024V172.024ZM210.021 171.892C210.021 171.336 210.021 170.806 210.021 170.277C209.954 166.102 209.222 161.964 207.853 158.019C207.043 155.471 205.659 153.144 203.808 151.216C203.294 150.63 202.662 150.161 201.953 149.84C201.244 149.519 200.475 149.353 199.697 149.353C198.918 149.353 198.149 149.519 197.44 149.84C196.731 150.161 196.099 150.63 195.585 151.216C194.306 152.493 193.267 153.991 192.518 155.637C190.83 159.401 189.819 163.434 189.53 167.55C188.946 173.37 189.53 179.247 191.249 184.837C192.033 187.711 193.524 190.341 195.585 192.488C196.099 193.074 196.731 193.543 197.44 193.864C198.149 194.185 198.918 194.351 199.697 194.351C200.475 194.351 201.244 194.185 201.953 193.864C202.662 193.543 203.294 193.074 203.808 192.488C205.351 190.903 206.556 189.021 207.351 186.955C209.223 182.159 210.13 177.04 210.021 171.892V171.892ZM220.095 171.442C220.061 175.47 220.559 179.484 221.576 183.381C222.321 186.595 223.826 189.582 225.965 192.091C226.473 192.782 227.134 193.345 227.895 193.739C228.656 194.132 229.498 194.345 230.354 194.36C231.211 194.376 232.059 194.193 232.834 193.827C233.609 193.461 234.289 192.922 234.822 192.25C236.289 190.681 237.43 188.837 238.18 186.823C239.69 183.12 240.583 179.194 240.824 175.201C241.29 169.448 240.598 163.659 238.788 158.178C237.975 155.457 236.483 152.987 234.452 151.004C233.974 150.494 233.401 150.083 232.764 149.796C232.127 149.509 231.44 149.351 230.741 149.331C230.043 149.311 229.348 149.43 228.696 149.681C228.044 149.932 227.448 150.309 226.943 150.792C225.257 152.269 223.951 154.131 223.136 156.219C221.121 161.04 220.087 166.216 220.095 171.442V171.442Z" fill="white"/>
<path d="M108.488 393H94.1445L120.26 318.818H136.85L163.002 393H148.658L128.845 334.031H128.265L108.488 393ZM108.959 363.914H148.078V374.708H108.959V363.914Z" fill="white"/>
<path d="M192.728 394.087C187.174 394.087 182.405 392.867 178.421 390.428C174.46 387.99 171.406 384.621 169.257 380.323C167.132 376 166.069 371.026 166.069 365.399C166.069 359.749 167.156 354.762 169.329 350.44C171.502 346.093 174.569 342.713 178.529 340.298C182.514 337.859 187.222 336.639 192.656 336.639C197.171 336.639 201.168 337.472 204.645 339.139C208.146 340.781 210.935 343.111 213.012 346.129C215.089 349.124 216.272 352.625 216.562 356.634H204.029C203.522 353.953 202.315 351.72 200.407 349.933C198.524 348.122 196 347.216 192.837 347.216C190.156 347.216 187.802 347.941 185.774 349.389C183.745 350.814 182.163 352.867 181.029 355.547C179.918 358.227 179.362 361.439 179.362 365.182C179.362 368.973 179.918 372.233 181.029 374.962C182.139 377.666 183.697 379.755 185.701 381.228C187.73 382.677 190.108 383.401 192.837 383.401C194.769 383.401 196.495 383.039 198.016 382.315C199.562 381.566 200.854 380.492 201.892 379.091C202.931 377.691 203.643 375.988 204.029 373.984H216.562C216.248 377.92 215.089 381.409 213.085 384.452C211.08 387.47 208.352 389.837 204.899 391.551C201.445 393.242 197.389 394.087 192.728 394.087Z" fill="white"/>
<path d="M225.289 393V337.364H238.401V393H225.289ZM231.881 329.468C229.804 329.468 228.017 328.779 226.52 327.403C225.023 326.002 224.275 324.324 224.275 322.368C224.275 320.388 225.023 318.71 226.52 317.333C228.017 315.933 229.804 315.232 231.881 315.232C233.982 315.232 235.769 315.933 237.242 317.333C238.739 318.71 239.488 320.388 239.488 322.368C239.488 324.324 238.739 326.002 237.242 327.403C235.769 328.779 233.982 329.468 231.881 329.468Z" fill="white"/>
<path d="M270.491 393.978C266.12 393.978 262.208 392.855 258.755 390.61C255.302 388.364 252.573 385.104 250.569 380.83C248.565 376.556 247.563 371.364 247.563 365.254C247.563 359.073 248.577 353.857 250.605 349.607C252.658 345.333 255.423 342.109 258.9 339.936C262.377 337.738 266.253 336.639 270.527 336.639C273.787 336.639 276.467 337.195 278.568 338.306C280.669 339.392 282.335 340.708 283.567 342.254C284.798 343.775 285.752 345.212 286.428 346.564H286.972V318.818H300.12V393H287.225V384.235H286.428C285.752 385.587 284.774 387.024 283.494 388.545C282.215 390.042 280.524 391.322 278.423 392.384C276.322 393.447 273.678 393.978 270.491 393.978ZM274.149 383.22C276.926 383.22 279.293 382.472 281.249 380.975C283.205 379.453 284.69 377.34 285.704 374.636C286.718 371.931 287.225 368.78 287.225 365.182C287.225 361.584 286.718 358.457 285.704 355.801C284.714 353.144 283.241 351.08 281.285 349.607C279.353 348.134 276.974 347.397 274.149 347.397C271.227 347.397 268.788 348.158 266.832 349.679C264.876 351.2 263.403 353.301 262.413 355.982C261.423 358.662 260.928 361.729 260.928 365.182C260.928 368.659 261.423 371.762 262.413 374.491C263.428 377.195 264.913 379.333 266.869 380.902C268.849 382.448 271.276 383.22 274.149 383.22Z" fill="white"/>
</svg>
