<svg width="400" height="433" viewBox="0 0 400 433" fill="none" xmlns="http://www.w3.org/2000/svg">
<path d="M276.003 111.896H286.526C286.526 112.212 286.526 112.528 286.526 112.844C286.526 115.636 286.526 118.428 286.526 121.22C286.565 121.451 286.512 121.687 286.38 121.879C286.247 122.07 286.045 122.203 285.816 122.248C284.016 122.952 282.47 124.183 281.38 125.781C280.29 127.379 279.706 129.269 279.706 131.204C279.706 133.139 280.29 135.029 281.38 136.627C282.47 138.225 284.016 139.456 285.816 140.16C286.037 140.216 286.229 140.352 286.355 140.542C286.482 140.732 286.533 140.962 286.5 141.187C286.5 145.586 286.5 149.985 286.5 154.358C286.532 154.587 286.477 154.82 286.345 155.01C286.214 155.201 286.015 155.335 285.79 155.385C283.987 156.083 282.438 157.311 281.345 158.907C280.252 160.503 279.668 162.393 279.668 164.328C279.668 166.263 280.252 168.153 281.345 169.749C282.438 171.345 283.987 172.573 285.79 173.271C286.013 173.333 286.205 173.474 286.331 173.668C286.457 173.862 286.508 174.096 286.474 174.325C286.474 178.724 286.474 183.123 286.474 187.496C286.508 187.724 286.457 187.958 286.331 188.152C286.205 188.346 286.013 188.487 285.79 188.549C283.987 189.247 282.438 190.475 281.345 192.071C280.252 193.667 279.668 195.557 279.668 197.492C279.668 199.427 280.252 201.317 281.345 202.913C282.438 204.509 283.987 205.737 285.79 206.435C286.021 206.486 286.223 206.624 286.355 206.82C286.488 207.016 286.539 207.255 286.5 207.489C286.5 211.888 286.5 216.26 286.5 220.659C286.54 220.889 286.492 221.125 286.365 221.321C286.238 221.517 286.042 221.657 285.816 221.713C284.014 222.411 282.464 223.639 281.371 225.235C280.279 226.831 279.694 228.721 279.694 230.656C279.694 232.591 280.279 234.481 281.371 236.077C282.464 237.673 284.014 238.901 285.816 239.599C286.047 239.65 286.249 239.787 286.382 239.984C286.514 240.18 286.566 240.419 286.526 240.653C286.526 245.025 286.526 249.424 286.526 253.823C286.567 254.053 286.518 254.289 286.392 254.485C286.265 254.68 286.068 254.821 285.842 254.877C284.042 255.581 282.496 256.812 281.406 258.41C280.316 260.008 279.733 261.898 279.733 263.833C279.733 265.768 280.316 267.658 281.406 269.256C282.496 270.854 284.042 272.085 285.842 272.789C286.069 272.828 286.271 272.955 286.404 273.143C286.537 273.33 286.591 273.563 286.553 273.79C286.553 277.452 286.553 281.087 286.553 284.748C286.553 284.985 286.553 285.249 286.553 285.512H276.003C274.32 280.244 271.373 277.373 267.164 277.135C265.072 276.978 262.985 277.505 261.218 278.637C260.04 279.398 259.038 280.403 258.28 281.584C257.522 282.766 257.026 284.096 256.825 285.486H242.777C242.461 283.264 241.393 281.218 239.751 279.691C238.168 278.22 236.136 277.326 233.983 277.154C231.831 276.982 229.683 277.541 227.887 278.742C226.751 279.509 225.787 280.505 225.058 281.666C224.328 282.827 223.849 284.128 223.651 285.486H209.655C209.356 283.155 208.218 281.013 206.456 279.46C204.693 277.908 202.427 277.052 200.079 277.052C197.732 277.052 195.465 277.908 193.703 279.46C191.94 281.013 190.803 283.155 190.503 285.486H176.586C175.087 280.217 172.062 277.425 167.852 277.162C165.76 276.975 163.664 277.474 161.88 278.584C160.677 279.344 159.653 280.358 158.881 281.554C158.108 282.75 157.606 284.101 157.408 285.512H143.465C141.834 280.059 138.73 277.32 134.468 277.162C132.024 277.014 129.615 277.799 127.726 279.358C125.837 280.917 124.608 283.135 124.287 285.565H112.896V273.342L113.658 273.079C115.238 272.625 116.675 271.772 117.831 270.603C118.988 269.434 119.825 267.987 120.263 266.401C120.702 264.815 120.726 263.143 120.334 261.545C119.942 259.947 119.147 258.476 118.026 257.274C116.626 255.839 114.846 254.834 112.896 254.376V240.047H113.211C114.483 239.744 115.679 239.183 116.726 238.4C117.773 237.616 118.649 236.627 119.3 235.492C119.951 234.356 120.362 233.1 120.51 231.799C120.657 230.499 120.537 229.182 120.156 227.93C119.669 226.258 118.736 224.752 117.456 223.572C116.176 222.393 114.599 221.587 112.896 221.239V206.936C115.061 206.493 117.008 205.316 118.408 203.602C119.807 201.889 120.574 199.745 120.577 197.532C120.579 195.317 119.814 193.17 118.414 191.456C117.013 189.742 115.064 188.566 112.896 188.128V173.798L113.501 173.64C115.939 172.973 118.017 171.372 119.287 169.184C120.556 166.996 120.916 164.396 120.288 161.944C119.838 160.204 118.905 158.627 117.597 157.396C116.288 156.165 114.658 155.331 112.896 154.99V140.687L113.658 140.423C115.239 139.981 116.68 139.141 117.844 137.982C119.008 136.824 119.856 135.387 120.307 133.807C120.758 132.227 120.797 130.558 120.421 128.958C120.045 127.359 119.265 125.883 118.157 124.671C116.719 123.202 114.895 122.17 112.896 121.695V111.896H124.287C124.287 112.185 124.287 112.475 124.471 112.765C125.015 115.206 126.485 117.341 128.571 118.717C130.658 120.093 133.197 120.604 135.652 120.14C137.645 119.755 139.468 118.751 140.86 117.271C142.253 115.792 143.146 113.911 143.412 111.896H157.382C157.382 112.133 157.513 112.37 157.54 112.58C158.012 114.885 159.306 116.938 161.179 118.358C163.052 119.779 165.377 120.468 167.721 120.298C169.92 120.112 171.99 119.176 173.584 117.647C175.178 116.118 176.2 114.088 176.481 111.896H190.635C190.609 112.105 190.609 112.318 190.635 112.528C190.917 113.969 191.524 115.326 192.411 116.495C193.298 117.664 194.44 118.615 195.751 119.273C197.061 119.932 198.505 120.281 199.971 120.295C201.438 120.308 202.887 119.985 204.21 119.35C205.669 118.687 206.925 117.647 207.85 116.337C208.774 115.027 209.334 113.494 209.471 111.896H223.598C223.786 113.718 224.512 115.443 225.684 116.851C226.855 118.258 228.419 119.284 230.175 119.798C231.917 120.42 233.805 120.502 235.594 120.032C237.382 119.562 238.987 118.562 240.199 117.164C241.575 115.706 242.491 113.873 242.829 111.896H256.799L256.957 112.765C257.506 115.198 258.974 117.323 261.053 118.698C263.132 120.072 265.661 120.589 268.111 120.14C270.131 119.783 271.984 118.792 273.403 117.31C274.822 115.827 275.733 113.931 276.003 111.896V111.896ZM241.356 204.855C241.348 215.31 237.402 225.377 230.307 233.048C223.212 240.718 213.489 245.428 203.078 246.237C193.658 247.144 184.222 244.67 176.455 239.256C170.781 235.478 166.13 230.351 162.917 224.335C159.704 218.318 158.028 211.598 158.04 204.775H150.147C150.963 223.215 158.802 237.808 174.745 247.343C182.235 251.745 190.752 254.09 199.436 254.143C208.121 254.196 216.666 251.955 224.209 247.645C231.752 243.336 238.027 237.111 242.4 229.598C246.773 222.085 249.09 213.55 249.117 204.855H241.356ZM179.375 171.164C179.425 166.541 178.723 161.942 177.297 157.545C176.492 154.777 174.988 152.264 172.93 150.249C172.411 149.719 171.788 149.303 171.102 149.025C170.415 148.747 169.678 148.614 168.938 148.634C168.197 148.654 167.469 148.826 166.798 149.14C166.127 149.454 165.527 149.903 165.037 150.459C163.338 152.14 162.059 154.197 161.302 156.465C158.114 165.305 157.911 174.947 160.723 183.913C161.47 186.799 162.968 189.435 165.064 191.552C165.558 192.101 166.159 192.545 166.829 192.854C167.5 193.164 168.226 193.334 168.965 193.353C169.703 193.373 170.437 193.242 171.124 192.969C171.81 192.695 172.433 192.285 172.956 191.763C174.426 190.383 175.583 188.703 176.35 186.837C178.434 181.879 179.464 176.542 179.375 171.164V171.164ZM209.971 171.032C209.971 170.479 209.971 169.952 209.971 169.425C209.904 165.271 209.176 161.154 207.814 157.229C207.007 154.694 205.63 152.378 203.789 150.459C203.278 149.877 202.648 149.41 201.943 149.091C201.238 148.771 200.472 148.606 199.698 148.606C198.924 148.606 198.158 148.771 197.453 149.091C196.747 149.41 196.118 149.877 195.607 150.459C194.334 151.73 193.3 153.221 192.555 154.858C190.876 158.604 189.869 162.617 189.583 166.712C189.001 172.503 189.582 178.351 191.293 183.913C192.073 186.772 193.556 189.389 195.607 191.526C196.118 192.108 196.747 192.575 197.453 192.894C198.158 193.214 198.924 193.379 199.698 193.379C200.472 193.379 201.238 193.214 201.943 192.894C202.648 192.575 203.278 192.108 203.789 191.526C205.324 189.948 206.523 188.075 207.314 186.02C209.177 181.248 210.08 176.155 209.971 171.032V171.032ZM219.994 170.584C219.96 174.592 220.456 178.587 221.467 182.464C222.209 185.662 223.707 188.634 225.835 191.131C226.341 191.817 226.998 192.378 227.755 192.77C228.513 193.161 229.35 193.373 230.202 193.388C231.054 193.404 231.899 193.222 232.67 192.858C233.441 192.494 234.117 191.957 234.648 191.289C236.107 189.728 237.242 187.892 237.989 185.889C239.491 182.204 240.38 178.297 240.619 174.325C241.083 168.6 240.394 162.84 238.594 157.387C237.785 154.679 236.3 152.222 234.279 150.249C233.804 149.741 233.233 149.332 232.6 149.047C231.966 148.761 231.282 148.604 230.587 148.584C229.893 148.564 229.201 148.683 228.552 148.932C227.904 149.182 227.311 149.558 226.808 150.038C225.131 151.508 223.831 153.36 223.02 155.438C221.015 160.235 219.987 165.384 219.994 170.584V170.584Z" fill="white"/>
<path d="M153.453 344H146L159.57 305.454H168.19L181.779 344H174.326L164.031 313.359H163.729L153.453 344ZM153.698 328.886H174.025V334.495H153.698V328.886Z" fill="white"/>
<path d="M197.225 344.564C194.339 344.564 191.861 343.931 189.791 342.663C187.733 341.396 186.146 339.646 185.029 337.412C183.925 335.166 183.373 332.581 183.373 329.658C183.373 326.722 183.937 324.131 185.066 321.885C186.196 319.626 187.789 317.87 189.847 316.615C191.917 315.348 194.364 314.714 197.187 314.714C199.534 314.714 201.61 315.147 203.417 316.013C205.236 316.866 206.686 318.077 207.765 319.645C208.844 321.201 209.458 323.02 209.609 325.103H203.097C202.833 323.71 202.206 322.55 201.215 321.621C200.236 320.68 198.925 320.21 197.281 320.21C195.889 320.21 194.665 320.586 193.611 321.339C192.557 322.079 191.735 323.146 191.146 324.539C190.568 325.931 190.28 327.6 190.28 329.545C190.28 331.515 190.568 333.209 191.146 334.627C191.723 336.032 192.532 337.117 193.574 337.883C194.628 338.636 195.863 339.012 197.281 339.012C198.285 339.012 199.182 338.824 199.973 338.447C200.776 338.058 201.447 337.5 201.987 336.772C202.526 336.045 202.896 335.16 203.097 334.119H209.609C209.446 336.164 208.844 337.977 207.802 339.558C206.761 341.126 205.343 342.356 203.549 343.247C201.754 344.125 199.646 344.564 197.225 344.564Z" fill="white"/>
<path d="M214.144 344V315.09H220.957V344H214.144ZM217.569 310.987C216.49 310.987 215.561 310.63 214.784 309.915C214.006 309.187 213.617 308.315 213.617 307.299C213.617 306.27 214.006 305.398 214.784 304.682C215.561 303.955 216.49 303.591 217.569 303.591C218.661 303.591 219.589 303.955 220.355 304.682C221.132 305.398 221.521 306.27 221.521 307.299C221.521 308.315 221.132 309.187 220.355 309.915C219.589 310.63 218.661 310.987 217.569 310.987Z" fill="white"/>
<path d="M237.631 344.508C235.36 344.508 233.327 343.924 231.533 342.757C229.739 341.59 228.321 339.897 227.279 337.676C226.238 335.455 225.717 332.757 225.717 329.583C225.717 326.371 226.244 323.66 227.298 321.452C228.365 319.231 229.801 317.556 231.608 316.427C233.415 315.285 235.429 314.714 237.65 314.714C239.344 314.714 240.736 315.003 241.828 315.58C242.92 316.144 243.785 316.828 244.425 317.631C245.065 318.422 245.561 319.168 245.912 319.871H246.194V305.454H253.027V344H246.326V339.445H245.912C245.561 340.148 245.053 340.894 244.388 341.685C243.723 342.463 242.844 343.128 241.753 343.68C240.661 344.232 239.287 344.508 237.631 344.508ZM239.532 338.918C240.975 338.918 242.204 338.529 243.221 337.751C244.237 336.96 245.009 335.863 245.536 334.457C246.063 333.052 246.326 331.415 246.326 329.545C246.326 327.675 246.063 326.051 245.536 324.67C245.021 323.29 244.256 322.217 243.24 321.452C242.236 320.687 241 320.304 239.532 320.304C238.014 320.304 236.746 320.699 235.73 321.49C234.714 322.28 233.948 323.372 233.434 324.764C232.919 326.157 232.662 327.751 232.662 329.545C232.662 331.352 232.919 332.964 233.434 334.382C233.961 335.787 234.732 336.898 235.749 337.713C236.778 338.516 238.039 338.918 239.532 338.918Z" fill="white"/>
</svg>
