<svg width="607" height="596" viewBox="0 0 607 596" fill="none" xmlns="http://www.w3.org/2000/svg">
<g clip-path="url(#clip0_152_6557)">
<path d="M318.635 227.593C323.723 232.68 332.417 229.074 332.417 221.889V152.687C332.417 151.263 331.847 149.887 330.841 148.88L309.324 127.363C306.173 124.212 301.057 124.212 297.906 127.363L261.962 163.307C259.864 165.405 259.864 168.813 261.962 170.92L318.635 227.593Z" fill="white"/>
<path d="M206.466 218.794L180.791 244.469C177.64 247.62 177.64 252.736 180.791 255.887L206.466 281.561C209.854 284.95 215.653 282.548 215.653 277.755V222.6C215.653 217.807 209.854 215.406 206.466 218.794Z" fill="white"/>
<path d="M426.42 244.467L399.654 217.702C396.265 214.313 390.466 216.714 390.466 221.508V278.845C390.466 283.639 396.265 286.04 399.654 282.651L426.42 255.886C429.571 252.734 429.571 247.619 426.42 244.467Z" fill="white"/>
<path d="M287.483 273.189C282.396 268.102 273.702 271.708 273.702 278.893V346.577C273.702 348.001 274.271 349.377 275.277 350.383L299.794 374.899C301.891 376.997 305.299 376.997 307.406 374.899L344.489 337.816C346.587 335.719 346.587 332.311 344.489 330.204L287.474 273.189H287.483Z" fill="white"/>
</g>
<path d="M174.976 411.287V463.346H166.588L142.058 427.886H141.626V463.346H132.196V411.287H140.635L165.139 446.773H165.596V411.287H174.976Z" fill="white"/>
<path d="M200.698 464.108C196.784 464.108 193.403 463.295 190.556 461.668C187.726 460.024 185.548 457.703 184.023 454.703C182.498 451.687 181.736 448.137 181.736 444.053C181.736 440.037 182.498 436.512 184.023 433.478C185.565 430.428 187.718 428.056 190.48 426.361C193.242 424.649 196.487 423.794 200.215 423.794C202.622 423.794 204.892 424.183 207.028 424.963C209.18 425.726 211.078 426.912 212.722 428.522C214.382 430.132 215.687 432.182 216.636 434.673C217.585 437.147 218.06 440.096 218.06 443.519V446.34H186.057V440.138H209.239C209.222 438.376 208.841 436.808 208.095 435.436C207.35 434.046 206.307 432.953 204.969 432.157C203.647 431.36 202.105 430.962 200.342 430.962C198.461 430.962 196.809 431.419 195.386 432.335C193.962 433.233 192.852 434.419 192.056 435.893C191.276 437.351 190.878 438.952 190.861 440.697V446.112C190.861 448.382 191.276 450.331 192.107 451.958C192.937 453.568 194.098 454.805 195.589 455.669C197.08 456.517 198.826 456.94 200.825 456.94C202.164 456.94 203.376 456.754 204.46 456.381C205.545 455.991 206.485 455.424 207.282 454.678C208.078 453.932 208.68 453.009 209.087 451.907L217.678 452.873C217.136 455.144 216.102 457.127 214.577 458.821C213.069 460.499 211.137 461.804 208.782 462.736C206.426 463.651 203.732 464.108 200.698 464.108Z" fill="white"/>
<path d="M255.271 434.622L246.883 435.537C246.646 434.69 246.231 433.894 245.637 433.148C245.061 432.402 244.282 431.801 243.299 431.343C242.316 430.886 241.113 430.657 239.689 430.657C237.775 430.657 236.165 431.072 234.86 431.902C233.572 432.733 232.936 433.809 232.953 435.131C232.936 436.266 233.352 437.19 234.199 437.901C235.063 438.613 236.487 439.198 238.469 439.655L245.129 441.079C248.823 441.875 251.569 443.138 253.365 444.866C255.178 446.595 256.093 448.857 256.11 451.653C256.093 454.11 255.373 456.279 253.95 458.16C252.543 460.024 250.586 461.482 248.078 462.532C245.57 463.583 242.689 464.108 239.435 464.108C234.656 464.108 230.81 463.109 227.895 461.109C224.98 459.092 223.243 456.288 222.684 452.695L231.657 451.831C232.064 453.593 232.928 454.924 234.25 455.822C235.572 456.72 237.292 457.169 239.41 457.169C241.596 457.169 243.35 456.72 244.672 455.822C246.01 454.924 246.68 453.814 246.68 452.492C246.68 451.373 246.248 450.45 245.383 449.721C244.536 448.993 243.214 448.433 241.418 448.044L234.758 446.645C231.013 445.866 228.242 444.553 226.446 442.706C224.65 440.841 223.76 438.486 223.777 435.639C223.76 433.233 224.413 431.148 225.734 429.386C227.073 427.607 228.929 426.234 231.301 425.268C233.691 424.285 236.444 423.794 239.562 423.794C244.138 423.794 247.739 424.768 250.365 426.717C253.009 428.666 254.644 431.301 255.271 434.622Z" fill="white"/>
<path d="M279.297 464.108C275.399 464.108 272.053 463.253 269.256 461.541C266.477 459.83 264.334 457.466 262.825 454.449C261.334 451.416 260.588 447.925 260.588 443.976C260.588 440.011 261.351 436.512 262.876 433.478C264.401 430.428 266.554 428.056 269.333 426.361C272.129 424.649 275.433 423.794 279.246 423.794C282.415 423.794 285.22 424.378 287.66 425.548C290.117 426.7 292.074 428.335 293.532 430.453C294.989 432.555 295.819 435.012 296.023 437.825H287.228C286.872 435.944 286.025 434.377 284.686 433.123C283.364 431.852 281.593 431.216 279.373 431.216C277.492 431.216 275.84 431.724 274.416 432.741C272.993 433.741 271.883 435.181 271.087 437.062C270.307 438.943 269.917 441.197 269.917 443.824C269.917 446.484 270.307 448.772 271.087 450.687C271.866 452.585 272.959 454.051 274.366 455.085C275.789 456.101 277.458 456.61 279.373 456.61C280.729 456.61 281.941 456.356 283.008 455.847C284.093 455.322 284.999 454.568 285.728 453.585C286.457 452.602 286.957 451.407 287.228 450.001H296.023C295.802 452.763 294.989 455.212 293.583 457.347C292.176 459.465 290.261 461.126 287.838 462.329C285.414 463.515 282.568 464.108 279.297 464.108Z" fill="white"/>
<path d="M302.147 463.346V424.302H311.349V463.346H302.147ZM306.773 418.761C305.316 418.761 304.062 418.278 303.011 417.312C301.961 416.329 301.435 415.151 301.435 413.779C301.435 412.389 301.961 411.211 303.011 410.245C304.062 409.262 305.316 408.771 306.773 408.771C308.248 408.771 309.502 409.262 310.535 410.245C311.586 411.211 312.111 412.389 312.111 413.779C312.111 415.151 311.586 416.329 310.535 417.312C309.502 418.278 308.248 418.761 306.773 418.761Z" fill="white"/>
<path d="M336.664 464.108C332.75 464.108 329.369 463.295 326.522 461.668C323.692 460.024 321.515 457.703 319.989 454.703C318.464 451.687 317.702 448.137 317.702 444.053C317.702 440.037 318.464 436.512 319.989 433.478C321.531 430.428 323.684 428.056 326.446 426.361C329.208 424.649 332.453 423.794 336.181 423.794C338.588 423.794 340.858 424.183 342.994 424.963C345.146 425.726 347.044 426.912 348.688 428.522C350.348 430.132 351.653 432.182 352.602 434.673C353.551 437.147 354.026 440.096 354.026 443.519V446.34H322.023V440.138H345.205C345.188 438.376 344.807 436.808 344.061 435.436C343.316 434.046 342.273 432.953 340.935 432.157C339.613 431.36 338.071 430.962 336.308 430.962C334.427 430.962 332.775 431.419 331.352 432.335C329.928 433.233 328.818 434.419 328.022 435.893C327.242 437.351 326.844 438.952 326.827 440.697V446.112C326.827 448.382 327.242 450.331 328.073 451.958C328.903 453.568 330.064 454.805 331.555 455.669C333.046 456.517 334.792 456.94 336.791 456.94C338.13 456.94 339.342 456.754 340.426 456.381C341.511 455.991 342.451 455.424 343.248 454.678C344.044 453.932 344.646 453.009 345.053 451.907L353.644 452.873C353.102 455.144 352.068 457.127 350.543 458.821C349.035 460.499 347.103 461.804 344.748 462.736C342.392 463.651 339.698 464.108 336.664 464.108Z" fill="white"/>
<path d="M369.58 440.469V463.346H360.379V424.302H369.174V430.936H369.631C370.529 428.75 371.961 427.013 373.927 425.726C375.91 424.438 378.358 423.794 381.273 423.794C383.968 423.794 386.315 424.37 388.314 425.522C390.331 426.675 391.89 428.344 392.991 430.53C394.11 432.716 394.661 435.368 394.644 438.486V463.346H385.442V439.909C385.442 437.3 384.764 435.258 383.408 433.783C382.07 432.309 380.214 431.572 377.842 431.572C376.232 431.572 374.8 431.928 373.546 432.64C372.309 433.334 371.334 434.343 370.622 435.664C369.928 436.986 369.58 438.588 369.58 440.469Z" fill="white"/>
<path d="M419.597 464.108C415.699 464.108 412.353 463.253 409.556 461.541C406.777 459.83 404.634 457.466 403.125 454.449C401.634 451.416 400.889 447.925 400.889 443.976C400.889 440.011 401.651 436.512 403.176 433.478C404.701 430.428 406.854 428.056 409.633 426.361C412.429 424.649 415.733 423.794 419.546 423.794C422.715 423.794 425.52 424.378 427.96 425.548C430.417 426.7 432.374 428.335 433.832 430.453C435.289 432.555 436.119 435.012 436.323 437.825H427.528C427.172 435.944 426.325 434.377 424.986 433.123C423.664 431.852 421.893 431.216 419.673 431.216C417.792 431.216 416.14 431.724 414.716 432.741C413.293 433.741 412.183 435.181 411.387 437.062C410.607 438.943 410.217 441.197 410.217 443.824C410.217 446.484 410.607 448.772 411.387 450.687C412.166 452.585 413.259 454.051 414.666 455.085C416.089 456.101 417.758 456.61 419.673 456.61C421.029 456.61 422.241 456.356 423.308 455.847C424.393 455.322 425.299 454.568 426.028 453.585C426.757 452.602 427.257 451.407 427.528 450.001H436.323C436.102 452.763 435.289 455.212 433.883 457.347C432.476 459.465 430.561 461.126 428.138 462.329C425.715 463.515 422.868 464.108 419.597 464.108Z" fill="white"/>
<path d="M459.732 464.108C455.817 464.108 452.437 463.295 449.59 461.668C446.76 460.024 444.582 457.703 443.057 454.703C441.532 451.687 440.769 448.137 440.769 444.053C440.769 440.037 441.532 436.512 443.057 433.478C444.599 430.428 446.751 428.056 449.513 426.361C452.276 424.649 455.521 423.794 459.249 423.794C461.655 423.794 463.926 424.183 466.061 424.963C468.214 425.726 470.111 426.912 471.755 428.522C473.416 430.132 474.721 432.182 475.67 434.673C476.619 437.147 477.093 440.096 477.093 443.519V446.34H445.091V440.138H468.273C468.256 438.376 467.875 436.808 467.129 435.436C466.383 434.046 465.341 432.953 464.002 432.157C462.681 431.36 461.138 430.962 459.376 430.962C457.495 430.962 455.843 431.419 454.419 432.335C452.996 433.233 451.886 434.419 451.089 435.893C450.31 437.351 449.912 438.952 449.895 440.697V446.112C449.895 448.382 450.31 450.331 451.14 451.958C451.971 453.568 453.131 454.805 454.623 455.669C456.114 456.517 457.859 456.94 459.859 456.94C461.198 456.94 462.409 456.754 463.494 456.381C464.579 455.991 465.519 455.424 466.316 454.678C467.112 453.932 467.714 453.009 468.12 451.907L476.712 452.873C476.17 455.144 475.136 457.127 473.611 458.821C472.103 460.499 470.171 461.804 467.815 462.736C465.46 463.651 462.765 464.108 459.732 464.108Z" fill="white"/>
<defs>
<clipPath id="clip0_152_6557">
<rect width="250.356" height="251.476" fill="white" transform="translate(178.427 125)"/>
</clipPath>
</defs>
</svg>
