<svg width="504" height="504" viewBox="0 0 504 504" fill="none" xmlns="http://www.w3.org/2000/svg">
<rect width="504" height="504" fill="black"/>
<g clip-path="url(#clip0_152_6626)">
<path d="M266.145 228.278C271.266 233.399 280.018 229.769 280.018 222.536V152.871C280.018 151.437 279.445 150.052 278.432 149.039L256.771 127.378C253.599 124.206 248.449 124.206 245.277 127.378L209.092 163.563C206.981 165.674 206.981 169.104 209.092 171.226L266.145 228.278Z" fill="white"/>
<path d="M153.225 219.421L127.379 245.267C124.207 248.439 124.207 253.589 127.379 256.762L153.225 282.608C156.637 286.019 162.475 283.601 162.475 278.776V223.253C162.475 218.427 156.637 216.01 153.225 219.421Z" fill="white"/>
<path d="M374.65 245.267L347.705 218.322C344.294 214.911 338.456 217.329 338.456 222.154V279.875C338.456 284.7 344.294 287.118 347.705 283.707L374.65 256.762C377.822 253.59 377.822 248.44 374.65 245.267Z" fill="white"/>
<path d="M234.784 274.18C229.663 269.059 220.911 272.689 220.911 279.923V348.059C220.911 349.492 221.484 350.877 222.497 351.89L247.177 376.57C249.289 378.682 252.719 378.682 254.84 376.57L292.171 339.239C294.283 337.128 294.283 333.698 292.171 331.576L234.775 274.18H234.784Z" fill="white"/>
</g>
<defs>
<clipPath id="clip0_152_6626">
<rect width="252.03" height="253.157" fill="white" transform="translate(125 125)"/>
</clipPath>
</defs>
</svg>
