<svg width="894" height="506" viewBox="0 0 894 506" fill="none" xmlns="http://www.w3.org/2000/svg">
<g clip-path="url(#clip0_152_6587)">
<path d="M267.105 228.768C272.227 233.89 280.979 230.259 280.979 223.026V153.361C280.979 151.928 280.406 150.542 279.393 149.529L257.732 127.868C254.56 124.696 249.409 124.696 246.237 127.868L210.053 164.053C207.941 166.164 207.941 169.595 210.053 171.716L267.105 228.768Z" fill="white"/>
<path d="M154.186 219.91L128.34 245.756C125.168 248.929 125.168 254.079 128.34 257.251L154.186 283.097C157.597 286.508 163.435 284.091 163.435 279.265V223.742C163.435 218.917 157.597 216.499 154.186 219.91Z" fill="white"/>
<path d="M375.61 245.757L348.665 218.812C345.254 215.401 339.416 217.818 339.416 222.643V280.364C339.416 285.19 345.254 287.607 348.665 284.196L375.61 257.251C378.782 254.079 378.782 248.929 375.61 245.757Z" fill="white"/>
<path d="M235.745 274.669C230.624 269.548 221.871 273.179 221.871 280.412V348.548C221.871 349.981 222.445 351.367 223.457 352.379L248.138 377.06C250.249 379.171 253.68 379.171 255.801 377.06L293.132 339.729C295.243 337.617 295.243 334.187 293.132 332.066L235.735 274.669H235.745Z" fill="white"/>
</g>
<path d="M458.968 227.209V279.615H450.524L425.83 243.918H425.395V279.615H415.902V227.209H424.397L449.065 262.931H449.526V227.209H458.968Z" fill="white"/>
<path d="M484.862 280.383C480.922 280.383 477.518 279.564 474.652 277.926C471.803 276.271 469.611 273.934 468.076 270.915C466.541 267.878 465.773 264.304 465.773 260.193C465.773 256.15 466.541 252.601 468.076 249.548C469.628 246.477 471.795 244.089 474.576 242.383C477.356 240.66 480.623 239.798 484.376 239.798C486.799 239.798 489.085 240.191 491.234 240.976C493.401 241.743 495.311 242.937 496.966 244.558C498.638 246.179 499.951 248.243 500.907 250.751C501.862 253.241 502.34 256.21 502.34 259.656V262.496H470.123V256.252H493.46C493.443 254.478 493.059 252.9 492.309 251.518C491.558 250.119 490.509 249.019 489.161 248.217C487.831 247.415 486.278 247.015 484.504 247.015C482.611 247.015 480.947 247.475 479.514 248.396C478.081 249.301 476.964 250.495 476.162 251.979C475.377 253.446 474.977 255.058 474.959 256.815V262.266C474.959 264.552 475.377 266.513 476.213 268.151C477.049 269.772 478.218 271.017 479.719 271.887C481.22 272.74 482.977 273.167 484.99 273.167C486.338 273.167 487.558 272.979 488.65 272.604C489.741 272.211 490.688 271.64 491.49 270.889C492.292 270.139 492.897 269.209 493.307 268.1L501.956 269.072C501.41 271.358 500.369 273.354 498.834 275.06C497.316 276.749 495.371 278.063 493 279.001C490.628 279.922 487.916 280.383 484.862 280.383Z" fill="white"/>
<path d="M539.8 250.699L531.356 251.621C531.117 250.768 530.699 249.966 530.102 249.215C529.522 248.465 528.737 247.859 527.748 247.398C526.758 246.938 525.547 246.707 524.114 246.707C522.187 246.707 520.566 247.125 519.252 247.961C517.956 248.797 517.316 249.881 517.333 251.211C517.316 252.354 517.734 253.284 518.587 254C519.457 254.717 520.89 255.305 522.886 255.766L529.59 257.199C533.309 258.001 536.073 259.272 537.881 261.012C539.707 262.752 540.628 265.029 540.645 267.844C540.628 270.318 539.903 272.501 538.47 274.395C537.054 276.271 535.083 277.738 532.559 278.796C530.034 279.854 527.134 280.383 523.858 280.383C519.048 280.383 515.175 279.376 512.241 277.363C509.307 275.333 507.558 272.51 506.995 268.893L516.028 268.023C516.438 269.797 517.308 271.137 518.638 272.041C519.969 272.945 521.7 273.397 523.833 273.397C526.033 273.397 527.799 272.945 529.13 272.041C530.477 271.137 531.151 270.019 531.151 268.688C531.151 267.563 530.716 266.633 529.846 265.899C528.993 265.166 527.663 264.603 525.854 264.21L519.15 262.803C515.38 262.018 512.591 260.696 510.782 258.837C508.974 256.96 508.078 254.589 508.095 251.723C508.078 249.301 508.735 247.202 510.066 245.428C511.414 243.637 513.282 242.255 515.67 241.283C518.075 240.293 520.847 239.798 523.986 239.798C528.592 239.798 532.217 240.779 534.862 242.741C537.523 244.703 539.169 247.356 539.8 250.699Z" fill="white"/>
<path d="M563.987 280.383C560.063 280.383 556.694 279.521 553.879 277.798C551.081 276.075 548.923 273.695 547.405 270.659C545.904 267.605 545.153 264.091 545.153 260.116C545.153 256.124 545.921 252.601 547.456 249.548C548.991 246.477 551.158 244.089 553.956 242.383C556.771 240.66 560.097 239.798 563.935 239.798C567.126 239.798 569.949 240.387 572.405 241.564C574.879 242.724 576.849 244.37 578.317 246.503C579.784 248.618 580.62 251.092 580.824 253.924H571.97C571.612 252.03 570.759 250.452 569.412 249.19C568.081 247.91 566.298 247.27 564.063 247.27C562.17 247.27 560.507 247.782 559.074 248.806C557.641 249.812 556.523 251.262 555.721 253.156C554.937 255.05 554.544 257.318 554.544 259.963C554.544 262.641 554.937 264.944 555.721 266.872C556.506 268.782 557.606 270.258 559.022 271.299C560.455 272.322 562.136 272.834 564.063 272.834C565.428 272.834 566.648 272.578 567.723 272.066C568.814 271.537 569.727 270.778 570.461 269.789C571.194 268.799 571.697 267.597 571.97 266.181H580.824C580.602 268.961 579.784 271.427 578.368 273.576C576.952 275.708 575.024 277.38 572.585 278.591C570.145 279.786 567.279 280.383 563.987 280.383Z" fill="white"/>
<path d="M586.989 279.615V240.31H596.253V279.615H586.989ZM591.647 234.732C590.18 234.732 588.917 234.246 587.859 233.273C586.802 232.284 586.273 231.098 586.273 229.716C586.273 228.317 586.802 227.132 587.859 226.159C588.917 225.17 590.18 224.675 591.647 224.675C593.131 224.675 594.393 225.17 595.434 226.159C596.491 227.132 597.02 228.317 597.02 229.716C597.02 231.098 596.491 232.284 595.434 233.273C594.393 234.246 593.131 234.732 591.647 234.732Z" fill="white"/>
<path d="M621.738 280.383C617.797 280.383 614.393 279.564 611.528 277.926C608.679 276.271 606.486 273.934 604.951 270.915C603.416 267.878 602.648 264.304 602.648 260.193C602.648 256.15 603.416 252.601 604.951 249.548C606.504 246.477 608.67 244.089 611.451 242.383C614.231 240.66 617.498 239.798 621.251 239.798C623.674 239.798 625.96 240.191 628.109 240.976C630.276 241.743 632.186 242.937 633.841 244.558C635.513 246.179 636.827 248.243 637.782 250.751C638.737 253.241 639.215 256.21 639.215 259.656V262.496H606.998V256.252H630.335C630.318 254.478 629.935 252.9 629.184 251.518C628.433 250.119 627.384 249.019 626.037 248.217C624.706 247.415 623.153 247.015 621.379 247.015C619.486 247.015 617.822 247.475 616.389 248.396C614.956 249.301 613.839 250.495 613.037 251.979C612.253 253.446 611.852 255.058 611.835 256.815V262.266C611.835 264.552 612.253 266.513 613.088 268.151C613.924 269.772 615.093 271.017 616.594 271.887C618.095 272.74 619.852 273.167 621.866 273.167C623.213 273.167 624.433 272.979 625.525 272.604C626.617 272.211 627.563 271.64 628.365 270.889C629.167 270.139 629.773 269.209 630.182 268.1L638.831 269.072C638.285 271.358 637.245 273.354 635.709 275.06C634.191 276.749 632.246 278.063 629.875 279.001C627.504 279.922 624.791 280.383 621.738 280.383Z" fill="white"/>
<path d="M654.874 256.585V279.615H645.61V240.31H654.464V246.989H654.925C655.829 244.788 657.27 243.04 659.249 241.743C661.245 240.447 663.71 239.798 666.645 239.798C669.357 239.798 671.72 240.378 673.733 241.538C675.763 242.699 677.332 244.379 678.441 246.58C679.567 248.78 680.121 251.45 680.104 254.589V279.615H670.841V256.022C670.841 253.395 670.159 251.339 668.794 249.855C667.446 248.371 665.578 247.629 663.19 247.629C661.569 247.629 660.128 247.987 658.866 248.703C657.62 249.403 656.639 250.418 655.923 251.749C655.223 253.079 654.874 254.691 654.874 256.585Z" fill="white"/>
<path d="M705.225 280.383C701.301 280.383 697.932 279.521 695.117 277.798C692.319 276.075 690.161 273.695 688.643 270.659C687.142 267.605 686.391 264.091 686.391 260.116C686.391 256.124 687.159 252.601 688.694 249.548C690.229 246.477 692.396 244.089 695.194 242.383C698.009 240.66 701.335 239.798 705.174 239.798C708.364 239.798 711.187 240.387 713.643 241.564C716.117 242.724 718.087 244.37 719.555 246.503C721.022 248.618 721.858 251.092 722.062 253.924H713.208C712.85 252.03 711.997 250.452 710.65 249.19C709.319 247.91 707.536 247.27 705.301 247.27C703.408 247.27 701.745 247.782 700.312 248.806C698.879 249.812 697.761 251.262 696.959 253.156C696.175 255.05 695.782 257.318 695.782 259.963C695.782 262.641 696.175 264.944 696.959 266.872C697.744 268.782 698.844 270.258 700.26 271.299C701.693 272.322 703.374 272.834 705.301 272.834C706.666 272.834 707.886 272.578 708.961 272.066C710.052 271.537 710.965 270.778 711.699 269.789C712.432 268.799 712.936 267.597 713.208 266.181H722.062C721.841 268.961 721.022 271.427 719.606 273.576C718.19 275.708 716.262 277.38 713.823 278.591C711.383 279.786 708.517 280.383 705.225 280.383Z" fill="white"/>
<path d="M745.628 280.383C741.687 280.383 738.284 279.564 735.418 277.926C732.569 276.271 730.377 273.934 728.842 270.915C727.306 267.878 726.539 264.304 726.539 260.193C726.539 256.15 727.306 252.601 728.842 249.548C730.394 246.477 732.561 244.089 735.341 242.383C738.122 240.66 741.389 239.798 745.142 239.798C747.564 239.798 749.85 240.191 752 240.976C754.166 241.743 756.077 242.937 757.732 244.558C759.403 246.179 760.717 248.243 761.672 250.751C762.628 253.241 763.105 256.21 763.105 259.656V262.496H730.889V256.252H754.226C754.209 254.478 753.825 252.9 753.074 251.518C752.324 250.119 751.275 249.019 749.927 248.217C748.596 247.415 747.044 247.015 745.27 247.015C743.376 247.015 741.713 247.475 740.28 248.396C738.847 249.301 737.73 250.495 736.928 251.979C736.143 253.446 735.742 255.058 735.725 256.815V262.266C735.725 264.552 736.143 266.513 736.979 268.151C737.815 269.772 738.983 271.017 740.485 271.887C741.986 272.74 743.743 273.167 745.756 273.167C747.104 273.167 748.323 272.979 749.415 272.604C750.507 272.211 751.454 271.64 752.256 270.889C753.057 270.139 753.663 269.209 754.072 268.1L762.722 269.072C762.176 271.358 761.135 273.354 759.6 275.06C758.081 276.749 756.137 278.063 753.765 279.001C751.394 279.922 748.682 280.383 745.628 280.383Z" fill="white"/>
<defs>
<clipPath id="clip0_152_6587">
<rect width="252.03" height="253.157" fill="white" transform="translate(125.961 125.489)"/>
</clipPath>
</defs>
</svg>
