<svg width="504" height="504" viewBox="0 0 504 504" fill="none" xmlns="http://www.w3.org/2000/svg">
<g clip-path="url(#clip0_152_6547)">
<path d="M267.145 228.278C272.266 233.399 281.018 229.769 281.018 222.536V152.871C281.018 151.437 280.445 150.052 279.432 149.039L257.771 127.378C254.599 124.206 249.449 124.206 246.277 127.378L210.092 163.563C207.981 165.674 207.981 169.104 210.092 171.226L267.145 228.278Z" fill="black"/>
<path d="M154.225 219.421L128.379 245.267C125.207 248.439 125.207 253.589 128.379 256.762L154.225 282.608C157.637 286.019 163.475 283.601 163.475 278.776V223.253C163.475 218.427 157.637 216.01 154.225 219.421Z" fill="black"/>
<path d="M375.65 245.267L348.705 218.322C345.294 214.911 339.456 217.329 339.456 222.154V279.875C339.456 284.7 345.294 287.118 348.705 283.707L375.65 256.762C378.822 253.59 378.822 248.44 375.65 245.267Z" fill="black"/>
<path d="M235.784 274.18C230.663 269.059 221.911 272.689 221.911 279.923V348.059C221.911 349.492 222.484 350.877 223.497 351.89L248.177 376.57C250.289 378.682 253.719 378.682 255.84 376.57L293.171 339.239C295.283 337.128 295.283 333.698 293.171 331.576L235.775 274.18H235.784Z" fill="black"/>
</g>
<defs>
<clipPath id="clip0_152_6547">
<rect width="252.03" height="253.157" fill="white" transform="translate(126 125)"/>
</clipPath>
</defs>
</svg>
