<svg width="63" height="31" viewBox="0 0 63 31" fill="none" xmlns="http://www.w3.org/2000/svg">
<path fill-rule="evenodd" clip-rule="evenodd" d="M16.3964 15.8498C15.4045 15.907 14.7829 15.6759 13.7909 15.7332C13.5448 15.747 13.3005 15.7827 13.0607 15.8398C13.2071 14.0052 14.5055 12.4004 16.2711 12.2984C17.3546 12.2359 18.4375 12.9048 18.4962 13.9908C18.554 15.0581 17.7402 15.7722 16.3966 15.8497L16.3964 15.8498ZM13.7328 19.6023C12.6948 19.661 11.6576 19.0347 11.6012 18.0185C11.5458 17.0196 12.3256 16.3513 13.6128 16.2787C14.5629 16.2252 15.1585 16.4415 16.1086 16.3878C16.3442 16.3749 16.5782 16.3416 16.8081 16.2881C16.6681 18.005 15.4243 19.507 13.7328 19.6023ZM15.0005 7.65052C10.4298 7.65039 6.72461 11.3555 6.72461 15.9263C6.72461 20.497 10.4298 24.2021 15.0005 24.2021C19.5711 24.2021 23.2763 20.4969 23.2763 15.9263C23.2763 11.3557 19.5711 7.65039 15.0005 7.65039" fill="white"/>
<path d="M31.221 15.2813L30.0128 15.4122C29.9787 15.291 29.9189 15.1769 29.8334 15.0702C29.7504 14.9635 29.6382 14.8773 29.4966 14.8118C29.355 14.7464 29.1817 14.7136 28.9767 14.7136C28.7009 14.7136 28.469 14.773 28.2811 14.8919C28.0956 15.0108 28.004 15.1648 28.0065 15.354C28.004 15.5166 28.0638 15.6488 28.1859 15.7507C28.3104 15.8525 28.5154 15.9362 28.801 16.0017L29.7602 16.2055C30.2923 16.3195 30.6877 16.5002 30.9464 16.7477C31.2076 16.9951 31.3394 17.319 31.3418 17.7192C31.3394 18.071 31.2357 18.3815 31.0306 18.6507C30.8281 18.9176 30.5461 19.1262 30.1849 19.2766C29.8237 19.427 29.4087 19.5022 28.9401 19.5022C28.2518 19.5022 27.6977 19.3591 27.2779 19.0728C26.8581 18.7842 26.6079 18.3827 26.5273 17.8684L27.8198 17.7447C27.8783 17.997 28.0028 18.1874 28.1932 18.316C28.3836 18.4446 28.6313 18.5088 28.9364 18.5088C29.2513 18.5088 29.5039 18.4446 29.6943 18.316C29.8871 18.1874 29.9835 18.0285 29.9835 17.8393C29.9835 17.6792 29.9213 17.547 29.7968 17.4427C29.6748 17.3384 29.4844 17.2583 29.2257 17.2025L28.2664 17.0024C27.727 16.8908 27.3279 16.7028 27.0692 16.4384C26.8105 16.1715 26.6823 15.8343 26.6848 15.4268C26.6823 15.0823 26.7763 14.784 26.9667 14.5317C27.1595 14.277 27.4268 14.0805 27.7685 13.9422C28.1127 13.8015 28.5093 13.7311 28.9584 13.7311C29.6174 13.7311 30.1361 13.8706 30.5144 14.1496C30.8952 14.4286 31.1307 14.8058 31.221 15.2813Z" fill="white"/>
<path d="M37.5572 19.5059C37.2008 19.5059 36.8798 19.4428 36.5943 19.3166C36.3111 19.1881 36.0866 18.9989 35.9206 18.749C35.7571 18.4991 35.6753 18.1911 35.6753 17.8247C35.6753 17.5094 35.7339 17.2486 35.851 17.0424C35.9682 16.8362 36.1281 16.6713 36.3307 16.5475C36.5332 16.4238 36.7615 16.3304 37.0153 16.2674C37.2716 16.2019 37.5364 16.1546 37.8098 16.1254C38.1393 16.0915 38.4066 16.0612 38.6116 16.0345C38.8166 16.0054 38.9655 15.9617 39.0583 15.9035C39.1535 15.8428 39.201 15.7494 39.201 15.6233V15.6015C39.201 15.3273 39.1193 15.1151 38.9557 14.9647C38.7922 14.8143 38.5567 14.7391 38.2491 14.7391C37.9245 14.7391 37.667 14.8094 37.4766 14.9501C37.2887 15.0908 37.1617 15.257 37.0958 15.4486L35.8584 15.274C35.956 14.9344 36.1171 14.6505 36.3416 14.4225C36.5662 14.192 36.8408 14.0198 37.1654 13.9058C37.49 13.7894 37.8488 13.7311 38.2418 13.7311C38.5127 13.7311 38.7824 13.7627 39.0509 13.8257C39.3194 13.8888 39.5647 13.9931 39.7868 14.1387C40.009 14.2818 40.1871 14.4771 40.3214 14.7245C40.4581 14.972 40.5264 15.2812 40.5264 15.6524V19.3931H39.2523V18.6253H39.2084C39.1278 18.7805 39.0143 18.9261 38.8679 19.0619C38.7239 19.1954 38.542 19.3033 38.3224 19.3858C38.1051 19.4658 37.8501 19.5059 37.5572 19.5059ZM37.9013 18.5379C38.1674 18.5379 38.398 18.4858 38.5933 18.3815C38.7886 18.2747 38.9387 18.134 39.0436 17.9594C39.151 17.7847 39.2047 17.5943 39.2047 17.3881V16.7295C39.1632 16.7634 39.0924 16.795 38.9924 16.8241C38.8947 16.8532 38.7849 16.8787 38.6628 16.9005C38.5408 16.9223 38.42 16.9417 38.3004 16.9587C38.1808 16.9757 38.0771 16.9903 37.9892 17.0024C37.7915 17.0291 37.6145 17.0727 37.4583 17.1334C37.3021 17.194 37.1788 17.2789 37.0885 17.3881C36.9982 17.4948 36.9531 17.6331 36.9531 17.8029C36.9531 18.0455 37.0422 18.2287 37.2203 18.3524C37.3985 18.4761 37.6255 18.5379 37.9013 18.5379Z" fill="white"/>
<path d="M48.9476 17.0424V13.8039H50.273V19.3931H48.9879V18.3997H48.9293C48.8024 18.7126 48.5937 18.9685 48.3032 19.1675C48.0152 19.3664 47.6601 19.4658 47.2378 19.4658C46.8693 19.4658 46.5434 19.3846 46.2603 19.222C45.9796 19.0571 45.7599 18.8181 45.6013 18.5052C45.4426 18.1898 45.3633 17.809 45.3633 17.3626V13.8039H46.6886V17.1589C46.6886 17.513 46.7863 17.7944 46.9815 18.003C47.1768 18.2117 47.4331 18.316 47.7504 18.316C47.9457 18.316 48.1348 18.2687 48.3179 18.1741C48.5009 18.0795 48.651 17.9388 48.7682 17.752C48.8878 17.5628 48.9476 17.3262 48.9476 17.0424Z" fill="white"/>
<path d="M55.8744 15.2813L54.6662 15.4122C54.632 15.291 54.5722 15.1769 54.4868 15.0702C54.4038 14.9635 54.2915 14.8773 54.1499 14.8118C54.0084 14.7464 53.8351 14.7136 53.6301 14.7136C53.3542 14.7136 53.1224 14.773 52.9344 14.8919C52.7489 15.0108 52.6574 15.1648 52.6598 15.354C52.6574 15.5166 52.7172 15.6488 52.8392 15.7507C52.9637 15.8525 53.1687 15.9362 53.4543 16.0017L54.4135 16.2055C54.9456 16.3195 55.3411 16.5002 55.5998 16.7477C55.861 16.9951 55.9928 17.319 55.9952 17.7192C55.9928 18.071 55.889 18.3815 55.684 18.6507C55.4814 18.9176 55.1995 19.1262 54.8383 19.2766C54.477 19.427 54.0621 19.5022 53.5934 19.5022C52.9051 19.5022 52.3511 19.3591 51.9312 19.0728C51.5114 18.7842 51.2612 18.3827 51.1807 17.8684L52.4731 17.7447C52.5317 17.997 52.6562 18.1874 52.8465 18.316C53.0369 18.4446 53.2847 18.5088 53.5898 18.5088C53.9046 18.5088 54.1573 18.4446 54.3476 18.316C54.5405 18.1874 54.6369 18.0285 54.6369 17.8393C54.6369 17.6792 54.5746 17.547 54.4502 17.4427C54.3281 17.3384 54.1377 17.2583 53.879 17.2025L52.9198 17.0024C52.3804 16.8908 51.9813 16.7028 51.7226 16.4384C51.4638 16.1715 51.3357 15.8343 51.3381 15.4268C51.3357 15.0823 51.4297 14.784 51.62 14.5317C51.8129 14.277 52.0801 14.0805 52.4218 13.9422C52.766 13.8015 53.1626 13.7311 53.6117 13.7311C54.2708 13.7311 54.7894 13.8706 55.1678 14.1496C55.5485 14.4286 55.7841 14.8058 55.8744 15.2813Z" fill="white"/>
<path d="M35.0367 13.8039V14.8228H33.9273V17.7119C33.9273 17.889 33.9542 18.0249 34.0079 18.1195C34.064 18.2117 34.1372 18.2747 34.2275 18.3087C34.3179 18.3427 34.4179 18.3596 34.5278 18.3596C34.6107 18.3596 34.6864 18.3536 34.7548 18.3415C34.8255 18.3293 34.8792 18.3184 34.9159 18.3087L35.1392 19.3385C35.0684 19.3627 34.9671 19.3894 34.8353 19.4185C34.7059 19.4476 34.5473 19.4646 34.3593 19.4695C34.0274 19.4792 33.7284 19.4294 33.4623 19.3203C33.1963 19.2087 32.9852 19.0365 32.829 18.8036C32.6752 18.5707 32.5995 18.2796 32.602 17.9303V14.8228H31.8038V13.8039H32.602V12.4648H33.9273V13.8039H35.0367Z" fill="white"/>
<path d="M44.461 13.8039V14.8228H43.3517V17.7119C43.3517 17.889 43.3785 18.0249 43.4322 18.1195C43.4884 18.2117 43.5616 18.2747 43.6519 18.3087C43.7422 18.3427 43.8423 18.3596 43.9521 18.3596C44.0351 18.3596 44.1108 18.3536 44.1791 18.3415C44.2499 18.3293 44.3036 18.3184 44.3402 18.3087L44.5636 19.3385C44.4928 19.3627 44.3915 19.3894 44.2597 19.4185C44.1303 19.4476 43.9717 19.4646 43.7837 19.4695C43.4518 19.4792 43.1528 19.4294 42.8867 19.3203C42.6207 19.2087 42.4095 19.0365 42.2533 18.8036C42.0996 18.5707 42.0239 18.2796 42.0263 17.9303V14.8228H41.2282V13.8039H42.0263V12.4648H43.3517V13.8039H44.461Z" fill="white"/>
</svg>
