<svg width="186" height="117" viewBox="0 0 186 117" fill="none" xmlns="http://www.w3.org/2000/svg">
<rect width="186" height="116" transform="translate(0 0.945312)" fill="black"/>
<path d="M107.691 55.6199L105.275 55.8819C105.206 55.6393 105.087 55.4113 104.916 55.1978C104.75 54.9843 104.525 54.812 104.242 54.681C103.959 54.55 103.612 54.4845 103.202 54.4845C102.65 54.4845 102.187 54.6034 101.811 54.8411C101.44 55.0789 101.257 55.387 101.261 55.7655C101.257 56.0906 101.376 56.3551 101.62 56.5589C101.869 56.7627 102.279 56.9301 102.851 57.0611L104.769 57.4687C105.834 57.6967 106.625 58.0582 107.142 58.5532C107.665 59.0481 107.928 59.6959 107.933 60.4965C107.928 61.2001 107.721 61.8212 107.311 62.3599C106.905 62.8936 106.341 63.3109 105.619 63.6118C104.896 63.9126 104.066 64.063 103.129 64.063C101.752 64.063 100.644 63.7767 99.804 63.2042C98.9643 62.6267 98.4639 61.8237 98.3027 60.795L100.888 60.5475C101.005 61.0521 101.254 61.4331 101.635 61.6902C102.016 61.9474 102.511 62.076 103.122 62.076C103.751 62.076 104.257 61.9474 104.638 61.6902C105.023 61.4331 105.216 61.1152 105.216 60.7367C105.216 60.4165 105.092 60.152 104.843 59.9434C104.598 59.7347 104.218 59.5746 103.7 59.463L101.781 59.0627C100.702 58.8395 99.9041 58.4634 99.3866 57.9345C98.8691 57.4007 98.6128 56.7263 98.6176 55.9111C98.6128 55.222 98.8007 54.6252 99.1815 54.1205C99.5672 53.611 100.102 53.218 100.785 52.9414C101.474 52.66 102.267 52.5193 103.166 52.5193C104.484 52.5193 105.521 52.7983 106.278 53.3563C107.04 53.9143 107.511 54.6689 107.691 55.6199Z" fill="white"/>
<path d="M120.365 64.0703C119.653 64.0703 119.011 63.9442 118.439 63.6918C117.873 63.4347 117.424 63.0562 117.092 62.5564C116.765 62.0566 116.601 61.4403 116.601 60.7076C116.601 60.0768 116.718 59.5552 116.953 59.1427C117.187 58.7303 117.507 58.4003 117.912 58.1529C118.317 57.9054 118.774 57.7186 119.282 57.5924C119.794 57.4614 120.324 57.3668 120.871 57.3085C121.53 57.2406 122.064 57.18 122.475 57.1266C122.885 57.0684 123.183 56.981 123.368 56.8646C123.558 56.7432 123.654 56.5564 123.654 56.3041V56.2604C123.654 55.7121 123.49 55.2875 123.163 54.9867C122.836 54.6858 122.365 54.5354 121.75 54.5354C121.1 54.5354 120.585 54.6761 120.204 54.9576C119.828 55.239 119.574 55.5714 119.443 55.9547L116.967 55.6054C117.163 54.926 117.485 54.3583 117.934 53.9022C118.383 53.4412 118.932 53.0967 119.582 52.8686C120.231 52.6357 120.949 52.5193 121.735 52.5193C122.277 52.5193 122.816 52.5823 123.353 52.7085C123.89 52.8347 124.381 53.0433 124.825 53.3345C125.27 53.6207 125.626 54.0114 125.895 54.5063C126.168 55.0012 126.305 55.6199 126.305 56.3623V63.8447H123.756V62.3089H123.668C123.507 62.6195 123.28 62.9106 122.987 63.1823C122.699 63.4492 122.335 63.6651 121.896 63.8301C121.462 63.9902 120.951 64.0703 120.365 64.0703ZM121.054 62.1342C121.586 62.1342 122.047 62.0299 122.438 61.8212C122.829 61.6077 123.129 61.3263 123.339 60.9769C123.554 60.6276 123.661 60.2467 123.661 59.8342V58.5168C123.578 58.5847 123.436 58.6478 123.236 58.706C123.041 58.7643 122.821 58.8152 122.577 58.8589C122.333 58.9025 122.091 58.9414 121.852 58.9753C121.613 59.0093 121.405 59.0384 121.23 59.0627C120.834 59.1161 120.48 59.2034 120.168 59.3247C119.855 59.446 119.609 59.6158 119.428 59.8342C119.247 60.0477 119.157 60.3243 119.157 60.664C119.157 61.1492 119.335 61.5155 119.692 61.763C120.048 62.0105 120.502 62.1342 121.054 62.1342Z" fill="white"/>
<path d="M143.149 59.1427V52.6648H145.801V63.8447H143.23V61.8576H143.113C142.859 62.4836 142.442 62.9955 141.861 63.3934C141.284 63.7913 140.574 63.9902 139.729 63.9902C138.992 63.9902 138.34 63.8277 137.774 63.5026C137.213 63.1726 136.773 62.6947 136.456 62.0687C136.139 61.4379 135.98 60.6761 135.98 59.7833V52.6648H138.631V59.3757C138.631 60.0841 138.826 60.647 139.217 61.0643C139.607 61.4816 140.12 61.6902 140.755 61.6902C141.145 61.6902 141.524 61.5956 141.89 61.4064C142.256 61.2171 142.556 60.9357 142.791 60.5621C143.03 60.1836 143.149 59.7105 143.149 59.1427Z" fill="white"/>
<path d="M157.005 55.6199L154.588 55.8819C154.52 55.6393 154.4 55.4113 154.229 55.1978C154.063 54.9843 153.839 54.812 153.556 54.681C153.272 54.55 152.926 54.4845 152.516 54.4845C151.964 54.4845 151.5 54.6034 151.124 54.8411C150.753 55.0789 150.57 55.387 150.575 55.7655C150.57 56.0906 150.69 56.3551 150.934 56.5589C151.183 56.7627 151.593 56.9301 152.164 57.0611L154.083 57.4687C155.147 57.6967 155.938 58.0582 156.456 58.5532C156.978 59.0481 157.242 59.6959 157.247 60.4965C157.242 61.2001 157.034 61.8212 156.624 62.3599C156.219 62.8936 155.655 63.3109 154.932 63.6118C154.21 63.9126 153.38 64.063 152.442 64.063C151.066 64.063 149.957 63.7767 149.118 63.2042C148.278 62.6267 147.777 61.8237 147.616 60.795L150.201 60.5475C150.319 61.0521 150.568 61.4331 150.948 61.6902C151.329 61.9474 151.825 62.076 152.435 62.076C153.065 62.076 153.57 61.9474 153.951 61.6902C154.337 61.4331 154.53 61.1152 154.53 60.7367C154.53 60.4165 154.405 60.152 154.156 59.9434C153.912 59.7347 153.531 59.5746 153.014 59.463L151.095 59.0627C150.016 58.8395 149.218 58.4634 148.7 57.9345C148.183 57.4007 147.926 56.7263 147.931 55.9111C147.926 55.222 148.114 54.6252 148.495 54.1205C148.881 53.611 149.415 53.218 150.099 52.9414C150.787 52.66 151.581 52.5193 152.479 52.5193C153.797 52.5193 154.835 52.7983 155.592 53.3563C156.353 53.9143 156.824 54.6689 157.005 55.6199Z" fill="white"/>
<path d="M115.324 52.6648V54.7028H113.105V60.482C113.105 60.8362 113.158 61.1079 113.266 61.2972C113.378 61.4816 113.525 61.6077 113.705 61.6757C113.886 61.7436 114.086 61.7776 114.306 61.7776C114.472 61.7776 114.623 61.7654 114.76 61.7412C114.901 61.7169 115.009 61.6951 115.082 61.6757L115.529 63.7355C115.387 63.784 115.185 63.8374 114.921 63.8956C114.662 63.9539 114.345 63.9878 113.969 63.9975C113.305 64.0169 112.707 63.9175 112.175 63.6991C111.642 63.4759 111.22 63.1314 110.908 62.6656C110.6 62.1997 110.449 61.6174 110.454 60.9187V54.7028H108.857V52.6648H110.454V49.9863H113.105V52.6648H115.324Z" fill="white"/>
<path d="M134.175 52.6648V54.7028H131.956V60.482C131.956 60.8362 132.01 61.1079 132.117 61.2972C132.23 61.4816 132.376 61.6077 132.557 61.6757C132.737 61.7436 132.937 61.7776 133.157 61.7776C133.323 61.7776 133.475 61.7654 133.611 61.7412C133.753 61.7169 133.86 61.6951 133.933 61.6757L134.38 63.7355C134.239 63.784 134.036 63.8374 133.772 63.8956C133.514 63.9539 133.196 63.9878 132.82 63.9975C132.156 64.0169 131.558 63.9175 131.026 63.6991C130.494 63.4759 130.072 63.1314 129.759 62.6656C129.451 62.1997 129.3 61.6174 129.305 60.9187V54.7028H127.709V52.6648H129.305V49.9863H131.956V52.6648H134.175Z" fill="white"/>
<path fill-rule="evenodd" clip-rule="evenodd" d="M63.3977 58.6497C59.5623 58.8708 57.1587 57.9773 53.3228 58.1989C52.3715 58.2523 51.4267 58.3902 50.4996 58.6109C51.0658 51.5173 56.0862 45.3119 62.913 44.9175C67.1024 44.6758 71.2898 47.2624 71.5169 51.4614C71.7404 55.5885 68.5935 58.3495 63.3982 58.6492L63.3977 58.6497ZM53.0983 73.1595C49.0849 73.3862 45.0741 70.9647 44.8563 67.0354C44.6421 63.1728 47.6573 60.5888 52.6343 60.3082C56.3081 60.1012 58.6111 60.9377 62.2849 60.7301C63.1958 60.6802 64.1007 60.5511 64.9894 60.3445C64.448 66.9831 59.6387 72.7909 53.0983 73.1595ZM58 26.9458C40.3267 26.9453 26 41.2718 26 58.9453C26 76.6188 40.3267 90.9453 58 90.9453C75.6733 90.9453 90 76.6183 90 58.9453C90 41.2723 75.6733 26.9453 58 26.9453" fill="white"/>
</svg>
