<svg width="401" height="400" viewBox="0 0 401 400" fill="none" xmlns="http://www.w3.org/2000/svg">
<g clip-path="url(#clip0_1045_29394)">
<rect x="0.98999" width="400" height="400" fill="black"/>
<path fill-rule="evenodd" clip-rule="evenodd" d="M219.603 198.98C206.377 199.742 198.089 196.661 184.862 197.425C181.581 197.609 178.324 198.085 175.127 198.846C177.079 174.385 194.391 152.987 217.932 151.627C232.378 150.794 246.817 159.713 247.6 174.192C248.371 188.424 237.52 197.945 219.605 198.978L219.603 198.98ZM184.088 249.013C170.248 249.795 156.418 241.445 155.667 227.896C154.928 214.577 165.326 205.666 182.488 204.699C195.156 203.985 203.097 206.869 215.766 206.154C218.907 205.981 222.027 205.536 225.092 204.824C223.225 227.716 206.641 247.743 184.088 249.013ZM200.99 89.6561C140.048 89.6543 90.6453 139.056 90.6453 199.999C90.6453 260.942 140.048 310.344 200.99 310.344C261.932 310.344 311.335 260.94 311.335 199.999C311.335 139.058 261.932 89.6543 200.99 89.6543" fill="white"/>
</g>
<defs>
<clipPath id="clip0_1045_29394">
<rect width="400" height="400" fill="white" transform="translate(0.98999)"/>
</clipPath>
</defs>
</svg>
