<svg width="116" height="117" viewBox="0 0 116 117" fill="none" xmlns="http://www.w3.org/2000/svg">
<rect width="116" height="116" transform="translate(0 0.945312)" fill="white"/>
<path fill-rule="evenodd" clip-rule="evenodd" d="M63.3977 58.6497C59.5623 58.8708 57.1587 57.9773 53.3228 58.1989C52.3715 58.2523 51.4267 58.3902 50.4996 58.6109C51.0658 51.5173 56.0862 45.3119 62.913 44.9175C67.1024 44.6758 71.2898 47.2624 71.5169 51.4614C71.7404 55.5885 68.5935 58.3495 63.3982 58.6492L63.3977 58.6497ZM53.0983 73.1595C49.0849 73.3862 45.0741 70.9647 44.8563 67.0354C44.6421 63.1728 47.6573 60.5888 52.6343 60.3082C56.3081 60.1012 58.6111 60.9377 62.2849 60.7301C63.1958 60.6802 64.1007 60.5511 64.9894 60.3445C64.448 66.9831 59.6387 72.7909 53.0983 73.1595ZM58 26.9458C40.3267 26.9453 26 41.2718 26 58.9453C26 76.6188 40.3267 90.9453 58 90.9453C75.6733 90.9453 90 76.6183 90 58.9453C90 41.2723 75.6733 26.9453 58 26.9453" fill="black"/>
</svg>
