<svg width="117" height="139" viewBox="0 0 117 139" fill="none" xmlns="http://www.w3.org/2000/svg">
<rect width="116" height="134" transform="translate(0.996094 4.94531)" fill="black"/>
<path fill-rule="evenodd" clip-rule="evenodd" d="M64.3938 58.6497C60.5584 58.8708 58.1548 57.9773 54.3189 58.1989C53.3676 58.2523 52.4228 58.3902 51.4957 58.6109C52.0619 51.5173 57.0823 45.3119 63.9091 44.9175C68.0985 44.6758 72.2859 47.2624 72.513 51.4614C72.7365 55.5885 69.5896 58.3495 64.3943 58.6492L64.3938 58.6497ZM54.0944 73.1595C50.081 73.3862 46.0702 70.9647 45.8524 67.0354C45.6382 63.1728 48.6534 60.5888 53.6304 60.3082C57.3042 60.1012 59.6072 60.9377 63.281 60.7301C64.1919 60.6802 65.0968 60.5511 65.9855 60.3445C65.4441 66.9831 60.6348 72.7909 54.0944 73.1595ZM58.9961 26.9458C41.3228 26.9453 26.9961 41.2718 26.9961 58.9453C26.9961 76.6188 41.3228 90.9453 58.9961 90.9453C76.6694 90.9453 90.9961 76.6183 90.9961 58.9453C90.9961 41.2723 76.6694 26.9453 58.9961 26.9453" fill="white"/>
<path d="M38.9548 103.852L36.5431 104.115C36.4749 103.871 36.3556 103.642 36.185 103.428C36.0194 103.213 35.7953 103.041 35.5127 102.909C35.2301 102.777 34.8842 102.712 34.475 102.712C33.9244 102.712 33.4616 102.831 33.0865 103.07C32.7162 103.308 32.5335 103.618 32.5384 103.998C32.5335 104.324 32.6529 104.59 32.8965 104.794C33.1449 104.999 33.5542 105.167 34.1242 105.299L36.0389 105.708C37.101 105.937 37.8902 106.3 38.4067 106.797C38.928 107.294 39.1911 107.944 39.1959 108.748C39.1911 109.454 38.984 110.078 38.5747 110.619C38.1704 111.155 37.6077 111.574 36.8866 111.876C36.1656 112.178 35.3373 112.329 34.4019 112.329C33.028 112.329 31.9221 112.041 31.0841 111.467C30.2461 110.887 29.7467 110.081 29.5859 109.048L32.1657 108.799C32.2826 109.306 32.5311 109.688 32.9111 109.947C33.2911 110.205 33.7856 110.334 34.3946 110.334C35.0231 110.334 35.5273 110.205 35.9073 109.947C36.2922 109.688 36.4847 109.369 36.4847 108.989C36.4847 108.668 36.3604 108.402 36.112 108.193C35.8684 107.983 35.4883 107.822 34.9719 107.71L33.0572 107.308C31.9805 107.084 31.1839 106.707 30.6675 106.176C30.1511 105.64 29.8953 104.962 29.9002 104.144C29.8953 103.452 30.0829 102.853 30.4629 102.346C30.8478 101.835 31.3813 101.44 32.0633 101.162C32.7503 100.88 33.542 100.738 34.4384 100.738C35.7539 100.738 36.7892 101.019 37.5443 101.579C38.3044 102.139 38.7745 102.897 38.9548 103.852Z" fill="white"/>
<path d="M51.602 112.336C50.8907 112.336 50.25 112.21 49.68 111.956C49.1149 111.698 48.6666 111.318 48.3354 110.816C48.0089 110.314 47.8457 109.696 47.8457 108.96C47.8457 108.327 47.9626 107.803 48.1965 107.389C48.4304 106.975 48.7495 106.643 49.1538 106.395C49.5582 106.146 50.0138 105.959 50.5204 105.832C51.032 105.701 51.5606 105.606 52.1063 105.547C52.764 105.479 53.2975 105.418 53.7067 105.364C54.116 105.306 54.4132 105.218 54.5983 105.101C54.7883 104.98 54.8833 104.792 54.8833 104.539V104.495C54.8833 103.944 54.7201 103.518 54.3937 103.216C54.0672 102.914 53.5971 102.763 52.9832 102.763C52.3353 102.763 51.8213 102.904 51.4412 103.187C51.0661 103.469 50.8128 103.803 50.6812 104.188L48.2111 103.837C48.406 103.155 48.7275 102.585 49.1758 102.127C49.624 101.664 50.1721 101.318 50.8201 101.089C51.468 100.855 52.1842 100.738 52.9686 100.738C53.5094 100.738 54.0478 100.802 54.5837 100.928C55.1196 101.055 55.6092 101.265 56.0526 101.557C56.4959 101.844 56.8516 102.237 57.1195 102.734C57.3924 103.231 57.5288 103.852 57.5288 104.597V112.11H54.9856V110.568H54.8979C54.7371 110.88 54.5106 111.172 54.2183 111.445C53.9308 111.713 53.5679 111.929 53.1294 112.095C52.6958 112.256 52.1867 112.336 51.602 112.336ZM52.289 110.392C52.82 110.392 53.2804 110.288 53.6702 110.078C54.0599 109.864 54.3596 109.581 54.5691 109.23C54.7834 108.88 54.8906 108.497 54.8906 108.083V106.76C54.8078 106.828 54.6665 106.892 54.4667 106.95C54.2719 107.009 54.0526 107.06 53.809 107.104C53.5654 107.148 53.3243 107.187 53.0855 107.221C52.8468 107.255 52.6398 107.284 52.4644 107.308C52.0697 107.362 51.7165 107.45 51.4047 107.571C51.0929 107.693 50.8469 107.864 50.6666 108.083C50.4863 108.297 50.3962 108.575 50.3962 108.916C50.3962 109.403 50.574 109.771 50.9297 110.02C51.2853 110.268 51.7384 110.392 52.289 110.392Z" fill="white"/>
<path d="M74.3379 107.389V100.885H76.9834V112.11H74.4183V110.115H74.3014C74.0481 110.743 73.6315 111.257 73.0517 111.657C72.4768 112.056 71.768 112.256 70.9251 112.256C70.1894 112.256 69.539 112.093 68.9739 111.766C68.4136 111.435 67.9751 110.955 67.6584 110.327C67.3418 109.693 67.1834 108.928 67.1834 108.032V100.885H69.8289V107.623C69.8289 108.334 70.0238 108.899 70.4136 109.318C70.8033 109.737 71.3149 109.947 71.9482 109.947C72.338 109.947 72.7156 109.852 73.081 109.662C73.4464 109.472 73.746 109.189 73.9799 108.814C74.2186 108.434 74.3379 107.959 74.3379 107.389Z" fill="white"/>
<path d="M88.1641 103.852L85.7525 104.115C85.6843 103.871 85.5649 103.642 85.3944 103.428C85.2287 103.213 85.0046 103.041 84.7221 102.909C84.4395 102.777 84.0936 102.712 83.6843 102.712C83.1338 102.712 82.671 102.831 82.2958 103.07C81.9255 103.308 81.7428 103.618 81.7477 103.998C81.7428 104.324 81.8622 104.59 82.1058 104.794C82.3543 104.999 82.7635 105.167 83.3335 105.299L85.2482 105.708C86.3103 105.937 87.0996 106.3 87.616 106.797C88.1373 107.294 88.4004 107.944 88.4053 108.748C88.4004 109.454 88.1933 110.078 87.7841 110.619C87.3797 111.155 86.817 111.574 86.096 111.876C85.3749 112.178 84.5467 112.329 83.6112 112.329C82.2373 112.329 81.1314 112.041 80.2934 111.467C79.4554 110.887 78.9561 110.081 78.7953 109.048L81.375 108.799C81.4919 109.306 81.7404 109.688 82.1204 109.947C82.5004 110.205 82.9949 110.334 83.6039 110.334C84.2324 110.334 84.7367 110.205 85.1167 109.947C85.5016 109.688 85.694 109.369 85.694 108.989C85.694 108.668 85.5698 108.402 85.3213 108.193C85.0777 107.983 84.6977 107.822 84.1813 107.71L82.2666 107.308C81.1899 107.084 80.3933 106.707 79.8769 106.176C79.3604 105.64 79.1047 104.962 79.1095 104.144C79.1047 103.452 79.2922 102.853 79.6722 102.346C80.0571 101.835 80.5906 101.44 81.2727 101.162C81.9596 100.88 82.7513 100.738 83.6478 100.738C84.9632 100.738 85.9985 101.019 86.7537 101.579C87.5137 102.139 87.9838 102.897 88.1641 103.852Z" fill="white"/>
<path d="M46.571 100.885V102.931H44.3567V108.733C44.3567 109.089 44.4103 109.362 44.5174 109.552C44.6295 109.737 44.7757 109.864 44.9559 109.932C45.1362 110 45.3359 110.034 45.5552 110.034C45.7208 110.034 45.8719 110.022 46.0083 109.998C46.1496 109.973 46.2567 109.951 46.3298 109.932L46.7756 112C46.6343 112.049 46.4321 112.102 46.169 112.161C45.9108 112.219 45.5942 112.253 45.219 112.263C44.5564 112.283 43.9596 112.183 43.4286 111.964C42.8975 111.739 42.4761 111.394 42.1643 110.926C41.8573 110.458 41.7063 109.873 41.7112 109.172V102.931H40.118V100.885H41.7112V98.1953H44.3567V100.885H46.571Z" fill="white"/>
<path d="M65.3825 100.885V102.931H63.1682V108.733C63.1682 109.089 63.2218 109.362 63.329 109.552C63.441 109.737 63.5872 109.864 63.7675 109.932C63.9477 110 64.1475 110.034 64.3667 110.034C64.5324 110.034 64.6834 110.022 64.8198 109.998C64.9611 109.973 65.0683 109.951 65.1414 109.932L65.5871 112C65.4459 112.049 65.2437 112.102 64.9806 112.161C64.7224 112.219 64.4057 112.253 64.0305 112.263C63.368 112.283 62.7711 112.183 62.2401 111.964C61.709 111.739 61.2876 111.394 60.9758 110.926C60.6689 110.458 60.5178 109.873 60.5227 109.172V102.931H58.9296V100.885H60.5227V98.1953H63.1682V100.885H65.3825Z" fill="white"/>
</svg>
