<svg width="38" height="43" viewBox="0 0 38 43" fill="none" xmlns="http://www.w3.org/2000/svg">
<path fill-rule="evenodd" clip-rule="evenodd" d="M20.3925 15.8693C19.4006 15.9265 18.779 15.6954 17.787 15.7527C17.5409 15.7666 17.2966 15.8022 17.0568 15.8593C17.2032 14.0247 18.5016 12.4199 20.2672 12.3179C21.3506 12.2554 22.4336 12.9243 22.4923 14.0103C22.5501 15.0776 21.7363 15.7917 20.3926 15.8692L20.3925 15.8693ZM17.7289 19.6219C16.6909 19.6805 15.6537 19.0543 15.5973 18.038C15.5419 17.0391 16.3217 16.3708 17.6089 16.2983C18.559 16.2447 19.1546 16.4611 20.1047 16.4074C20.3403 16.3945 20.5743 16.3611 20.8042 16.3076C20.6642 18.0245 19.4204 19.5265 17.7289 19.6219ZM18.9966 7.67006C14.4259 7.66992 10.7207 11.3751 10.7207 15.9458C10.7207 20.5165 14.4259 24.2216 18.9966 24.2216C23.5672 24.2216 27.2724 20.5164 27.2724 15.9458C27.2724 11.3752 23.5672 7.66992 18.9966 7.66992" fill="white"/>
<path d="M9.49155 30.5827L8.34795 30.7074C8.3156 30.5919 8.259 30.4833 8.17814 30.3817C8.09959 30.28 7.99332 30.198 7.85932 30.1356C7.72532 30.0732 7.56129 30.042 7.36722 30.042C7.10616 30.042 6.88668 30.0986 6.70878 30.2119C6.5332 30.3251 6.44656 30.4718 6.44888 30.652C6.44656 30.8068 6.50317 30.9327 6.61868 31.0297C6.73651 31.1267 6.93057 31.2064 7.20088 31.2688L8.10883 31.4629C8.61248 31.5715 8.98675 31.7436 9.23164 31.9792C9.47884 32.2149 9.6036 32.5233 9.60591 32.9045C9.6036 33.2395 9.50541 33.5352 9.31135 33.7917C9.11959 34.0458 8.85275 34.2445 8.51083 34.3877C8.1689 34.531 7.77615 34.6026 7.33257 34.6026C6.68106 34.6026 6.15662 34.4663 5.75925 34.1937C5.36187 33.9187 5.12507 33.5364 5.04883 33.0466L6.27214 32.9288C6.32758 33.169 6.44541 33.3504 6.62561 33.4729C6.80582 33.5953 7.04031 33.6565 7.3291 33.6565C7.62713 33.6565 7.86625 33.5953 8.04645 33.4729C8.22897 33.3504 8.32022 33.1991 8.32022 33.0189C8.32022 32.8664 8.26131 32.7405 8.14349 32.6411C8.02797 32.5418 7.84777 32.4656 7.60287 32.4124L6.69492 32.2218C6.18434 32.1155 5.80661 31.9365 5.56172 31.6847C5.31682 31.4305 5.19553 31.1094 5.19784 30.7213C5.19553 30.3932 5.28448 30.109 5.46468 29.8688C5.6472 29.6262 5.90018 29.4391 6.22362 29.3074C6.54937 29.1734 6.9248 29.1064 7.3499 29.1064C7.97368 29.1064 8.46462 29.2392 8.82272 29.5049C9.18313 29.7706 9.40607 30.1298 9.49155 30.5827Z" fill="white"/>
<path d="M15.4889 34.6061C15.1516 34.6061 14.8478 34.546 14.5775 34.4259C14.3095 34.3034 14.097 34.1232 13.9399 33.8852C13.7851 33.6473 13.7077 33.3539 13.7077 33.005C13.7077 32.7047 13.7631 32.4563 13.874 32.2599C13.9849 32.0636 14.1362 31.9065 14.328 31.7886C14.5197 31.6708 14.7358 31.5819 14.976 31.5218C15.2186 31.4594 15.4693 31.4144 15.728 31.3866C16.0399 31.3543 16.2929 31.3254 16.487 31.3C16.681 31.2723 16.822 31.2307 16.9098 31.1753C16.9999 31.1175 17.0449 31.0285 17.0449 30.9084V30.8876C17.0449 30.6266 16.9675 30.4244 16.8127 30.2812C16.6579 30.1379 16.435 30.0663 16.1439 30.0663C15.8366 30.0663 15.5929 30.1333 15.4127 30.2673C15.2348 30.4013 15.1146 30.5596 15.0523 30.7421L13.8809 30.5757C13.9734 30.2523 14.1258 29.982 14.3384 29.7648C14.5509 29.5453 14.8108 29.3813 15.1181 29.2727C15.4254 29.1618 15.765 29.1064 16.137 29.1064C16.3934 29.1064 16.6487 29.1364 16.9028 29.1965C17.157 29.2565 17.3891 29.3559 17.5994 29.4945C17.8096 29.6308 17.9783 29.8168 18.1053 30.0524C18.2347 30.2881 18.2994 30.5827 18.2994 30.9361V34.4986H17.0934V33.7674H17.0518C16.9756 33.9153 16.8682 34.0539 16.7296 34.1833C16.5932 34.3103 16.4211 34.4132 16.2132 34.4917C16.0076 34.5679 15.7662 34.6061 15.4889 34.6061ZM15.8147 33.6842C16.0665 33.6842 16.2848 33.6346 16.4696 33.5352C16.6545 33.4336 16.7965 33.2996 16.8959 33.1332C16.9975 32.9669 17.0484 32.7855 17.0484 32.5892V31.9619C17.0091 31.9943 16.9421 32.0243 16.8474 32.052C16.755 32.0797 16.651 32.104 16.5355 32.1248C16.42 32.1456 16.3056 32.1641 16.1924 32.1802C16.0792 32.1964 15.981 32.2103 15.8978 32.2218C15.7107 32.2472 15.5432 32.2888 15.3953 32.3466C15.2475 32.4043 15.1308 32.4852 15.0453 32.5892C14.9599 32.6908 14.9171 32.8225 14.9171 32.9842C14.9171 33.2153 15.0014 33.3897 15.1701 33.5075C15.3387 33.6253 15.5536 33.6842 15.8147 33.6842Z" fill="white"/>
<path d="M26.2704 32.2599V29.1757H27.5248V34.4986H26.3085V33.5526H26.253C26.1329 33.8506 25.9354 34.0943 25.6604 34.2838C25.3878 34.4732 25.0517 34.5679 24.652 34.5679C24.3031 34.5679 23.9947 34.4905 23.7267 34.3358C23.461 34.1787 23.2531 33.9511 23.1029 33.6531C22.9527 33.3527 22.8777 32.99 22.8777 32.5649V29.1757H24.1322V32.3708C24.1322 32.7081 24.2246 32.9761 24.4094 33.1748C24.5942 33.3735 24.8368 33.4729 25.1371 33.4729C25.322 33.4729 25.501 33.4278 25.6743 33.3377C25.8476 33.2476 25.9897 33.1136 26.1005 32.9357C26.2137 32.7555 26.2704 32.5302 26.2704 32.2599Z" fill="white"/>
<path d="M32.8268 30.5827L31.6832 30.7074C31.6508 30.5919 31.5942 30.4833 31.5134 30.3817C31.4348 30.28 31.3285 30.198 31.1945 30.1356C31.0605 30.0732 30.8965 30.042 30.7024 30.042C30.4414 30.042 30.2219 30.0986 30.044 30.2119C29.8684 30.3251 29.7818 30.4718 29.7841 30.652C29.7818 30.8068 29.8384 30.9327 29.9539 31.0297C30.0717 31.1267 30.2658 31.2064 30.5361 31.2688L31.444 31.4629C31.9477 31.5715 32.322 31.7436 32.5669 31.9792C32.8141 32.2149 32.9388 32.5233 32.9411 32.9045C32.9388 33.2395 32.8406 33.5352 32.6466 33.7917C32.4548 34.0458 32.188 34.2445 31.846 34.3877C31.5041 34.531 31.1114 34.6026 30.6678 34.6026C30.0163 34.6026 29.4918 34.4663 29.0945 34.1937C28.6971 33.9187 28.4603 33.5364 28.384 33.0466L29.6073 32.9288C29.6628 33.169 29.7806 33.3504 29.9608 33.4729C30.141 33.5953 30.3755 33.6565 30.6643 33.6565C30.9623 33.6565 31.2015 33.5953 31.3817 33.4729C31.5642 33.3504 31.6554 33.1991 31.6554 33.0189C31.6554 32.8664 31.5965 32.7405 31.4787 32.6411C31.3632 32.5418 31.183 32.4656 30.9381 32.4124L30.0301 32.2218C29.5196 32.1155 29.1418 31.9365 28.8969 31.6847C28.652 31.4305 28.5307 31.1094 28.5331 30.7213C28.5307 30.3932 28.6197 30.109 28.7999 29.8688C28.9824 29.6262 29.2354 29.4391 29.5588 29.3074C29.8846 29.1734 30.26 29.1064 30.6851 29.1064C31.3089 29.1064 31.7998 29.2392 32.1579 29.5049C32.5183 29.7706 32.7413 30.1298 32.8268 30.5827Z" fill="white"/>
<path d="M13.1032 29.1757V30.146H12.0532V32.8976C12.0532 33.0662 12.0786 33.1956 12.1294 33.2857C12.1825 33.3735 12.2518 33.4336 12.3373 33.4659C12.4228 33.4983 12.5175 33.5144 12.6215 33.5144C12.7 33.5144 12.7717 33.5087 12.8363 33.4971C12.9033 33.4856 12.9542 33.4752 12.9888 33.4659L13.2002 34.4467C13.1332 34.4698 13.0373 34.4952 12.9126 34.5229C12.7901 34.5506 12.64 34.5668 12.4621 34.5714C12.1479 34.5806 11.8649 34.5333 11.613 34.4293C11.3612 34.323 11.1614 34.159 11.0135 33.9372C10.868 33.7154 10.7963 33.4382 10.7987 33.1055V30.146H10.0432V29.1757H10.7987V27.9004H12.0532V29.1757H13.1032Z" fill="white"/>
<path d="M22.0237 29.1757V30.146H20.9736V32.8976C20.9736 33.0662 20.999 33.1956 21.0499 33.2857C21.103 33.3735 21.1723 33.4336 21.2578 33.4659C21.3433 33.4983 21.438 33.5144 21.542 33.5144C21.6205 33.5144 21.6921 33.5087 21.7568 33.4971C21.8238 33.4856 21.8747 33.4752 21.9093 33.4659L22.1207 34.4467C22.0537 34.4698 21.9578 34.4952 21.8331 34.5229C21.7106 34.5506 21.5605 34.5668 21.3826 34.5714C21.0684 34.5806 20.7853 34.5333 20.5335 34.4293C20.2817 34.323 20.0819 34.159 19.934 33.9372C19.7884 33.7154 19.7168 33.4382 19.7191 33.1055V30.146H18.9637V29.1757H19.7191V27.9004H20.9736V29.1757H22.0237Z" fill="white"/>
</svg>
