<svg width="300" height="79" viewBox="0 0 300 79" fill="none" xmlns="http://www.w3.org/2000/svg">
<path d="M0.498779 0.402084H4.3619V28.6553H0.498779V0.402084Z" fill="black"/>
<path d="M10.1184 8.05707H13.4064V10.9786C14.3785 9.77232 15.4117 8.90706 16.501 8.38281C17.5902 7.85857 18.8015 7.5939 20.135 7.5939C23.0566 7.5939 25.0314 8.61185 26.0595 10.6528C26.6245 11.7675 26.9044 13.3657 26.9044 15.4423V28.6553H23.3874V15.6713C23.3874 14.4142 23.1991 13.4013 22.8275 12.6328C22.2117 11.3501 21.097 10.7088 19.4835 10.7088C18.6641 10.7088 17.9923 10.7954 17.4629 10.9582C16.5162 11.2382 15.6815 11.8031 14.9639 12.6531C14.3887 13.3351 14.0121 14.0324 13.839 14.7603C13.666 15.483 13.5794 16.5213 13.5794 17.865V28.6553H10.1184V8.05707Z" fill="black"/>
<path d="M34.0759 22.1913C34.1777 23.3467 34.4729 24.2323 34.9565 24.8431C35.8472 25.9577 37.3894 26.5176 39.5881 26.5176C40.8962 26.5176 42.0465 26.2377 43.0441 25.6829C44.0417 25.1281 44.5354 24.2628 44.5354 23.0973C44.5354 22.2117 44.1384 21.5398 43.3444 21.0766C42.8354 20.7967 41.8327 20.4659 40.3363 20.0943L37.542 19.4021C35.7555 18.9644 34.4424 18.4809 33.5924 17.9414C32.0807 17.0048 31.3275 15.7121 31.3275 14.0579C31.3275 12.1085 32.04 10.5307 33.4601 9.32951C34.8801 8.12323 36.7939 7.52264 39.2013 7.52264C42.3468 7.52264 44.6117 8.43371 46.0012 10.2558C46.8716 11.4112 47.294 12.6531 47.2686 13.9866H44.0009C43.9348 13.2079 43.6548 12.5004 43.156 11.8642C42.3417 10.9582 40.9318 10.5052 38.9214 10.5052C37.5828 10.5052 36.5699 10.7546 35.8777 11.2534C35.1906 11.7522 34.8445 12.4088 34.8445 13.2283C34.8445 14.124 35.2975 14.8366 36.2034 15.3761C36.7277 15.6968 37.4962 15.9767 38.5142 16.221L40.8453 16.7809C43.38 17.3815 45.0749 17.9668 45.9401 18.5318C47.2889 19.4174 47.9608 20.8069 47.9608 22.7054C47.9608 24.6038 47.2584 26.1206 45.8485 27.4541C44.4387 28.7876 42.2959 29.4544 39.4151 29.4544C36.3154 29.4544 34.1166 28.7571 32.8238 27.3676C31.5311 25.9781 30.8388 24.2577 30.7523 22.2015H34.081L34.0759 22.1913Z" fill="black"/>
<path d="M52.404 2.30566H55.9058V8.05708H59.1938V10.8819H55.9058V24.3239C55.9058 25.0416 56.1501 25.52 56.6387 25.7643C56.9085 25.9068 57.3564 25.9781 57.9824 25.9781C58.1504 25.9781 58.3285 25.9781 58.5219 25.9679C58.7153 25.9577 58.9393 25.9374 59.1938 25.9017V28.6502C58.7968 28.7673 58.3845 28.8487 57.9519 28.8996C57.5192 28.9505 57.0561 28.976 56.5573 28.976C54.9438 28.976 53.8444 28.5637 53.2693 27.7341C52.6942 26.9095 52.404 25.8356 52.404 24.5122V10.887H49.6149V8.06217H52.404V2.30566Z" fill="black"/>
<path d="M62.6548 0.402084H66.1718V4.32628H62.6548V0.402084ZM62.6548 8.15377H66.1718V28.6553H62.6548V8.15377Z" fill="black"/>
<path d="M72.0963 2.30566H75.5981V8.05708H78.886V10.8819H75.5981V24.3239C75.5981 25.0416 75.8424 25.52 76.331 25.7643C76.6007 25.9068 77.0486 25.9781 77.6747 25.9781C77.8426 25.9781 78.0208 25.9781 78.2142 25.9679C78.4076 25.9577 78.6316 25.9374 78.886 25.9017V28.6502C78.489 28.7673 78.0768 28.8487 77.6441 28.8996C77.2115 28.9505 76.7483 28.976 76.2495 28.976C74.6361 28.976 73.5367 28.5637 72.9616 27.7341C72.3864 26.9095 72.0963 25.8356 72.0963 24.5122V10.887H69.3071V8.06217H72.0963V2.30566Z" fill="black"/>
<path d="M85.8081 8.05707V21.7281C85.8081 22.7766 85.971 23.6368 86.2967 24.3035C86.8973 25.5353 88.012 26.1511 89.6509 26.1511C91.9973 26.1511 93.5954 25.0721 94.4454 22.9191C94.9086 21.7638 95.1376 20.1809 95.1376 18.1704V8.05707H98.5987V28.6553H95.3311L95.3718 25.6167C94.929 26.4005 94.3844 27.0571 93.7278 27.5966C92.4299 28.6756 90.8623 29.2101 89.0096 29.2101C86.1288 29.2101 84.1641 28.2277 83.1207 26.2682C82.5558 25.2197 82.2708 23.8149 82.2708 22.059V8.05707H85.8081Z" fill="black"/>
<path d="M104.946 2.30566H108.447V8.05708H111.735V10.8819H108.447V24.3239C108.447 25.0416 108.692 25.52 109.18 25.7643C109.45 25.9068 109.898 25.9781 110.524 25.9781C110.692 25.9781 110.87 25.9781 111.063 25.9679C111.257 25.9577 111.481 25.9374 111.735 25.9017V28.6502C111.338 28.7673 110.926 28.8487 110.493 28.8996C110.061 28.9505 109.598 28.976 109.099 28.976C107.485 28.976 106.386 28.5637 105.811 27.7341C105.236 26.9095 104.946 25.8356 104.946 24.5122V10.887H102.156V8.06217H104.946V2.30566Z" fill="black"/>
<path d="M127.916 8.62712C129.28 9.31424 130.318 10.1999 131.03 11.2891C131.718 12.3274 132.176 13.5387 132.405 14.9231C132.608 15.8698 132.71 17.3866 132.71 19.4632H117.731C117.797 21.5602 118.286 23.2398 119.202 24.5071C120.118 25.7745 121.538 26.4056 123.457 26.4056C125.248 26.4056 126.684 25.805 127.748 24.6089C128.348 23.9116 128.771 23.1075 129.02 22.1913H132.425C132.333 22.9497 132.038 23.7895 131.529 24.7209C131.02 25.6523 130.46 26.4107 129.834 27.0011C128.791 28.0292 127.498 28.7215 125.961 29.0777C125.131 29.2813 124.2 29.3831 123.157 29.3831C120.607 29.3831 118.449 28.4517 116.677 26.5838C114.906 24.7209 114.021 22.1048 114.021 18.7455C114.021 15.3863 114.911 12.7498 116.698 10.6885C118.479 8.62712 120.815 7.5939 123.691 7.5939C125.142 7.5939 126.551 7.93492 127.916 8.62203V8.62712ZM129.157 16.7147C129.02 15.2133 128.694 14.0172 128.185 13.1214C127.244 11.457 125.676 10.6223 123.477 10.6223C121.899 10.6223 120.581 11.1974 119.512 12.3426C118.443 13.4878 117.879 14.9486 117.817 16.7147H129.163H129.157Z" fill="black"/>
<path d="M162.964 10.1133C164.786 11.8795 165.697 14.4803 165.697 17.9159C165.697 21.3515 164.893 23.9727 163.289 26.141C161.686 28.3092 159.197 29.3882 155.823 29.3882C153.008 29.3882 150.774 28.4313 149.12 26.5176C147.465 24.6038 146.636 22.0284 146.636 18.8015C146.636 15.3456 147.506 12.5869 149.252 10.5409C150.998 8.4897 153.339 7.46666 156.281 7.46666C158.917 7.46666 161.142 8.35228 162.964 10.1184V10.1133ZM160.816 23.7997C161.661 22.0641 162.078 20.135 162.078 18.0075C162.078 16.0887 161.773 14.5261 161.167 13.3199C160.205 11.4265 158.541 10.4747 156.184 10.4747C154.092 10.4747 152.57 11.2789 151.619 12.8974C150.667 14.5109 150.193 16.4552 150.193 18.7354C150.193 21.0156 150.667 22.7512 151.619 24.2119C152.57 25.6727 154.077 26.4005 156.143 26.4005C158.413 26.4005 159.966 25.5353 160.811 23.7997H160.816Z" fill="black"/>
<path d="M171.56 1.77123C172.369 0.590411 173.927 0 176.233 0C176.451 0 176.675 0.00508975 176.904 0.020359C177.133 0.0356282 177.398 0.0508975 177.693 0.0763462V3.23199C177.332 3.20654 177.067 3.19127 176.904 3.18109C176.742 3.176 176.589 3.17091 176.446 3.17091C175.383 3.17091 174.746 3.44067 174.538 3.99036C174.329 4.54006 174.227 5.92447 174.227 8.15378H177.688V10.887H174.227V28.6553H170.802V10.887H167.936V8.15378H170.802V4.92179C170.853 3.48648 171.102 2.4329 171.55 1.76614L171.56 1.77123Z" fill="black"/>
<path d="M0 41.3491H19.5955V44.8102H3.82749V53.3864H17.692V56.7507H3.82749V69.5972H0V41.3491Z" fill="black"/>
<path d="M23.3264 49.0041H26.6144V52.5619C26.8841 51.8696 27.5458 51.0298 28.5943 50.0323C29.6428 49.0398 30.8592 48.541 32.2284 48.541C32.2945 48.541 32.4014 48.546 32.5541 48.5613C32.7068 48.5766 32.9715 48.602 33.343 48.6377V52.2921C33.1394 52.2514 32.9511 52.231 32.778 52.2158C32.605 52.2005 32.4167 52.1954 32.208 52.1954C30.4622 52.1954 29.1236 52.7553 28.1871 53.8801C27.2506 55.0049 26.7823 56.2926 26.7823 57.7534V69.5972H23.3213V48.999L23.3264 49.0041Z" fill="black"/>
<path d="M49.0703 49.5691C50.4344 50.2562 51.4727 51.1418 52.1852 52.231C52.8723 53.2693 53.3304 54.4807 53.5595 55.8651C53.7631 56.8118 53.8649 58.3285 53.8649 60.4052H38.8857C38.9519 62.497 39.4405 64.1817 40.3567 65.4491C41.2728 66.7164 42.6929 67.3476 44.6117 67.3476C46.4033 67.3476 47.8386 66.747 48.9023 65.5509C49.5029 64.8536 49.9254 64.0494 50.1748 63.1333H53.5798C53.4882 63.8916 53.193 64.7365 52.684 65.6629C52.1751 66.5943 51.6152 67.3527 50.9891 67.9431C49.9457 68.9661 48.6529 69.6634 47.1158 70.0197C46.2862 70.2233 45.3548 70.3251 44.3114 70.3251C41.7614 70.3251 39.6034 69.3936 37.8321 67.5257C36.0609 65.6578 35.1753 63.0467 35.1753 59.6875C35.1753 56.3283 36.066 53.6969 37.8525 51.6304C39.6339 49.5691 41.9701 48.5359 44.8458 48.5359C46.2964 48.5359 47.7063 48.8769 49.0703 49.564V49.5691ZM50.3122 57.6567C50.1748 56.1552 49.849 54.9591 49.3401 54.0633C48.3985 52.3939 46.8308 51.5643 44.632 51.5643C43.0542 51.5643 41.736 52.1394 40.6671 53.2846C39.5983 54.4298 39.0333 55.8905 38.9722 57.6567H50.3173H50.3122Z" fill="black"/>
<path d="M70.9714 49.5691C72.3355 50.2562 73.3738 51.1418 74.0864 52.231C74.7735 53.2693 75.2315 54.4807 75.4606 55.8651C75.6642 56.8118 75.766 58.3285 75.766 60.4052H60.7868C60.853 62.497 61.3416 64.1817 62.2578 65.4491C63.1739 66.7164 64.594 67.3476 66.5128 67.3476C68.3044 67.3476 69.7397 66.747 70.8035 65.5509C71.4041 64.8536 71.8265 64.0494 72.0759 63.1333H75.481C75.3893 63.8916 75.0941 64.7365 74.5851 65.6629C74.0762 66.5943 73.5163 67.3527 72.8903 67.9431C71.8469 68.9661 70.5541 69.6634 69.017 70.0197C68.1873 70.2233 67.2559 70.3251 66.2125 70.3251C63.6625 70.3251 61.5045 69.3936 59.7333 67.5257C57.962 65.6578 57.0764 63.0467 57.0764 59.6875C57.0764 56.3283 57.9671 53.6969 59.7536 51.6304C61.535 49.5691 63.8712 48.5359 66.7469 48.5359C68.1975 48.5359 69.6074 48.8769 70.9714 49.564V49.5691ZM72.2133 57.6567C72.0759 56.1552 71.7502 54.9591 71.2412 54.0633C70.2996 52.3939 68.7319 51.5643 66.5332 51.5643C64.9553 51.5643 63.6371 52.1394 62.5683 53.2846C61.4994 54.4298 60.9344 55.8905 60.8734 57.6567H72.2184H72.2133Z" fill="black"/>
<path d="M111.404 41.3491V44.7134H101.887V69.5972H98.0234V44.7134H88.5056V41.3491H111.409H111.404Z" fill="black"/>
<path d="M122.821 49.5691C124.185 50.2562 125.223 51.1418 125.936 52.231C126.623 53.2693 127.081 54.4807 127.31 55.8651C127.514 56.8118 127.615 58.3285 127.615 60.4052H112.636C112.702 62.497 113.191 64.1817 114.107 65.4491C115.023 66.7164 116.443 67.3476 118.362 67.3476C120.154 67.3476 121.589 66.747 122.653 65.5509C123.253 64.8536 123.676 64.0494 123.925 63.1333H127.33C127.239 63.8916 126.943 64.7365 126.435 65.6629C125.926 66.5943 125.366 67.3527 124.74 67.9431C123.696 68.9661 122.403 69.6634 120.866 70.0197C120.037 70.2233 119.105 70.3251 118.062 70.3251C115.512 70.3251 113.354 69.3936 111.583 67.5257C109.811 65.6578 108.926 63.0467 108.926 59.6875C108.926 56.3283 109.816 53.6969 111.603 51.6304C113.384 49.5691 115.721 48.5359 118.596 48.5359C120.047 48.5359 121.457 48.8769 122.821 49.564V49.5691ZM124.063 57.6567C123.925 56.1552 123.6 54.9591 123.091 54.0633C122.149 52.3939 120.581 51.5643 118.383 51.5643C116.805 51.5643 115.486 52.1394 114.418 53.2846C113.349 54.4298 112.784 55.8905 112.723 57.6567H124.068H124.063Z" fill="black"/>
<path d="M145.608 50.0984C147.063 51.2232 147.939 53.1675 148.234 55.9262H144.87C144.666 54.6588 144.198 53.6001 143.465 52.7654C142.732 51.9307 141.561 51.5032 139.948 51.5032C137.744 51.5032 136.166 52.5771 135.219 54.7301C134.603 56.1247 134.298 57.845 134.298 59.8962C134.298 61.9473 134.736 63.6931 135.606 65.103C136.477 66.5128 137.851 67.2152 139.724 67.2152C141.159 67.2152 142.299 66.7775 143.139 65.9021C143.979 65.0266 144.559 63.8305 144.88 62.3087H148.244C147.857 65.0419 146.895 67.0371 145.358 68.2993C143.821 69.5616 141.851 70.1927 139.454 70.1927C136.762 70.1927 134.614 69.2104 133.01 67.2407C131.407 65.2709 130.608 62.8126 130.608 59.8656C130.608 56.2468 131.489 53.4322 133.245 51.4217C135 49.4113 137.24 48.4035 139.958 48.4035C142.279 48.4035 144.167 48.9685 145.623 50.0984H145.608Z" fill="black"/>
<path d="M151.695 41.2524H155.156V51.7882C155.975 50.7499 156.713 50.017 157.37 49.5945C158.485 48.8616 159.879 48.5002 161.544 48.5002C164.531 48.5002 166.557 49.5436 167.621 51.6355C168.196 52.7756 168.486 54.3585 168.486 56.3842V69.5972H164.928V56.6184C164.928 55.1067 164.735 53.9971 164.353 53.2897C163.727 52.1597 162.546 51.5948 160.816 51.5948C159.38 51.5948 158.077 52.0885 156.912 53.0759C155.746 54.0633 155.161 55.9261 155.161 58.6695V69.5921H151.7V41.2473L151.695 41.2524Z" fill="black"/>
<path d="M173.601 49.0041H176.889V51.9256C177.861 50.7194 178.895 49.8541 179.984 49.3299C181.073 48.8056 182.284 48.541 183.618 48.541C186.539 48.541 188.514 49.5589 189.542 51.5999C190.107 52.7145 190.387 54.3127 190.387 56.3893V69.6023H186.87V56.6235C186.87 55.3663 186.682 54.3534 186.31 53.5849C185.694 52.3023 184.58 51.661 182.966 51.661C182.147 51.661 181.475 51.7424 180.946 51.9104C179.999 52.1903 179.164 52.7553 178.447 53.6002C177.872 54.2822 177.495 54.9795 177.322 55.7073C177.149 56.4301 177.062 57.4684 177.062 58.8121V69.5972H173.601V48.999V49.0041Z" fill="black"/>
<path d="M210.426 51.0604C212.248 52.8265 213.154 55.4274 213.154 58.863C213.154 62.2985 212.349 64.9198 210.746 67.088C209.143 69.2511 206.654 70.3352 203.28 70.3352C200.465 70.3352 198.23 69.3784 196.576 67.4646C194.922 65.5509 194.093 62.9755 194.093 59.7486C194.093 56.2926 194.963 53.5391 196.709 51.4879C198.454 49.4367 200.796 48.4137 203.738 48.4137C206.374 48.4137 208.603 49.2993 210.42 51.0655L210.426 51.0604ZM208.278 64.7467C209.123 63.0111 209.54 61.0821 209.54 58.9546C209.54 57.0306 209.24 55.4732 208.629 54.2669C207.667 52.3735 206.008 51.4217 203.646 51.4217C201.554 51.4217 200.032 52.2259 199.08 53.8445C198.129 55.4579 197.655 57.4022 197.655 59.6824C197.655 61.9626 198.129 63.6982 199.08 65.1539C200.032 66.6146 201.539 67.3425 203.605 67.3425C205.875 67.3425 207.433 66.4772 208.273 64.7416L208.278 64.7467Z" fill="black"/>
<path d="M217.505 41.3491H220.966V69.5972H217.505V41.3491Z" fill="black"/>
<path d="M241.081 51.0604C242.903 52.8265 243.809 55.4274 243.809 58.863C243.809 62.2985 243.005 64.9198 241.402 67.088C239.798 69.2511 237.31 70.3352 233.935 70.3352C231.12 70.3352 228.886 69.3784 227.232 67.4646C225.578 65.5509 224.748 62.9755 224.748 59.7486C224.748 56.2926 225.618 53.5391 227.364 51.4879C229.11 49.4367 231.451 48.4137 234.393 48.4137C237.03 48.4137 239.259 49.2993 241.076 51.0655L241.081 51.0604ZM238.933 64.7467C239.778 63.0111 240.195 61.0821 240.195 58.9546C240.195 57.0306 239.89 55.4732 239.284 54.2669C238.322 52.3735 236.663 51.4217 234.302 51.4217C232.21 51.4217 230.688 52.2259 229.736 53.8445C228.784 55.4579 228.311 57.4022 228.311 59.6824C228.311 61.9626 228.784 63.6982 229.736 65.1539C230.688 66.6146 232.194 67.3425 234.261 67.3425C236.531 67.3425 238.088 66.4772 238.928 64.7416L238.933 64.7467Z" fill="black"/>
<path d="M259.511 49.8287C260.163 50.2766 260.824 50.9331 261.501 51.7882V49.1924H264.692V67.9227C264.692 70.5388 264.311 72.6053 263.542 74.1169C262.112 76.9112 259.409 78.3109 255.434 78.3109C253.22 78.3109 251.362 77.8121 249.856 76.8196C248.349 75.8271 247.504 74.2696 247.326 72.1574H250.843C251.011 73.0786 251.342 73.7912 251.836 74.29C252.614 75.0585 253.836 75.4454 255.505 75.4454C258.147 75.4454 259.872 74.5089 260.687 72.6358C261.17 71.5314 261.394 69.5667 261.359 66.7317C260.672 67.7853 259.842 68.564 258.87 69.0781C257.898 69.5922 256.615 69.8466 255.017 69.8466C252.793 69.8466 250.848 69.0577 249.184 67.4697C247.515 65.8868 246.685 63.2707 246.685 59.6162C246.685 56.1654 247.525 53.4729 249.204 51.5388C250.884 49.6047 252.91 48.6326 255.287 48.6326C256.895 48.6326 258.3 49.0296 259.501 49.8236L259.511 49.8287ZM259.934 53.5391C258.89 52.3074 257.557 51.6915 255.933 51.6915C253.51 51.6915 251.851 52.8316 250.96 55.1118C250.487 56.3283 250.253 57.9265 250.253 59.9013C250.253 62.2222 250.721 63.9883 251.658 65.1997C252.594 66.4111 253.856 67.0167 255.439 67.0167C257.913 67.0167 259.654 65.897 260.661 63.6524C261.221 62.3851 261.501 60.904 261.501 59.2091C261.501 56.6591 260.977 54.7657 259.934 53.534V53.5391Z" fill="black"/>
<path d="M282.842 49.0041H286.67C286.181 50.3274 285.102 53.3406 283.423 58.0486C282.166 61.586 281.112 64.4719 280.267 66.7063C278.267 71.9589 276.857 75.1603 276.038 76.3157C275.218 77.4711 273.808 78.0462 271.808 78.0462C271.319 78.0462 270.948 78.0259 270.683 77.9851C270.418 77.9444 270.098 77.8732 269.711 77.7714V74.6157C270.312 74.7837 270.749 74.8855 271.014 74.9211C271.279 74.9567 271.518 74.9822 271.726 74.9822C272.368 74.9822 272.836 74.8753 273.136 74.6666C273.437 74.4579 273.691 74.1984 273.895 73.8879C273.956 73.7861 274.19 73.2619 274.587 72.3152C274.984 71.3685 275.274 70.6661 275.452 70.2029L267.838 48.999H271.762L277.279 65.7748L282.837 48.999L282.842 49.0041Z" fill="black"/>
<path d="M294.432 38.6923C297.547 38.6923 300 41.2168 300 44.3317C300 47.4823 297.547 50.0068 294.432 50.0068C291.337 50.0068 288.92 47.4823 288.92 44.3317C288.92 41.2168 291.337 38.6923 294.432 38.6923ZM294.432 39.4405C291.851 39.4405 289.836 41.6036 289.836 44.3317C289.836 47.1158 291.851 49.2586 294.432 49.2586C297.068 49.2586 299.084 47.1158 299.084 44.3877C299.084 41.6036 297.068 39.4405 294.432 39.4405ZM291.978 41.5273C292.218 41.3084 293.042 41.0336 293.994 41.0336C295.842 41.0336 297.491 42.3518 297.491 44.4386C297.491 46.2862 296.264 47.752 294.142 47.752C293.373 47.752 292.528 47.6044 291.887 47.182L292.106 46.4847C292.528 46.7595 293.22 46.9631 293.953 46.9631C295.638 46.9631 296.534 45.8078 296.534 44.3826C296.534 42.9575 295.689 41.8174 293.969 41.8174C293.108 41.8174 292.431 42.1075 292.192 42.2398L291.973 41.5273H291.978Z" fill="black"/>
</svg>
