<svg width="400" height="32" viewBox="0 0 400 32" fill="none" xmlns="http://www.w3.org/2000/svg">
<path d="M0 1.97437H3.14103V24.9189H0V1.97437Z" fill="black"/>
<path d="M7.80774 8.19064H10.4761V10.5659C11.2659 9.59065 12.1035 8.88466 12.9889 8.45987C13.8744 8.03509 14.8556 7.8197 15.9385 7.8197C18.3137 7.8197 19.9172 8.64534 20.7488 10.3026C21.2095 11.206 21.4368 12.5043 21.4368 14.1915V24.9189H18.577V14.377C18.577 13.3539 18.4274 12.5342 18.1223 11.912C17.6197 10.871 16.7163 10.3505 15.406 10.3505C14.7419 10.3505 14.1915 10.4163 13.7667 10.5539C12.9949 10.7812 12.3189 11.2419 11.7385 11.93C11.2719 12.4804 10.9667 13.0548 10.8231 13.6411C10.6795 14.2274 10.6137 15.071 10.6137 16.1659V24.9249H7.80176V8.19064H7.80774Z" fill="black"/>
<path d="M27.2642 19.6719C27.348 20.6112 27.5873 21.3291 27.9822 21.8257C28.7061 22.7291 29.9565 23.1839 31.7454 23.1839C32.8104 23.1839 33.7437 22.9565 34.5514 22.5018C35.3591 22.0471 35.7659 21.3471 35.7659 20.4018C35.7659 19.6838 35.4429 19.1394 34.7967 18.7625C34.3839 18.5351 33.5702 18.2659 32.3497 17.9667L30.0822 17.4044C28.6343 17.0514 27.5634 16.6565 26.8753 16.2197C25.6488 15.4599 25.0326 14.4069 25.0326 13.0667C25.0326 11.4872 25.6129 10.2009 26.7676 9.2257C27.9223 8.2445 29.4779 7.75989 31.4283 7.75989C33.983 7.75989 35.8198 8.50177 36.9506 9.97955C37.6565 10.9189 37.9976 11.924 37.9796 13.0069H35.3232C35.2694 12.3787 35.042 11.7984 34.6352 11.2838C33.9711 10.5479 32.8283 10.183 31.201 10.183C30.1121 10.183 29.2924 10.3864 28.73 10.7872C28.1736 11.1941 27.8924 11.7266 27.8924 12.3907C27.8924 13.1146 28.2574 13.6949 28.9933 14.1317C29.4181 14.389 30.0403 14.6223 30.8719 14.8197L32.7625 15.2744C34.8206 15.765 36.1967 16.2377 36.8967 16.6984C37.9916 17.4163 38.536 18.5471 38.536 20.0847C38.536 21.6223 37.9617 22.8608 36.8189 23.9437C35.6762 25.0266 33.9352 25.5651 31.5959 25.5651C29.077 25.5651 27.2941 24.9967 26.2411 23.8719C25.1941 22.7411 24.6317 21.3471 24.5599 19.6779H27.2642V19.6719Z" fill="black"/>
<path d="M42.1496 3.52399H44.9915V8.19066H47.6599V10.4881H44.9915V21.4069C44.9915 21.9873 45.1889 22.3821 45.5838 22.5796C45.8052 22.6933 46.1641 22.7531 46.6787 22.7531C46.8163 22.7531 46.9599 22.7531 47.1154 22.7411C47.271 22.7351 47.4565 22.7172 47.6599 22.6873V24.9189C47.3368 25.0146 47.0018 25.0804 46.6547 25.1223C46.3077 25.1642 45.9308 25.1822 45.524 25.1822C44.2137 25.1822 43.3223 24.8471 42.8556 24.177C42.3889 23.5069 42.1556 22.6334 42.1556 21.5625V10.4881H39.894V8.19066H42.1556V3.52399H42.1496Z" fill="black"/>
<path d="M50.4719 1.97437H53.3318V5.15728H50.4719V1.97437ZM50.4719 8.2684H53.3318V24.9129H50.4719V8.2684Z" fill="black"/>
<path d="M58.142 3.52399H60.9839V8.19066H63.6523V10.4881H60.9839V21.4069C60.9839 21.9873 61.1814 22.3821 61.5762 22.5796C61.7976 22.6933 62.1566 22.7531 62.6711 22.7531C62.8087 22.7531 62.9523 22.7531 63.1079 22.7411C63.2634 22.7351 63.4489 22.7172 63.6523 22.6873V24.9189C63.3292 25.0146 62.9942 25.0804 62.6472 25.1223C62.3002 25.1642 61.9232 25.1822 61.5164 25.1822C60.2061 25.1822 59.3147 24.8471 58.848 24.177C58.3813 23.5069 58.148 22.6334 58.148 21.5625V10.4881H55.8865V8.19066H58.148V3.52399H58.142Z" fill="black"/>
<path d="M69.2762 8.19061V19.2949C69.2762 20.1505 69.4078 20.8445 69.6711 21.3889C70.1557 22.3881 71.0651 22.8906 72.3933 22.8906C74.2959 22.8906 75.5942 22.0171 76.2882 20.2641C76.6651 19.3248 76.8506 18.0385 76.8506 16.4052V8.19061H79.6626V24.9129H77.0062L77.0361 22.4479C76.6771 23.0821 76.2344 23.6206 75.7019 24.0573C74.6489 24.9308 73.3745 25.3676 71.8728 25.3676C69.5335 25.3676 67.942 24.5718 67.0925 22.9804C66.6318 22.1248 66.4044 20.9881 66.4044 19.5582V8.19061H69.2762Z" fill="black"/>
<path d="M84.8139 3.52399H87.6558V8.19066H90.3242V10.4881H87.6558V21.4069C87.6558 21.9873 87.8532 22.3821 88.2481 22.5796C88.4695 22.6933 88.8284 22.7531 89.343 22.7531C89.4806 22.7531 89.6242 22.7531 89.7797 22.7411C89.9353 22.7351 90.1208 22.7172 90.3242 22.6873V24.9189C90.0011 25.0146 89.666 25.0804 89.319 25.1223C88.972 25.1642 88.5951 25.1822 88.1883 25.1822C86.878 25.1822 85.9866 24.8471 85.5199 24.177C85.0532 23.5069 84.8199 22.6334 84.8199 21.5625V10.4881H82.5583V8.19066H84.8199V3.52399H84.8139Z" fill="black"/>
<path d="M103.469 8.65133C104.575 9.20774 105.419 9.93168 105.999 10.8112C106.556 11.6548 106.933 12.636 107.118 13.7607C107.286 14.5325 107.369 15.759 107.369 17.4462H95.2062C95.26 19.1454 95.6549 20.5155 96.3968 21.5385C97.1387 22.5676 98.2934 23.0821 99.8549 23.0821C101.309 23.0821 102.475 22.5975 103.343 21.6223C103.828 21.0599 104.175 20.4018 104.378 19.6599H107.142C107.07 20.2761 106.825 20.9582 106.418 21.712C106.005 22.4659 105.551 23.0821 105.042 23.5608C104.193 24.3924 103.146 24.9548 101.895 25.2479C101.225 25.4155 100.465 25.4992 99.6156 25.4992C97.5455 25.4992 95.7925 24.7394 94.3566 23.2257C92.9207 21.712 92.1968 19.5881 92.1968 16.8599C92.1968 14.1317 92.9207 11.9898 94.3686 10.3146C95.8164 8.63937 97.713 7.80176 100.046 7.80176C101.225 7.80176 102.368 8.08295 103.475 8.63937L103.469 8.65133ZM104.474 15.2206C104.36 14.0001 104.097 13.0308 103.684 12.3009C102.918 10.9488 101.644 10.2727 99.8609 10.2727C98.5806 10.2727 97.5096 10.7394 96.6421 11.6727C95.7746 12.606 95.3139 13.7907 95.266 15.2266H104.48L104.474 15.2206Z" fill="black"/>
<path d="M131.929 9.85984C133.407 11.2957 134.149 13.4077 134.149 16.1958C134.149 18.9838 133.497 21.1137 132.193 22.8727C130.888 24.6317 128.866 25.5112 126.132 25.5112C123.846 25.5112 122.034 24.7334 120.687 23.1778C119.341 21.6223 118.671 19.5342 118.671 16.9137C118.671 14.1077 119.377 11.8701 120.795 10.2069C122.213 8.5436 124.116 7.71198 126.503 7.71198C128.645 7.71198 130.452 8.42992 131.929 9.86583V9.85984ZM130.182 20.9761C130.864 19.5701 131.211 17.9966 131.211 16.2735C131.211 14.712 130.966 13.4436 130.469 12.4684C129.686 10.9308 128.34 10.159 126.425 10.159C124.726 10.159 123.493 10.8111 122.722 12.1274C121.95 13.4376 121.561 15.0171 121.561 16.8658C121.561 18.7146 121.95 20.1265 122.722 21.3111C123.493 22.4958 124.72 23.0881 126.395 23.0881C128.238 23.0881 129.5 22.3821 130.188 20.9761H130.182Z" fill="black"/>
<path d="M138.905 3.08721C139.564 2.12994 140.826 1.65131 142.699 1.65131C142.878 1.65131 143.058 1.65131 143.243 1.66925C143.428 1.6872 143.644 1.69319 143.883 1.71712V4.27182C143.59 4.25388 143.375 4.23593 143.243 4.22994C143.111 4.22994 142.986 4.22396 142.872 4.22396C142.011 4.22396 141.49 4.44533 141.322 4.88807C141.155 5.3308 141.071 6.45559 141.071 8.26841H143.883V10.4881H141.071V24.9189H138.289V10.4881H135.962V8.26841H138.289V5.64191C138.331 4.47524 138.534 3.61969 138.899 3.08122L138.905 3.08721Z" fill="black"/>
<path d="M156.041 1.97437H171.955V4.78634H159.152V11.7505H170.411V14.4846H159.152V24.9189H156.047V1.97437H156.041Z" fill="black"/>
<path d="M174.982 8.19064H177.651V11.0804C177.866 10.518 178.405 9.83595 179.26 9.02825C180.116 8.22056 181.097 7.8197 182.21 7.8197C182.264 7.8197 182.347 7.8197 182.473 7.83765C182.599 7.84962 182.814 7.86757 183.113 7.89748V10.865C182.946 10.8351 182.796 10.8112 182.653 10.8052C182.515 10.7932 182.359 10.7872 182.192 10.7872C180.774 10.7872 179.691 11.2419 178.931 12.1513C178.171 13.0607 177.794 14.1137 177.794 15.2984V24.9189H174.982V8.19064Z" fill="black"/>
<path d="M195.887 8.65133C196.994 9.20774 197.837 9.93168 198.417 10.8112C198.98 11.6548 199.351 12.636 199.536 13.7607C199.704 14.5325 199.782 15.759 199.782 17.4462H187.618C187.672 19.1454 188.067 20.5155 188.809 21.5385C189.551 22.5616 190.705 23.0821 192.267 23.0821C193.721 23.0821 194.888 22.5975 195.755 21.6223C196.24 21.0599 196.587 20.4018 196.784 19.6599H199.548C199.476 20.2761 199.231 20.9582 198.824 21.712C198.411 22.4659 197.957 23.0821 197.448 23.5608C196.605 24.3924 195.552 24.9548 194.301 25.2479C193.631 25.4155 192.871 25.4992 192.022 25.4992C189.952 25.4992 188.199 24.7394 186.763 23.2257C185.321 21.712 184.603 19.5881 184.603 16.8599C184.603 14.1317 185.327 11.9898 186.775 10.3146C188.223 8.63937 190.119 7.80176 192.458 7.80176C193.637 7.80176 194.78 8.08295 195.887 8.63937V8.65133ZM196.892 15.2206C196.778 14.0001 196.515 13.0308 196.102 12.3009C195.336 10.9488 194.062 10.2727 192.279 10.2727C190.999 10.2727 189.928 10.7394 189.06 11.6727C188.193 12.606 187.732 13.7907 187.684 15.2266H196.898L196.892 15.2206Z" fill="black"/>
<path d="M213.674 8.65133C214.781 9.20774 215.624 9.93168 216.205 10.8112C216.767 11.6548 217.138 12.636 217.323 13.7607C217.491 14.5325 217.569 15.759 217.569 17.4462H205.406C205.459 19.1454 205.854 20.5155 206.596 21.5385C207.338 22.5616 208.493 23.0821 210.054 23.0821C211.508 23.0821 212.675 22.5975 213.542 21.6223C214.027 21.0599 214.374 20.4018 214.571 19.6599H217.335C217.264 20.2761 217.018 20.9582 216.612 21.712C216.199 22.4659 215.744 23.0821 215.235 23.5608C214.392 24.3924 213.339 24.9548 212.088 25.2479C211.418 25.4155 210.659 25.4992 209.809 25.4992C207.739 25.4992 205.986 24.7394 204.55 23.2257C203.108 21.712 202.39 19.5881 202.39 16.8599C202.39 14.1317 203.114 11.9898 204.562 10.3146C206.01 8.63937 207.906 7.80176 210.24 7.80176C211.418 7.80176 212.561 8.08295 213.668 8.63937L213.674 8.65133ZM214.679 15.2206C214.565 14.0001 214.302 13.0308 213.889 12.3009C213.123 10.9488 211.849 10.2727 210.066 10.2727C208.786 10.2727 207.715 10.7394 206.847 11.6727C205.98 12.606 205.519 13.7907 205.471 15.2266H214.685L214.679 15.2206Z" fill="black"/>
<path d="M246.508 1.97437V4.70856H238.778V24.9189H235.637V4.70856H227.907V1.97437H246.508Z" fill="black"/>
<path d="M255.776 8.65133C256.883 9.20774 257.726 9.93168 258.307 10.8112C258.869 11.6548 259.24 12.636 259.425 13.7607C259.593 14.5325 259.671 15.759 259.671 17.4462H247.507C247.561 19.1454 247.956 20.5155 248.698 21.5385C249.44 22.5616 250.595 23.0821 252.156 23.0821C253.61 23.0821 254.777 22.5975 255.644 21.6223C256.129 21.0599 256.476 20.4018 256.673 19.6599H259.437C259.365 20.2761 259.12 20.9582 258.713 21.712C258.301 22.4659 257.846 23.0821 257.337 23.5608C256.494 24.3924 255.441 24.9548 254.19 25.2479C253.52 25.4155 252.76 25.4992 251.911 25.4992C249.841 25.4992 248.088 24.7394 246.652 23.2257C245.21 21.712 244.492 19.5881 244.492 16.8599C244.492 14.1317 245.216 11.9898 246.664 10.3146C248.112 8.63937 250.008 7.80176 252.342 7.80176C253.52 7.80176 254.663 8.08295 255.77 8.63937L255.776 8.65133ZM256.781 15.2206C256.667 14.0001 256.404 13.0308 255.991 12.3009C255.225 10.9488 253.951 10.2727 252.168 10.2727C250.888 10.2727 249.817 10.7394 248.949 11.6727C248.082 12.606 247.621 13.7907 247.573 15.2266H256.787L256.781 15.2206Z" fill="black"/>
<path d="M274.281 9.08207C275.466 9.99745 276.172 11.5769 276.411 13.8146H273.677C273.509 12.7855 273.132 11.9299 272.54 11.2479C271.948 10.5658 270.996 10.2248 269.68 10.2248C267.891 10.2248 266.611 11.0983 265.839 12.8453C265.336 13.9761 265.091 15.3761 265.091 17.0393C265.091 18.7026 265.444 20.1205 266.156 21.2693C266.862 22.412 267.981 22.9864 269.495 22.9864C270.661 22.9864 271.583 22.6334 272.265 21.9214C272.947 21.2094 273.419 20.2402 273.677 19.0017H276.411C276.1 21.2214 275.316 22.8428 274.066 23.8659C272.815 24.8889 271.218 25.4035 269.273 25.4035C267.089 25.4035 265.342 24.6018 264.038 23.0043C262.74 21.4069 262.088 19.4086 262.088 17.0154C262.088 14.0778 262.8 11.7923 264.23 10.159C265.66 8.52565 267.472 7.70599 269.68 7.70599C271.565 7.70599 273.096 8.16668 274.281 9.08207Z" fill="black"/>
<path d="M279.223 1.89661H282.035V10.4522C282.699 9.60859 283.297 9.01628 283.83 8.66927C284.733 8.07696 285.864 7.77782 287.216 7.77782C289.639 7.77782 291.284 8.62739 292.152 10.3206C292.619 11.2479 292.852 12.5342 292.852 14.1795V24.9069H289.962V14.377C289.962 13.1505 289.807 12.2471 289.495 11.6727C288.987 10.7573 288.03 10.2966 286.624 10.2966C285.457 10.2966 284.398 10.6975 283.453 11.4992C282.507 12.3009 282.035 13.8146 282.035 16.0462V24.9189H279.223V1.89661Z" fill="black"/>
<path d="M297.01 8.19064H299.678V10.5659C300.468 9.59065 301.306 8.88466 302.191 8.45987C303.077 8.03509 304.058 7.8197 305.141 7.8197C307.516 7.8197 309.119 8.64534 309.951 10.3026C310.406 11.206 310.639 12.5043 310.639 14.1915V24.9189H307.779V14.377C307.779 13.3539 307.63 12.5342 307.325 11.912C306.822 10.871 305.919 10.3505 304.608 10.3505C303.944 10.3505 303.394 10.4163 302.969 10.5539C302.197 10.7812 301.521 11.2419 300.935 11.93C300.468 12.4804 300.163 13.0548 300.019 13.6411C299.882 14.2274 299.81 15.071 299.81 16.1659V24.9249H296.998V8.19064H297.01Z" fill="black"/>
<path d="M326.913 9.85984C328.39 11.2957 329.126 13.4077 329.126 16.1958C329.126 18.9838 328.474 21.1137 327.17 22.8727C325.866 24.6317 323.843 25.5112 321.109 25.5112C318.824 25.5112 317.011 24.7334 315.665 23.1778C314.319 21.6223 313.649 19.5342 313.649 16.9137C313.649 14.1077 314.355 11.8701 315.772 10.2069C317.19 8.5436 319.093 7.71198 321.48 7.71198C323.622 7.71198 325.429 8.42992 326.907 9.86583L326.913 9.85984ZM325.166 20.9761C325.848 19.5701 326.195 17.9966 326.195 16.2735C326.195 14.712 325.949 13.4436 325.453 12.4684C324.669 10.9308 323.323 10.159 321.408 10.159C319.709 10.159 318.477 10.8111 317.699 12.1274C316.927 13.4376 316.544 15.0171 316.544 16.8658C316.544 18.7146 316.927 20.1265 317.699 21.3111C318.471 22.4958 319.697 23.0881 321.373 23.0881C323.215 23.0881 324.478 22.3821 325.166 20.9761Z" fill="black"/>
<path d="M332.662 1.97437H335.474V24.9189H332.662V1.97437Z" fill="black"/>
<path d="M351.808 9.85984C353.285 11.2957 354.021 13.4077 354.021 16.1958C354.021 18.9838 353.369 21.1137 352.065 22.8727C350.761 24.6317 348.738 25.5112 346.004 25.5112C343.719 25.5112 341.906 24.7334 340.56 23.1778C339.214 21.6223 338.543 19.5342 338.543 16.9137C338.543 14.1077 339.249 11.8701 340.667 10.2069C342.085 8.5436 343.988 7.71198 346.375 7.71198C348.517 7.71198 350.324 8.42992 351.802 9.86583L351.808 9.85984ZM350.061 20.9761C350.743 19.5701 351.09 17.9966 351.09 16.2735C351.09 14.712 350.844 13.4436 350.348 12.4684C349.564 10.9308 348.218 10.159 346.303 10.159C344.604 10.159 343.372 10.8111 342.594 12.1274C341.822 13.4376 341.439 15.0171 341.439 16.8658C341.439 18.7146 341.822 20.1265 342.594 21.3111C343.366 22.4958 344.592 23.0881 346.267 23.0881C348.11 23.0881 349.373 22.3821 350.061 20.9761Z" fill="black"/>
<path d="M366.777 8.86071C367.303 9.22567 367.842 9.75815 368.392 10.4522V8.34618H370.983V23.5548C370.983 25.6787 370.672 27.3539 370.05 28.5864C368.889 30.8539 366.693 31.9907 363.468 31.9907C361.673 31.9907 360.166 31.5838 358.939 30.7821C357.713 29.9744 357.031 28.712 356.887 26.9949H359.747C359.885 27.7428 360.148 28.3231 360.555 28.73C361.183 29.3522 362.182 29.6693 363.534 29.6693C365.676 29.6693 367.082 28.9095 367.746 27.3898C368.141 26.4924 368.32 24.8949 368.291 22.5975C367.728 23.453 367.058 24.0872 366.268 24.5001C365.479 24.9189 364.438 25.1223 363.139 25.1223C361.332 25.1223 359.753 24.4821 358.401 23.1958C357.049 21.9095 356.373 19.7855 356.373 16.818C356.373 14.018 357.055 11.8282 358.419 10.2607C359.783 8.6872 361.428 7.90344 363.361 7.90344C364.665 7.90344 365.808 8.22652 366.783 8.87268L366.777 8.86071ZM367.118 11.8761C366.268 10.877 365.185 10.3744 363.869 10.3744C361.901 10.3744 360.555 11.3017 359.831 13.1564C359.448 14.1436 359.256 15.4419 359.256 17.0453C359.256 18.93 359.639 20.3659 360.399 21.3471C361.159 22.3283 362.182 22.8248 363.468 22.8248C365.479 22.8248 366.891 21.9154 367.71 20.0906C368.165 19.0616 368.392 17.859 368.392 16.4829C368.392 14.4129 367.967 12.8752 367.118 11.8761Z" fill="black"/>
<path d="M385.719 8.19061H388.824C388.429 9.26156 387.55 11.7086 386.185 15.5317C385.162 18.4035 384.313 20.7488 383.625 22.5616C382.003 26.8274 380.855 29.43 380.191 30.3633C379.527 31.2966 378.384 31.7693 376.756 31.7693C376.362 31.7693 376.056 31.7513 375.841 31.7214C375.626 31.6915 375.362 31.6317 375.051 31.5479V28.9872C375.542 29.1248 375.895 29.2086 376.11 29.2385C376.326 29.2684 376.523 29.2864 376.685 29.2864C377.205 29.2864 377.588 29.2026 377.833 29.0291C378.079 28.8556 378.282 28.6462 378.45 28.4009C378.503 28.3172 378.689 27.8924 379.012 27.1206C379.335 26.3488 379.568 25.7804 379.712 25.4035L373.526 8.18463H376.715L381.196 21.8077L385.707 8.18463L385.719 8.19061Z" fill="black"/>
<path d="M395.477 0C398.008 0 400 2.05214 400 4.57693C400 7.10172 398.008 9.18976 395.477 9.18976C392.964 9.18976 391.002 7.13762 391.002 4.57693C391.002 2.01624 392.964 0 395.477 0ZM395.477 0.610258C393.383 0.610258 391.744 2.36325 391.744 4.58292C391.744 6.80258 393.377 8.58549 395.477 8.58549C397.619 8.58549 399.252 6.84446 399.252 4.63078C399.252 2.36924 397.619 0.616241 395.477 0.616241V0.610258ZM393.485 2.30342C393.676 2.12394 394.346 1.90257 395.118 1.90257C396.62 1.90257 397.96 2.97351 397.96 4.66668C397.96 6.16839 396.961 7.35899 395.238 7.35899C394.615 7.35899 393.927 7.23933 393.407 6.8983L393.586 6.32993C393.927 6.5513 394.496 6.71882 395.088 6.71882C396.458 6.71882 397.188 5.7795 397.188 4.61881C397.188 3.45813 396.506 2.53676 395.106 2.53676C394.406 2.53676 393.856 2.77607 393.664 2.87778L393.485 2.29744V2.30342Z" fill="black"/>
</svg>
