<svg width="356" height="64" viewBox="0 0 356 64" fill="none" xmlns="http://www.w3.org/2000/svg">
<path d="M0 0H90.4754V22.9592H27.8769V64H0V0ZM90.4793 32.0463V54.8202H40.5698L27.8848 32.0463H90.4833H90.4793Z" fill="white"/>
<path fill-rule="evenodd" clip-rule="evenodd" d="M253.827 1.40232C254.468 0.467439 255.701 0 257.526 0C257.7 0 257.877 0.00402964 258.058 0.0161186L258.181 0.0241357C258.332 0.0338816 258.5 0.0447035 258.683 0.0604446V2.55882C258.456 2.54288 258.278 2.53199 258.15 2.52414L258.149 2.52413L258.058 2.51853L258.034 2.51777C257.914 2.51401 257.801 2.51047 257.696 2.51047C256.853 2.51047 256.35 2.72404 256.184 3.15924C256.019 3.59444 255.939 4.6905 255.939 6.45549H258.679V8.6194H255.939V22.6869H253.227V8.6194H250.958V6.45549H253.227V3.89666C253.267 2.76031 253.464 1.92617 253.819 1.39829L253.827 1.40232ZM121.454 0.318359H118.395V22.6869H121.454V0.318359ZM128.614 6.37903H126.011V22.687H128.751V14.1441C128.751 13.0803 128.82 12.2583 128.957 11.6861C129.094 11.1098 129.392 10.5578 129.847 10.0178C130.415 9.34484 131.076 8.89755 131.826 8.67592C132.245 8.54697 132.777 8.47847 133.426 8.47847C134.703 8.47847 135.585 8.98621 136.073 10.0017C136.367 10.6102 136.516 11.412 136.516 12.4074V22.687H139.301V12.226C139.301 10.5819 139.079 9.31664 138.632 8.43414C137.818 6.81826 136.254 6.01233 133.941 6.01233C132.886 6.01233 131.927 6.22187 131.064 6.63692C130.202 7.05198 129.384 7.73702 128.614 8.69204V6.37903ZM144.979 17.5692L144.979 17.5773H142.347C142.416 19.2053 142.964 20.5673 143.987 21.6674C145.011 22.7675 146.752 23.3195 149.206 23.3195C151.486 23.3195 153.183 22.7917 154.299 21.7359C155.415 20.6801 155.971 19.4793 155.971 17.9762C155.971 16.4732 155.439 15.3731 154.372 14.6719C153.687 14.2246 152.345 13.7612 150.338 13.2857L148.492 12.8425C147.686 12.649 147.078 12.4274 146.663 12.1735C145.946 11.7464 145.587 11.1823 145.587 10.473C145.587 9.82427 145.861 9.30444 146.405 8.90954C146.953 8.51463 147.755 8.31718 148.815 8.31718C150.406 8.31718 151.523 8.67582 152.167 9.3931C152.562 9.8968 152.784 10.4569 152.836 11.0735H155.423C155.444 10.0177 155.109 9.03446 154.42 8.11973C153.32 6.67712 151.527 5.95581 149.036 5.95581C147.13 5.95581 145.615 6.43131 144.491 7.38633C143.367 8.33733 142.803 9.58652 142.803 11.1299C142.803 12.4395 143.399 13.463 144.596 14.2045C145.269 14.6316 146.308 15.0144 147.723 15.361L149.935 15.909C151.12 16.2032 151.914 16.4651 152.317 16.6867C152.945 17.0534 153.259 17.5854 153.259 18.2865C153.259 19.2093 152.869 19.8943 152.079 20.3336C151.289 20.7728 150.378 20.9944 149.343 20.9944C147.602 20.9944 146.381 20.5512 145.676 19.6687C145.294 19.1865 145.06 18.4881 144.979 17.5773H144.983L144.979 17.5692ZM162.261 1.82544H159.489V6.38296H157.281V8.61942H159.489V19.4068C159.489 20.4545 159.719 21.3047 160.174 21.9575C160.629 22.6144 161.5 22.9408 162.777 22.9408C163.172 22.9408 163.539 22.9206 163.881 22.8803C164.224 22.84 164.55 22.7755 164.865 22.6829V20.5069C164.663 20.5351 164.486 20.5512 164.333 20.5592C164.18 20.5673 164.038 20.5673 163.905 20.5673C163.41 20.5673 163.055 20.5109 162.842 20.3981C162.455 20.2046 162.261 19.8258 162.261 19.2577V8.61539H164.865V6.37893H162.261V1.82544ZM167.605 0.318359H170.389V3.42521H167.605V0.318359ZM167.605 6.4555H170.389V22.6869H167.605V6.4555ZM177.852 1.82544H175.08V6.38296H172.872V8.61942H175.08V19.4068C175.08 20.4545 175.31 21.3047 175.765 21.9575C176.22 22.6144 177.091 22.9408 178.368 22.9408C178.763 22.9408 179.13 22.9206 179.472 22.8803C179.815 22.84 180.141 22.7755 180.455 22.6829V20.5069C180.254 20.5351 180.077 20.5512 179.923 20.5592C179.77 20.5673 179.629 20.5673 179.496 20.5673C179.001 20.5673 178.646 20.5109 178.432 20.3981C178.046 20.2046 177.852 19.8258 177.852 19.2577V8.61539H180.455V6.37893H177.852V1.82544ZM185.936 6.37891V17.2025C185.936 18.0326 186.065 18.7136 186.323 19.2415C186.798 20.2167 187.681 20.7043 188.978 20.7043C190.836 20.7043 192.101 19.85 192.774 18.1455C193.141 17.2307 193.322 15.9775 193.322 14.3858V6.37891H196.062V22.6869H193.475L193.508 20.2812C193.157 20.9017 192.726 21.4216 192.206 21.8487C191.178 22.703 189.937 23.1261 188.471 23.1261C186.19 23.1261 184.634 22.3484 183.808 20.797C183.361 19.9669 183.135 18.8547 183.135 17.4645V6.37891H185.936ZM203.86 1.82544H201.087V6.38296H198.879V8.61942H201.087V19.4068C201.087 20.4545 201.317 21.3047 201.772 21.9575C202.228 22.6144 203.098 22.9408 204.375 22.9408C204.77 22.9408 205.137 22.9206 205.479 22.8803C205.822 22.84 206.148 22.7755 206.463 22.6829V20.5069C206.261 20.5351 206.084 20.5512 205.931 20.5592C205.778 20.5673 205.637 20.5673 205.504 20.5673C205.008 20.5673 204.653 20.5109 204.44 20.3981C204.053 20.2046 203.86 19.8258 203.86 19.2577V8.61539H206.463V6.37893H203.86V1.82544ZM219.273 6.83035C220.353 7.37435 221.175 8.07551 221.739 8.93785C222.283 9.7599 222.646 10.719 222.827 11.815C222.988 12.5645 223.069 13.7654 223.069 15.4095H211.21C211.262 17.0697 211.649 18.3995 212.374 19.4028C213.099 20.4062 214.224 20.9059 215.743 20.9059C217.161 20.9059 218.298 20.4304 219.14 19.4834C219.615 18.9314 219.95 18.2947 220.147 17.5693H222.843C222.771 18.1698 222.537 18.8347 222.134 19.5721C221.731 20.3095 221.288 20.9099 220.792 21.3774C219.966 22.1913 218.942 22.7394 217.726 23.0214C217.069 23.1826 216.331 23.2632 215.505 23.2632C213.486 23.2632 211.778 22.5258 210.375 21.0469C208.973 19.5721 208.272 17.5008 208.272 14.8413C208.272 12.1817 208.977 10.0944 210.392 8.46235C211.802 6.83035 213.652 6.01233 215.928 6.01233C217.077 6.01233 218.193 6.28232 219.273 6.82632V6.83035ZM220.256 13.2334C220.147 12.0447 219.889 11.0977 219.486 10.3885C218.741 9.07083 217.5 8.40997 215.759 8.40997C214.51 8.40997 213.466 8.86532 212.62 9.77199C211.774 10.6787 211.326 11.8352 211.278 13.2334H220.256ZM249.185 14.1842C249.185 11.4642 248.463 9.40508 247.021 8.00679V8.01082C245.578 6.61253 243.817 5.91138 241.73 5.91138C239.401 5.91138 237.547 6.72133 236.165 8.34528C234.783 9.9652 234.094 12.1493 234.094 14.8854C234.094 17.4402 234.751 19.4792 236.06 20.9943C237.37 22.5095 239.139 23.267 241.367 23.267C244.039 23.267 246.009 22.4128 247.279 20.6961C248.548 18.9795 249.185 16.9042 249.185 14.1842ZM246.32 14.2568C246.32 15.9412 245.989 17.4684 245.32 18.8425H245.316C244.647 20.2166 243.418 20.9016 241.621 20.9016C239.985 20.9016 238.792 20.3254 238.039 19.1689C237.285 18.0124 236.91 16.6383 236.91 14.833C236.91 13.0277 237.285 11.4884 238.039 10.211C238.792 8.92958 239.997 8.2929 241.653 8.2929C243.519 8.2929 244.837 9.04644 245.598 10.5455C246.078 11.5005 246.32 12.7376 246.32 14.2568ZM133.514 32.7368H118V55.1013H121.03V44.9305H132.007V42.2669H121.03V35.477H133.514V32.7368ZM136.468 38.7974H139.071V41.6141C139.285 41.066 139.808 40.4012 140.639 39.6114C141.469 38.8256 142.432 38.4307 143.516 38.4307C143.568 38.4307 143.653 38.4347 143.774 38.4468C143.895 38.4589 144.104 38.479 144.398 38.5072V41.4005C144.237 41.3683 144.088 41.3521 143.951 41.3401C143.814 41.328 143.665 41.3239 143.5 41.3239C142.117 41.3239 141.058 41.7672 140.316 42.6578C139.575 43.5483 139.204 44.5678 139.204 45.7243V55.1013H136.464V38.7933L136.468 38.7974ZM159.316 41.3522C158.752 40.4898 157.93 39.7887 156.85 39.2447V39.2406C155.77 38.6966 154.653 38.4266 153.505 38.4266C151.228 38.4266 149.379 39.2447 147.968 40.8767C146.554 42.5127 145.849 44.596 145.849 47.2556C145.849 49.9151 146.55 51.9823 147.952 53.4612C149.354 54.9401 151.063 55.6775 153.082 55.6775C153.908 55.6775 154.645 55.5969 155.302 55.4358C156.519 55.1537 157.543 54.6016 158.369 53.7917C158.864 53.3242 159.308 52.7238 159.711 51.9864C160.114 51.253 160.347 50.5841 160.42 49.9837H157.724C157.527 50.709 157.192 51.3457 156.717 51.8977C155.874 52.8447 154.738 53.3202 153.32 53.3202C151.8 53.3202 150.676 52.8205 149.951 51.8171C149.225 50.8138 148.839 49.4799 148.786 47.8238H160.645C160.645 46.1797 160.565 44.9788 160.404 44.2293C160.222 43.1333 159.86 42.1742 159.316 41.3522ZM157.063 42.8028C157.466 43.512 157.724 44.459 157.833 45.6478H148.855C148.903 44.2495 149.35 43.093 150.197 42.1863C151.043 41.2796 152.087 40.8243 153.336 40.8243C155.077 40.8243 156.318 41.4811 157.063 42.8028ZM174.189 39.2447C175.269 39.7887 176.091 40.4898 176.656 41.3522C177.2 42.1742 177.562 43.1333 177.744 44.2293C177.905 44.9788 177.985 46.1797 177.985 47.8238H166.126C166.178 49.4799 166.565 50.8138 167.291 51.8171C168.016 52.8205 169.14 53.3202 170.659 53.3202C172.078 53.3202 173.214 52.8447 174.056 51.8977C174.532 51.3457 174.866 50.709 175.064 49.9837H177.76C177.687 50.5841 177.453 51.253 177.05 51.9864C176.647 52.7238 176.204 53.3242 175.709 53.7917C174.882 54.6016 173.859 55.1537 172.642 55.4358C171.985 55.5969 171.248 55.6775 170.422 55.6775C168.403 55.6775 166.694 54.9401 165.292 53.4612C163.89 51.9823 163.188 49.9151 163.188 47.2556C163.188 44.596 163.894 42.5127 165.308 40.8767C166.718 39.2447 168.568 38.4266 170.845 38.4266C171.993 38.4266 173.109 38.6966 174.189 39.2406V39.2447ZM175.173 45.6478C175.064 44.459 174.806 43.512 174.403 42.8028C173.657 41.4811 172.416 40.8243 170.676 40.8243C169.426 40.8243 168.383 41.2796 167.536 42.1863C166.69 43.093 166.243 44.2495 166.195 45.6478H175.173ZM206.201 35.4004V32.7368H188.072V35.4004H195.607V55.1013H198.666V35.4004H206.201ZM215.24 39.2447C216.32 39.7887 217.142 40.4898 217.706 41.3522C218.25 42.1742 218.613 43.1333 218.794 44.2293C218.955 44.9788 219.036 46.1797 219.036 47.8238H207.176C207.229 49.4799 207.616 50.8138 208.341 51.8171C209.066 52.8205 210.191 53.3202 211.71 53.3202C213.128 53.3202 214.265 52.8447 215.107 51.8977C215.582 51.3457 215.917 50.709 216.114 49.9837H218.81C218.737 50.5841 218.504 51.253 218.101 51.9864C217.698 52.7238 217.255 53.3242 216.759 53.7917C215.933 54.6016 214.909 55.1537 213.692 55.4358C213.035 55.5969 212.298 55.6775 211.472 55.6775C209.453 55.6775 207.745 54.9401 206.342 53.4612C204.94 51.9823 204.239 49.9151 204.239 47.2556C204.239 44.596 204.944 42.5127 206.358 40.8767C207.769 39.2447 209.618 38.4266 211.895 38.4266C213.044 38.4266 214.16 38.6966 215.24 39.2406V39.2447ZM216.223 45.6478C216.114 44.459 215.856 43.512 215.453 42.8028C214.708 41.4811 213.467 40.8243 211.726 40.8243C210.477 40.8243 209.433 41.2796 208.587 42.1863C207.741 43.093 207.293 44.2495 207.245 45.6478H216.223ZM235.359 44.2777C235.126 42.0936 234.433 40.5543 233.28 39.6638H233.292C232.14 38.7692 230.645 38.3219 228.807 38.3219C226.655 38.3219 224.882 39.1198 223.492 40.7115C222.102 42.3032 221.405 44.5316 221.405 47.3967C221.405 49.7298 222.037 51.6761 223.307 53.2356C224.576 54.7951 226.277 55.5728 228.408 55.5728C230.306 55.5728 231.866 55.0731 233.083 54.0738C234.3 53.0744 235.061 51.4948 235.368 49.3309H232.704C232.45 50.5357 231.991 51.4827 231.326 52.1758C230.661 52.8689 229.758 53.2155 228.622 53.2155C227.139 53.2155 226.051 52.6594 225.362 51.5432C224.673 50.4269 224.326 49.0448 224.326 47.4208C224.326 45.7969 224.568 44.4349 225.056 43.3307C225.805 41.6262 227.054 40.776 228.799 40.776C230.077 40.776 231.003 41.1144 231.584 41.7753C232.164 42.4362 232.535 43.2743 232.696 44.2777H235.359ZM238.1 32.6602H238.104V55.0972H240.844V46.4496C240.844 44.2776 241.307 42.8028 242.23 42.021C243.153 41.2393 244.184 40.8484 245.321 40.8484C246.691 40.8484 247.626 41.2957 248.121 42.1903C248.424 42.7504 248.577 43.6288 248.577 44.8256V55.1012H251.393V44.6403C251.393 43.0365 251.164 41.7833 250.708 40.8806C249.866 39.2244 248.262 38.3984 245.897 38.3984C244.579 38.3984 243.475 38.6845 242.593 39.2647C242.073 39.5992 241.489 40.1795 240.84 41.0015V32.6602H238.104V32.6561L238.1 32.6602ZM258.046 38.7974H255.443V55.1013H258.183V46.5625C258.183 45.4987 258.252 44.6766 258.389 44.1044C258.526 43.5282 258.824 42.9761 259.279 42.4361C259.847 41.7672 260.508 41.3199 261.258 41.0983C261.677 40.9653 262.209 40.9008 262.857 40.9008C264.135 40.9008 265.017 41.4086 265.505 42.424C265.799 43.0325 265.948 43.8344 265.948 44.8297V55.1053H268.733V44.6444C268.733 43.0003 268.511 41.735 268.064 40.8525C267.25 39.2366 265.686 38.4307 263.373 38.4307C262.317 38.4307 261.358 38.6402 260.496 39.0553C259.634 39.4703 258.816 40.1553 258.046 41.1104V38.7974ZM284.598 40.4252C286.04 41.8235 286.758 43.8827 286.758 46.6027C286.758 49.3227 286.121 51.398 284.851 53.1146C283.582 54.8272 281.612 55.6855 278.94 55.6855C276.712 55.6855 274.943 54.9279 273.633 53.4128C272.323 51.8976 271.667 49.8586 271.667 47.3038C271.667 44.5677 272.356 42.3877 273.738 40.7637C275.12 39.1398 276.974 38.3298 279.303 38.3298C281.39 38.3298 283.155 39.031 284.594 40.4293L284.598 40.4252ZM282.897 51.261C283.566 49.8868 283.896 48.3596 283.896 46.6752C283.896 45.152 283.659 43.9189 283.175 42.9639C282.414 41.4649 281.1 40.7113 279.23 40.7113C277.574 40.7113 276.369 41.348 275.616 42.6295C274.862 43.9069 274.487 45.4462 274.487 47.2515C274.487 49.0567 274.862 50.4308 275.616 51.5833C276.369 52.7398 277.562 53.3161 279.198 53.3161C280.995 53.3161 282.228 52.631 282.893 51.2569L282.897 51.261ZM292.943 32.7368H290.203V55.1013H292.943V32.7368ZM308.868 40.4252C310.311 41.8235 311.028 43.8827 311.028 46.6027C311.028 49.3227 310.391 51.398 309.122 53.1146C307.853 54.8272 305.882 55.6855 303.211 55.6855C300.982 55.6855 299.213 54.9279 297.903 53.4128C296.594 51.8976 295.937 49.8586 295.937 47.3038C295.937 44.5677 296.626 42.3877 298.008 40.7637C299.39 39.1398 301.244 38.3298 303.573 38.3298C305.661 38.3298 307.426 39.031 308.864 40.4293L308.868 40.4252ZM307.168 51.261C307.837 49.8868 308.167 48.3596 308.167 46.6752C308.167 45.152 307.925 43.9189 307.446 42.9639C306.684 41.4649 305.37 40.7113 303.501 40.7113C301.844 40.7113 300.64 41.348 299.886 42.6295C299.133 43.9069 298.758 45.4462 298.758 47.2515C298.758 49.0567 299.133 50.4308 299.886 51.5833C300.64 52.7398 301.832 53.3161 303.468 53.3161C305.266 53.3161 306.499 52.631 307.164 51.2569L307.168 51.261ZM325.035 41.0015C324.499 40.3246 323.975 39.8047 323.459 39.4501L323.451 39.4461C322.5 38.8175 321.388 38.5032 320.115 38.5032C318.233 38.5032 316.629 39.2728 315.299 40.8041C313.97 42.3354 313.305 44.467 313.305 47.1991C313.305 50.0924 313.962 52.1637 315.283 53.4169C316.601 54.6741 318.14 55.2987 319.901 55.2987C321.167 55.2987 322.182 55.0972 322.952 54.6902C323.721 54.2833 324.378 53.6667 324.922 52.8326C324.95 55.0771 324.773 56.6325 324.39 57.507C323.745 58.9899 322.379 59.7313 320.288 59.7313C318.966 59.7313 317.999 59.4251 317.383 58.8166C316.992 58.4217 316.73 57.8575 316.597 57.1282H313.812C313.953 58.8005 314.622 60.0335 315.815 60.8193C317.008 61.6051 318.479 62 320.232 62C323.379 62 325.519 60.8919 326.651 58.6796C327.259 57.4828 327.562 55.8468 327.562 53.7755V38.9464H325.035V41.0015ZM320.627 40.925C321.912 40.925 322.968 41.4126 323.794 42.3877V42.3837C324.62 43.3589 325.035 44.8579 325.035 46.8768C325.035 48.2186 324.813 49.3913 324.37 50.3946C323.572 52.1717 322.194 53.0582 320.236 53.0582C318.982 53.0582 317.983 52.5787 317.242 51.6197C316.5 50.6606 316.129 49.2623 316.129 47.4248C316.129 45.8613 316.315 44.596 316.69 43.6329C317.395 41.8276 318.708 40.925 320.627 40.925ZM341.931 38.7975H344.961C344.575 39.8452 343.72 42.2307 342.391 45.9582C341.395 48.7588 340.561 51.0436 339.892 52.8126C338.309 56.9712 337.192 59.5058 336.544 60.4205C335.895 61.3353 334.779 61.7906 333.195 61.7906C332.808 61.7906 332.514 61.7745 332.304 61.7423C332.095 61.71 331.841 61.6536 331.535 61.573V59.0746C332.01 59.2076 332.357 59.2882 332.566 59.3164C332.776 59.3446 332.965 59.3648 333.13 59.3648C333.638 59.3648 334.009 59.2802 334.247 59.1149C334.484 58.9497 334.686 58.7442 334.847 58.4984C334.895 58.4178 335.081 58.0028 335.395 57.2533C335.709 56.5037 335.939 55.9476 336.08 55.5809L330.052 38.7935H333.159L337.527 52.0752L341.927 38.7935L341.931 38.7975ZM355.515 35.0983C355.515 32.6321 353.573 30.6334 351.107 30.6334C348.657 30.6334 346.743 32.6321 346.743 35.0983C346.743 37.5926 348.657 39.5913 351.107 39.5913C353.573 39.5913 355.515 37.5926 355.515 35.0983ZM347.468 35.0983C347.468 32.9384 349.064 31.2258 351.107 31.2258C353.194 31.2258 354.79 32.9384 354.79 35.1426C354.79 37.3025 353.194 38.999 351.107 38.999C349.064 38.999 347.468 37.3025 347.468 35.0983ZM350.76 32.4871C350.007 32.4871 349.354 32.7047 349.164 32.8779H349.16L349.334 33.4421C349.523 33.3373 350.059 33.1076 350.74 33.1076C352.102 33.1076 352.771 34.0103 352.771 35.1386C352.771 36.2669 352.062 37.1816 350.728 37.1816C350.148 37.1816 349.6 37.0204 349.265 36.8028L349.092 37.3549C349.6 37.6893 350.269 37.8062 350.877 37.8062C352.557 37.8062 353.529 36.6456 353.529 35.1829C353.529 33.5307 352.223 32.4871 350.76 32.4871Z" fill="white"/>
</svg>
