<svg width="106" height="139" viewBox="0 0 106 139" fill="none" xmlns="http://www.w3.org/2000/svg">
<rect width="106" height="134" transform="translate(0 4.94531)" fill="white"/>
<path d="M26.252 112.116V98.0469H28.8006V109.979H34.997V112.116H26.252Z" fill="black"/>
<path d="M41.3149 112.322C40.2845 112.322 39.3914 112.095 38.6358 111.642C37.8801 111.189 37.2939 110.554 36.8771 109.739C36.465 108.924 36.2589 107.971 36.2589 106.881C36.2589 105.791 36.465 104.836 36.8771 104.017C37.2939 103.197 37.8801 102.56 38.6358 102.107C39.3914 101.653 40.2845 101.427 41.3149 101.427C42.3454 101.427 43.2385 101.653 43.9941 102.107C44.7498 102.56 45.3337 103.197 45.7459 104.017C46.1626 104.836 46.371 105.791 46.371 106.881C46.371 107.971 46.1626 108.924 45.7459 109.739C45.3337 110.554 44.7498 111.189 43.9941 111.642C43.2385 112.095 42.3454 112.322 41.3149 112.322ZM41.3287 110.33C41.8874 110.33 42.3546 110.176 42.7301 109.87C43.1056 109.558 43.385 109.141 43.5682 108.619C43.756 108.097 43.8499 107.516 43.8499 106.874C43.8499 106.229 43.756 105.645 43.5682 105.123C43.385 104.596 43.1056 104.177 42.7301 103.865C42.3546 103.554 41.8874 103.398 41.3287 103.398C40.7562 103.398 40.2799 103.554 39.8998 103.865C39.5242 104.177 39.2426 104.596 39.0548 105.123C38.8716 105.645 38.78 106.229 38.78 106.874C38.78 107.516 38.8716 108.097 39.0548 108.619C39.2426 109.141 39.5242 109.558 39.8998 109.87C40.2799 110.176 40.7562 110.33 41.3287 110.33Z" fill="black"/>
<path d="M52.6838 116.293C51.7907 116.293 51.0236 116.171 50.3824 115.929C49.7413 115.69 49.226 115.37 48.8368 114.967C48.4475 114.564 48.1773 114.117 48.0261 113.627L50.2656 113.085C50.3664 113.291 50.513 113.494 50.7053 113.696C50.8977 113.902 51.1564 114.072 51.4816 114.204C51.8113 114.342 52.2258 114.41 52.725 114.41C53.4303 114.41 54.0142 114.239 54.4768 113.895C54.9393 113.556 55.1706 112.998 55.1706 112.219V110.22H55.0469C54.9187 110.476 54.7309 110.74 54.4836 111.01C54.2409 111.28 53.918 111.507 53.515 111.69C53.1166 111.873 52.6151 111.965 52.0105 111.965C51.1999 111.965 50.4649 111.775 49.8054 111.395C49.1505 111.01 48.6284 110.437 48.2391 109.677C47.8544 108.912 47.662 107.955 47.662 106.806C47.662 105.647 47.8544 104.669 48.2391 103.872C48.6284 103.071 49.1528 102.464 49.8123 102.052C50.4717 101.635 51.2068 101.427 52.0174 101.427C52.6357 101.427 53.144 101.532 53.5425 101.743C53.9455 101.949 54.2661 102.198 54.5042 102.492C54.7424 102.78 54.9233 103.053 55.0469 103.309H55.1843V101.564H57.6368V112.288C57.6368 113.19 57.4216 113.936 56.9911 114.527C56.5606 115.118 55.9721 115.56 55.2256 115.853C54.479 116.146 53.6318 116.293 52.6838 116.293ZM52.7044 110.014C53.2311 110.014 53.6799 109.886 54.0508 109.629C54.4218 109.373 54.7035 109.004 54.8958 108.523C55.0882 108.042 55.1843 107.465 55.1843 106.792C55.1843 106.128 55.0882 105.546 54.8958 105.047C54.708 104.548 54.4287 104.161 54.0577 103.886C53.6913 103.607 53.2402 103.467 52.7044 103.467C52.1502 103.467 51.6877 103.611 51.3167 103.9C50.9457 104.188 50.6664 104.585 50.4786 105.088C50.2908 105.587 50.197 106.155 50.197 106.792C50.197 107.438 50.2908 108.003 50.4786 108.489C50.671 108.97 50.9526 109.345 51.3236 109.615C51.6991 109.881 52.1594 110.014 52.7044 110.014Z" fill="black"/>
<path d="M64.4012 112.322C63.3708 112.322 62.4777 112.095 61.7221 111.642C60.9664 111.189 60.3802 110.554 59.9634 109.739C59.5513 108.924 59.3452 107.971 59.3452 106.881C59.3452 105.791 59.5513 104.836 59.9634 104.017C60.3802 103.197 60.9664 102.56 61.7221 102.107C62.4777 101.653 63.3708 101.427 64.4012 101.427C65.4317 101.427 66.3247 101.653 67.0804 102.107C67.8361 102.56 68.42 103.197 68.8322 104.017C69.2489 104.836 69.4573 105.791 69.4573 106.881C69.4573 107.971 69.2489 108.924 68.8322 109.739C68.42 110.554 67.8361 111.189 67.0804 111.642C66.3247 112.095 65.4317 112.322 64.4012 112.322ZM64.415 110.33C64.9737 110.33 65.4409 110.176 65.8164 109.87C66.1919 109.558 66.4713 109.141 66.6545 108.619C66.8423 108.097 66.9362 107.516 66.9362 106.874C66.9362 106.229 66.8423 105.645 66.6545 105.123C66.4713 104.596 66.1919 104.177 65.8164 103.865C65.4409 103.554 64.9737 103.398 64.415 103.398C63.8425 103.398 63.3662 103.554 62.9861 103.865C62.6105 104.177 62.3289 104.596 62.1411 105.123C61.9579 105.645 61.8663 106.229 61.8663 106.874C61.8663 107.516 61.9579 108.097 62.1411 108.619C62.3289 109.141 62.6105 109.558 62.9861 109.87C63.3662 110.176 63.8425 110.33 64.415 110.33Z" fill="black"/>
<path d="M79.5209 104.353L77.2539 104.601C77.1898 104.372 77.0776 104.156 76.9173 103.955C76.7616 103.753 76.5509 103.591 76.2853 103.467C76.0197 103.343 75.6945 103.282 75.3098 103.282C74.7923 103.282 74.3572 103.394 74.0046 103.618C73.6565 103.843 73.4848 104.133 73.4893 104.491C73.4848 104.797 73.597 105.047 73.826 105.239C74.0595 105.432 74.4442 105.59 74.9801 105.713L76.7799 106.098C77.7783 106.313 78.5202 106.655 79.0057 107.122C79.4957 107.589 79.743 108.2 79.7476 108.956C79.743 109.62 79.5484 110.206 79.1637 110.715C78.7836 111.218 78.2546 111.612 77.5768 111.896C76.899 112.18 76.1204 112.322 75.2411 112.322C73.9496 112.322 72.91 112.052 72.1223 111.511C71.3346 110.966 70.8651 110.208 70.714 109.238L73.139 109.004C73.2489 109.48 73.4825 109.84 73.8397 110.083C74.1969 110.325 74.6618 110.447 75.2342 110.447C75.825 110.447 76.299 110.325 76.6563 110.083C77.0181 109.84 77.199 109.54 77.199 109.183C77.199 108.88 77.0822 108.631 76.8486 108.434C76.6196 108.237 76.2624 108.086 75.7769 107.98L73.9771 107.603C72.965 107.392 72.2162 107.037 71.7307 106.538C71.2452 106.034 71.0048 105.397 71.0094 104.628C71.0048 103.978 71.1811 103.414 71.5383 102.938C71.9002 102.457 72.4016 102.086 73.0428 101.825C73.6886 101.56 74.4328 101.427 75.2755 101.427C76.512 101.427 77.4852 101.69 78.1951 102.217C78.9095 102.743 79.3515 103.456 79.5209 104.353Z" fill="black"/>
<path d="M79.5652 90.9453H26.4297V57.7546H79.515L79.5652 90.9453ZM52.9388 60.4173C48.4035 60.4221 43.9396 61.5609 39.9432 63.7325C35.9469 65.9041 32.5417 69.0415 30.0301 72.866C29.6978 73.2545 29.5149 73.7512 29.5149 74.2652C29.5149 74.7791 29.6978 75.2759 30.0301 75.6644C32.5579 79.4713 35.9695 82.5917 39.9656 84.752C43.9617 86.9123 48.4203 88.0464 52.95 88.0547C57.4798 88.0631 61.9425 86.9455 65.9463 84.8001C69.9502 82.6546 73.373 79.5467 75.9145 75.7492C76.277 75.3387 76.4774 74.8074 76.4774 74.2567C76.4774 73.706 76.277 73.1746 75.9145 72.7642C73.38 68.9553 69.9577 65.8377 65.9503 63.6871C61.943 61.5366 57.474 60.4193 52.9388 60.4343V60.4173Z" fill="black"/>
<path d="M53.0896 54.6509C48.5833 54.6418 44.1464 53.526 40.1594 51.3992C36.1723 49.2724 32.754 46.198 30.1976 42.4397C29.7714 41.9805 29.5341 41.3739 29.5341 40.7437C29.5341 40.1134 29.7714 39.5069 30.1976 39.0477C32.7526 35.2961 36.1732 32.2329 40.1623 30.1239C44.1514 28.0149 48.5885 26.9239 53.0884 26.9456C57.5883 26.9674 62.015 28.1011 65.9841 30.2486C69.9532 32.396 73.3447 35.4921 75.8643 39.2681C76.2256 39.6758 76.4254 40.2043 76.4254 40.7521C76.4254 41.2999 76.2256 41.8284 75.8643 42.2361C73.3478 46.0218 69.9593 49.1303 65.9914 51.2933C62.0236 53.4562 57.5955 54.6086 53.0896 54.6509ZM63.0033 40.9132C63.0499 38.8912 62.5004 36.9009 61.4251 35.1965C60.3498 33.4922 58.7973 32.1511 56.9659 31.3443C55.1345 30.5376 53.1073 30.3019 51.143 30.6673C49.1788 31.0327 47.3666 31.9827 45.9379 33.3959C44.5091 34.8091 43.5287 36.6215 43.1216 38.6016C42.7145 40.5818 42.8994 42.6399 43.6525 44.5132C44.4056 46.3865 45.6928 47.99 47.3498 49.119C49.0069 50.248 50.9585 50.8513 52.9556 50.8518C55.5803 50.8526 58.1011 49.8131 59.9788 47.9558C61.8565 46.0985 62.942 43.5707 63.0033 40.9132Z" fill="black"/>
<path d="M52.9886 84.2797C51.0413 84.2463 49.1471 83.6307 47.5442 82.5103C45.9412 81.39 44.701 79.8147 43.9793 77.9826C43.2576 76.1505 43.0866 74.1433 43.4879 72.2131C43.8892 70.2829 44.8448 68.5159 46.2347 67.134C47.6246 65.7522 49.3867 64.8173 51.2997 64.4466C53.2126 64.076 55.1911 64.2862 56.9864 65.0509C58.7817 65.8156 60.3139 67.1006 61.3903 68.7445C62.4667 70.3884 63.0394 72.3178 63.0363 74.2903C63.0321 75.6167 62.7679 76.929 62.2592 78.1512C61.7504 79.3734 61.0072 80.4812 60.0726 81.4104C59.138 82.3396 58.0306 83.0716 56.8146 83.5642C55.5986 84.0567 54.2982 84.2999 52.9886 84.2797Z" fill="black"/>
</svg>
