<svg width="630" height="346" viewBox="0 0 630 346" fill="none" xmlns="http://www.w3.org/2000/svg">
<path fill-rule="evenodd" clip-rule="evenodd" d="M131.763 253.504C134.885 232.886 136.829 204.297 136.829 172.648C136.829 140.998 134.885 112.409 131.763 91.7911C130.198 81.4588 128.357 73.2607 126.37 67.7112C125.37 64.9184 124.395 62.9741 123.515 61.7847C122.933 60.9983 122.56 60.7564 122.417 60.686C122.274 60.7564 121.901 60.9983 121.319 61.7847C120.439 62.9741 119.464 64.9184 118.464 67.7112C116.477 73.2607 114.636 81.4588 113.071 91.7911C109.949 112.409 108.005 140.998 108.005 172.648C108.005 204.297 109.949 232.886 113.071 253.504C114.636 263.837 116.477 272.035 118.464 277.584C119.464 280.377 120.439 282.321 121.319 283.511C121.901 284.297 122.274 284.539 122.417 284.609C122.56 284.539 122.933 284.297 123.515 283.511C124.395 282.321 125.37 280.377 126.37 277.584C128.357 272.035 130.198 263.837 131.763 253.504ZM122.417 287.631C132.033 287.631 139.829 236.151 139.829 172.648C139.829 109.144 132.033 57.6641 122.417 57.6641C112.801 57.6641 105.005 109.144 105.005 172.648C105.005 236.151 112.801 287.631 122.417 287.631Z" fill="black"/>
<path fill-rule="evenodd" clip-rule="evenodd" d="M151.899 172.338C151.899 180.144 150.419 186.785 147.46 192.261C144.524 197.737 140.516 201.919 135.436 204.809C130.38 207.675 124.694 209.108 118.38 209.108C114.055 209.108 110.032 208.44 106.311 207.105L106.038 190.707C106.877 191.595 107.799 192.369 108.803 193.03C111.529 194.824 114.721 195.721 118.38 195.721C122.038 195.721 125.23 194.824 127.957 193.03C130.683 191.235 132.792 188.602 134.283 185.13C135.798 181.658 136.555 177.394 136.555 172.338C136.555 167.281 135.798 163.017 134.283 159.545C132.792 156.073 130.683 153.44 127.957 151.646C125.23 149.852 122.038 148.955 118.38 148.955C114.721 148.955 111.529 149.852 108.803 151.646C107.763 152.33 106.811 153.137 105.947 154.065L106.301 137.574C110.025 136.237 114.051 135.568 118.38 135.568C124.694 135.568 130.38 137.013 135.436 139.902C140.516 142.768 144.524 146.939 147.46 152.415C150.419 157.891 151.899 164.532 151.899 172.338ZM157.909 228.262V154.442H172.589V163.46H173.253C173.906 162.015 174.849 160.547 176.084 159.056C177.343 157.541 178.974 156.283 180.978 155.281C183.005 154.256 185.522 153.743 188.527 153.743C192.442 153.743 196.054 154.768 199.363 156.819C202.671 158.846 205.316 161.91 207.297 166.011C209.277 170.089 210.268 175.204 210.268 181.356C210.268 187.344 209.301 192.4 207.367 196.525C205.456 200.626 202.846 203.737 199.537 205.857C196.252 207.954 192.57 209.003 188.492 209.003C185.603 209.003 183.145 208.525 181.118 207.57C179.114 206.614 177.471 205.414 176.189 203.97C174.908 202.502 173.929 201.022 173.253 199.531H172.799V228.262H157.909ZM172.484 181.286C172.484 184.478 172.927 187.262 173.812 189.639C174.698 192.016 175.98 193.868 177.657 195.197C179.335 196.502 181.374 197.154 183.774 197.154C186.197 197.154 188.248 196.49 189.926 195.162C191.603 193.81 192.873 191.946 193.735 189.569C194.621 187.169 195.064 184.408 195.064 181.286C195.064 178.186 194.632 175.46 193.77 173.107C192.908 170.753 191.638 168.912 189.96 167.584C188.283 166.256 186.221 165.592 183.774 165.592C181.351 165.592 179.3 166.233 177.622 167.514C175.968 168.796 174.698 170.613 173.812 172.967C172.927 175.32 172.484 178.093 172.484 181.286ZM225.479 205.822C229.464 208.059 234.217 209.178 239.74 209.178C244.167 209.178 248.07 208.502 251.449 207.15C254.851 205.776 257.624 203.865 259.767 201.418C261.934 198.948 263.367 196.059 264.067 192.75L250.295 191.841C249.783 193.193 249.037 194.335 248.058 195.267C247.08 196.199 245.903 196.898 244.528 197.364C243.153 197.83 241.639 198.063 239.984 198.063C237.491 198.063 235.336 197.538 233.518 196.49C231.701 195.441 230.291 193.95 229.289 192.016C228.31 190.082 227.821 187.787 227.821 185.13V185.095H264.381V181.006C264.381 176.439 263.74 172.454 262.459 169.052C261.177 165.627 259.383 162.784 257.076 160.524C254.793 158.264 252.113 156.574 249.037 155.456C245.985 154.314 242.687 153.743 239.145 153.743C233.879 153.743 229.289 154.908 225.374 157.238C221.483 159.569 218.465 162.819 216.322 166.99C214.178 171.161 213.106 176.008 213.106 181.53C213.106 187.193 214.178 192.098 216.322 196.245C218.465 200.37 221.518 203.562 225.479 205.822ZM227.835 175.868C227.925 173.94 228.421 172.181 229.324 170.59C230.303 168.843 231.654 167.456 233.378 166.431C235.126 165.382 237.13 164.858 239.39 164.858C241.557 164.858 243.456 165.336 245.087 166.291C246.742 167.223 248.035 168.516 248.967 170.171C249.899 171.825 250.365 173.724 250.365 175.868H227.835ZM269.177 154.442H283.612V163.809H284.171C285.15 160.477 286.793 157.961 289.099 156.26C291.406 154.535 294.063 153.673 297.069 153.673C297.814 153.673 298.618 153.72 299.48 153.813C300.342 153.906 301.1 154.034 301.752 154.198V167.41C301.053 167.2 300.086 167.013 298.851 166.85C297.616 166.687 296.486 166.606 295.461 166.606C293.27 166.606 291.313 167.083 289.589 168.039C287.888 168.971 286.536 170.276 285.534 171.953C284.556 173.631 284.066 175.565 284.066 177.755V208.129H269.177V154.442ZM309.143 207.36C311.823 208.548 314.875 209.143 318.3 209.143C320.957 209.143 323.299 208.793 325.326 208.094C327.353 207.372 329.089 206.381 330.534 205.123C331.978 203.842 333.132 202.362 333.994 200.684H334.413V208.129H348.534V171.918C348.534 168.726 347.917 165.988 346.682 163.705C345.447 161.398 343.757 159.51 341.614 158.042C339.493 156.574 337.058 155.491 334.309 154.792C331.582 154.093 328.728 153.743 325.745 153.743C321.458 153.743 317.683 154.396 314.421 155.7C311.182 156.982 308.537 158.823 306.487 161.223C304.436 163.6 303.061 166.419 302.362 169.681L316.133 170.8C316.646 169.029 317.695 167.561 319.279 166.396C320.864 165.208 322.996 164.613 325.675 164.613C328.215 164.613 330.173 165.219 331.547 166.431C332.945 167.643 333.645 169.355 333.645 171.569V171.779C333.645 172.92 333.213 173.782 332.351 174.365C331.489 174.948 330.103 175.39 328.192 175.693C326.281 175.973 323.765 176.276 320.642 176.602C317.986 176.858 315.446 177.301 313.023 177.93C310.623 178.559 308.479 179.491 306.591 180.726C304.704 181.961 303.213 183.592 302.117 185.62C301.022 187.647 300.475 190.152 300.475 193.134C300.475 196.676 301.244 199.636 302.782 202.012C304.343 204.366 306.463 206.148 309.143 207.36ZM328.367 197.573C326.689 198.436 324.755 198.867 322.565 198.867C320.281 198.867 318.394 198.342 316.902 197.294C315.434 196.222 314.7 194.672 314.7 192.645C314.7 191.247 315.061 190.082 315.784 189.15C316.506 188.195 317.52 187.437 318.825 186.878C320.13 186.319 321.656 185.911 323.403 185.655C324.219 185.538 325.128 185.41 326.13 185.27C327.132 185.107 328.134 184.932 329.136 184.746C330.138 184.536 331.035 184.315 331.827 184.082C332.643 183.825 333.283 183.546 333.749 183.243V188.94C333.749 190.828 333.272 192.517 332.316 194.008C331.361 195.5 330.044 196.688 328.367 197.573ZM383.721 154.442V165.627H373.62V191.632C373.62 193.006 373.829 194.078 374.249 194.847C374.668 195.593 375.251 196.117 375.996 196.42C376.765 196.723 377.651 196.874 378.653 196.874C379.352 196.874 380.051 196.816 380.75 196.7C381.449 196.56 381.985 196.455 382.358 196.385L384.699 207.465C383.954 207.698 382.905 207.966 381.554 208.269C380.202 208.595 378.56 208.793 376.625 208.863C373.037 209.003 369.891 208.525 367.188 207.43C364.509 206.335 362.423 204.634 360.932 202.327C359.441 200.02 358.707 197.107 358.73 193.589V165.627H351.39V154.442H358.73V141.58H373.62V154.442H383.721ZM398.093 205.717C402.055 208.024 406.75 209.178 412.179 209.178C417.608 209.178 422.292 208.024 426.23 205.717C430.191 203.387 433.244 200.148 435.387 196.001C437.531 191.83 438.603 186.995 438.603 181.495C438.603 175.95 437.531 171.103 435.387 166.955C433.244 162.784 430.191 159.545 426.23 157.238C422.292 154.908 417.608 153.743 412.179 153.743C406.75 153.743 402.055 154.908 398.093 157.238C394.155 159.545 391.114 162.784 388.971 166.955C386.827 171.103 385.755 175.95 385.755 181.495C385.755 186.995 386.827 191.83 388.971 196.001C391.114 200.148 394.155 203.387 398.093 205.717ZM418.436 195.546C416.781 196.944 414.719 197.643 412.249 197.643C409.756 197.643 407.659 196.944 405.958 195.546C404.28 194.125 403.01 192.191 402.148 189.744C401.309 187.297 400.889 184.513 400.889 181.39C400.889 178.268 401.309 175.484 402.148 173.037C403.01 170.59 404.28 168.656 405.958 167.235C407.659 165.813 409.756 165.103 412.249 165.103C414.719 165.103 416.781 165.813 418.436 167.235C420.09 168.656 421.337 170.59 422.175 173.037C423.038 175.484 423.469 178.268 423.469 181.39C423.469 184.513 423.038 187.297 422.175 189.744C421.337 192.191 420.09 194.125 418.436 195.546ZM443.364 154.442H457.799V163.809H458.358C459.337 160.477 460.98 157.961 463.286 156.26C465.593 154.535 468.25 153.673 471.256 153.673C472.001 153.673 472.805 153.72 473.667 153.813C474.529 153.906 475.287 154.034 475.939 154.198V167.41C475.24 167.2 474.273 167.013 473.038 166.85C471.803 166.687 470.673 166.606 469.648 166.606C467.457 166.606 465.5 167.083 463.776 168.039C462.075 168.971 460.723 170.276 459.721 171.953C458.743 173.631 458.253 175.565 458.253 177.755V208.129H443.364V154.442ZM509.754 170.59L523.385 169.751C522.733 164.811 520.449 160.908 516.535 158.042C512.643 155.176 507.307 153.743 500.527 153.743C495.936 153.743 491.928 154.419 488.503 155.77C485.101 157.122 482.456 159.044 480.569 161.538C478.705 164.031 477.772 167.002 477.772 170.45C477.772 174.458 479.042 177.755 481.582 180.342C484.145 182.928 488.048 184.746 493.291 185.794L502.589 187.647C504.919 188.113 506.643 188.789 507.762 189.674C508.88 190.536 509.451 191.643 509.474 192.995C509.451 194.602 508.635 195.919 507.028 196.944C505.443 197.946 503.346 198.447 500.736 198.447C498.08 198.447 495.901 197.888 494.2 196.77C492.499 195.628 491.427 193.973 490.985 191.806L476.339 192.575C477.062 197.702 479.52 201.756 483.714 204.739C487.932 207.698 493.594 209.178 500.701 209.178C505.362 209.178 509.474 208.444 513.039 206.976C516.628 205.484 519.447 203.41 521.498 200.754C523.572 198.098 524.609 195.01 524.609 191.492C524.609 187.624 523.327 184.501 520.764 182.124C518.201 179.748 514.309 178.023 509.09 176.952L499.373 174.994C496.88 174.458 495.121 173.748 494.095 172.862C493.07 171.977 492.557 170.893 492.557 169.612C492.557 168.004 493.35 166.722 494.934 165.767C496.519 164.788 498.464 164.299 500.771 164.299C502.495 164.299 503.975 164.59 505.21 165.173C506.468 165.732 507.482 166.489 508.251 167.444C509.02 168.377 509.521 169.425 509.754 170.59Z" fill="black"/>
</svg>
