<svg width="46" height="31" viewBox="0 0 46 31" fill="none" xmlns="http://www.w3.org/2000/svg">
<path d="M13.3499 10.5752C13.0195 9.96171 12.5225 9.45438 11.9163 9.11186L11.1465 8.69179C11.1465 8.69179 12.0361 7.34849 13.1517 7.71316C14.2672 8.07784 13.9169 10.5106 13.6864 11.4384" fill="#4D4D4D"/>
<path d="M16.4839 13.372C16.4003 12.0006 15.9601 10.6751 15.207 9.52669C15.5809 9.27234 16.0374 9.17001 16.4839 9.24048C16.7085 9.2824 16.9202 9.37649 17.102 9.51518C17.2837 9.65387 17.4304 9.83331 17.5303 10.0391C17.6702 10.4114 17.7146 10.813 17.6594 11.207C17.6558 11.3857 17.6263 11.563 17.5718 11.7332C17.5339 11.8399 17.4845 11.942 17.4243 12.0379C17.3475 12.1641 17.2645 12.2841 17.1754 12.3979C16.9449 12.7165 16.7144 13.0581 16.4839 13.372Z" fill="#999999"/>
<path d="M9.58843 8.13867C10.5235 8.18661 11.42 8.5273 12.1514 9.11269C12.8752 9.65278 13.7233 10.7745 13.6865 11.4208C13.6496 12.067 12.1007 15.2984 11.9947 17.1402C11.8887 18.9821 12.2649 20.6508 12.5719 21.6156C13.0542 22.3611 15.5978 24.203 15.5978 24.203C15.5978 24.203 14.7329 24.203 13.5366 23.7645C12.8897 23.619 12.0848 23.1703 11.6509 22.6681C9.24927 20.3323 9.36126 18.5782 9.37048 15.3007C9.37048 12.9187 9.94988 11.6793 10.0282 10.7838C10.1066 9.88823 10.5436 9.53394 10.1646 8.62337L9.58843 8.13867Z" fill="#1A1A1A"/>
<path d="M13.837 10.3808C13.6886 11.3424 13.3964 12.276 12.9704 13.1505C12.5737 14.0732 12.235 15.0198 11.9562 15.9848C11.5841 17.4626 11.6888 19.3137 11.9562 20.3425C12.4703 22.3208 13.5276 23.837 15.5962 24.2016C14.5983 23.4065 13.8952 22.341 13.5604 21.1088C13.3663 20.4737 13.3002 19.8063 13.3659 19.1454C13.4316 18.4845 13.6277 17.8432 13.943 17.2589C14.118 16.9304 14.3104 16.6114 14.5192 16.3034L16.294 13.5336C16.3836 13.4111 16.4507 13.2735 16.4922 13.1274C16.5208 12.9749 16.5208 12.8183 16.4922 12.6658C16.2439 11.2843 15.6614 9.98465 14.7958 8.88054C14.2887 8.23427 13.5881 7.65234 12.7676 7.65234C13.1406 7.67875 13.4874 7.8959 13.625 8.2435C13.9018 8.89596 13.8907 9.68428 13.837 10.3808Z" fill="#808080"/>
<path d="M19.1389 14.6854C19.1389 14.9837 19.3759 15.2884 19.5041 15.4638C19.7785 15.8393 20.3338 16.3409 20.3338 16.4978C20.3246 16.5948 20.2805 16.641 20.1626 16.7274C20.0147 16.8357 19.7638 16.9825 19.7638 16.9825C19.7638 16.9825 19.8089 17.1549 19.9104 17.2755C20.0182 17.4035 20.1722 17.5565 19.9881 17.735C19.8039 17.9135 19.72 17.9635 19.72 17.9635C19.72 17.9635 19.8008 18.0279 19.8728 18.1273C19.9448 18.2268 19.9541 18.3189 19.9604 18.4228C19.942 18.649 19.6516 18.7413 19.5455 18.9444C19.4991 19.0584 19.4848 19.3347 19.5041 19.4562C19.5394 19.8123 19.3911 19.904 19.2413 20.0286C19.0915 20.1533 18.9278 20.1651 18.7573 20.1533C18.2978 20.1533 17.2507 20.0258 16.6173 20.3535C15.6226 20.8682 15.7072 23.1537 15.5977 24.2017C13.9498 23.6516 13.1933 20.5947 13.1934 19.4562C13.1935 18.3177 13.4763 17.5226 13.9816 16.6865C14.9343 15.3171 15.8562 13.9322 16.7474 12.532C17.2853 11.7229 17.5062 10.9173 17.4834 9.94922C17.4834 9.94922 18.2505 10.9018 18.6098 11.4102C18.943 11.8617 19.3358 12.9625 19.3911 13.5452C19.4336 13.9937 19.1389 14.3871 19.1389 14.6854Z" fill="#CCCCCC"/>
<path d="M15.597 24.2013C12.5272 24.0697 8.49283 22.184 7.48411 17.7109C6.4754 13.2378 7.60972 10.1404 8.05421 9.29105C8.49869 8.4417 9.23826 7.97684 9.96571 8.19694C11.2933 8.59855 9.69865 12.01 9.54517 14.0711C9.39168 16.1322 9.54516 18.2372 10.5538 20.4737C11.5624 22.7103 13.2727 24.1017 15.597 24.2013Z" fill="black"/>
<path d="M23.9183 12.4648L25.7322 17.9508H25.8037L27.6141 12.4648H29.0026L26.5455 19.4345H24.9869L22.5332 12.4648H23.9183Z" fill="black"/>
<path d="M30.6359 19.54C30.3047 19.54 30.0063 19.4811 29.7409 19.3631C29.4777 19.2428 29.269 19.0659 29.1147 18.8322C28.9627 18.5985 28.8867 18.3104 28.8867 17.9678C28.8867 17.6728 28.9411 17.4289 29.05 17.2361C29.1589 17.0432 29.3076 16.889 29.4959 16.7733C29.6842 16.6576 29.8963 16.5702 30.1323 16.5112C30.3705 16.45 30.6166 16.4057 30.8707 16.3785C31.177 16.3467 31.4255 16.3184 31.616 16.2934C31.8066 16.2662 31.945 16.2254 32.0312 16.1709C32.1197 16.1142 32.1639 16.0268 32.1639 15.9089V15.8884C32.1639 15.6321 32.0879 15.4335 31.9359 15.2929C31.7839 15.1522 31.565 15.0819 31.2791 15.0819C30.9774 15.0819 30.738 15.1477 30.5611 15.2793C30.3864 15.4109 30.2684 15.5663 30.2071 15.7455L29.0569 15.5822C29.1476 15.2645 29.2973 14.9991 29.5061 14.7858C29.7148 14.5703 29.97 14.4092 30.2718 14.3026C30.5735 14.1937 30.907 14.1392 31.2723 14.1392C31.5242 14.1392 31.7749 14.1687 32.0244 14.2277C32.274 14.2867 32.502 14.3842 32.7085 14.5204C32.9149 14.6542 33.0805 14.8369 33.2053 15.0683C33.3324 15.2997 33.3959 15.589 33.3959 15.9361V19.4345H32.2116V18.7165H32.1708C32.0959 18.8617 31.9904 18.9978 31.8543 19.1249C31.7204 19.2496 31.5514 19.3506 31.3472 19.4277C31.1453 19.5026 30.9082 19.54 30.6359 19.54ZM30.9558 18.6348C31.2031 18.6348 31.4175 18.586 31.599 18.4885C31.7805 18.3886 31.9201 18.257 32.0176 18.0937C32.1174 17.9303 32.1674 17.7522 32.1674 17.5594V16.9434C32.1288 16.9752 32.063 17.0047 31.97 17.0319C31.8792 17.0591 31.7771 17.083 31.6637 17.1034C31.5502 17.1238 31.4379 17.1419 31.3268 17.1578C31.2156 17.1737 31.1192 17.1873 31.0375 17.1987C30.8537 17.2236 30.6892 17.2645 30.544 17.3212C30.3988 17.3779 30.2843 17.4573 30.2003 17.5594C30.1164 17.6592 30.0744 17.7885 30.0744 17.9474C30.0744 18.1742 30.1572 18.3455 30.3228 18.4612C30.4885 18.5769 30.6994 18.6348 30.9558 18.6348Z" fill="black"/>
<path d="M36.7231 19.5366C36.2013 19.5366 35.7532 19.4221 35.3789 19.1929C35.0068 18.9638 34.7198 18.6473 34.5179 18.2434C34.3182 17.8373 34.2184 17.37 34.2184 16.8413C34.2184 16.3104 34.3205 15.8419 34.5247 15.4358C34.7289 15.0274 35.017 14.7098 35.3891 14.4829C35.7634 14.2538 36.2058 14.1392 36.7163 14.1392C37.1406 14.1392 37.5161 14.2175 37.8428 14.374C38.1717 14.5283 38.4338 14.7472 38.6289 15.0308C38.824 15.3122 38.9352 15.6411 38.9624 16.0178H37.7849C37.7373 15.7659 37.6238 15.5561 37.4446 15.3882C37.2676 15.218 37.0305 15.1329 36.7333 15.1329C36.4815 15.1329 36.2603 15.201 36.0697 15.3371C35.8791 15.471 35.7305 15.6638 35.6239 15.9157C35.5195 16.1675 35.4673 16.4692 35.4673 16.8209C35.4673 17.1771 35.5195 17.4834 35.6239 17.7398C35.7283 17.9939 35.8746 18.1901 36.0629 18.3285C36.2535 18.4646 36.477 18.5327 36.7333 18.5327C36.9148 18.5327 37.077 18.4987 37.22 18.4306C37.3652 18.3603 37.4866 18.2593 37.5841 18.1277C37.6817 17.9961 37.7486 17.8362 37.7849 17.6479H38.9624C38.9329 18.0177 38.824 18.3455 38.6357 18.6314C38.4474 18.915 38.191 19.1373 37.8666 19.2984C37.5421 19.4572 37.161 19.5366 36.7231 19.5366Z" fill="black"/>
</svg>
