<svg width="148" height="117" viewBox="0 0 148 117" fill="none" xmlns="http://www.w3.org/2000/svg">
<rect width="148" height="116" transform="translate(0 0.945312)" fill="white"/>
<path d="M87.623 49.9863L91.1553 60.9067H91.2945L94.8201 49.9863H97.524L92.7392 63.8603H89.7039L84.9258 49.9863H87.623Z" fill="black"/>
<path d="M100.705 64.0703C100.059 64.0703 99.4785 63.9529 98.9616 63.718C98.4491 63.4787 98.0426 63.1264 97.7422 62.6612C97.4462 62.1961 97.2982 61.6225 97.2982 60.9405C97.2982 60.3534 97.4042 59.8679 97.6163 59.484C97.8283 59.1002 98.1177 58.7931 98.4844 58.5627C98.8511 58.3324 99.2642 58.1585 99.7237 58.0411C100.188 57.9192 100.667 57.8311 101.162 57.7769C101.758 57.7137 102.242 57.6572 102.613 57.6075C102.984 57.5533 103.254 57.472 103.422 57.3637C103.594 57.2507 103.68 57.0769 103.68 56.842V56.8014C103.68 56.291 103.532 55.8959 103.236 55.6159C102.94 55.3359 102.514 55.1958 101.957 55.1958C101.369 55.1958 100.903 55.3268 100.559 55.5888C100.219 55.8507 99.9888 56.1601 99.8695 56.5169L97.6295 56.1917C97.8063 55.5594 98.0978 55.031 98.5043 54.6065C98.9108 54.1774 99.4078 53.8568 99.9954 53.6445C100.583 53.4277 101.232 53.3193 101.944 53.3193C102.434 53.3193 102.922 53.378 103.408 53.4955C103.894 53.6129 104.338 53.8071 104.74 54.0781C105.142 54.3445 105.465 54.7081 105.708 55.1687C105.955 55.6294 106.079 56.2052 106.079 56.8962V63.8603H103.773V62.4309H103.693C103.548 62.7199 103.342 62.9909 103.077 63.2438C102.816 63.4922 102.487 63.6932 102.09 63.8468C101.696 63.9958 101.235 64.0703 100.705 64.0703ZM101.327 62.2683C101.809 62.2683 102.227 62.1712 102.58 61.977C102.933 61.7783 103.205 61.5164 103.395 61.1912C103.59 60.866 103.687 60.5115 103.687 60.1276V58.9014C103.612 58.9647 103.484 59.0234 103.302 59.0776C103.126 59.1318 102.927 59.1792 102.706 59.2198C102.485 59.2605 102.266 59.2966 102.05 59.3282C101.833 59.3598 101.646 59.3869 101.487 59.4095C101.129 59.4592 100.808 59.5405 100.526 59.6534C100.243 59.7663 100.02 59.9244 99.8562 60.1276C99.6928 60.3263 99.611 60.5838 99.611 60.8999C99.611 61.3515 99.7723 61.6925 100.095 61.9228C100.417 62.1532 100.828 62.2683 101.327 62.2683Z" fill="black"/>
<path d="M112.558 64.0635C111.542 64.0635 110.67 63.8355 109.941 63.3793C109.216 62.9232 108.657 62.2932 108.264 61.4893C107.875 60.6809 107.681 59.7505 107.681 58.6982C107.681 57.6414 107.88 56.7088 108.277 55.9004C108.675 55.0875 109.236 54.4552 109.961 54.0035C110.689 53.5474 111.551 53.3193 112.545 53.3193C113.371 53.3193 114.102 53.4751 114.739 53.7868C115.379 54.0939 115.89 54.5297 116.27 55.0942C116.649 55.6542 116.866 56.3091 116.919 57.0588H114.626C114.533 56.5575 114.312 56.1397 113.963 55.8055C113.619 55.4668 113.157 55.2975 112.578 55.2975C112.088 55.2975 111.657 55.4329 111.286 55.7039C110.915 55.9704 110.625 56.3543 110.418 56.8556C110.215 57.3569 110.113 57.9575 110.113 58.6576C110.113 59.3666 110.215 59.9763 110.418 60.4867C110.621 60.9925 110.906 61.3831 111.273 61.6586C111.644 61.9296 112.079 62.0651 112.578 62.0651C112.932 62.0651 113.248 61.9973 113.526 61.8619C113.809 61.7219 114.045 61.5209 114.235 61.2589C114.425 60.997 114.555 60.6786 114.626 60.3037H116.919C116.862 61.0399 116.649 61.6925 116.283 62.2615C115.916 62.8261 115.417 63.2687 114.785 63.5893C114.153 63.9055 113.411 64.0635 112.558 64.0635Z" fill="black"/>
<path d="M51.6196 38.2545C50.3421 35.8824 48.4202 33.9208 46.0762 32.5963L43.0996 30.9721C43.0996 30.9721 46.5396 25.7779 50.8531 27.188C55.1666 28.5981 53.8119 38.0047 52.9207 41.5924" fill="#4D4D4D"/>
<path d="M63.74 49.0708C63.4167 43.7684 61.7147 38.6428 58.8027 34.2024C60.2484 33.2189 62.0136 32.8233 63.74 33.0958C64.6086 33.2578 65.4271 33.6216 66.1298 34.1579C66.8324 34.6942 67.3997 35.388 67.7861 36.1837C68.3272 37.6234 68.4988 39.1761 68.2852 40.6995C68.2713 41.3906 68.1572 42.0761 67.9466 42.7343C67.8001 43.1467 67.6088 43.5418 67.3762 43.9124C67.0791 44.4003 66.7582 44.8643 66.4136 45.3046C65.5224 46.5362 64.6312 47.8571 63.74 49.0708Z" fill="#999999"/>
<path d="M37.0742 28.832C40.6899 29.0174 44.1563 30.3347 46.9845 32.5982C49.7829 34.6866 53.0625 39.0239 52.9199 41.5228C52.7773 44.0217 46.7884 56.5162 46.3785 63.638C45.9685 70.7598 47.4232 77.2124 48.6101 80.9429C50.4754 83.8256 60.3103 90.9474 60.3103 90.9474C60.3103 90.9474 56.966 90.9474 52.3406 89.2517C49.839 88.6893 46.7267 86.9542 45.0492 85.0126C35.7628 75.9808 36.1958 69.1981 36.2315 56.5252C36.2315 47.315 38.4718 42.5225 38.7748 39.0597C39.0779 35.597 40.7676 34.2271 39.3023 30.7062L37.0742 28.832Z" fill="#1A1A1A"/>
<path d="M53.5084 37.5031C52.9344 41.2212 51.8048 44.8315 50.1574 48.2127C48.6236 51.7804 47.3139 55.4407 46.2361 59.1721C44.7973 64.886 45.2021 72.0436 46.2359 76.0217C48.2237 83.6712 52.3122 89.5339 60.3107 90.9437C56.4521 87.8693 53.7334 83.7494 52.4389 78.9847C51.6885 76.529 51.4328 73.9484 51.6868 71.3929C51.9408 68.8374 52.6993 66.3579 53.9183 64.0985C54.595 62.8282 55.3387 61.5948 56.1463 60.4037L63.0087 49.6942C63.3553 49.2203 63.6148 48.6884 63.7751 48.1234C63.8857 47.5336 63.8857 46.9283 63.7751 46.3385C62.8149 40.9965 60.5629 35.9714 57.2158 31.7021C55.2551 29.2032 52.5459 26.9531 49.3732 26.9531C50.8155 27.0552 52.1566 27.8949 52.6885 29.2389C53.7588 31.7618 53.7159 34.8099 53.5084 37.5031Z" fill="#808080"/>
<path d="M74.0031 54.1492C74.0031 55.3027 74.9193 56.4808 75.415 57.1591C76.4762 58.6111 78.6234 60.5504 78.6234 61.1572C78.5877 61.5321 78.4171 61.7109 77.9614 62.0447C77.3896 62.4636 76.4194 63.0314 76.4194 63.0314C76.4194 63.0314 76.5938 63.6979 76.9864 64.1643C77.4029 64.6591 77.9985 65.2506 77.2865 65.9408C76.5746 66.6311 76.2498 66.8244 76.2498 66.8244C76.2498 66.8244 76.5625 67.0735 76.8409 67.458C77.1194 67.8426 77.1551 68.1987 77.1796 68.6004C77.1083 69.475 75.9854 69.832 75.5754 70.6173C75.396 71.058 75.3405 72.1263 75.415 72.5964C75.5516 73.9732 74.9781 74.3278 74.399 74.8097C73.82 75.2916 73.1869 75.3372 72.5274 75.2916C70.751 75.2916 66.7021 74.7986 64.2529 76.0658C60.4067 78.0558 60.734 86.8932 60.3105 90.9454C53.9386 88.8185 51.0133 76.9985 51.0137 72.5964C51.014 68.1943 52.1078 65.1196 54.0616 61.8868C57.7453 56.5916 61.3101 51.2368 64.7561 45.8225C66.8358 42.694 67.69 39.5792 67.6019 35.8359C67.6019 35.8359 70.5679 39.5194 71.9571 41.4852C73.2457 43.2309 74.7643 47.4872 74.9781 49.7405C75.1426 51.4746 74.0031 52.9958 74.0031 54.1492Z" fill="#CCCCCC"/>
<path d="M60.3106 90.9453C48.4409 90.4366 32.8413 83.145 28.9409 65.8491C25.0406 48.5532 29.4266 36.5765 31.1453 33.2923C32.864 30.0082 35.7236 28.2107 38.5364 29.0618C43.6698 30.6146 37.5038 43.8055 36.9103 51.7752C36.3168 59.7448 36.9103 67.8841 40.8104 76.532C44.7104 85.18 51.3236 90.5601 60.3106 90.9453Z" fill="black"/>
</svg>
