<svg width="400" height="400" viewBox="0 0 400 400" fill="none" xmlns="http://www.w3.org/2000/svg">
<g clip-path="url(#clip0_1045_33788)">
<rect width="400" height="400" fill="black"/>
<path d="M195.245 128.653C190.845 120.473 184.225 113.709 176.152 109.142L165.9 103.541C165.9 103.541 177.748 85.6299 192.605 90.4922C207.461 95.3546 202.796 127.791 199.726 140.162" fill="#4D4D4D"/>
<path d="M236.99 165.95C235.877 147.666 230.015 129.991 219.985 114.68C224.965 111.288 231.044 109.924 236.99 110.863C239.982 111.422 242.801 112.677 245.221 114.526C247.641 116.375 249.595 118.768 250.926 121.512C252.79 126.476 253.381 131.83 252.645 137.083C252.597 139.467 252.204 141.83 251.479 144.1C250.974 145.522 250.315 146.884 249.514 148.162C248.491 149.845 247.386 151.445 246.199 152.963C243.129 157.21 240.06 161.765 236.99 165.95Z" fill="#999999"/>
<path d="M145.148 96.1611C157.601 96.8003 169.54 101.343 179.281 109.148C188.919 116.349 200.215 131.306 199.724 139.923C199.233 148.539 178.605 191.624 177.193 216.182C175.781 240.74 180.792 262.99 184.88 275.854C191.304 285.794 225.178 310.352 225.178 310.352C225.178 310.352 213.659 310.352 197.728 304.505C189.112 302.566 178.393 296.582 172.615 289.887C140.631 258.743 142.122 235.355 142.245 191.655C142.245 159.896 149.961 143.37 151.005 131.429C152.049 119.489 157.868 114.765 152.821 102.624L145.148 96.1611Z" fill="#1A1A1A"/>
<path d="M201.75 126.061C199.774 138.882 195.883 151.332 190.209 162.991C184.926 175.294 180.415 187.915 176.703 200.782C171.748 220.485 173.142 245.167 176.702 258.884C183.549 285.262 197.63 305.478 225.179 310.339C211.889 299.738 202.525 285.531 198.067 269.101C195.482 260.633 194.602 251.735 195.476 242.923C196.351 234.111 198.964 225.561 203.162 217.77C205.493 213.389 208.055 209.136 210.836 205.029L234.471 168.099C235.665 166.466 236.559 164.631 237.111 162.683C237.492 160.649 237.492 158.562 237.111 156.528C233.804 138.108 226.048 120.779 214.519 106.058C207.767 97.4412 198.435 89.6821 187.508 89.6821C192.475 90.0342 197.095 92.9296 198.926 97.5642C202.613 106.264 202.465 116.775 201.75 126.061Z" fill="#808080"/>
<path d="M272.339 183.462C272.339 187.439 275.494 191.502 277.202 193.841C280.856 198.847 288.252 205.535 288.252 207.627C288.129 208.92 287.541 209.536 285.972 210.688C284.002 212.132 280.661 214.09 280.661 214.09C280.661 214.09 281.262 216.388 282.614 217.997C284.048 219.703 286.1 221.742 283.647 224.122C281.195 226.503 280.077 227.169 280.077 227.169C280.077 227.169 281.154 228.028 282.113 229.354C283.072 230.68 283.195 231.908 283.279 233.293C283.034 236.309 279.166 237.54 277.754 240.248C277.136 241.768 276.945 245.452 277.202 247.073C277.672 251.82 275.697 253.043 273.702 254.705C271.708 256.366 269.527 256.524 267.256 256.367C261.138 256.367 247.193 254.667 238.757 259.036C225.51 265.898 226.637 296.372 225.178 310.345C203.232 303.011 193.157 262.252 193.158 247.073C193.159 231.893 196.926 221.291 203.656 210.143C216.343 191.884 228.621 173.419 240.49 154.749C247.653 143.961 250.595 133.22 250.291 120.312C250.291 120.312 260.507 133.014 265.292 139.793C269.73 145.812 274.96 160.489 275.697 168.259C276.263 174.239 272.339 179.484 272.339 183.462Z" fill="#CCCCCC"/>
<path d="M225.179 310.345C184.297 308.591 130.568 283.447 117.135 223.806C103.701 164.165 118.807 122.866 124.727 111.541C130.646 100.217 140.496 94.0186 150.184 96.9534C167.864 102.308 146.627 147.794 144.583 175.275C142.539 202.757 144.583 230.823 158.016 260.644C171.448 290.464 194.225 309.017 225.179 310.345Z" fill="black"/>
</g>
<defs>
<clipPath id="clip0_1045_33788">
<rect width="400" height="400" fill="white"/>
</clipPath>
</defs>
</svg>
