<svg width="106" height="117" viewBox="0 0 106 117" fill="none" xmlns="http://www.w3.org/2000/svg">
<path d="M51.6196 38.2545C50.3421 35.8824 48.4202 33.9208 46.0762 32.5963L43.0996 30.9721C43.0996 30.9721 46.5396 25.7779 50.8531 27.188C55.1666 28.5981 53.8119 38.0047 52.9207 41.5924" fill="#4D4D4D"/>
<path d="M63.74 49.0708C63.4167 43.7684 61.7147 38.6428 58.8027 34.2024C60.2484 33.2189 62.0136 32.8233 63.74 33.0958C64.6086 33.2578 65.4271 33.6216 66.1298 34.1579C66.8324 34.6942 67.3997 35.388 67.7861 36.1837C68.3272 37.6234 68.4988 39.1761 68.2852 40.6995C68.2713 41.3906 68.1572 42.0761 67.9466 42.7343C67.8001 43.1467 67.6088 43.5418 67.3762 43.9124C67.0791 44.4003 66.7582 44.8643 66.4136 45.3046C65.5224 46.5362 64.6312 47.8571 63.74 49.0708Z" fill="#999999"/>
<path d="M37.0742 28.832C40.6899 29.0174 44.1563 30.3347 46.9845 32.5982C49.7829 34.6866 53.0625 39.0239 52.9199 41.5228C52.7773 44.0217 46.7884 56.5162 46.3785 63.638C45.9685 70.7598 47.4232 77.2124 48.6101 80.9429C50.4754 83.8256 60.3103 90.9474 60.3103 90.9474C60.3103 90.9474 56.966 90.9474 52.3406 89.2517C49.839 88.6893 46.7267 86.9542 45.0492 85.0126C35.7628 75.9808 36.1958 69.1981 36.2315 56.5252C36.2315 47.315 38.4718 42.5225 38.7748 39.0597C39.0779 35.597 40.7676 34.2271 39.3023 30.7062L37.0742 28.832Z" fill="#1A1A1A"/>
<path d="M53.5084 37.5031C52.9344 41.2212 51.8048 44.8315 50.1574 48.2127C48.6236 51.7804 47.3139 55.4407 46.2361 59.1721C44.7973 64.886 45.2021 72.0436 46.2359 76.0217C48.2237 83.6712 52.3122 89.5339 60.3107 90.9437C56.4521 87.8693 53.7334 83.7494 52.4389 78.9847C51.6885 76.529 51.4328 73.9484 51.6868 71.3929C51.9408 68.8374 52.6993 66.3579 53.9183 64.0985C54.595 62.8282 55.3387 61.5948 56.1463 60.4037L63.0087 49.6942C63.3553 49.2203 63.6148 48.6884 63.7751 48.1234C63.8857 47.5336 63.8857 46.9283 63.7751 46.3385C62.8149 40.9965 60.5629 35.9714 57.2158 31.7021C55.2551 29.2032 52.5459 26.9531 49.3732 26.9531C50.8155 27.0552 52.1566 27.8949 52.6885 29.2389C53.7588 31.7618 53.7159 34.8099 53.5084 37.5031Z" fill="#808080"/>
<path d="M74.0031 54.1492C74.0031 55.3027 74.9193 56.4808 75.415 57.1591C76.4762 58.6111 78.6234 60.5504 78.6234 61.1572C78.5877 61.5321 78.4171 61.7109 77.9614 62.0447C77.3896 62.4636 76.4194 63.0314 76.4194 63.0314C76.4194 63.0314 76.5938 63.6979 76.9864 64.1643C77.4029 64.6591 77.9985 65.2506 77.2865 65.9408C76.5746 66.6311 76.2498 66.8244 76.2498 66.8244C76.2498 66.8244 76.5625 67.0735 76.8409 67.458C77.1194 67.8426 77.1551 68.1987 77.1796 68.6004C77.1083 69.475 75.9854 69.832 75.5754 70.6173C75.396 71.058 75.3405 72.1263 75.415 72.5964C75.5516 73.9732 74.9781 74.3278 74.399 74.8097C73.82 75.2916 73.1869 75.3372 72.5274 75.2916C70.751 75.2916 66.7021 74.7986 64.2529 76.0658C60.4067 78.0558 60.734 86.8932 60.3105 90.9454C53.9386 88.8185 51.0133 76.9985 51.0137 72.5964C51.014 68.1943 52.1078 65.1196 54.0616 61.8868C57.7453 56.5916 61.3101 51.2368 64.7561 45.8225C66.8358 42.694 67.69 39.5792 67.6019 35.8359C67.6019 35.8359 70.5679 39.5194 71.9571 41.4852C73.2457 43.2309 74.7643 47.4872 74.9781 49.7405C75.1426 51.4746 74.0031 52.9958 74.0031 54.1492Z" fill="#CCCCCC"/>
<path d="M60.3106 90.9453C48.4409 90.4366 32.8413 83.145 28.9409 65.8491C25.0406 48.5532 29.4266 36.5765 31.1453 33.2923C32.864 30.0082 35.7236 28.2107 38.5364 29.0618C43.6698 30.6146 37.5038 43.8055 36.9103 51.7752C36.3168 59.7448 36.9103 67.8841 40.8104 76.532C44.7104 85.18 51.3236 90.5601 60.3106 90.9453Z" fill="black"/>
</svg>
