<svg width="35" height="43" viewBox="0 0 35 43" fill="none" xmlns="http://www.w3.org/2000/svg">
<path d="M17.198 12.9831C16.8456 12.3287 16.3154 11.7875 15.6688 11.4222L14.8477 10.9741C14.8477 10.9741 15.7966 9.54125 16.9865 9.93024C18.1765 10.3192 17.8028 12.9141 17.5569 13.9038" fill="#4D4D4D"/>
<path d="M20.5397 15.9672C20.4506 14.5045 19.981 13.0905 19.1777 11.8656C19.5765 11.5943 20.0635 11.4851 20.5397 11.5603C20.7793 11.605 21.0051 11.7054 21.199 11.8533C21.3928 12.0012 21.5493 12.1926 21.6559 12.4121C21.8052 12.8093 21.8525 13.2376 21.7936 13.6579C21.7898 13.8485 21.7583 14.0376 21.7002 14.2192C21.6598 14.333 21.607 14.442 21.5428 14.5442C21.4609 14.6788 21.3724 14.8068 21.2773 14.9283C21.0314 15.268 20.7856 15.6324 20.5397 15.9672Z" fill="#999999"/>
<path d="M13.1852 10.3828C14.1827 10.4339 15.1389 10.7973 15.9191 11.4218C16.691 11.9979 17.5958 13.1944 17.5564 13.8837C17.5171 14.5731 15.865 18.0198 15.7519 19.9845C15.6388 21.9491 16.0401 23.7291 16.3675 24.7582C16.8821 25.5534 19.5952 27.5181 19.5952 27.5181C19.5952 27.5181 18.6726 27.5181 17.3966 27.0503C16.7065 26.8952 15.848 26.4165 15.3852 25.8809C12.8234 23.3894 12.9429 21.5183 12.9527 18.0223C12.9527 15.4816 13.5708 14.1595 13.6543 13.2042C13.7379 12.249 14.2041 11.8711 13.7998 10.8998L13.1852 10.3828Z" fill="#1A1A1A"/>
<path d="M17.7187 12.7756C17.5604 13.8012 17.2487 14.7972 16.7943 15.7299C16.3712 16.7141 16.0099 17.7239 15.7126 18.7532C15.3157 20.3295 15.4273 22.304 15.7125 23.4014C16.2609 25.5116 17.3887 27.1289 19.5952 27.5178C18.5308 26.6697 17.7808 25.5332 17.4237 24.2188C17.2167 23.5413 17.1461 22.8295 17.2162 22.1245C17.2863 21.4195 17.4955 20.7355 17.8318 20.1122C18.0185 19.7618 18.2236 19.4216 18.4464 19.093L20.3395 16.1386C20.4351 16.0079 20.5067 15.8612 20.5509 15.7053C20.5814 15.5426 20.5814 15.3756 20.5509 15.2129C20.286 13.7393 19.6648 12.353 18.7414 11.1753C18.2006 10.486 17.4532 9.86523 16.578 9.86523C16.9758 9.8934 17.3458 10.125 17.4925 10.4958C17.7878 11.1918 17.7759 12.0326 17.7187 12.7756Z" fill="#808080"/>
<path d="M23.3712 17.3684C23.3712 17.6865 23.624 18.0115 23.7607 18.1986C24.0534 18.5992 24.6458 19.1342 24.6458 19.3016C24.6359 19.405 24.5889 19.4543 24.4632 19.5464C24.3054 19.662 24.0378 19.8186 24.0378 19.8186C24.0378 19.8186 24.0859 20.0025 24.1942 20.1311C24.3091 20.2676 24.4734 20.4308 24.277 20.6212C24.0806 20.8116 23.991 20.865 23.991 20.865C23.991 20.865 24.0772 20.9337 24.1541 21.0397C24.2309 21.1458 24.2407 21.2441 24.2475 21.3549C24.2278 21.5961 23.918 21.6946 23.805 21.9113C23.7555 22.0328 23.7402 22.3275 23.7607 22.4572C23.7984 22.837 23.6402 22.9348 23.4804 23.0678C23.3207 23.2007 23.146 23.2133 22.9641 23.2007C22.4741 23.2007 21.3572 23.0647 20.6815 23.4143C19.6205 23.9633 19.7108 26.4012 19.5939 27.519C17.8362 26.9323 17.0292 23.6716 17.0293 22.4572C17.0294 21.2428 17.3311 20.3947 17.8701 19.5029C18.8863 18.0421 19.8697 16.5649 20.8203 15.0713C21.394 14.2083 21.6297 13.349 21.6054 12.3164C21.6054 12.3164 22.4236 13.3325 22.8068 13.8748C23.1623 14.3564 23.5812 15.5305 23.6402 16.1521C23.6856 16.6305 23.3712 17.0502 23.3712 17.3684Z" fill="#CCCCCC"/>
<path d="M19.5946 27.518C16.3202 27.3776 12.0168 25.3662 10.9409 20.5949C9.86491 15.8236 11.0748 12.5197 11.549 11.6137C12.0231 10.7077 12.812 10.2119 13.5879 10.4467C15.004 10.875 13.303 14.5139 13.1393 16.7124C12.9756 18.911 13.1393 21.1563 14.2152 23.5419C15.2911 25.9275 17.1154 27.4117 19.5946 27.518Z" fill="black"/>
<path d="M10.5567 29.377L12.4213 34.9396H12.4948L14.3559 29.377H15.7832L13.2574 36.4441H11.6551L9.13281 29.377H10.5567Z" fill="white"/>
<path d="M17.4622 36.5511C17.1217 36.5511 16.815 36.4913 16.5421 36.3716C16.2716 36.2497 16.057 36.0703 15.8984 35.8333C15.7422 35.5964 15.664 35.3042 15.664 34.9568C15.664 34.6578 15.72 34.4105 15.832 34.2149C15.9439 34.0194 16.0967 33.8629 16.2902 33.7456C16.4838 33.6283 16.7019 33.5397 16.9444 33.4799C17.1893 33.4178 17.4424 33.3729 17.7036 33.3453C18.0184 33.3131 18.2738 33.2844 18.4697 33.2591C18.6656 33.2314 18.8079 33.19 18.8965 33.1348C18.9875 33.0773 19.033 32.9887 19.033 32.8691V32.8484C19.033 32.5885 18.9548 32.3872 18.7986 32.2445C18.6423 32.1019 18.4173 32.0306 18.1234 32.0306C17.8132 32.0306 17.5671 32.0973 17.3852 32.2307C17.2057 32.3642 17.0844 32.5217 17.0214 32.7035L15.839 32.5378C15.9322 32.2158 16.0862 31.9466 16.3007 31.7304C16.5153 31.5118 16.7777 31.3485 17.0879 31.2404C17.3981 31.1299 17.7409 31.0747 18.1164 31.0747C18.3753 31.0747 18.633 31.1046 18.8895 31.1644C19.1461 31.2243 19.3805 31.3232 19.5927 31.4612C19.8049 31.5969 19.9752 31.7821 20.1035 32.0168C20.2341 32.2514 20.2994 32.5447 20.2994 32.8967V36.4441H19.0819V35.716H19.04C18.963 35.8632 18.8546 36.0013 18.7146 36.1301C18.577 36.2566 18.4033 36.359 18.1934 36.4372C17.9858 36.5131 17.7421 36.5511 17.4622 36.5511ZM17.791 35.6332C18.0453 35.6332 18.2657 35.5837 18.4522 35.4848C18.6388 35.3836 18.7823 35.2501 18.8825 35.0845C18.9852 34.9189 19.0365 34.7383 19.0365 34.5427V33.9181C18.9968 33.9504 18.9292 33.9803 18.8336 34.0079C18.7403 34.0355 18.6353 34.0596 18.5187 34.0803C18.4021 34.101 18.2867 34.1194 18.1724 34.1355C18.0581 34.1516 17.959 34.1655 17.875 34.177C17.6861 34.2023 17.517 34.2437 17.3677 34.3012C17.2185 34.3587 17.1007 34.4392 17.0144 34.5427C16.9281 34.644 16.885 34.7751 16.885 34.9361C16.885 35.1662 16.9701 35.3399 17.1403 35.4572C17.3106 35.5745 17.5275 35.6332 17.791 35.6332Z" fill="white"/>
<path d="M23.7197 36.5476C23.1833 36.5476 22.7226 36.4314 22.3378 36.1991C21.9553 35.9667 21.6603 35.6458 21.4527 35.2363C21.2475 34.8245 21.1449 34.3506 21.1449 33.8146C21.1449 33.2763 21.2498 32.8013 21.4597 32.3895C21.6696 31.9754 21.9658 31.6533 22.3483 31.4233C22.7331 31.1909 23.1879 31.0747 23.7127 31.0747C24.1488 31.0747 24.5348 31.1541 24.8706 31.3128C25.2088 31.4693 25.4782 31.6913 25.6788 31.9788C25.8793 32.2641 25.9936 32.5977 26.0216 32.9795H24.8112C24.7622 32.7242 24.6456 32.5114 24.4613 32.3412C24.2794 32.1686 24.0357 32.0823 23.7302 32.0823C23.4713 32.0823 23.2439 32.1514 23.048 32.2894C22.8521 32.4251 22.6993 32.6207 22.5897 32.876C22.4824 33.1314 22.4288 33.4373 22.4288 33.7939C22.4288 34.1551 22.4824 34.4657 22.5897 34.7256C22.697 34.9833 22.8474 35.1823 23.041 35.3226C23.2369 35.4606 23.4666 35.5296 23.7302 35.5296C23.9167 35.5296 24.0835 35.4951 24.2304 35.4261C24.3797 35.3548 24.5045 35.2524 24.6048 35.119C24.705 34.9856 24.7738 34.8234 24.8112 34.6325H26.0216C25.9913 35.0074 25.8793 35.3399 25.6858 35.6297C25.4922 35.9173 25.2286 36.1427 24.8951 36.3061C24.5616 36.4671 24.1698 36.5476 23.7197 36.5476Z" fill="white"/>
</svg>
