<svg width="107" height="139" viewBox="0 0 107 139" fill="none" xmlns="http://www.w3.org/2000/svg">
<path d="M52.6157 38.2545C51.3381 35.8824 49.4163 33.9208 47.0723 32.5963L44.0957 30.9721C44.0957 30.9721 47.5357 25.7779 51.8492 27.188C56.1626 28.5981 54.808 38.0047 53.9168 41.5924" fill="#4D4D4D"/>
<path d="M64.7361 49.0708C64.4128 43.7684 62.7108 38.6428 59.7988 34.2024C61.2445 33.2189 63.0097 32.8233 64.7361 33.0958C65.6047 33.2578 66.4232 33.6216 67.1259 34.1579C67.8285 34.6942 68.3958 35.388 68.7822 36.1837C69.3233 37.6234 69.4949 39.1761 69.2813 40.6995C69.2674 41.3906 69.1533 42.0761 68.9427 42.7343C68.7962 43.1467 68.6049 43.5418 68.3723 43.9124C68.0752 44.4003 67.7543 44.8643 67.4097 45.3046C66.5185 46.5362 65.6273 47.8571 64.7361 49.0708Z" fill="#999999"/>
<path d="M38.0703 28.832C41.686 29.0174 45.1524 30.3347 47.9806 32.5982C50.779 34.6866 54.0586 39.0239 53.916 41.5228C53.7734 44.0217 47.7845 56.5162 47.3746 63.638C46.9646 70.7598 48.4192 77.2124 49.6062 80.9429C51.4715 83.8256 61.3064 90.9474 61.3064 90.9474C61.3064 90.9474 57.9621 90.9474 53.3367 89.2517C50.8351 88.6893 47.7228 86.9542 46.0453 85.0126C36.7589 75.9808 37.1919 69.1981 37.2276 56.5252C37.2276 47.315 39.4679 42.5225 39.7709 39.0597C40.074 35.597 41.7637 34.2271 40.2983 30.7062L38.0703 28.832Z" fill="#1A1A1A"/>
<path d="M54.5045 37.5031C53.9305 41.2212 52.8009 44.8315 51.1535 48.2127C49.6197 51.7804 48.31 55.4407 47.2322 59.1721C45.7934 64.886 46.1982 72.0436 47.232 76.0217C49.2198 83.6712 53.3082 89.5339 61.3068 90.9437C57.4482 87.8693 54.7295 83.7494 53.435 78.9847C52.6846 76.529 52.4289 73.9484 52.6829 71.3929C52.9369 68.8374 53.6954 66.3579 54.9144 64.0985C55.5911 62.8282 56.3348 61.5948 57.1424 60.4037L64.0048 49.6942C64.3514 49.2203 64.6109 48.6884 64.7712 48.1234C64.8818 47.5336 64.8818 46.9283 64.7712 46.3385C63.811 40.9965 61.559 35.9714 58.2119 31.7021C56.2512 29.2032 53.542 26.9531 50.3693 26.9531C51.8116 27.0552 53.1527 27.8949 53.6846 29.2389C54.7549 31.7618 54.712 34.8099 54.5045 37.5031Z" fill="#808080"/>
<path d="M74.9992 54.1492C74.9992 55.3027 75.9154 56.4808 76.4111 57.1591C77.4723 58.6111 79.6194 60.5504 79.6194 61.1572C79.5838 61.5321 79.4132 61.7109 78.9575 62.0447C78.3857 62.4636 77.4155 63.0314 77.4155 63.0314C77.4155 63.0314 77.5899 63.6979 77.9825 64.1643C78.399 64.6591 78.9946 65.2506 78.2826 65.9408C77.5707 66.6311 77.2459 66.8244 77.2459 66.8244C77.2459 66.8244 77.5586 67.0735 77.837 67.458C78.1155 67.8426 78.1512 68.1987 78.1757 68.6004C78.1044 69.475 76.9815 69.832 76.5715 70.6173C76.3921 71.058 76.3366 72.1263 76.4111 72.5964C76.5477 73.9732 75.9742 74.3278 75.3951 74.8097C74.8161 75.2916 74.183 75.3372 73.5235 75.2916C71.7471 75.2916 67.6982 74.7986 65.249 76.0658C61.4028 78.0558 61.7301 86.8932 61.3066 90.9454C54.9347 88.8185 52.0094 76.9985 52.0098 72.5964C52.0101 68.1943 53.1039 65.1196 55.0577 61.8868C58.7414 56.5916 62.3062 51.2368 65.7522 45.8225C67.8319 42.694 68.6861 39.5792 68.598 35.8359C68.598 35.8359 71.564 39.5194 72.9532 41.4852C74.2418 43.2309 75.7604 47.4872 75.9742 49.7405C76.1387 51.4746 74.9992 52.9958 74.9992 54.1492Z" fill="#CCCCCC"/>
<path d="M61.3067 90.9453C49.437 90.4366 33.8374 83.145 29.937 65.8491C26.0367 48.5532 30.4227 36.5765 32.1414 33.2923C33.86 30.0082 36.7197 28.2107 39.5325 29.0618C44.6659 30.6146 38.4999 43.8055 37.9064 51.7752C37.3129 59.7448 37.9064 67.8841 41.8065 76.532C45.7065 85.18 52.3197 90.5601 61.3067 90.9453Z" fill="black"/>
<path d="M39.8591 97.8906L43.6136 109.091H43.7616L47.509 97.8906H50.383L45.2972 112.121H42.071L36.9922 97.8906H39.8591Z" fill="white"/>
<path d="M53.7637 112.336C53.078 112.336 52.4605 112.216 51.9111 111.975C51.3663 111.729 50.9343 111.368 50.615 110.891C50.3003 110.414 50.143 109.825 50.143 109.126C50.143 108.524 50.2557 108.026 50.4811 107.632C50.7065 107.238 51.0141 106.923 51.4039 106.687C51.7937 106.451 52.2328 106.272 52.7211 106.152C53.2142 106.027 53.7238 105.937 54.2497 105.881C54.8837 105.816 55.3979 105.758 55.7924 105.707C56.1868 105.652 56.4733 105.568 56.6517 105.457C56.8349 105.341 56.9265 105.163 56.9265 104.922V104.881C56.9265 104.357 56.7691 103.952 56.4545 103.665C56.1399 103.377 55.6867 103.234 55.095 103.234C54.4704 103.234 53.975 103.368 53.6087 103.637C53.2471 103.905 53.0029 104.223 52.8761 104.589L50.4952 104.255C50.6831 103.607 50.993 103.065 51.425 102.629C51.8571 102.189 52.3854 101.86 53.01 101.643C53.6345 101.42 54.3248 101.309 55.0809 101.309C55.6022 101.309 56.1211 101.369 56.6377 101.49C57.1542 101.61 57.6262 101.809 58.0535 102.087C58.4809 102.361 58.8237 102.734 59.082 103.206C59.3449 103.678 59.4764 104.269 59.4764 104.978V112.121H57.0251V110.654H56.9405C56.7856 110.951 56.5672 111.229 56.2854 111.488C56.0084 111.743 55.6585 111.949 55.2359 112.107C54.8179 112.26 54.3272 112.336 53.7637 112.336ZM54.4258 110.488C54.9377 110.488 55.3815 110.388 55.7571 110.189C56.1328 109.985 56.4216 109.716 56.6236 109.383C56.8302 109.049 56.9335 108.686 56.9335 108.292V107.034C56.8537 107.099 56.7175 107.16 56.525 107.215C56.3371 107.271 56.1258 107.319 55.891 107.361C55.6562 107.403 55.4237 107.44 55.1936 107.472C54.9635 107.505 54.7639 107.532 54.5949 107.556C54.2145 107.607 53.874 107.69 53.5735 107.806C53.2729 107.922 53.0358 108.084 52.862 108.292C52.6883 108.496 52.6014 108.76 52.6014 109.084C52.6014 109.547 52.7728 109.897 53.1156 110.133C53.4584 110.37 53.8952 110.488 54.4258 110.488Z" fill="white"/>
<path d="M66.3633 112.329C65.2832 112.329 64.3557 112.095 63.5809 111.627C62.8107 111.159 62.2167 110.513 61.7987 109.689C61.3855 108.86 61.1788 107.905 61.1788 106.826C61.1788 105.742 61.3902 104.786 61.8128 103.956C62.2354 103.123 62.8319 102.474 63.602 102.011C64.3769 101.543 65.2926 101.309 66.3492 101.309C67.2274 101.309 68.0046 101.469 68.6808 101.789C69.3617 102.104 69.9041 102.551 70.308 103.13C70.7118 103.704 70.9419 104.376 70.9983 105.145H68.561C68.4624 104.63 68.2276 104.202 67.8566 103.859C67.4903 103.512 66.9996 103.338 66.3844 103.338C65.8632 103.338 65.4053 103.477 65.0108 103.755C64.6164 104.028 64.3088 104.422 64.088 104.936C63.872 105.45 63.764 106.066 63.764 106.784C63.764 107.512 63.872 108.137 64.088 108.66C64.3041 109.179 64.607 109.58 64.9967 109.862C65.3912 110.14 65.8538 110.279 66.3844 110.279C66.7601 110.279 67.0959 110.21 67.3917 110.071C67.6923 109.927 67.9435 109.721 68.1454 109.452C68.3474 109.184 68.4859 108.857 68.561 108.473H70.9983C70.9372 109.228 70.7118 109.897 70.3221 110.481C69.9323 111.06 69.4016 111.514 68.7301 111.843C68.0586 112.167 67.2696 112.329 66.3633 112.329Z" fill="white"/>
</svg>
