<svg width="34" height="43" viewBox="0 0 34 43" fill="none" xmlns="http://www.w3.org/2000/svg">
<path d="M16.6316 12.9831C16.2792 12.3287 15.749 11.7875 15.1024 11.4222L14.2812 10.9741C14.2812 10.9741 15.2302 9.54125 16.4201 9.93024C17.6101 10.3192 17.2364 12.9141 16.9905 13.9038" fill="#4D4D4D"/>
<path d="M19.9733 15.9672C19.8842 14.5045 19.4146 13.0905 18.6113 11.8656C19.0101 11.5943 19.4971 11.4851 19.9733 11.5603C20.2129 11.605 20.4387 11.7054 20.6326 11.8533C20.8264 12.0012 20.9829 12.1926 21.0895 12.4121C21.2388 12.8093 21.2861 13.2376 21.2272 13.6579C21.2233 13.8485 21.1919 14.0376 21.1338 14.2192C21.0933 14.333 21.0406 14.442 20.9764 14.5442C20.8945 14.6788 20.806 14.8068 20.7109 14.9283C20.465 15.268 20.2192 15.6324 19.9733 15.9672Z" fill="#999999"/>
<path d="M12.6188 10.3828C13.6162 10.4339 14.5725 10.7973 15.3527 11.4218C16.1246 11.9979 17.0294 13.1944 16.99 13.8837C16.9507 14.5731 15.2986 18.0198 15.1855 19.9845C15.0724 21.9491 15.4737 23.7291 15.8011 24.7582C16.3157 25.5534 19.0288 27.5181 19.0288 27.5181C19.0288 27.5181 18.1062 27.5181 16.8302 27.0503C16.1401 26.8952 15.2816 26.4165 14.8188 25.8809C12.257 23.3894 12.3765 21.5183 12.3863 18.0223C12.3863 15.4816 13.0044 14.1595 13.0879 13.2042C13.1715 12.249 13.6377 11.8711 13.2334 10.8998L12.6188 10.3828Z" fill="#1A1A1A"/>
<path d="M17.1523 12.7756C16.994 13.8012 16.6823 14.7972 16.2279 15.7299C15.8048 16.7141 15.4435 17.7239 15.1461 18.7532C14.7493 20.3295 14.8609 22.304 15.1461 23.4014C15.6945 25.5116 16.8223 27.1289 19.0288 27.5178C17.9643 26.6697 17.2144 25.5332 16.8573 24.2188C16.6503 23.5413 16.5797 22.8295 16.6498 22.1245C16.7199 21.4195 16.9291 20.7355 17.2654 20.1122C17.4521 19.7618 17.6572 19.4216 17.88 19.093L19.7731 16.1386C19.8687 16.0079 19.9403 15.8612 19.9845 15.7053C20.015 15.5426 20.015 15.3756 19.9845 15.2129C19.7196 13.7393 19.0984 12.353 18.175 11.1753C17.6342 10.486 16.8868 9.86523 16.0116 9.86523C16.4094 9.8934 16.7794 10.125 16.9261 10.4958C17.2214 11.1918 17.2095 12.0326 17.1523 12.7756Z" fill="#808080"/>
<path d="M22.8048 17.3684C22.8048 17.6865 23.0576 18.0115 23.1943 18.1986C23.487 18.5992 24.0794 19.1342 24.0794 19.3016C24.0695 19.405 24.0225 19.4543 23.8967 19.5464C23.739 19.662 23.4714 19.8186 23.4714 19.8186C23.4714 19.8186 23.5195 20.0025 23.6278 20.1311C23.7427 20.2676 23.907 20.4308 23.7106 20.6212C23.5142 20.8116 23.4246 20.865 23.4246 20.865C23.4246 20.865 23.5108 20.9337 23.5877 21.0397C23.6645 21.1458 23.6743 21.2441 23.6811 21.3549C23.6614 21.5961 23.3516 21.6946 23.2385 21.9113C23.1891 22.0328 23.1737 22.3275 23.1943 22.4572C23.232 22.837 23.0738 22.9348 22.914 23.0678C22.7543 23.2007 22.5796 23.2133 22.3977 23.2007C21.9077 23.2007 20.7907 23.0647 20.1151 23.4143C19.0541 23.9633 19.1443 26.4012 19.0275 27.519C17.2698 26.9323 16.4628 23.6716 16.4629 22.4572C16.463 21.2428 16.7647 20.3947 17.3037 19.5029C18.3199 18.0421 19.3033 16.5649 20.2539 15.0713C20.8276 14.2083 21.0632 13.349 21.0389 12.3164C21.0389 12.3164 21.8572 13.3325 22.2404 13.8748C22.5959 14.3564 23.0148 15.5305 23.0738 16.1521C23.1191 16.6305 22.8048 17.0502 22.8048 17.3684Z" fill="#CCCCCC"/>
<path d="M19.0282 27.518C15.7538 27.3776 11.4504 25.3662 10.3745 20.5949C9.2985 15.8236 10.5084 12.5197 10.9826 11.6137C11.4567 10.7077 12.2455 10.2119 13.0215 10.4467C14.4376 10.875 12.7366 14.5139 12.5729 16.7124C12.4092 18.911 12.5729 21.1563 13.6488 23.5419C14.7247 25.9275 16.549 27.4117 19.0282 27.518Z" fill="black"/>
<path d="M9.99024 29.377L11.8549 34.9396H11.9283L13.7895 29.377H15.2168L12.691 36.4441H11.0887L8.56641 29.377H9.99024Z" fill="black"/>
<path d="M16.8958 36.5511C16.5553 36.5511 16.2486 36.4913 15.9757 36.3716C15.7052 36.2497 15.4906 36.0703 15.332 35.8333C15.1758 35.5964 15.0976 35.3042 15.0976 34.9568C15.0976 34.6578 15.1536 34.4105 15.2656 34.2149C15.3775 34.0194 15.5303 33.8629 15.7238 33.7456C15.9174 33.6283 16.1355 33.5397 16.378 33.4799C16.6229 33.4178 16.876 33.3729 17.1372 33.3453C17.452 33.3131 17.7074 33.2844 17.9033 33.2591C18.0992 33.2314 18.2415 33.19 18.3301 33.1348C18.4211 33.0773 18.4666 32.9887 18.4666 32.8691V32.8484C18.4666 32.5885 18.3884 32.3872 18.2322 32.2445C18.0759 32.1019 17.8508 32.0306 17.557 32.0306C17.2468 32.0306 17.0007 32.0973 16.8188 32.2307C16.6392 32.3642 16.518 32.5217 16.455 32.7035L15.2725 32.5378C15.3658 32.2158 15.5198 31.9466 15.7343 31.7304C15.9489 31.5118 16.2113 31.3485 16.5215 31.2404C16.8317 31.1299 17.1745 31.0747 17.55 31.0747C17.8089 31.0747 18.0666 31.1046 18.3231 31.1644C18.5797 31.2243 18.8141 31.3232 19.0263 31.4612C19.2385 31.5969 19.4088 31.7821 19.5371 32.0168C19.6677 32.2514 19.733 32.5447 19.733 32.8967V36.4441H18.5155V35.716H18.4736C18.3966 35.8632 18.2881 36.0013 18.1482 36.1301C18.0106 36.2566 17.8369 36.359 17.627 36.4372C17.4194 36.5131 17.1757 36.5511 16.8958 36.5511ZM17.2246 35.6332C17.4789 35.6332 17.6993 35.5837 17.8858 35.4848C18.0724 35.3836 18.2158 35.2501 18.3161 35.0845C18.4188 34.9189 18.4701 34.7383 18.4701 34.5427V33.9181C18.4304 33.9504 18.3628 33.9803 18.2672 34.0079C18.1739 34.0355 18.0689 34.0596 17.9523 34.0803C17.8357 34.101 17.7202 34.1194 17.606 34.1355C17.4917 34.1516 17.3926 34.1655 17.3086 34.177C17.1197 34.2023 16.9506 34.2437 16.8013 34.3012C16.6521 34.3587 16.5343 34.4392 16.448 34.5427C16.3617 34.644 16.3186 34.7751 16.3186 34.9361C16.3186 35.1662 16.4037 35.3399 16.5739 35.4572C16.7442 35.5745 16.9611 35.6332 17.2246 35.6332Z" fill="black"/>
<path d="M23.1533 36.5476C22.6168 36.5476 22.1562 36.4314 21.7714 36.1991C21.3889 35.9667 21.0939 35.6458 20.8863 35.2363C20.6811 34.8245 20.5785 34.3506 20.5785 33.8146C20.5785 33.2763 20.6834 32.8013 20.8933 32.3895C21.1032 31.9754 21.3994 31.6533 21.7819 31.4233C22.1667 31.1909 22.6215 31.0747 23.1463 31.0747C23.5824 31.0747 23.9684 31.1541 24.3042 31.3128C24.6424 31.4693 24.9118 31.6913 25.1124 31.9788C25.3129 32.2641 25.4272 32.5977 25.4552 32.9795H24.2448C24.1958 32.7242 24.0792 32.5114 23.8949 32.3412C23.713 32.1686 23.4693 32.0823 23.1638 32.0823C22.9049 32.0823 22.6775 32.1514 22.4816 32.2894C22.2857 32.4251 22.1329 32.6207 22.0233 32.876C21.916 33.1314 21.8624 33.4373 21.8624 33.7939C21.8624 34.1551 21.916 34.4657 22.0233 34.7256C22.1306 34.9833 22.281 35.1823 22.4746 35.3226C22.6705 35.4606 22.9002 35.5296 23.1638 35.5296C23.3503 35.5296 23.5171 35.4951 23.664 35.4261C23.8133 35.3548 23.9381 35.2524 24.0384 35.119C24.1386 34.9856 24.2074 34.8234 24.2448 34.6325H25.4552C25.4249 35.0074 25.3129 35.3399 25.1194 35.6297C24.9258 35.9173 24.6622 36.1427 24.3287 36.3061C23.9952 36.4671 23.6034 36.5476 23.1533 36.5476Z" fill="black"/>
</svg>
